<?xml version="1.0" standalone="no"?> <!DOCTYPE svg PUBLIC "-//W3C//DTD SVG 1.0//EN" "http://www.w3.org/TR/2001/REC-SVG-20010904/DTD/svg10.dtd" > <svg xmlns="http://www.w3.org/2000/svg" width="100%" height="100%">
<defs >
<font horiz-adv-x="553" ><font-face
    font-family=""
    units-per-em="1000"
    panose-1="2 2 6 3 9 3 8 9 3 3"
    ascent="747"
    descent="-253"
    alphabetic="0" />
<missing-glyph horiz-adv-x="1000" />
<glyph unicode=" " glyph-name="space" horiz-adv-x="167" />
<glyph unicode="!" glyph-name="exclam" horiz-adv-x="267" d="M37 49Q37 73 53 89T94 106Q118 106 134 90T151 49Q151 25 135 9T94 -8Q69 -8 53 8T37 49ZM115 156Q122 197 130 256T146 377T162 492T176 578Q183 608 199 623T246 638Q271 638 282 625T293 591Q293
570 280 533T246 447Q230 408 214 368T181 290T151 218T125 156H115Z" />
<glyph unicode="&quot;" glyph-name="quotedbl" horiz-adv-x="248" d="M108 396Q109 426 110 456T113 512T116 560T121 592Q126 617 139 627T170 638Q209 639 209 599Q209 587 201 567T180 520T149 462T114 396H108ZM231 396Q233 426 234 456T236 512T240 560T245
592Q250 617 263 627T294 638Q333 638 333 599Q333 587 325 567T303 520T272 462T238 396H231Z" />
<glyph unicode="#" glyph-name="numbersign" horiz-adv-x="532" d="M289 630H317Q272 481 225 326T133 22H104L289 630ZM461 630H488L304 22H276L461 630ZM48 268H146L138 244H41L48 268ZM95 431H194L187 408H88L95 431ZM454 431H553L546 408H447L454 431ZM406
268H505L497 244H399L406 268ZM235 268H320L312 244H228L235 268ZM283 431H368L360 408H276L283 431Z" />
<glyph unicode="$" glyph-name="dollar" horiz-adv-x="377" d="M237 335L254 317Q293 275 318 241T344 162Q344 122 325 91T276 39T208 5T132 -8L134 0Q153 1 173 7T210 25T236 54T247 94Q247 132 232 157T191 208L91 -78H72L178 222Q173 227 168 232T158 243Q131
272 110 305T89 382Q89 416 103 444T143 493T202 526T275 542L273 534Q259 532 243 527T214 510T191 481T182 436Q182 412 195 390T223 350L317 616H336L237 335ZM83 -7Q21 1 -20 21L19 162H26Q26 92 41 54T85 1L83 -7ZM323 540Q355 537 377 529T416 513L380 393H372Q376
441 363 480T321 534L323 540Z" />
<glyph unicode="%" glyph-name="percent" horiz-adv-x="558" d="M63 410Q63 444 75 476T109 535T160 578T223 600L221 590Q213 588 206 584Q191 573 179 553T157 508Q145 476 137 439T129 377Q129 351 132 342T145 325L142 315Q108 319 86 346T63 410ZM44 -8L30
2L535 600L548 587L44 -8ZM318 505Q318 471 306 439T272 380T221 336T158 314L161 324Q168 326 178 333Q195 344 207 368T229 422Q239 452 245 484T252 538Q252 561 250 572T236 590L239 600Q274 596 296 569T318 505ZM262 88Q262 122 274 154T308 213T359 256T422
278L420 268Q412 266 405 262Q390 251 378 231T356 186Q344 154 336 117T328 55Q328 29 331 20T344 3L341 -7Q307 -3 285 24T262 88ZM517 183Q517 149 505 117T471 58T420 14T357 -8L360 2Q369 5 378 11Q394 22 406 46T428 100Q438 130 444 162T451 216Q451 239
449 250T435 268L438 278Q473 274 495 247T517 183Z" />
<glyph unicode="&amp;" glyph-name="ampersand" horiz-adv-x="774" d="M82 259Q82 218 96 181T135 114T198 68T280 50Q377 50 450 103T560 280L569 277Q558 207 533 148T469 46T379 -21T265 -45Q209 -45 165 -27T91 22T45 96T29 188Q29 225 36 256T55 311T81 352T108
381L112 377Q106 367 101 357T91 333T85 301T82 259ZM183 418Q167 418 156 413T134 400L129 405Q135 412 146 420T171 434T200 445T231 450Q275 450 299 432T336 384L143 206L138 214L247 350Q243 378 229 398T183 418ZM388 278Q388 304 396 328T420 372T459 404T511
416Q543 416 569 403T625 375Q659 358 684 346T733 334Q759 334 775 344T800 381H808Q804 321 773 289T696 256Q666 256 638 269T575 302Q545 319 519 332T474 345Q446 345 425 330T396 277L388 278ZM409 488Q403 488 396 491T382 500T371 514T366 533Q366 559
382 571T416 583Q436 583 451 572T466 537Q466 520 458 504T431 471L367 412L363 418Q377 436 390 455T409 488Z" />
<glyph unicode="&apos;" glyph-name="quotesingle" horiz-adv-x="125" d="M108 396Q109 426 110 456T113 512T116 560T121 592Q126 617 139 627T170 638Q209 639 209 599Q209 587 201 567T180 520T149 462T114 396H108Z" />
<glyph unicode="(" glyph-name="parenleft" horiz-adv-x="284" d="M36 106Q36 187 61 265T132 412T240 539T377 638L382 631Q313 588 261 527T175 393T123 241T105 85Q105 -19 130 -95T194 -213L188 -220Q160 -196 133 -163T85 -87T50 4T36 106Z" />
<glyph unicode=")" glyph-name="parenright" horiz-adv-x="284" d="M260 312Q260 231 236 153T167 6T59 -121T-80 -220L-85 -213Q-17 -170 35 -109T122 25T174 177T192 333Q192 437 166 513T102 631L109 638Q137 614 164 581T212 505T247 414T260 312Z" />
<glyph unicode="*" glyph-name="asterisk" horiz-adv-x="285" d="M260 524L388 508V500L260 481L309 362L302 359L224 462L143 359L137 362L187 481L59 500V508L187 524L137 644L143 648L224 544L302 648L309 644L260 524Z" />
<glyph unicode="+" glyph-name="plus" horiz-adv-x="363" d="M163 237V378H195V237H338V205H195V62H163V205H22V237H163Z" />
<glyph unicode="," glyph-name="comma" horiz-adv-x="224" d="M12 48Q12 64 18 77T35 98T58 110T82 115Q118 115 137 94T156 24Q156 -3 140 -30T98 -80T37 -120T-36 -144L-39 -137Q-15 -130 9 -117T54 -87T86 -48T99 -2Q94 -4 87 -6T70 -8Q50 -8 31 6T12 48Z" />
<glyph unicode="-" glyph-name="hyphen" horiz-adv-x="277" d="M41 222L59 280H254L236 222H41Z" />
<glyph unicode="." glyph-name="period" horiz-adv-x="202" d="M13 54Q13 80 31 97T75 115Q101 115 118 98T136 54Q136 28 119 10T75 -8Q49 -8 31 10T13 54Z" />
<glyph unicode="/" glyph-name="slash" horiz-adv-x="288" d="M-89 -145L341 633L361 624L-70 -154L-89 -145Z" />
<glyph unicode="0" glyph-name="zero" horiz-adv-x="469" d="M24 148Q24 197 43 246T97 337T181 405T290 438L288 431Q248 424 217 386T163 297T130 188T118 86Q118 51 130 28T163 -1L161 -8Q131 -6 106 8T62 45T34 95T24 148ZM445 282Q445 233 426 184T372 93T288
25T178 -8L180 -1Q207 4 230 23T272 70T305 134T330 205T345 278T350 344Q350 379 338 402T306 431L308 438Q338 436 363 422T406 385T435 335T445 282Z" />
<glyph unicode="1" glyph-name="one" horiz-adv-x="302" d="M138 325Q139 328 141 334T145 347T148 360T150 371Q150 417 100 422L103 430H339L336 422Q303 416 280 398T241 334L159 101Q157 95 153 79T148 54Q147 31 161 21T198 8L195 0H-41L-38 8Q-20 11 -6
16T19 32T40 57T57 96L138 325Z" />
<glyph unicode="2" glyph-name="two" horiz-adv-x="367" d="M52 88H192Q240 88 276 111T339 176H346L274 0H-64L52 88ZM84 115Q112 135 139 155T188 196T223 243T237 298Q237 327 220 344T169 362Q137 362 110 353T53 316L49 320Q81 376 127 407T234 438Q262 438
283 429T318 406T339 373T347 337Q347 300 326 268T268 209T186 157T89 111L84 115Z" />
<glyph unicode="3" glyph-name="three" horiz-adv-x="326" d="M160 208Q181 225 196 246T211 302Q211 332 193 349T145 366Q116 366 92 360T46 337L41 343Q56 367 76 385T117 415T161 432T202 438Q258 438 284 410T311 346Q311 316 299 294T267 254T221 225T164
202L160 208ZM153 -4Q153 39 119 65T35 104L36 110L118 177Q152 171 178 157T222 123T248 80T257 33Q257 -55 193 -114T7 -186L10 -177Q49 -168 76 -152T121 -114T145 -63T153 -4ZM-49 -73Q-27 -73 -12 -88T3 -125Q3 -147 -12 -162T-49 -177Q-70 -177 -85 -162T-100
-125Q-100 -103 -85 -88T-49 -73Z" />
<glyph unicode="4" glyph-name="four" horiz-adv-x="496" d="M222 -155H114L289 330L398 438H434L222 -155ZM351 118H478L450 34H324L351 118ZM149 34H-52L-50 38L39 118H180L149 34Z" />
<glyph unicode="5" glyph-name="five" horiz-adv-x="309" d="M136 430L334 440L297 352L98 342L136 430ZM-52 -165Q-7 -159 28 -138T89 -87T127 -19T141 59Q141 85 131 107T104 148T67 183T26 213L80 310Q105 296 133 274T186 224T227 165T243 102Q243 51 218
3T152 -82T58 -144T-51 -173L-52 -165Z" />
<glyph unicode="6" glyph-name="six" horiz-adv-x="445" d="M533 610Q481 596 417 562T291 471Q257 439 227 399T173 309T135 203T120 83Q120 70 122 57T128 32T138 12T154 2L151 -8Q121 -7 97 5T57 39T32 87T23 147Q23 215 44 274T103 382T190 470T296 540T413
590T532 620L533 610ZM221 334Q234 349 258 361T312 373Q343 373 365 363T401 335T421 295T428 249Q428 199 409 155T355 76T275 19T176 -8L179 2Q207 6 233 33T278 99T310 181T322 259Q322 300 309 319T261 339Q250 339 240 337T223 331L221 334Z" />
<glyph unicode="7" glyph-name="seven" horiz-adv-x="381" d="M376 340H176Q156 340 137 338T99 325Q82 317 70 306T43 277L36 280L98 430H441L376 340ZM27 -167H-63L335 303H346L27 -167Z" />
<glyph unicode="8" glyph-name="eight" horiz-adv-x="437" d="M326 370Q379 401 397 439T416 524Q416 563 400 584T348 605Q298 605 269 572T240 479Q240 446 259 412T307 334Q336 292 359 250T383 169Q383 124 366 91T319 36T252 3T172 -8Q133 -8 103 3T53 32T23
73T12 120Q12 151 25 175T61 219T110 252T165 275L168 268Q127 246 106 213T85 117Q85 98 89 78T104 42T131 16T172 5Q196 5 217 11T253 30T277 64T286 115Q286 153 262 192T210 271Q182 312 162 349T142 426Q142 466 157 501T199 561T264 602T347 617Q415 617
450 588T486 517Q486 487 472 464T436 421T387 388T331 363L326 370Z" />
<glyph unicode="9" glyph-name="nine" horiz-adv-x="451" d="M-79 -171Q-11 -155 55 -121T178 -30Q211 2 239 43T289 133T322 238T334 356Q334 382 326 403T300 428L303 438Q366 435 398 392T431 283Q431 216 409 158T350 52T262 -36T156 -104T39 -152T-78 -181L-79
-171ZM252 103Q237 82 210 67T145 51Q117 51 96 62T60 93T39 135T31 183Q31 239 51 284T106 362T186 414T279 438L276 428Q245 423 219 398T174 337T143 262T132 186Q132 146 149 120T196 94Q217 94 229 97T249 106L252 103Z" />
<glyph unicode=":" glyph-name="colon" horiz-adv-x="202" d="M-5 52Q-5 80 13 97T59 115Q85 115 103 97T121 52Q121 26 104 8T59 -10Q31 -10 13 8T-5 52ZM86 375Q86 403 104 420T149 438Q175 438 193 420T211 375Q211 349 194 331T149 313Q121 313 104 331T86 375Z" />
<glyph unicode=";" glyph-name="semicolon" horiz-adv-x="223" d="M85 375Q85 403 103 420T148 438Q175 438 193 420T211 375Q211 349 194 331T148 313Q120 313 103 331T85 375ZM-4 48Q-4 64 2 77T19 98T42 110T66 115Q102 115 121 94T140 24Q140 -3 124 -30T82
-80T21 -120T-52 -144L-55 -137Q-31 -130 -7 -117T37 -87T70 -48T83 -2Q78 -4 71 -6T54 -8Q34 -8 15 6T-4 48Z" />
<glyph unicode="&lt;" glyph-name="less" horiz-adv-x="367" d="M84 221L322 129V97L44 205V238L322 346V314L84 221Z" />
<glyph unicode="=" glyph-name="equal" horiz-adv-x="388" d="M348 157V125H32V157H348ZM348 317V285H32V317H348Z" />
<glyph unicode="&gt;" glyph-name="greater" horiz-adv-x="367" d="M47 314V346L324 238V205L47 97V129L284 221L47 314Z" />
<glyph unicode="?" glyph-name="question" horiz-adv-x="326" d="M187 169Q169 169 151 175T119 193T95 225T86 272Q86 295 97 316T126 358T166 397T212 435Q235 454 254 469T288 498T309 525T317 554Q317 580 301 601T244 633L246 639Q278 634 304 622T350 591T379
551T390 506Q390 469 359 437T284 370Q264 354 245 338T210 306T185 272T175 238Q175 213 189 202T220 190Q242 190 256 197T281 213L285 209Q273 195 248 182T187 169ZM54 51Q54 75 71 91T114 108Q139 108 155 92T172 51Q172 26 156 9T114 -8Q88 -8 71 9T54 51ZM135
581Q135 602 150 616T186 631Q207 631 222 617T237 581Q237 560 222 546T186 531Q165 531 150 545T135 581Z" />
<glyph unicode="@" glyph-name="at" horiz-adv-x="797" d="M355 310Q341 293 331 269T313 219T301 167T297 120Q297 70 325 70Q345 70 361 88T391 124L398 121Q384 98 368 77T329 36Q309 17 287 6T246 -6Q226 -6 211 10T196 53Q196 79 209 112T243 181T291 252T349
315L355 310ZM383 341Q396 355 408 367T434 387Q448 395 462 399T494 404Q499 405 504 405T515 403Q517 405 524 414T533 424Q538 429 545 433T560 438Q581 438 592 432T595 400L494 52Q500 49 511 47T540 44Q597 44 640 67T712 126T756 207T771 294Q771 354 752
403T694 487T594 542T451 562Q368 562 297 529T175 440T94 311T64 158Q64 84 87 21T155 -88T264 -161T412 -188Q463 -188 508 -178T591 -153T660 -119T712 -84L719 -93Q700 -110 669 -129T597 -164T509 -192T409 -203Q220 -203 120 -110T19 155Q19 242 55 318T151
452T289 543T451 576Q536 576 599 555T704 496T766 406T787 294Q787 240 764 187T702 90T608 21T491 -6Q477 -6 460 -5T427 -1T403 6T395 18L493 361Q491 362 479 362T450 358T416 350T387 338Q386 338 385 339L383 341Z" />
<glyph unicode="A" glyph-name="A" horiz-adv-x="601" d="M339 278L312 500L389 639H420L478 131Q485 69 504 41T572 8L569 0H268L271 8Q300 11 318 20T345 44T356 81T356 131L341 251H160L175 278H339ZM-85 0L-82 8Q-47 13 -18 26T35 60Q63 82 81 104T122 159L130
156Q122 140 116 120T109 75Q109 51 126 31T168 8L165 0H-85Z" />
<glyph unicode="B" glyph-name="B" horiz-adv-x="624" d="M574 191Q574 144 551 108T487 48T392 12T277 0H237L239 8Q294 8 333 23T399 65T437 127T450 205Q450 230 444 251T424 288T388 315T331 328L333 336Q371 336 401 351T452 392T484 449T495 515Q495 541
486 564T457 602Q446 611 433 615T402 622L404 630Q448 630 485 622T550 599T593 561T609 508Q609 470 592 440T545 387T477 351T396 333Q434 328 466 317T523 289T560 247T574 191ZM206 567Q206 593 186 606T136 622L139 630H353L175 0H-32L-29 8Q-5 11 12 18T44
40T69 77T89 133L194 501Q201 524 203 539T206 567Z" />
<glyph unicode="C" glyph-name="C" horiz-adv-x="643" d="M612 418Q612 455 605 490T581 554T536 604T467 631L470 639Q493 639 520 635T574 625T626 612T669 596L621 418H612ZM303 -7Q248 -2 204 22T128 82T79 164T62 259Q62 338 94 406T181 528Q230 576 294
606T432 641L429 633Q384 628 345 596T273 510Q255 482 240 445T214 366T196 280T189 195Q189 160 196 128T218 70T255 26T306 1L303 -7ZM342 0Q386 8 421 28T486 77T539 142T584 218H593L540 26Q522 19 503 13T459 3T406 -4T339 -8L342 0Z" />
<glyph unicode="D" glyph-name="D" horiz-adv-x="700" d="M691 379Q691 267 638 184T493 54Q438 26 372 14T235 0L237 8Q304 13 364 41T470 120T542 240T569 401Q569 503 533 558T410 622L412 630Q472 624 523 607T611 560T670 485T691 379ZM206 567Q206 593 186
606T136 622L139 630H353L175 0H-32L-29 8Q-5 11 12 18T44 40T69 77T89 133L194 501Q201 524 203 539T206 567Z" />
<glyph unicode="E" glyph-name="E" horiz-adv-x="592" d="M175 0H-32L-29 8Q-5 11 12 18T44 40T69 77T89 133L194 501Q201 524 203 539T206 567Q206 593 186 606T136 622L139 630H353L175 0ZM571 436Q570 485 562 519T536 575T488 608T411 623L413 630H619L579
436H571ZM238 8Q282 11 328 24T411 59Q436 74 455 89T490 124T521 168T554 225H563L494 0H236L238 8ZM335 322Q369 324 393 331T436 352T470 389T502 444H510L441 192H433Q433 224 429 246T414 282T383 303T333 314L335 322Z" />
<glyph unicode="F" glyph-name="F" horiz-adv-x="561" d="M211 129Q204 106 202 91T199 64Q199 38 218 24T270 8L267 0H-32L-29 8Q-5 11 12 18T44 40T69 77T89 133L194 501Q201 524 203 539T206 567Q206 593 186 606T136 622L139 630H353L211 129ZM563 425Q557
523 517 569T411 623L413 630H612L571 425H563ZM335 322Q369 323 392 331T434 356T467 396T499 452H507L433 184H425Q425 215 422 239T409 279T381 303T333 314L335 322Z" />
<glyph unicode="G" glyph-name="G" horiz-adv-x="690" d="M623 420Q623 455 616 490T592 554T547 603T477 630L480 638Q502 637 529 633T584 623T636 610T679 595L632 420H623ZM295 -5Q246 1 204 24T130 84T80 165T62 259Q62 345 96 415T187 536Q238 583 303 610T443
639L440 631Q389 626 345 594T267 510Q249 482 234 444T207 364T189 276T182 186Q182 118 211 68T298 3L295 -5ZM467 151Q474 175 476 190T478 218Q478 244 459 257T410 273L413 281H696L693 273Q668 270 651 264T621 245T601 216T586 176L543 25Q524 19 498 13T444
3T386 -4T332 -8L335 1Q357 3 375 8T407 21Q435 39 446 75L467 151Z" />
<glyph unicode="H" glyph-name="H" horiz-adv-x="761" d="M303 312L310 338H527L519 312H303ZM211 129Q204 106 202 91T199 63Q199 37 216 24T265 8L262 0H-32L-29 8Q-5 11 12 18T44 40T69 77T89 133L194 501Q201 524 203 539T206 567Q206 593 186 606T136 622L139
630H433L430 622Q404 619 387 612T357 590T335 553T316 497L211 129ZM625 129Q618 106 616 91T613 63Q613 37 633 24T683 8L680 0H386L389 8Q412 11 429 18T460 39T483 76T504 133L608 501Q616 524 618 539T620 567Q620 593 602 606T554 622L557 630H851L848 622Q823
619 805 612T774 590T750 553T730 497L625 129Z" />
<glyph unicode="I" glyph-name="I" horiz-adv-x="347" d="M194 501Q201 524 203 539T206 567Q206 593 186 606T136 622L139 630H437L434 622Q409 619 391 612T360 590T336 553T316 497L211 129Q204 106 202 91T199 63Q199 37 219 24T269 8L266 0H-32L-29 8Q-5
11 12 18T44 40T69 77T89 133L194 501Z" />
<glyph unicode="J" glyph-name="J" horiz-adv-x="314" d="M182 76Q163 10 134 -35T66 -108T-22 -151T-131 -171V-161Q-86 -153 -56 -133T-4 -80T34 -4T65 94L182 501Q189 524 191 539T193 567Q193 593 173 606T124 622L127 630H424L421 622Q396 619 378 612T347
590T323 553T303 497L182 76Z" />
<glyph unicode="K" glyph-name="K" horiz-adv-x="703" d="M777 622Q736 617 698 602T624 566T557 520T494 468L488 474Q511 497 525 517T540 568Q540 593 521 605T471 622L473 630H779L777 622ZM211 129Q204 106 202 91T199 63Q199 37 219 24T269 8L266 0H-32L-29
8Q-5 11 12 18T44 40T69 77T89 133L194 501Q201 524 203 539T206 567Q206 593 186 606T136 622L139 630H437L434 622Q409 619 391 612T360 590T336 553T316 497L211 129ZM691 -7Q680 -7 665 -7T632 -5T597 -3T565 -1Q542 1 523 5T488 20T457 47T427 91Q414 113
400 139T371 193T342 251T318 307L406 393Q422 357 445 310T494 217T544 130T586 69Q604 46 629 26T693 1L691 -7Z" />
<glyph unicode="L" glyph-name="L" horiz-adv-x="577" d="M-32 0L-29 8Q-5 11 12 18T44 40T69 77T89 133L194 501Q201 524 203 539T206 567Q206 593 186 606T136 622L139 630H437L434 622Q409 619 391 612T360 590T336 553T316 497L175 0H-32ZM228 8Q273 13 308
28T381 64Q407 79 428 94T467 129T503 172T538 228H546L477 0H226L228 8Z" />
<glyph unicode="M" glyph-name="M" horiz-adv-x="835" d="M125 183Q116 156 108 128T99 76Q99 47 120 30T173 8L170 0H-92L-89 8Q-51 12 -21 29T34 71T79 125T116 183H125ZM339 -8H335L253 488Q243 559 210 590Q195 604 179 611T133 622L135 630H357L434 131L339
-8ZM925 630L922 622Q897 619 879 612T848 590T824 553T804 497L699 129Q692 106 690 91T687 63Q687 37 707 24T757 8L754 0H458L461 8Q485 11 502 18T533 40T557 77T578 133L720 630H925Z" />
<glyph unicode="N" glyph-name="N" horiz-adv-x="673" d="M481 -3L220 517Q209 539 198 555T172 588Q157 603 140 611T97 622L100 630H303L547 142L504 -3H481ZM159 183Q150 156 147 137T144 95Q144 65 167 40T242 8L239 0H-53L-50 8Q-11 12 19 30T72 73T114 129T150
188L159 183ZM609 447Q615 470 619 495T623 544Q623 572 600 594T523 622L526 630H803L800 622Q736 614 693 571T616 444L609 447Z" />
<glyph unicode="O" glyph-name="O" horiz-adv-x="669" d="M260 -5Q216 4 180 27T119 86T79 166T65 259Q65 322 82 377T131 477T205 557T298 611Q330 625 364 632T432 641L429 633Q389 628 354 602Q317 574 286 525T232 418T197 298T184 184Q184 130 193 88T230
21Q243 9 262 3L260 -5ZM465 638Q509 629 545 606T606 547T646 467T660 374Q660 307 640 249T585 143T502 63T399 12Q347 -6 292 -8L295 0Q309 2 322 7Q370 25 410 74T479 186T524 319T540 449Q540 467 539 489T534 532T521 574T496 610Q480 624 462 630L465 638Z"
/>
<glyph unicode="P" glyph-name="P" horiz-adv-x="588" d="M211 129Q204 106 202 92T200 66Q200 40 223 25T279 8L276 0H-32L-29 8Q-5 11 12 18T44 40T69 77T89 133L194 501Q201 524 203 539T206 567Q206 593 186 606T136 622L139 630H353L211 129ZM308 281Q325
282 342 285T369 290Q439 308 475 366T512 513Q512 554 487 585T405 622L408 630Q511 622 569 585T628 475Q628 427 603 390T535 328T432 288T306 272L308 281Z" />
<glyph unicode="Q" glyph-name="Q" horiz-adv-x="668" d="M-51 -115Q-36 -109 -15 -99T30 -79T76 -60T115 -44Q168 -51 223 -59T334 -77T443 -97T545 -117Q632 -134 718 -145T870 -156Q920 -156 956 -148T1022 -126L1026 -132Q1009 -153 981 -174T918 -211T847
-238T780 -249Q724 -249 660 -240T500 -214Q446 -204 381 -192T244 -168T97 -143T-51 -120V-115ZM260 -3Q216 6 180 29T119 88T79 167T65 260Q65 324 83 379T133 480T210 560T305 614Q335 626 367 633T432 641L429 633Q385 629 344 595Q309 566 280 518T229 413T196
297T184 186Q184 151 187 122T200 69T224 29T262 5L260 -3ZM465 638Q509 629 545 606T606 547T646 468T660 373Q660 308 641 251T588 148T507 68T404 15Q378 6 350 1T292 -6L295 2Q316 4 338 13T380 39Q414 67 443 115T494 221T528 338T540 449Q540 483 537 512T525
565T501 605T462 630L465 638Z" />
<glyph unicode="R" glyph-name="R" horiz-adv-x="630" d="M336 316Q377 320 405 337T450 381T474 441T481 512Q481 547 463 577T392 622L395 630Q441 626 479 616T545 589T588 545T604 482Q604 416 565 379T450 319Q457 295 468 266T493 206T520 145T546 88Q556
66 569 51T596 26T625 11T652 3L650 -5Q647 -5 635 -5T604 -5T565 -3T523 0Q496 3 478 11T447 30T428 53T417 75Q397 125 375 184T334 311L336 316ZM211 129Q204 106 202 91T199 64Q199 38 218 24T270 8L267 0H-32L-29 8Q-5 11 12 18T44 40T69 77T89 133L194 501Q201
524 203 539T206 567Q206 593 186 606T136 622L139 630H353L211 129Z" />
<glyph unicode="S" glyph-name="S" horiz-adv-x="473" d="M475 442Q478 473 471 504T449 560T414 604T368 629L371 638Q386 637 407 633T451 624T494 614T528 606L484 442H475ZM417 184Q417 132 398 97T348 39T277 5T194 -8L197 0Q242 5 273 35T305 121Q305 141
297 163T277 207T249 254T220 303Q203 333 190 354T169 395T156 433T152 477Q152 510 167 539T208 589T267 624T337 639L334 630Q300 625 282 600T263 542Q263 521 268 503T282 465T305 423T336 372Q352 345 366 322T392 276T410 232T417 184ZM155 -6Q135 -5 111
-2T64 6T23 16T-5 26L45 220H54Q52 189 57 155T76 90T109 36T159 2L155 -6Z" />
<glyph unicode="T" glyph-name="T" horiz-adv-x="643" d="M493 630L350 129Q343 106 341 91T338 63Q338 37 358 24T408 8L405 0H108L111 8Q135 11 152 18T184 40T209 77T229 133L370 630H493ZM330 622Q266 605 205 557T101 436H92L156 630H332L330 622ZM731 630L674
436H665Q667 524 634 568T529 622L531 630H731Z" />
<glyph unicode="U" glyph-name="U" horiz-adv-x="651" d="M783 630L780 622Q751 619 720 606T664 570Q652 559 640 541T618 502T599 461T587 427H576Q584 459 587 480T590 524Q590 572 565 595T489 622L492 630H783ZM214 227Q206 203 203 179T203 133T220 90T258
56Q281 42 322 34T413 26L416 18Q411 14 400 10T374 1T340 -5T302 -8Q254 -8 213 0T143 27Q115 45 101 70T83 124T83 184T96 246L168 501Q175 524 177 539T180 567Q180 593 160 606T110 622L113 630H411L408 622Q383 619 365 612T334 590T310 553T290 497L214 227Z"
/>
<glyph unicode="V" glyph-name="V" horiz-adv-x="575" d="M340 136L254 -8H231L173 499Q166 561 146 589T79 622L82 630H385L382 622Q353 619 335 610T308 586T297 549T297 499L340 136ZM722 630L719 622Q655 613 608 575Q577 551 558 527T514 468L506 471Q514
487 521 508T528 555Q528 579 512 599T470 622L473 630H722Z" />
<glyph unicode="W" glyph-name="W" horiz-adv-x="839" d="M316 151L225 -8H207L171 501Q166 564 146 591T77 622L80 630H377L374 622Q321 617 306 589T295 504L316 151ZM617 151L525 -8H507L471 506Q468 536 464 557T451 592T428 613T391 622L394 630H682L679
622Q650 619 633 610T606 586T596 549T596 499L617 151ZM989 630L986 622Q954 617 926 605T875 575Q844 551 821 526T778 462L769 466Q777 482 786 507T795 557Q795 583 775 601T730 622L733 630H989Z" />
<glyph unicode="X" glyph-name="X" horiz-adv-x="629" d="M-84 0L-81 8Q-47 14 -14 30T52 70T117 121T181 181L185 173Q176 163 166 149T147 120T132 91T126 65Q126 38 145 25T188 8L185 0H-84ZM243 510Q233 560 212 589T144 622L147 630H452L449 622Q405 618
387 599T367 547Q366 536 367 524T372 495L455 120Q465 66 486 39T555 8L552 0H248L251 8Q296 12 312 30T329 83Q329 102 323 134L243 510ZM753 630L750 622Q693 609 634 574T510 471L506 480Q523 500 539 523T555 570Q555 584 549 593T534 608T513 617T489 622L492
630H753Z" />
<glyph unicode="Y" glyph-name="Y" horiz-adv-x="583" d="M256 302L196 529Q185 569 164 593T98 622L100 630H400L398 622Q318 616 318 572Q318 560 323 540T332 506L382 315L330 129Q322 106 320 91T317 63Q317 37 337 24T387 8L384 0H87L90 8Q114 11 131 18T163
40T188 77T208 133L256 302ZM716 622Q685 617 657 606T603 577Q565 552 536 522T483 466L477 475Q494 494 509 522T524 574Q524 597 501 608T454 622L457 630H719L716 622Z" />
<glyph unicode="Z" glyph-name="Z" horiz-adv-x="604" d="M126 0H-18L530 630H673L126 0ZM442 622Q404 619 364 609T278 576Q255 564 233 547T189 508T148 462T111 414H102L180 630H446L442 622ZM209 0L216 8Q273 14 329 27T422 61Q480 94 514 134T572 214H581Q580
210 574 194T559 155T540 106T521 58T505 19T497 0H209Z" />
<glyph unicode="[" glyph-name="bracketleft" horiz-adv-x="333" d="M235 638H433L430 625H298L59 -206H191L188 -219H-9L235 638Z" />
<glyph unicode="\" glyph-name="backslash" horiz-adv-x="357" d="M319 -154L118 627L138 633L340 -148L319 -154Z" />
<glyph unicode="]" glyph-name="bracketright" horiz-adv-x="333" d="M89 -219H-109L-106 -206H26L265 625H133L136 638H333L89 -219Z" />
<glyph unicode="^" glyph-name="asciicircum" horiz-adv-x="375" d="M213 544L116 321H77L195 591H231L349 321H310L213 544Z" />
<glyph unicode="_" glyph-name="underscore" horiz-adv-x="474" d="M-70 -126L-63 -92H437L430 -126H-70Z" />
<glyph unicode="`" glyph-name="grave" horiz-adv-x="223" d="M217 481L132 653L203 675L225 483L217 481Z" />
<glyph unicode="a" glyph-name="a" horiz-adv-x="425" d="M214 345Q200 328 179 294T137 221T103 147T89 90Q89 68 106 68Q113 68 123 74T142 89T161 108T178 127L184 123Q174 104 158 82T121 39T78 6T33 -8Q14 -8 1 7T-13 48Q-13 82 7 123T59 206T130 285T208
350L214 345ZM314 70Q321 70 333 79T357 103T380 133T399 163L405 160Q396 131 377 102T334 48T284 8T235 -8Q216 -8 207 2T197 30Q197 43 203 73T221 135Q233 173 247 214T273 292Q287 333 300 375Q297 377 292 377T282 378Q271 378 260 374T239 365L233 370Q241
376 253 383T279 398T308 410T338 416Q349 432 363 443T395 454Q416 454 416 440Q416 434 415 427T412 417Q407 404 395 369T369 290T339 201T314 123Q310 110 307 99T304 82Q304 74 307 72T314 70Z" />
<glyph unicode="b" glyph-name="b" horiz-adv-x="456" d="M137 -1Q153 2 171 13T209 47Q233 75 256 114T298 195T327 276T339 341Q339 371 315 371Q295 371 264 349T202 281L196 284Q213 315 236 343T284 392T336 425T388 438Q419 438 437 419T455 369Q455 309
428 245T356 126T254 34T135 -8L137 -1ZM158 573Q164 593 170 613T176 642Q176 653 167 658L134 674L135 678L304 714L305 713L127 130Q125 122 122 109T117 82T112 54T110 34Q110 8 120 1L118 -6Q76 -4 49 21T21 82Q21 94 23 109T28 138T34 164T39 185L158 573Z"
/>
<glyph unicode="c" glyph-name="c" horiz-adv-x="329" d="M278 431Q242 419 213 383T163 299T131 203T119 117Q119 68 147 68Q165 68 182 77T214 100T243 130T264 161L271 158Q265 139 252 111T217 56T166 11T99 -8Q74 -8 58 0T31 23T16 55T11 93Q11 150 36 209T100
318T186 400T280 438L278 431ZM266 375Q266 395 278 408T311 421Q331 421 344 408T357 375Q357 355 344 343T311 330Q291 330 279 342T266 375Z" />
<glyph unicode="d" glyph-name="d" horiz-adv-x="456" d="M291 430Q265 419 235 387T177 309T132 207T114 90Q114 69 129 69Q142 69 153 74T172 88T188 107T203 128L209 124Q200 105 185 82T152 39T112 6T69 -8Q36 -8 22 17T7 73Q7 103 17 141T46 219T91 299T150
371Q182 402 221 418T293 438L291 430ZM344 123Q340 110 337 99T334 82Q334 74 337 72T344 70Q351 70 362 79T386 103T410 133T429 163L435 160Q426 131 408 102T366 48T318 8T269 -8Q225 -8 225 43Q225 56 230 79T246 135L316 367Q319 378 321 388T323 405Q323
416 320 421T314 429L316 437Q326 435 334 428L379 573Q385 593 391 613T397 642Q397 653 388 658L355 674L356 678L524 714L525 713L344 123Z" />
<glyph unicode="e" glyph-name="e" horiz-adv-x="343" d="M266 431Q231 419 205 379T160 289T133 188T124 104Q124 81 133 71T155 61Q173 61 190 69T224 91T253 121T274 151L281 148Q274 128 259 102T222 51T172 9T110 -8Q82 -8 64 0T36 23T21 55T16 93Q16 149
37 208T94 316T175 399T268 438L266 431ZM159 227Q186 235 209 247T250 276Q277 303 285 338T294 406Q294 419 290 423T282 430L284 437Q322 435 341 419T361 376Q361 346 347 320T305 274T241 241T157 220L159 227Z" />
<glyph unicode="f" glyph-name="f" horiz-adv-x="269" d="M118 427Q132 481 154 534T215 628Q247 663 293 682T391 704L389 698Q349 694 321 670T274 609T241 525T218 428H321L307 384H210L197 320Q185 263 174 203T146 85T106 -29T47 -134Q13 -180 -33 -205T-136
-235L-134 -229Q-92 -220 -54 -186T4 -82Q37 31 60 145T107 384H44L47 392L118 427ZM349 632Q349 655 364 670T403 686Q426 686 441 671T457 632Q457 609 442 594T403 578Q380 578 365 593T349 632ZM-198 -175Q-198 -158 -185 -145T-155 -132Q-137 -132 -124 -145T-111
-175Q-111 -193 -124 -206T-155 -219Q-172 -219 -185 -206T-198 -175Z" />
<glyph unicode="g" glyph-name="g" horiz-adv-x="383" d="M118 -240Q76 -239 37 -233T-34 -215T-85 -185T-104 -141Q-104 -126 -88 -112T-47 -85T3 -65T50 -54L52 -62Q40 -65 26 -71T1 -86T-17 -108T-25 -138Q-25 -164 -12 -181T21 -208T68 -224T121 -232L118
-240ZM245 431Q233 428 216 413Q201 400 184 375T152 317T128 247T118 173Q118 137 129 132L127 125Q86 127 61 154T36 219Q36 255 52 292T96 361T163 414T247 438L245 431ZM153 -232Q191 -227 218 -213T245 -177Q245 -164 236 -153T211 -131T178 -110T140 -89Q119
-77 99 -66T64 -43T39 -15T30 22Q30 51 52 75T109 112L115 109Q108 101 104 95T100 77Q100 66 109 57T133 37T167 17T206 -3Q236 -19 257 -31T293 -56T315 -84T322 -122Q322 -146 309 -166T272 -202T217 -227T151 -240L153 -232ZM353 401L453 439L427 361L351 394L353
401ZM144 132Q154 135 164 144Q179 155 198 180T233 239T260 312T271 390Q271 425 260 431L262 438Q303 437 328 409T354 345Q354 308 338 271T294 202T226 150T142 125L144 132Z" />
<glyph unicode="h" glyph-name="h" horiz-adv-x="479" d="M366 343Q366 362 358 369T340 376Q323 376 290 349T218 269L212 273Q266 360 319 399T417 438Q443 438 460 423T477 369Q477 329 467 287T438 204T394 126T341 61T280 15T217 -6L221 1Q236 4 249 17Q270
37 291 75T328 160T355 254T366 343ZM163 573Q169 593 175 613T181 642Q181 653 172 658L139 674L140 678L309 714L310 713L105 38Q97 20 82 6T40 -8Q11 -8 2 4T-2 32L163 573ZM156 52Q156 70 168 83T198 96Q216 96 229 83T242 52Q242 35 229 23T198 10Q181 10
169 22T156 52Z" />
<glyph unicode="i" glyph-name="i" horiz-adv-x="266" d="M202 246Q189 216 180 195T162 156T145 121T126 82L129 80Q158 95 186 119T233 163L239 159Q232 146 219 129T189 93T154 56T116 24T79 1T47 -8Q33 -8 22 0T11 26Q11 31 13 37T18 54Q23 68 31 88T49 131T70
180T92 229Q112 274 126 309T141 358Q141 372 129 372Q121 372 111 365T93 348Q69 321 45 277L38 280Q49 310 65 338T103 388T148 424T199 438Q222 438 235 425T248 393Q248 367 236 331T202 246ZM212 597Q212 620 228 636T268 653Q291 653 307 637T324 597Q324
574 308 558T268 541Q245 541 229 557T212 597Z" />
<glyph unicode="j" glyph-name="j" horiz-adv-x="255" d="M210 597Q210 620 226 636T266 653Q289 653 305 637T321 597Q321 574 305 558T266 541Q243 541 227 557T210 597ZM114 -15Q82 -103 22 -157T-124 -219L-122 -213Q-104 -207 -88 -195T-56 -162T-24 -108T10
-28Q20 -2 33 36T61 114T88 192T109 253Q117 278 123 295T132 324T137 344T139 358Q139 372 127 372Q119 372 109 365T91 348Q80 334 68 317T45 277L38 280Q48 310 64 338T100 388T145 424T195 438Q219 438 232 425T246 392Q246 366 235 331T206 246Q188 193 165
127T114 -15ZM-213 -156Q-213 -136 -199 -122T-164 -107Q-144 -107 -130 -121T-115 -156Q-115 -176 -129 -190T-164 -205Q-184 -205 -198 -191T-213 -156Z" />
<glyph unicode="k" glyph-name="k" horiz-adv-x="456" d="M199 276Q217 301 240 329T290 382T343 422T393 438Q419 438 429 420T440 380Q440 360 428 339T397 296T351 254T298 217Q310 176 321 143T342 87Q355 55 370 55Q381 55 400 67T431 103L437 99Q430 82
417 64T387 29T350 3T309 -8Q292 -8 278 3T251 43Q240 67 230 103T212 177Q228 185 241 192T268 209Q301 232 327 263T353 332Q353 349 347 357T326 365Q318 365 303 358T271 337T236 308T205 272L199 276ZM166 573Q172 593 178 613T184 642Q184 653 176 658L143
674L144 678L312 714L313 713L109 38Q102 19 86 6T43 -8Q15 -8 6 4T1 32L166 573Z" />
<glyph unicode="l" glyph-name="l" horiz-adv-x="243" d="M-2 26Q-2 42 11 80T44 179L180 573Q187 593 192 613T198 642Q198 653 189 658L156 674L157 678L326 714L327 713L117 82L120 80Q155 94 180 111T224 146L230 142Q219 122 195 97T143 48T85 8T34 -8Q21
-8 10 0T-2 26Z" />
<glyph unicode="m" glyph-name="m" horiz-adv-x="716" d="M562 84L565 82Q594 98 626 120T677 163L683 159Q676 146 661 129T627 93T585 56T541 24T499 1T465 -8Q452 -8 444 -2T435 25Q435 30 437 39T445 59Q451 74 461 93T481 133T502 172T521 205Q535 232 549
258T574 307T592 345T599 366Q599 378 587 378Q572 378 539 344T463 254L457 259Q483 298 509 330T562 387T615 424T666 438Q705 438 705 396Q705 380 690 341T645 245L562 84ZM316 237Q371 347 371 364Q371 375 359 375Q343 375 314 343T241 254L235 259Q261 298
287 330T339 387T390 424T441 438Q482 438 482 396Q482 380 464 335T419 232Q403 196 391 170T369 122T350 80T330 38Q322 21 307 7T264 -8Q236 -8 226 4T222 32Q227 44 238 68T262 122T290 182T316 237ZM109 261Q115 274 122 288T134 315T144 339T148 356Q148
372 132 372Q124 372 115 368T98 354Q87 340 76 323T51 277L44 280Q53 311 68 340T102 390T145 425T194 438Q216 438 231 426T246 388Q246 362 235 325T205 246L113 38Q105 20 90 6T48 -8Q19 -8 9 4T5 32Q8 39 16 57T35 99T57 148T79 197T98 237T109 261Z" />
<glyph unicode="n" glyph-name="n" horiz-adv-x="505" d="M354 82Q383 98 414 120T466 163L472 159Q461 139 434 111T373 56T308 11T254 -8Q241 -8 233 -2T224 25Q224 30 225 37T232 56Q238 71 248 90T269 130T290 170T309 205Q323 231 337 257T362 306T380 344T387
365Q387 377 375 377Q359 377 322 344T242 254L236 259Q262 298 290 331T347 387T403 424T454 438Q494 438 494 396Q494 380 479 341T434 245L351 84L354 82ZM109 261Q121 287 133 315T145 356Q145 372 132 372Q124 372 115 368T98 354Q87 340 76 323T51 277L44
280Q53 311 68 340T104 390T147 425T195 438Q219 438 233 425T248 386Q248 359 236 324T205 246L113 38Q105 20 90 6T48 -8Q19 -8 9 4T5 32Q8 39 16 57T35 99T57 148T79 197T98 237T109 261Z" />
<glyph unicode="o" glyph-name="o" horiz-adv-x="452" d="M287 431Q278 429 269 425T252 416Q221 395 197 356T155 269T129 171T120 77Q120 42 128 24T147 0L145 -7Q112 -4 89 9T51 43T29 88T22 137Q22 194 41 246T96 340T181 407T289 438L287 431ZM165 0Q178
2 191 9T215 26Q242 49 263 88T300 172T323 265T331 354Q331 389 324 407T305 431L307 438Q340 435 363 422T400 388T422 344T429 295Q429 238 410 185T355 91T271 24T163 -7L165 0Z" />
<glyph unicode="p" glyph-name="p" horiz-adv-x="467" d="M112 371Q95 367 74 362T35 351L33 357Q45 365 71 375T119 393L140 474Q145 493 165 503T212 514Q237 514 243 506T244 481L123 34Q132 22 150 14T184 5L182 -3Q172 -8 153 -8Q141 -8 132 -7T112 -3L80
-128Q67 -177 84 -197T139 -220L136 -228H-112L-109 -220Q-89 -218 -76 -213T-53 -198T-38 -173T-25 -134L112 371ZM247 411Q254 415 268 420T299 429T330 435T356 438Q384 438 402 431T431 409T446 375T451 330Q451 276 434 224T385 129T311 53T219 4L221 13Q240
27 262 57T302 128T333 219T345 321Q345 363 329 380T271 399Q267 399 258 399T242 396L247 411Z" />
<glyph unicode="q" glyph-name="q" horiz-adv-x="438" d="M154 377Q184 404 217 420T280 438L278 431Q250 414 233 396T194 345Q176 318 161 285T135 218T118 155T112 105Q112 87 118 75T140 63Q152 63 165 71T191 90T213 114T230 136L236 131Q225 113 209 89T172
44T128 7T79 -8Q49 -8 28 14T7 82Q7 118 18 158T50 238T96 314T154 377ZM295 -130Q288 -154 289 -170T299 -197T321 -213T354 -220L351 -228H102L105 -220Q126 -218 139 -213T162 -197T178 -172T191 -133L318 323Q330 367 324 396T303 430L305 437Q314 435 325
432T347 423T366 406T380 381H384L453 443L459 440Q452 425 442 394T423 330L295 -130Z" />
<glyph unicode="r" glyph-name="r" horiz-adv-x="369" d="M303 295Q311 307 316 322T322 351Q322 356 320 360T311 365Q297 365 276 333T234 253L227 255Q240 292 254 325T285 383T321 422T364 437Q379 437 389 426T400 395Q400 377 392 360T371 328T342 302T311
286L303 295ZM102 261Q113 287 123 313T133 360Q133 372 121 372Q113 372 104 367T87 353Q76 340 65 322T44 277L37 280Q44 311 58 340T90 390T131 425T178 438Q204 438 219 425T234 387Q234 360 224 325T198 246Q188 216 177 185T155 126T135 74T120 38Q112 20
97 6T54 -8Q26 -8 16 4T12 32Q17 46 29 78T56 146T83 214T102 261Z" />
<glyph unicode="s" glyph-name="s" horiz-adv-x="292" d="M237 431Q208 427 189 409T170 358Q170 338 176 312T196 244Q211 202 218 176T226 129Q226 105 216 81T185 38T135 7T64 -8L66 -1Q100 4 117 19T135 68Q135 89 126 121T102 191Q88 226 83 253T77 303Q77
326 87 349T117 390T167 422T239 438L237 431ZM-40 66Q-40 86 -26 101T10 116Q31 116 45 101T60 66Q60 45 46 31T10 16Q-11 16 -25 30T-40 66ZM235 385Q235 405 248 418T280 431Q299 431 312 418T325 385Q325 366 312 353T280 340Q261 340 248 353T235 385Z" />
<glyph unicode="t" glyph-name="t" horiz-adv-x="287" d="M33 124Q44 155 61 198T93 284Q111 332 129 383H64L73 404Q93 411 111 416Q126 421 139 425T155 432Q161 440 169 449Q175 457 183 465T199 482Q212 498 225 513T248 536Q252 539 258 539T268 539T276
533T277 524Q275 519 270 504T258 471Q251 452 242 428H353L336 383H227L117 77L120 75Q135 82 152 94T187 121T219 152T245 186L251 183Q240 155 216 118T159 51Q132 25 105 9T54 -8Q35 -8 23 3T9 35Q9 48 14 68T33 124Z" />
<glyph unicode="u" glyph-name="u" horiz-adv-x="501" d="M187 212Q160 159 142 122T123 75Q123 62 135 62Q151 62 186 91T263 177L269 172Q243 133 214 100T157 43T101 6T50 -8Q10 -8 10 34Q10 53 25 89Q36 118 52 151T89 224Q95 237 105 256T124 296T141 333T148
356Q148 372 131 372Q123 372 115 368T98 354Q87 340 76 323T51 277L44 280Q53 311 70 340T108 390T155 425T205 438Q228 438 240 425T253 387Q253 354 232 307T187 212ZM357 68Q371 76 388 88T421 113T451 140T475 163L481 159Q474 146 460 129T429 93T391 56T350
24T312 1T279 -8Q266 -8 254 -1T242 26Q242 38 250 63T271 117T297 176T321 229L391 393Q399 410 415 424T457 438Q485 438 495 426T497 394Q492 381 482 357T459 306T437 257T421 222Q409 196 393 159T354 70L357 68Z" />
<glyph unicode="v" glyph-name="v" horiz-adv-x="395" d="M169 438Q192 438 204 417T217 361Q217 338 212 298T199 215T184 136T174 86L75 -6L46 8Q60 46 72 91T95 182T110 268T116 339Q116 367 105 374T83 382Q72 382 59 377T28 360L25 366Q37 378 54 390T92
413T132 431T169 438ZM345 349Q345 364 339 373T322 382Q314 382 297 376T256 353L251 358Q263 371 281 385T318 411T355 430T384 438Q424 438 424 392Q424 375 414 353T385 307Q358 270 316 230T223 148L220 155Q248 180 271 207T311 259T336 308T345 349Z" />
<glyph unicode="w" glyph-name="w" horiz-adv-x="587" d="M165 438Q188 438 201 417T214 361Q214 340 210 300T201 217T190 137T181 86L82 -6L53 10Q67 48 78 95T97 188T109 274T113 339Q113 365 102 373T81 381Q70 381 58 377T28 360L25 366Q37 378 54 391T90
414T128 431T165 438ZM365 438Q389 438 402 417T415 361Q415 338 411 298T402 215T391 136T382 86L282 -6L254 10Q267 49 278 94T297 184T309 269T314 340Q314 367 303 374T282 381Q276 381 266 379T239 366L236 372Q248 384 263 395T296 416T330 432T365 438ZM537
348Q537 364 531 372T514 381Q507 381 491 376T452 353L447 358Q459 371 477 385T513 411T549 430T576 438Q593 438 604 427T616 393Q616 372 603 343T566 280T507 210T431 140L428 147Q455 172 475 200T509 255T530 306T537 348Z" />
<glyph unicode="x" glyph-name="x" horiz-adv-x="444" d="M39 58Q52 58 76 72T123 112L129 107Q117 90 100 66T63 23Q48 9 31 1T-2 -8Q-17 -8 -26 1T-35 25Q-35 39 -27 56T-8 89T14 119T34 140L40 138Q35 126 30 110T24 82Q24 58 39 58ZM147 336Q140 369 121 369Q112
369 102 360T83 339T67 313T57 290L49 293Q67 362 102 400T175 438Q204 438 220 416T248 345Q255 314 261 286T274 228T288 169T303 104Q311 72 316 62T333 51Q345 51 356 60T378 82T395 108T405 131L412 130Q407 105 395 80T365 36T325 4T278 -8Q250 -8 234 12T205
85Q198 113 191 146T175 213T160 279T147 336ZM416 376Q403 376 376 360T326 317L320 322Q332 342 349 364T386 405Q401 419 417 428T450 437Q465 437 474 429T484 406Q484 392 478 377T462 349T442 324T424 305L419 309Q427 323 430 335T433 352Q433 366 429 371T416
376Z" />
<glyph unicode="y" glyph-name="y" horiz-adv-x="410" d="M213 377Q216 352 217 303T216 197T210 83T197 -16Q189 -28 176 -44T146 -79T114 -113T85 -141Q98 -70 105 1T114 138T116 259T111 354Q110 362 106 368T93 374Q85 374 77 366T61 344T46 315T32 282L25
285Q39 353 76 395T162 438Q187 438 197 422T213 377ZM-83 -194Q-59 -194 -31 -188T29 -164L33 -169Q22 -179 8 -189T-22 -207T-54 -223T-85 -234Q-96 -238 -105 -239T-123 -241Q-147 -241 -165 -230T-184 -189Q-184 -176 -178 -164T-162 -142T-140 -125T-117 -116L-113
-120Q-118 -125 -121 -134T-124 -152Q-124 -175 -113 -184T-83 -194ZM357 354Q357 374 351 381T333 388Q325 388 311 382T284 364L279 369Q289 384 302 396T329 418T356 433T381 438Q405 438 412 422T419 389Q419 345 393 285T309 155L304 158Q335 210 346 258T357
354Z" />
<glyph unicode="z" glyph-name="z" horiz-adv-x="439" d="M68 118Q85 118 99 116T127 111T158 102T195 90Q214 84 234 79T274 69T308 61T331 58Q354 58 374 68T408 105L414 102Q408 77 397 55T369 15T331 -12T285 -22Q258 -22 216 -11T126 16Q96 25 73 29T30 34Q11
34 -12 25T-52 -2L-58 1Q-52 20 -39 41T-8 79T28 107T68 118ZM161 438Q175 438 204 434T264 422Q306 411 333 407T369 403Q392 403 408 413T431 431L437 427Q423 401 396 371T337 321Q314 323 276 331T202 348Q170 356 142 362T94 369Q82 369 71 360T57 334L48
335Q48 355 59 373T86 406T123 429T161 438ZM334 148Q334 165 345 176T374 188Q391 188 402 177T414 148Q414 132 403 120T374 108Q357 108 346 120T334 148ZM63 308Q63 323 74 334T100 345Q116 345 127 334T138 308Q138 293 127 282T100 271Q85 271 74 281T63
308Z" />
<glyph unicode="{" glyph-name="braceleft" horiz-adv-x="334" d="M70 206Q119 198 142 168T166 92Q166 68 158 36L120 -93Q116 -106 115 -117T114 -139Q114 -158 122 -171T142 -193T168 -206T197 -212L195 -219Q169 -218 145 -210T101 -186T69 -148T57 -97Q57
-82 60 -67T69 -33L98 72Q103 86 105 98T108 122Q111 167 87 183T18 205L20 212Q44 213 67 217T109 234T145 271T173 334L208 455Q237 552 296 594T440 638L438 631Q416 629 394 623T353 603T318 567T292 509L255 380Q236 311 189 265T70 207V206Z" />
<glyph unicode="|" glyph-name="bar" horiz-adv-x="209" d="M122 637H145V-220H122V637Z" />
<glyph unicode="}" glyph-name="braceright" horiz-adv-x="342" d="M318 207Q294 206 271 202T229 184T193 148T165 85L130 -36Q102 -133 42 -175T-102 -219L-100 -212Q-79 -210 -57 -204T-16 -185T20 -148T47 -90L83 39Q102 108 149 154T268 212V213Q220 221
197 251T172 325Q172 351 181 383L219 512Q222 525 223 536T224 559Q224 578 216 591T196 613T170 626T141 631L143 638Q170 636 195 628T239 604T270 567T282 516Q282 501 279 486T270 452L240 347Q231 314 231 292Q229 250 253 235T321 214L318 207V207Z" />
<glyph unicode="~" glyph-name="asciitilde" horiz-adv-x="403" d="M205 253Q191 262 174 273T133 285Q109 285 95 268T77 220L41 222Q43 245 51 263T72 295T101 315T133 322Q166 322 186 311T227 286Q247 272 264 260T299 248Q326 248 335 266T349 313L385 311Q381
258 356 235T296 211Q282 211 271 214T249 224T228 237T205 253Z" />
<glyph unicode="&#xa0;" glyph-name="uni00A0" horiz-adv-x="167" />
<glyph unicode="&#xa1;" glyph-name="exclamdown" horiz-adv-x="267" d="M261 437Q261 413 245 397T204 380Q180 380 164 396T147 437Q147 461 163 477T204 494Q229 494 245 478T261 437ZM183 330Q176 289 168 230T152 109T136 -6T122 -92Q115 -122 99 -137T52
-152Q27 -152 16 -139T5 -105Q5 -84 18 -47T52 39Q68 78 84 118T117 196T147 268T173 330H183Z" />
<glyph unicode="&#xa2;" glyph-name="cent" horiz-adv-x="344" d="M119 -8H112Q87 -8 69 0T39 23T21 55T15 93Q15 133 31 180T77 271T147 353T236 414L233 402Q209 382 189 348T154 275T131 195T122 122Q122 81 146 71L301 534H320L164 68Q182 69 199 79T230 102T257
132T277 161L284 158Q278 140 266 115T236 66T193 22T139 -5L112 -87H93L119 -8ZM290 370Q290 390 303 403T335 416Q355 416 368 403T382 370Q382 350 369 338T335 325Q316 325 303 337T290 370Z" />
<glyph unicode="&#xa3;" glyph-name="sterling" horiz-adv-x="515" d="M150 258Q154 268 159 282T168 309H89L93 329H175Q177 334 179 340T183 354Q207 429 237 478T302 558T379 603T466 620V614Q433 605 412 586T374 535T342 462T306 365Q306 365 304 360T299
347T294 335T291 329H404L400 309H283Q277 295 270 282T256 258H372L368 239H243Q215 203 177 175T81 118L76 122Q94 144 109 168T142 239H55L59 258H150ZM-55 -1Q-47 16 -32 33T3 65T47 88T97 97Q138 97 166 92T226 81Q263 75 298 69T365 62Q413 62 439 73T486
108L490 107Q472 41 435 7T331 -28Q296 -28 253 -20T171 -5Q146 -1 128 2T94 7T63 11T31 12Q11 12 -12 7T-53 -3L-55 -1ZM486 595Q509 595 525 580T541 541Q541 518 525 503T486 487Q463 487 448 502T432 541Q432 564 447 579T486 595Z" />
<glyph unicode="&#xa5;" glyph-name="yen" horiz-adv-x="459" d="M182 280L140 456Q132 494 113 512T59 536L61 544H331L329 536Q275 533 258 511T251 434L289 280H403L398 262H289L268 201H380L375 183H262L234 104Q233 101 231 94T227 80T224 65T222 54Q222
31 235 21T271 8L268 0H27L30 8Q49 12 63 17T88 33T109 59T128 100L157 183H44L49 201H163L185 262H67L73 280H182ZM611 536Q557 529 507 492T397 391L392 397Q401 409 410 422T426 449T438 474T443 494Q443 514 431 524T387 536L390 544H613L611 536Z" />
<glyph unicode="&#xa6;" glyph-name="brokenbar" horiz-adv-x="153" d="M94 637H117V253H94V637ZM94 164H117V-220H94V164Z" />
<glyph unicode="&#xa7;" glyph-name="section" horiz-adv-x="442" d="M-25 -148Q-25 -125 -10 -110T29 -94Q51 -94 67 -109T84 -148Q84 -170 68 -186T29 -203Q6 -203 -9 -187T-25 -148ZM66 -214Q114 -206 137 -174T161 -94Q161 -66 141 -19T86 92Q60 139 46 179T31
263Q31 277 33 289T38 313Q45 339 59 362T90 406T125 444T161 474L166 468Q140 442 129 410T117 358Q117 333 121 311T133 268T154 222T182 169Q212 113 233 64T254 -15Q254 -54 238 -89T196 -152T136 -198T67 -221L66 -214ZM456 546Q456 523 441 508T402 492Q380
492 364 507T347 546Q347 568 363 584T402 600Q425 600 440 584T456 546ZM381 619Q334 610 303 577T272 485Q272 457 292 412T348 303Q374 256 389 215T404 130Q404 100 392 71T360 14T317 -36T271 -76L267 -70Q293 -44 305 -16T317 33Q317 83 300 126T251 229Q236
256 223 284T200 336T184 382T178 417Q178 460 196 496T244 559T309 603T380 626L381 619Z" />
<glyph unicode="&#xa8;" glyph-name="dieresis" horiz-adv-x="358" d="M188 628Q209 628 223 614T237 579Q237 558 223 543T188 528Q167 528 153 543T139 579Q139 599 153 613T188 628ZM365 628Q386 628 400 614T414 579Q414 558 400 543T365 528Q344 528 330
543T316 579Q316 599 330 613T365 628Z" />
<glyph unicode="&#xa9;" glyph-name="copyright" horiz-adv-x="708" d="M49 315Q49 384 72 441T137 540T233 606T354 636V621Q291 616 239 592T148 529T89 435T67 315Q67 249 88 195T148 102T239 38T354 9V-6Q289 -1 234 23T137 90T73 189T49 315ZM696 315Q696
246 673 189T608 90T510 24T390 -6V9Q452 14 504 38T595 101T656 195T678 315Q678 381 657 435T597 528T505 592T390 621V636Q454 631 510 607T607 540T672 441T696 315ZM519 376Q511 418 488 457T424 512Q407 518 389 519V528Q430 527 467 521T530 505V376H519ZM532
255V125Q509 117 472 111T396 102V110Q413 113 426 117Q467 131 490 170T522 255H532ZM367 101Q316 103 275 121T205 168T161 237T145 322Q145 371 165 408T217 471T287 511T359 528V519Q353 518 339 514T316 504Q282 485 260 444T238 324Q238 254 257 201T321
125Q332 120 344 116T367 110V101Z" />
<glyph unicode="&#xaa;" glyph-name="ordfeminine" horiz-adv-x="269" d="M205 579Q196 570 183 551T156 510T134 465T125 426Q125 420 128 415T138 410Q147 410 161 420T186 448L190 444Q184 432 173 418T148 391T119 371T91 362Q79 362 69 371T58 398Q58 419
71 445T106 496T152 545T201 584L205 579ZM268 420Q268 413 275 413Q279 413 286 417T302 429T318 446T331 464L337 461Q331 444 317 427T286 395T252 372T221 362Q210 362 203 368T196 386Q196 394 200 412T212 452Q220 475 228 500T243 547Q251 573 259 597Q255
598 247 598Q234 598 221 592L218 597Q227 605 245 613T280 624Q287 634 297 641T319 649Q325 649 330 647T336 639Q336 630 333 624Q330 616 323 594T307 545T289 491T273 443Q268 426 268 420Z" />
<glyph unicode="&#xab;" glyph-name="guillemotleft" horiz-adv-x="296" d="M118 86L33 216L34 226L192 358L198 350L99 218L126 89L118 86ZM148 216L149 226L306 358L313 350L214 218L241 89L233 86L148 216Z" />
<glyph unicode="&#xae;" glyph-name="registered" horiz-adv-x="413" d="M86 448Q86 484 98 516T133 573T185 614T250 636V621Q220 616 194 602T147 564T115 512T103 448Q103 415 114 386T146 333T193 295T250 275V261Q215 265 185 281T133 323T99 380T86 448ZM243
398Q243 379 250 372T274 363V356H172V363Q186 365 193 372T200 398V512Q200 530 193 537T172 547V552H243V398ZM397 356Q390 355 380 355T358 355Q341 355 330 362T306 387Q298 398 289 412T268 446V451Q285 455 292 466T300 500Q300 542 257 547V552Q261 552
270 552T284 550Q312 546 328 534T344 502Q344 485 333 473T306 453V451Q316 434 333 415T363 382Q370 375 380 369T397 361V356ZM462 448Q462 412 450 380T415 323T363 282T298 261V275Q328 279 354 294T401 333T432 385T444 448Q444 482 433 511T401 564T355
601T298 621V636Q333 631 363 615T415 574T449 517T462 448Z" />
<glyph unicode="&#xaf;" glyph-name="macron" horiz-adv-x="363" d="M136 542L148 579H394L382 542H136Z" />
<glyph unicode="&#xb0;" glyph-name="degree" horiz-adv-x="285" d="M94 517Q94 564 123 594T195 628V613Q160 609 137 584T114 517Q114 474 137 450T195 421V405Q174 406 156 415T124 439T102 474T94 517ZM325 517Q325 470 296 439T225 405V421Q260 425 282 449T305
517Q305 559 283 584T225 613V628Q267 625 296 595T325 517Z" />
<glyph unicode="&#xb2;" glyph-name="twosuperior" horiz-adv-x="312" d="M95 343H227Q258 343 283 362T321 404H329L280 282H26L95 343ZM117 366Q144 384 168 404T209 445T237 486T247 527Q247 581 197 581Q171 581 152 573T113 549L108 553Q130 588 167 611T244
634Q289 634 309 613T330 558Q330 534 313 508T268 455T203 406T128 365L117 366Z" />
<glyph unicode="&#xb3;" glyph-name="threesuperior" horiz-adv-x="256" d="M164 478Q198 481 222 476T262 458T285 430T293 396Q293 372 280 351T245 313T191 287T122 276L124 283Q172 287 195 309T219 367Q219 389 201 406T135 424Q130 424 122 424T109 421L108
425L164 478ZM184 497Q203 508 215 521T228 553Q228 592 182 592Q165 592 150 586T124 570L119 575Q136 603 164 618T222 634Q263 634 281 617T300 574Q300 558 291 545T266 522T229 505T185 493L184 497ZM60 322Q60 336 70 346T94 357Q108 357 118 347T129 322Q129
308 119 298T94 288Q80 288 70 298T60 322Z" />
<glyph unicode="&#xb4;" glyph-name="acute" horiz-adv-x="159" d="M115 475L107 479L207 678L269 641L115 475Z" />
<glyph unicode="&#xb6;" glyph-name="paragraph" d="M297 170Q249 170 208 184T138 224T93 289T76 378Q76 431 99 477T164 557T262 610T383 630H656L652 613H479L360 170H297ZM357 -171L559 580H579L377 -171H357ZM331 136H351L306 -29Q292 -81 274 -115T234 -171T186
-200T132 -209Q89 -209 59 -186T29 -120Q29 -95 38 -77T60 -46T89 -26T119 -16L123 -30Q94 -38 72 -58T50 -118Q50 -153 74 -172T133 -192Q158 -192 180 -184T221 -157T257 -106T287 -25L331 136ZM100 -86Q100 -69 112 -57T142 -44Q159 -44 171 -56T184 -86Q184
-103 172 -115T142 -128Q125 -128 113 -116T100 -86Z" />
<glyph unicode="&#xb7;" glyph-name="periodcentered" horiz-adv-x="233" d="M67 224Q67 250 85 267T129 285Q155 285 172 268T190 224Q190 198 173 180T129 162Q103 162 85 180T67 224Z" />
<glyph unicode="&#xb8;" glyph-name="cedilla" horiz-adv-x="151" d="M-20 -221Q-32 -227 -49 -233T-79 -239Q-101 -239 -110 -230T-121 -209Q-121 -190 -106 -180T-73 -162Q-71 -186 -56 -200T-24 -214L-20 -221ZM-4 -204Q5 -195 5 -178Q5 -169 1 -161T-10 -141Q-23
-120 -23 -103Q-23 -89 -15 -77T5 -54T31 -34T59 -19L62 -25Q55 -32 49 -40T43 -60Q43 -78 56 -99Q62 -110 66 -120T72 -140Q72 -153 65 -163T48 -182Q38 -190 26 -197T0 -210L-4 -204Z" />
<glyph unicode="&#xb9;" glyph-name="onesuperior" horiz-adv-x="252" d="M201 356Q191 321 203 306T241 288L239 281H48L50 288Q79 291 97 304T126 353L183 556Q192 590 187 603Q182 610 170 613T143 619L145 627Q178 627 213 627T281 629Q276 613 271 599T258
557L201 356Z" />
<glyph unicode="&#xba;" glyph-name="ordmasculine" horiz-adv-x="268" d="M241 630Q224 627 209 615Q192 601 179 578T157 528T144 471T139 415Q139 393 145 383T157 369L155 362Q112 368 94 395T75 453Q75 490 88 522T125 579T179 619T243 637L241 630ZM172
369Q194 372 210 390Q225 404 237 427T257 476T269 531T274 584Q274 606 268 616T256 630L258 637Q301 631 320 604T339 546Q339 509 325 477T288 420T234 380T170 362L172 369Z" />
<glyph unicode="&#xbb;" glyph-name="guillemotright" horiz-adv-x="307" d="M287 228L286 218L128 86L122 94L220 226L194 354L202 358L287 228ZM87 358L172 228L171 218L14 86L7 94L106 226L79 354L87 358Z" />
<glyph unicode="&#xbc;" glyph-name="onequarter" horiz-adv-x="515" d="M341 356Q331 321 342 306T380 288L378 281H188L190 288Q219 291 236 304T265 353L323 556Q332 590 327 603Q322 610 310 613T283 619L285 627Q318 627 353 627T420 629Q415 613 411 599T398
557L341 356ZM216 69L288 151L313 150L235 -128Q224 -163 236 -178T274 -196L272 -203H81L83 -196Q112 -193 130 -179T159 -130L216 69ZM500 220L494 199H25L31 220H500ZM141 -103H39L40 -100L86 -49H156L141 -103ZM279 -49H347L325 -103H263L279 -49Z" />
<glyph unicode="&#xbd;" glyph-name="onehalf" horiz-adv-x="511" d="M497 221L490 200H21L28 221H497ZM109 -142H241Q273 -142 297 -123T335 -81H343L294 -203H39L109 -142ZM132 -120Q159 -101 182 -81T224 -40T252 1T262 42Q262 69 250 82T211 95Q164 95 127
64L122 67Q144 102 181 125T259 149Q304 149 324 128T345 72Q345 48 328 22T283 -31T218 -80T143 -121L132 -120ZM338 356Q328 321 340 306T378 288L376 281H185L187 288Q216 291 234 304T262 353L320 556Q329 590 324 603Q319 610 307 613T280 619L282 627Q315
627 350 627T417 629Q412 613 408 599T395 557L338 356Z" />
<glyph unicode="&#xbe;" glyph-name="threequarters" horiz-adv-x="515" d="M235 -128Q224 -163 236 -178T274 -196L272 -203H81L83 -196Q112 -193 130 -179T159 -130L216 69L288 151L313 150L235 -128ZM500 221L494 200H25L31 221H500ZM141 -103H39L40 -100L86
-49H156L141 -103ZM279 -49H347L325 -103H263L279 -49ZM270 478Q304 481 328 476T369 458T392 430T400 396Q400 372 387 351T351 313T297 287T229 276L231 283Q278 287 301 309T325 367Q325 389 307 406T242 424Q237 424 229 424T216 421L215 425L270 478ZM291
497Q310 508 322 521T335 553Q335 592 289 592Q272 592 257 586T231 570L226 575Q243 603 271 618T328 634Q369 634 388 617T407 574Q407 558 398 545T373 522T336 505T292 493L291 497ZM167 322Q167 336 177 346T201 357Q215 357 225 347T235 322Q235 308 225
298T201 288Q187 288 177 298T167 322Z" />
<glyph unicode="&#xbf;" glyph-name="questiondown" horiz-adv-x="326" d="M179 317Q197 317 215 311T247 293T271 261T280 214Q280 191 269 170T240 128T200 89T154 51Q131 32 112 17T78 -12T57 -39T49 -68Q49 -94 65 -115T122 -147L120 -153Q88 -148 62 -136T16
-105T-13 -65T-24 -20Q-24 17 7 49T82 116Q102 132 121 148T156 180T181 214T191 248Q191 273 177 284T146 296Q124 296 110 289T85 273L81 277Q93 291 118 304T179 317ZM312 435Q312 411 295 395T252 378Q227 378 211 394T194 435Q194 460 210 477T252 494Q278
494 295 477T312 435ZM231 -95Q231 -116 216 -130T180 -145Q159 -145 144 -131T129 -95Q129 -74 144 -60T180 -45Q201 -45 216 -59T231 -95Z" />
<glyph unicode="&#xc0;" glyph-name="Agrave" horiz-adv-x="601" d="M339 278L312 500L389 639H420L478 131Q485 69 504 41T572 8L569 0H268L271 8Q300 11 318 20T345 44T356 81T356 131L341 251H160L175 278H339ZM-85 0L-82 8Q-47 13 -18 26T35 60Q63 82 81 104T122
159L130 156Q122 140 116 120T109 75Q109 51 126 31T168 8L165 0H-85ZM471 681L296 746L339 815L476 688L471 681Z" />
<glyph unicode="&#xc1;" glyph-name="Aacute" horiz-adv-x="601" d="M339 278L312 500L389 639H420L478 131Q485 69 504 41T572 8L569 0H268L271 8Q300 11 318 20T345 44T356 81T356 131L341 251H160L175 278H339ZM-85 0L-82 8Q-47 13 -18 26T35 60Q63 82 81 104T122
159L130 156Q122 140 116 120T109 75Q109 51 126 31T168 8L165 0H-85ZM311 681L306 688L463 817L501 746L311 681Z" />
<glyph unicode="&#xc2;" glyph-name="Acircumflex" horiz-adv-x="601" d="M339 278L312 500L389 639H420L478 131Q485 69 504 41T572 8L569 0H268L271 8Q300 11 318 20T345 44T356 81T356 131L341 251H160L175 278H339ZM-85 0L-82 8Q-47 13 -18 26T35 60Q63 82
81 104T122 159L130 156Q122 140 116 120T109 75Q109 51 126 31T168 8L165 0H-85ZM284 686L440 815H444L525 686L519 682L428 741H425L287 681L284 686Z" />
<glyph unicode="&#xc3;" glyph-name="Atilde" horiz-adv-x="601" d="M339 278L312 500L389 639H420L478 131Q485 69 504 41T572 8L569 0H268L271 8Q300 11 318 20T345 44T356 81T356 131L341 251H160L175 278H339ZM-85 0L-82 8Q-47 13 -18 26T35 60Q63 82 81 104T122
159L130 156Q122 140 116 120T109 75Q109 51 126 31T168 8L165 0H-85ZM580 819Q567 784 544 761T494 727Q482 720 469 717T441 714Q410 714 385 716T335 719Q316 719 297 715T261 693L255 698Q272 725 289 742T325 771Q356 789 389 789Q412 789 439 787T495 784Q521
784 541 795T571 823L580 819Z" />
<glyph unicode="&#xc4;" glyph-name="Adieresis" horiz-adv-x="601" d="M339 278L312 500L389 639H420L478 131Q485 69 504 41T572 8L569 0H268L271 8Q300 11 318 20T345 44T356 81T356 131L341 251H160L175 278H339ZM-85 0L-82 8Q-47 13 -18 26T35 60Q63 82 81
104T122 159L130 156Q122 140 116 120T109 75Q109 51 126 31T168 8L165 0H-85ZM305 803Q328 803 344 788T360 749Q360 726 344 710T305 693Q282 693 267 709T251 749Q251 772 266 787T305 803ZM514 803Q537 803 553 788T569 749Q569 726 553 710T514 693Q491 693
476 709T460 749Q460 772 475 787T514 803Z" />
<glyph unicode="&#xc5;" glyph-name="Aring" horiz-adv-x="601" d="M339 278L312 500L389 639H420L478 131Q485 69 504 41T572 8L569 0H268L271 8Q300 11 318 20T345 44T356 81T356 131L341 251H160L175 278H339ZM-85 0L-82 8Q-47 13 -18 26T35 60Q63 82 81 104T122
159L130 156Q122 140 116 120T109 75Q109 51 126 31T168 8L165 0H-85ZM331 751Q331 786 352 804T400 825V805Q394 805 386 803T371 794T358 778T353 751Q353 735 358 725T370 708T386 700T400 697V677Q374 679 353 697T331 751ZM489 751Q489 716 468 698T421 677V697Q427
697 435 699T450 708T463 724T468 751Q468 767 463 777T450 794T434 802T421 805V825Q446 823 467 805T489 751Z" />
<glyph unicode="&#xc6;" glyph-name="AE" horiz-adv-x="837" d="M-96 0L-93 8Q-61 16 -32 28T19 54Q54 77 82 105T133 162L139 156Q127 140 116 117T104 69Q104 46 116 29T158 8L155 0H-96ZM438 0H232L235 8Q259 11 276 18T308 40T333 77T353 133L401 304H240L263
331H409L458 501Q465 524 467 539T469 567Q469 593 449 606T400 622L403 630H616L438 0ZM501 8Q546 11 586 25T662 63Q713 97 743 137T800 225H809L740 0H500L501 8ZM816 436Q815 485 810 519T791 575T749 608T675 623L677 630H864L824 436H816ZM599 322Q633 324
654 331T691 352T718 389T747 444H755L687 192H679Q679 224 677 246T668 282T644 303T597 314L599 322Z" />
<glyph unicode="&#xc7;" glyph-name="Ccedilla" horiz-adv-x="643" d="M612 418Q612 455 605 490T581 554T536 604T467 631L470 639Q493 639 520 635T574 625T626 612T669 596L621 418H612ZM303 -7Q248 -2 204 22T128 82T79 164T62 259Q62 338 94 406T181 528Q230
576 294 606T432 641L429 633Q384 628 345 596T273 510Q255 482 240 445T214 366T196 280T189 195Q189 160 196 128T218 70T255 26T306 1L303 -7ZM342 0Q386 8 421 28T486 77T539 142T584 218H593L540 26Q522 19 503 13T459 3T406 -4T339 -8L342 0ZM237 -227Q224
-234 207 -239T176 -245Q154 -245 144 -236T133 -215Q133 -197 147 -186T180 -167Q183 -192 199 -206T233 -221L237 -227ZM252 -211Q260 -203 260 -187Q260 -179 256 -171T244 -149Q229 -126 229 -109Q229 -96 237 -84T257 -61T283 -41T312 -24L316 -30Q310 -38
304 -45T298 -64Q298 -72 302 -83T312 -105Q319 -117 323 -127T329 -147Q329 -169 308 -185Q299 -193 285 -201T256 -217L252 -211Z" />
<glyph unicode="&#xc8;" glyph-name="Egrave" horiz-adv-x="592" d="M513 681L338 746L381 815L518 688L513 681ZM175 0H-32L-29 8Q-5 11 12 18T44 40T69 77T89 133L194 501Q201 524 203 539T206 567Q206 593 186 606T136 622L139 630H353L175 0ZM571 436Q570
485 562 519T536 575T488 608T411 623L413 630H619L579 436H571ZM238 8Q282 11 328 24T411 59Q436 74 455 89T490 124T521 168T554 225H563L494 0H236L238 8ZM335 322Q369 324 393 331T436 352T470 389T502 444H510L441 192H433Q433 224 429 246T414 282T383 303T333
314L335 322Z" />
<glyph unicode="&#xc9;" glyph-name="Eacute" horiz-adv-x="592" d="M356 681L351 688L508 817L546 746L356 681ZM175 0H-32L-29 8Q-5 11 12 18T44 40T69 77T89 133L194 501Q201 524 203 539T206 567Q206 593 186 606T136 622L139 630H353L175 0ZM571 436Q570
485 562 519T536 575T488 608T411 623L413 630H619L579 436H571ZM238 8Q282 11 328 24T411 59Q436 74 455 89T490 124T521 168T554 225H563L494 0H236L238 8ZM335 322Q369 324 393 331T436 352T470 389T502 444H510L441 192H433Q433 224 429 246T414 282T383 303T333
314L335 322Z" />
<glyph unicode="&#xca;" glyph-name="Ecircumflex" horiz-adv-x="592" d="M309 686L465 815H469L550 686L544 682L453 741H450L312 681L309 686ZM175 0H-32L-29 8Q-5 11 12 18T44 40T69 77T89 133L194 501Q201 524 203 539T206 567Q206 593 186 606T136 622L139
630H353L175 0ZM571 436Q570 485 562 519T536 575T488 608T411 623L413 630H619L579 436H571ZM238 8Q282 11 328 24T411 59Q436 74 455 89T490 124T521 168T554 225H563L494 0H236L238 8ZM335 322Q369 324 393 331T436 352T470 389T502 444H510L441 192H433Q433
224 429 246T414 282T383 303T333 314L335 322Z" />
<glyph unicode="&#xcb;" glyph-name="Edieresis" horiz-adv-x="592" d="M175 0H-32L-29 8Q-5 11 12 18T44 40T69 77T89 133L194 501Q201 524 203 539T206 567Q206 593 186 606T136 622L139 630H353L175 0ZM571 436Q570 485 562 519T536 575T488 608T411 623L413
630H619L579 436H571ZM238 8Q282 11 328 24T411 59Q436 74 455 89T490 124T521 168T554 225H563L494 0H236L238 8ZM335 322Q369 324 393 331T436 352T470 389T502 444H510L441 192H433Q433 224 429 246T414 282T383 303T333 314L335 322ZM313 803Q336 803 352 788T368
749Q368 726 352 710T313 693Q290 693 275 709T259 749Q259 772 274 787T313 803ZM522 803Q545 803 561 788T577 749Q577 726 561 710T522 693Q499 693 484 709T468 749Q468 772 483 787T522 803Z" />
<glyph unicode="&#xcc;" glyph-name="Igrave" horiz-adv-x="347" d="M194 501Q201 524 203 539T206 567Q206 593 186 606T136 622L139 630H437L434 622Q409 619 391 612T360 590T336 553T316 497L211 129Q204 106 202 91T199 63Q199 37 219 24T269 8L266 0H-32L-29
8Q-5 11 12 18T44 40T69 77T89 133L194 501ZM376 681L201 746L244 815L381 688L376 681Z" />
<glyph unicode="&#xcd;" glyph-name="Iacute" horiz-adv-x="347" d="M194 501Q201 524 203 539T206 567Q206 593 186 606T136 622L139 630H437L434 622Q409 619 391 612T360 590T336 553T316 497L211 129Q204 106 202 91T199 63Q199 37 219 24T269 8L266 0H-32L-29
8Q-5 11 12 18T44 40T69 77T89 133L194 501ZM235 681L230 688L387 817L425 746L235 681Z" />
<glyph unicode="&#xce;" glyph-name="Icircumflex" horiz-adv-x="347" d="M194 501Q201 524 203 539T206 567Q206 593 186 606T136 622L139 630H437L434 622Q409 619 391 612T360 590T336 553T316 497L211 129Q204 106 202 91T199 63Q199 37 219 24T269 8L266
0H-32L-29 8Q-5 11 12 18T44 40T69 77T89 133L194 501ZM180 686L336 815H340L421 686L415 682L324 741H321L183 681L180 686Z" />
<glyph unicode="&#xcf;" glyph-name="Idieresis" horiz-adv-x="347" d="M194 501Q201 524 203 539T206 567Q206 593 186 606T136 622L139 630H437L434 622Q409 619 391 612T360 590T336 553T316 497L211 129Q204 106 202 91T199 63Q199 37 219 24T269 8L266 0H-32L-29
8Q-5 11 12 18T44 40T69 77T89 133L194 501ZM464 803Q487 803 503 788T519 749Q519 726 503 710T464 693Q441 693 426 709T410 749Q410 772 425 787T464 803ZM673 803Q696 803 712 788T728 749Q728 726 712 710T673 693Q650 693 635 709T619 749Q619 772 634 787T673
803Z" />
<glyph unicode="&#xd0;" glyph-name="Eth" horiz-adv-x="700" d="M262 307L175 0H-32L-29 8Q-5 11 12 18T44 40T69 77T89 133L139 307H55L62 331H146L194 501Q201 524 203 539T206 567Q206 593 186 606T136 622L139 630H353L268 331H382L376 307H262ZM691 379Q691
267 638 184T493 54Q438 26 372 14T235 0L237 8Q304 13 364 41T470 120T542 240T569 401Q569 503 533 558T410 622L412 630Q472 624 523 607T611 560T670 485T691 379Z" />
<glyph unicode="&#xd1;" glyph-name="Ntilde" horiz-adv-x="673" d="M683 822Q670 787 647 764T597 730Q585 723 572 720T544 717Q513 717 488 719T438 722Q419 722 400 718T364 696L358 701Q375 728 392 745T428 774Q459 792 492 792Q515 792 542 790T598 787Q624
787 644 798T674 826L683 822ZM481 -3L220 517Q209 539 198 555T172 588Q157 603 140 611T97 622L100 630H303L547 142L504 -3H481ZM159 183Q150 156 147 137T144 95Q144 65 167 40T242 8L239 0H-53L-50 8Q-11 12 19 30T72 73T114 129T150 188L159 183ZM609 447Q615
470 619 495T623 544Q623 572 600 594T523 622L526 630H803L800 622Q736 614 693 571T616 444L609 447Z" />
<glyph unicode="&#xd2;" glyph-name="Ograve" horiz-adv-x="669" d="M531 681L356 746L399 815L536 688L531 681ZM260 -5Q216 4 180 27T119 86T79 166T65 259Q65 322 82 377T131 477T205 557T298 611Q330 625 364 632T432 641L429 633Q389 628 354 602Q317 574
286 525T232 418T197 298T184 184Q184 130 193 88T230 21Q243 9 262 3L260 -5ZM465 638Q509 629 545 606T606 547T646 467T660 374Q660 307 640 249T585 143T502 63T399 12Q347 -6 292 -8L295 0Q309 2 322 7Q370 25 410 74T479 186T524 319T540 449Q540 467 539
489T534 532T521 574T496 610Q480 624 462 630L465 638Z" />
<glyph unicode="&#xd3;" glyph-name="Oacute" horiz-adv-x="669" d="M403 681L398 688L555 817L593 746L403 681ZM260 -5Q216 4 180 27T119 86T79 166T65 259Q65 322 82 377T131 477T205 557T298 611Q330 625 364 632T432 641L429 633Q389 628 354 602Q317 574
286 525T232 418T197 298T184 184Q184 130 193 88T230 21Q243 9 262 3L260 -5ZM465 638Q509 629 545 606T606 547T646 467T660 374Q660 307 640 249T585 143T502 63T399 12Q347 -6 292 -8L295 0Q309 2 322 7Q370 25 410 74T479 186T524 319T540 449Q540 467 539
489T534 532T521 574T496 610Q480 624 462 630L465 638Z" />
<glyph unicode="&#xd4;" glyph-name="Ocircumflex" horiz-adv-x="669" d="M327 686L483 815H487L568 686L562 682L471 741H468L330 681L327 686ZM260 -5Q216 4 180 27T119 86T79 166T65 259Q65 322 82 377T131 477T205 557T298 611Q330 625 364 632T432 641L429
633Q389 628 354 602Q317 574 286 525T232 418T197 298T184 184Q184 130 193 88T230 21Q243 9 262 3L260 -5ZM465 638Q509 629 545 606T606 547T646 467T660 374Q660 307 640 249T585 143T502 63T399 12Q347 -6 292 -8L295 0Q309 2 322 7Q370 25 410 74T479 186T524
319T540 449Q540 467 539 489T534 532T521 574T496 610Q480 624 462 630L465 638Z" />
<glyph unicode="&#xd5;" glyph-name="Otilde" horiz-adv-x="669" d="M622 822Q609 787 586 764T536 730Q524 723 511 720T483 717Q452 717 427 719T377 722Q358 722 339 718T303 696L297 701Q314 728 331 745T367 774Q398 792 431 792Q454 792 481 790T537 787Q563
787 583 798T613 826L622 822ZM260 -5Q216 4 180 27T119 86T79 166T65 259Q65 322 82 377T131 477T205 557T298 611Q330 625 364 632T432 641L429 633Q389 628 354 602Q317 574 286 525T232 418T197 298T184 184Q184 130 193 88T230 21Q243 9 262 3L260 -5ZM465
638Q509 629 545 606T606 547T646 467T660 374Q660 307 640 249T585 143T502 63T399 12Q347 -6 292 -8L295 0Q309 2 322 7Q370 25 410 74T479 186T524 319T540 449Q540 467 539 489T534 532T521 574T496 610Q480 624 462 630L465 638Z" />
<glyph unicode="&#xd6;" glyph-name="Odieresis" horiz-adv-x="669" d="M346 803Q369 803 385 788T401 749Q401 726 385 710T346 693Q323 693 308 709T292 749Q292 772 307 787T346 803ZM555 803Q578 803 594 788T610 749Q610 726 594 710T555 693Q532 693 517
709T501 749Q501 772 516 787T555 803ZM260 -5Q216 4 180 27T119 86T79 166T65 259Q65 322 82 377T131 477T205 557T298 611Q330 625 364 632T432 641L429 633Q389 628 354 602Q317 574 286 525T232 418T197 298T184 184Q184 130 193 88T230 21Q243 9 262 3L260
-5ZM465 638Q509 629 545 606T606 547T646 467T660 374Q660 307 640 249T585 143T502 63T399 12Q347 -6 292 -8L295 0Q309 2 322 7Q370 25 410 74T479 186T524 319T540 449Q540 467 539 489T534 532T521 574T496 610Q480 624 462 630L465 638Z" />
<glyph unicode="&#xd7;" glyph-name="multiply" horiz-adv-x="361" d="M152 217L31 338L53 361L174 240L296 361L319 339L197 217L319 95L296 73L174 194L53 73L31 96L152 217Z" />
<glyph unicode="&#xd8;" glyph-name="Oslash" horiz-adv-x="669" d="M260 -5Q221 2 186 23L127 -66L108 -53L167 36Q119 73 92 131T65 259Q65 322 82 377T131 477T205 556T297 611Q329 625 363 632T432 641L429 633Q389 629 354 602Q317 575 286 526T233 419T197
298T184 184Q184 154 186 128T195 78L523 570Q514 591 500 606T462 630L465 638Q511 629 546 605L599 685L617 673L563 592Q609 555 634 498T660 374Q660 307 640 249T585 143T502 63T399 12Q347 -6 292 -8L295 0Q301 1 308 2T323 7Q371 25 410 74T479 187T524
320T540 449Q540 470 539 495T531 544L206 52Q216 32 230 21Q243 9 262 3L260 -5Z" />
<glyph unicode="&#xd9;" glyph-name="Ugrave" horiz-adv-x="651" d="M545 681L370 746L413 815L550 688L545 681ZM783 630L780 622Q751 619 720 606T664 570Q652 559 640 541T618 502T599 461T587 427H576Q584 459 587 480T590 524Q590 572 565 595T489 622L492
630H783ZM214 227Q206 203 203 179T203 133T220 90T258 56Q281 42 322 34T413 26L416 18Q411 14 400 10T374 1T340 -5T302 -8Q254 -8 213 0T143 27Q115 45 101 70T83 124T83 184T96 246L168 501Q175 524 177 539T180 567Q180 593 160 606T110 622L113 630H411L408
622Q383 619 365 612T334 590T310 553T290 497L214 227Z" />
<glyph unicode="&#xda;" glyph-name="Uacute" horiz-adv-x="651" d="M439 681L434 688L591 817L629 746L439 681ZM783 630L780 622Q751 619 720 606T664 570Q652 559 640 541T618 502T599 461T587 427H576Q584 459 587 480T590 524Q590 572 565 595T489 622L492
630H783ZM214 227Q206 203 203 179T203 133T220 90T258 56Q281 42 322 34T413 26L416 18Q411 14 400 10T374 1T340 -5T302 -8Q254 -8 213 0T143 27Q115 45 101 70T83 124T83 184T96 246L168 501Q175 524 177 539T180 567Q180 593 160 606T110 622L113 630H411L408
622Q383 619 365 612T334 590T310 553T290 497L214 227Z" />
<glyph unicode="&#xdb;" glyph-name="Ucircumflex" horiz-adv-x="651" d="M348 686L504 815H508L589 686L583 682L492 741H489L351 681L348 686ZM783 630L780 622Q751 619 720 606T664 570Q652 559 640 541T618 502T599 461T587 427H576Q584 459 587 480T590 524Q590
572 565 595T489 622L492 630H783ZM214 227Q206 203 203 179T203 133T220 90T258 56Q281 42 322 34T413 26L416 18Q411 14 400 10T374 1T340 -5T302 -8Q254 -8 213 0T143 27Q115 45 101 70T83 124T83 184T96 246L168 501Q175 524 177 539T180 567Q180 593 160 606T110
622L113 630H411L408 622Q383 619 365 612T334 590T310 553T290 497L214 227Z" />
<glyph unicode="&#xdc;" glyph-name="Udieresis" horiz-adv-x="651" d="M783 630L780 622Q751 619 720 606T664 570Q652 559 640 541T618 502T599 461T587 427H576Q584 459 587 480T590 524Q590 572 565 595T489 622L492 630H783ZM214 227Q206 203 203 179T203
133T220 90T258 56Q281 42 322 34T413 26L416 18Q411 14 400 10T374 1T340 -5T302 -8Q254 -8 213 0T143 27Q115 45 101 70T83 124T83 184T96 246L168 501Q175 524 177 539T180 567Q180 593 160 606T110 622L113 630H411L408 622Q383 619 365 612T334 590T310 553T290
497L214 227ZM370 803Q393 803 409 788T425 749Q425 726 409 710T370 693Q347 693 332 709T316 749Q316 772 331 787T370 803ZM579 803Q602 803 618 788T634 749Q634 726 618 710T579 693Q556 693 541 709T525 749Q525 772 540 787T579 803Z" />
<glyph unicode="&#xdd;" glyph-name="Yacute" horiz-adv-x="583" d="M256 302L196 529Q185 569 164 593T98 622L100 630H400L398 622Q318 616 318 572Q318 560 323 540T332 506L382 315L330 129Q322 106 320 91T317 63Q317 37 337 24T387 8L384 0H87L90 8Q114
11 131 18T163 40T188 77T208 133L256 302ZM716 622Q685 617 657 606T603 577Q565 552 536 522T483 466L477 475Q494 494 509 522T524 574Q524 597 501 608T454 622L457 630H719L716 622ZM390 681L385 688L542 817L580 746L390 681Z" />
<glyph unicode="&#xde;" glyph-name="Thorn" horiz-adv-x="560" d="M257 168Q274 169 287 172T311 177Q380 194 412 244T444 382Q444 403 440 421T424 455T394 480T347 493L350 501Q452 493 507 459T563 352Q563 304 539 269T474 210T376 174T255 159L257 168ZM194
501Q201 524 203 539T206 567Q206 593 186 606T136 622L139 630H437L434 622Q408 619 390 612T359 590T335 553T316 497L211 129Q204 106 202 91T199 63Q199 37 219 24T269 8L266 0H-32L-29 8Q-5 11 12 18T44 40T69 77T89 133L194 501Z" />
<glyph unicode="&#xdf;" glyph-name="germandbls" horiz-adv-x="475" d="M-204 -181Q-204 -163 -191 -150T-160 -137Q-142 -137 -129 -150T-116 -181Q-116 -199 -129 -212T-160 -225Q-178 -225 -191 -212T-204 -181ZM87 381Q100 442 123 498T183 597T269 669T385
704L383 698Q338 692 306 663T252 589T214 490T189 374Q177 311 166 241T139 101T100 -30T39 -141Q5 -186 -41 -211T-142 -241L-140 -235Q-98 -226 -59 -191T1 -88Q17 -31 27 25T45 139T63 256T87 381ZM408 704Q431 703 456 698T502 681T537 653T551 612Q551 590
541 571T514 536T478 506T439 480L435 485Q444 491 453 504T471 533T484 568T489 603Q489 642 470 667T407 698L408 704ZM416 464Q396 450 383 419T369 356Q369 337 375 312T398 247Q415 205 423 179T431 129Q431 105 418 81T383 38T329 7T260 -8L262 -1Q276 1
290 6T315 19T334 39T341 68Q341 111 308 188Q293 222 288 243T282 286Q282 333 314 380T412 469L416 464ZM172 62Q172 82 185 95T219 108Q239 108 252 95T265 62Q265 42 252 29T219 15Q199 15 186 28T172 62Z" />
<glyph unicode="&#xe0;" glyph-name="agrave" horiz-adv-x="425" d="M214 345Q200 328 179 294T137 221T103 147T89 90Q89 68 106 68Q113 68 123 74T142 89T161 108T178 127L184 123Q174 104 158 82T121 39T78 6T33 -8Q14 -8 1 7T-13 48Q-13 82 7 123T59 206T130
285T208 350L214 345ZM314 70Q321 70 333 79T357 103T380 133T399 163L405 160Q396 131 377 102T334 48T284 8T235 -8Q216 -8 207 2T197 30Q197 43 203 73T221 135Q233 173 247 214T273 292Q287 333 300 375Q297 377 292 377T282 378Q271 378 260 374T239 365L233
370Q241 376 253 383T279 398T308 410T338 416Q349 432 363 443T395 454Q416 454 416 440Q416 434 415 427T412 417Q407 404 395 369T369 290T339 201T314 123Q310 110 307 99T304 82Q304 74 307 72T314 70ZM309 481L224 653L295 675L317 483L309 481Z" />
<glyph unicode="&#xe1;" glyph-name="aacute" horiz-adv-x="425" d="M214 345Q200 328 179 294T137 221T103 147T89 90Q89 68 106 68Q113 68 123 74T142 89T161 108T178 127L184 123Q174 104 158 82T121 39T78 6T33 -8Q14 -8 1 7T-13 48Q-13 82 7 123T59 206T130
285T208 350L214 345ZM314 70Q321 70 333 79T357 103T380 133T399 163L405 160Q396 131 377 102T334 48T284 8T235 -8Q216 -8 207 2T197 30Q197 43 203 73T221 135Q233 173 247 214T273 292Q287 333 300 375Q297 377 292 377T282 378Q271 378 260 374T239 365L233
370Q241 376 253 383T279 398T308 410T338 416Q349 432 363 443T395 454Q416 454 416 440Q416 434 415 427T412 417Q407 404 395 369T369 290T339 201T314 123Q310 110 307 99T304 82Q304 74 307 72T314 70ZM292 475L284 479L384 678L446 641L292 475Z" />
<glyph unicode="&#xe2;" glyph-name="acircumflex" horiz-adv-x="425" d="M214 345Q200 328 179 294T137 221T103 147T89 90Q89 68 106 68Q113 68 123 74T142 89T161 108T178 127L184 123Q174 104 158 82T121 39T78 6T33 -8Q14 -8 1 7T-13 48Q-13 82 7 123T59
206T130 285T208 350L214 345ZM314 70Q321 70 333 79T357 103T380 133T399 163L405 160Q396 131 377 102T334 48T284 8T235 -8Q216 -8 207 2T197 30Q197 43 203 73T221 135Q233 173 247 214T273 292Q287 333 300 375Q297 377 292 377T282 378Q271 378 260 374T239
365L233 370Q241 376 253 383T279 398T308 410T338 416Q349 432 363 443T395 454Q416 454 416 440Q416 434 415 427T412 417Q407 404 395 369T369 290T339 201T314 123Q310 110 307 99T304 82Q304 74 307 72T314 70ZM379 671H383L430 483L422 479L364 581H358L221
478L216 483L379 671Z" />
<glyph unicode="&#xe3;" glyph-name="atilde" horiz-adv-x="425" d="M214 345Q200 328 179 294T137 221T103 147T89 90Q89 68 106 68Q113 68 123 74T142 89T161 108T178 127L184 123Q174 104 158 82T121 39T78 6T33 -8Q14 -8 1 7T-13 48Q-13 82 7 123T59 206T130
285T208 350L214 345ZM314 70Q321 70 333 79T357 103T380 133T399 163L405 160Q396 131 377 102T334 48T284 8T235 -8Q216 -8 207 2T197 30Q197 43 203 73T221 135Q233 173 247 214T273 292Q287 333 300 375Q297 377 292 377T282 378Q271 378 260 374T239 365L233
370Q241 376 253 383T279 398T308 410T338 416Q349 432 363 443T395 454Q416 454 416 440Q416 434 415 427T412 417Q407 404 395 369T369 290T339 201T314 123Q310 110 307 99T304 82Q304 74 307 72T314 70ZM511 628Q500 605 488 584T456 546Q440 531 421 526T384
521Q375 521 361 522T330 524T298 527T270 528Q251 528 233 523T192 494L187 499Q215 548 256 574Q273 585 290 589T325 593Q348 593 376 591T421 588Q444 588 464 595T504 631L511 628Z" />
<glyph unicode="&#xe4;" glyph-name="adieresis" horiz-adv-x="425" d="M214 345Q200 328 179 294T137 221T103 147T89 90Q89 68 106 68Q113 68 123 74T142 89T161 108T178 127L184 123Q174 104 158 82T121 39T78 6T33 -8Q14 -8 1 7T-13 48Q-13 82 7 123T59 206T130
285T208 350L214 345ZM314 70Q321 70 333 79T357 103T380 133T399 163L405 160Q396 131 377 102T334 48T284 8T235 -8Q216 -8 207 2T197 30Q197 43 203 73T221 135Q233 173 247 214T273 292Q287 333 300 375Q297 377 292 377T282 378Q271 378 260 374T239 365L233
370Q241 376 253 383T279 398T308 410T338 416Q349 432 363 443T395 454Q416 454 416 440Q416 434 415 427T412 417Q407 404 395 369T369 290T339 201T314 123Q310 110 307 99T304 82Q304 74 307 72T314 70ZM260 631Q281 631 295 617T309 582Q309 561 295 546T260
531Q239 531 225 546T211 582Q211 602 225 616T260 631ZM437 631Q458 631 472 617T486 582Q486 561 472 546T437 531Q416 531 402 546T388 582Q388 602 402 616T437 631Z" />
<glyph unicode="&#xe5;" glyph-name="aring" horiz-adv-x="425" d="M214 345Q200 328 179 294T137 221T103 147T89 90Q89 68 106 68Q113 68 123 74T142 89T161 108T178 127L184 123Q174 104 158 82T121 39T78 6T33 -8Q14 -8 1 7T-13 48Q-13 82 7 123T59 206T130
285T208 350L214 345ZM314 70Q321 70 333 79T357 103T380 133T399 163L405 160Q396 131 377 102T334 48T284 8T235 -8Q216 -8 207 2T197 30Q197 43 203 73T221 135Q233 173 247 214T273 292Q287 333 300 375Q297 377 292 377T282 378Q271 378 260 374T239 365L233
370Q241 376 253 383T279 398T308 410T338 416Q349 432 363 443T395 454Q416 454 416 440Q416 434 415 427T412 417Q407 404 395 369T369 290T339 201T314 123Q310 110 307 99T304 82Q304 74 307 72T314 70ZM238 574Q238 609 259 632T312 657V637Q290 635 275 621T259
574Q259 542 274 528T312 511V492Q280 494 259 516T238 574ZM409 574Q409 540 388 517T334 492V511Q356 513 371 527T387 574Q387 606 372 620T334 637V657Q366 655 387 633T409 574Z" />
<glyph unicode="&#xe6;" glyph-name="ae" horiz-adv-x="500" d="M284 383Q249 360 215 329T153 260T108 181T90 96Q90 86 95 80T109 73Q126 73 148 88T183 121L189 117Q181 100 166 79T133 38T92 5T46 -8Q14 -8 1 14T-13 63Q-13 109 14 156T83 247T177 328T281
390L284 383ZM424 431Q389 419 367 383T333 300T316 206T311 124Q311 99 320 80T352 61Q367 61 382 69T412 91T438 120T458 151L465 148Q457 124 442 97T406 46T357 7T297 -8Q270 -8 252 3T223 31T208 69T203 110Q203 166 220 222T267 325T338 402T426 438L424
431ZM337 227Q364 235 380 245T414 272Q425 282 432 297T445 330T452 365T455 399Q455 416 450 422T439 431L441 438Q477 436 497 420T518 378Q518 318 473 276T335 220L337 227Z" />
<glyph unicode="&#xe7;" glyph-name="ccedilla" horiz-adv-x="329" d="M278 431Q242 419 213 383T163 299T131 203T119 117Q119 68 147 68Q165 68 182 77T214 100T243 130T264 161L271 158Q265 139 252 111T217 56T166 11T99 -8Q74 -8 58 0T31 23T16 55T11 93Q11
150 36 209T100 318T186 400T280 438L278 431ZM266 375Q266 395 278 408T311 421Q331 421 344 408T357 375Q357 355 344 343T311 330Q291 330 279 342T266 375ZM34 -221Q22 -227 5 -233T-25 -239Q-47 -239 -56 -230T-67 -209Q-67 -190 -52 -180T-19 -162Q-17 -186
-2 -200T30 -214L34 -221ZM50 -204Q59 -195 59 -178Q59 -169 55 -161T44 -141Q31 -120 31 -103Q31 -89 39 -77T59 -54T85 -34T113 -19L116 -25Q109 -32 103 -40T97 -60Q97 -78 110 -99Q116 -110 120 -120T126 -140Q126 -153 119 -163T102 -182Q92 -190 80 -197T54
-210L50 -204Z" />
<glyph unicode="&#xe8;" glyph-name="egrave" horiz-adv-x="343" d="M266 431Q231 419 205 379T160 289T133 188T124 104Q124 81 133 71T155 61Q173 61 190 69T224 91T253 121T274 151L281 148Q274 128 259 102T222 51T172 9T110 -8Q82 -8 64 0T36 23T21 55T16
93Q16 149 37 208T94 316T175 399T268 438L266 431ZM159 227Q186 235 209 247T250 276Q277 303 285 338T294 406Q294 419 290 423T282 430L284 437Q322 435 341 419T361 376Q361 346 347 320T305 274T241 241T157 220L159 227ZM290 481L205 653L276 675L298 483L290
481Z" />
<glyph unicode="&#xe9;" glyph-name="eacute" horiz-adv-x="343" d="M248 475L240 479L340 678L402 641L248 475ZM266 431Q231 419 205 379T160 289T133 188T124 104Q124 81 133 71T155 61Q173 61 190 69T224 91T253 121T274 151L281 148Q274 128 259 102T222
51T172 9T110 -8Q82 -8 64 0T36 23T21 55T16 93Q16 149 37 208T94 316T175 399T268 438L266 431ZM159 227Q186 235 209 247T250 276Q277 303 285 338T294 406Q294 419 290 423T282 430L284 437Q322 435 341 419T361 376Q361 346 347 320T305 274T241 241T157 220L159
227Z" />
<glyph unicode="&#xea;" glyph-name="ecircumflex" horiz-adv-x="343" d="M324 670H328L375 482L367 478L309 580H303L166 477L161 482L324 670ZM266 431Q231 419 205 379T160 289T133 188T124 104Q124 81 133 71T155 61Q173 61 190 69T224 91T253 121T274 151L281
148Q274 128 259 102T222 51T172 9T110 -8Q82 -8 64 0T36 23T21 55T16 93Q16 149 37 208T94 316T175 399T268 438L266 431ZM159 227Q186 235 209 247T250 276Q277 303 285 338T294 406Q294 419 290 423T282 430L284 437Q322 435 341 419T361 376Q361 346 347 320T305
274T241 241T157 220L159 227Z" />
<glyph unicode="&#xeb;" glyph-name="edieresis" horiz-adv-x="343" d="M211 628Q232 628 246 614T260 579Q260 558 246 543T211 528Q190 528 176 543T162 579Q162 599 176 613T211 628ZM388 628Q409 628 423 614T437 579Q437 558 423 543T388 528Q367 528 353
543T339 579Q339 599 353 613T388 628ZM266 431Q231 419 205 379T160 289T133 188T124 104Q124 81 133 71T155 61Q173 61 190 69T224 91T253 121T274 151L281 148Q274 128 259 102T222 51T172 9T110 -8Q82 -8 64 0T36 23T21 55T16 93Q16 149 37 208T94 316T175
399T268 438L266 431ZM159 227Q186 235 209 247T250 276Q277 303 285 338T294 406Q294 419 290 423T282 430L284 437Q322 435 341 419T361 376Q361 346 347 320T305 274T241 241T157 220L159 227Z" />
<glyph unicode="&#xec;" glyph-name="igrave" horiz-adv-x="266" d="M202 246Q189 216 180 195T162 156T146 121T127 82L130 80Q159 95 186 119T234 163L240 159Q229 139 206 111T154 56T97 11T47 -8Q34 -8 23 0T11 26Q11 34 18 54T37 102Q48 131 63 164T93 229Q113
274 127 309T141 358Q141 372 129 372Q121 372 112 365T94 348Q69 321 46 277L39 280Q49 310 65 338T103 388T148 424T200 438Q223 438 235 425T248 393Q248 367 236 331T202 246ZM233 481L148 653L219 675L241 483L233 481Z" />
<glyph unicode="&#xed;" glyph-name="iacute" horiz-adv-x="266" d="M187 475L179 479L279 678L341 641L187 475ZM202 246Q189 216 180 195T162 156T146 121T127 82L130 80Q159 95 186 119T234 163L240 159Q229 139 206 111T154 56T97 11T47 -8Q34 -8 23 0T11
26Q11 34 18 54T37 102Q48 131 63 164T93 229Q113 274 127 309T141 358Q141 372 129 372Q121 372 112 365T94 348Q69 321 46 277L39 280Q49 310 65 338T103 388T148 424T200 438Q223 438 235 425T248 393Q248 367 236 331T202 246Z" />
<glyph unicode="&#xee;" glyph-name="icircumflex" horiz-adv-x="266" d="M517 670H521L568 482L560 478L502 580H496L359 477L354 482L517 670ZM202 246Q189 216 180 195T162 156T146 121T127 82L130 80Q159 95 186 119T234 163L240 159Q229 139 206 111T154
56T97 11T47 -8Q34 -8 23 0T11 26Q11 34 18 54T37 102Q48 131 63 164T93 229Q113 274 127 309T141 358Q141 372 129 372Q121 372 112 365T94 348Q69 321 46 277L39 280Q49 310 65 338T103 388T148 424T200 438Q223 438 235 425T248 393Q248 367 236 331T202 246Z"
/>
<glyph unicode="&#xef;" glyph-name="idieresis" horiz-adv-x="266" d="M400 628Q421 628 435 614T449 579Q449 558 435 543T400 528Q379 528 365 543T351 579Q351 599 365 613T400 628ZM577 628Q598 628 612 614T626 579Q626 558 612 543T577 528Q556 528 542
543T528 579Q528 599 542 613T577 628ZM202 246Q189 216 180 195T162 156T146 121T127 82L130 80Q159 95 186 119T234 163L240 159Q229 139 206 111T154 56T97 11T47 -8Q34 -8 23 0T11 26Q11 34 18 54T37 102Q48 131 63 164T93 229Q113 274 127 309T141 358Q141
372 129 372Q121 372 112 365T94 348Q69 321 46 277L39 280Q49 310 65 338T103 388T148 424T200 438Q223 438 235 425T248 393Q248 367 236 331T202 246Z" />
<glyph unicode="&#xf0;" glyph-name="eth" horiz-adv-x="444" d="M248 589Q216 630 173 658T75 698L77 705Q140 694 193 672T290 614L402 681L413 663L308 600Q365 548 397 482T429 323Q429 256 409 198T352 95T268 24T163 -7L165 0Q207 9 238 45Q260 70 277 108T307
188T325 273T331 353Q331 413 313 469T262 572L140 499L129 517L248 589ZM295 431Q268 425 245 402T205 354Q185 326 170 291T143 220T126 146T120 77Q120 42 128 24T147 0L145 -7Q116 -4 93 9T54 43T30 88T22 137Q22 194 44 246T104 340T191 407T297 438L295 431Z"
/>
<glyph unicode="&#xf1;" glyph-name="ntilde" horiz-adv-x="505" d="M354 82Q383 98 414 120T466 163L472 159Q461 139 434 111T373 56T308 11T254 -8Q241 -8 233 -2T224 25Q224 30 225 37T232 56Q238 71 248 90T269 130T290 170T309 205Q323 231 337 257T362
306T380 344T387 365Q387 377 375 377Q359 377 322 344T242 254L236 259Q262 298 290 331T347 387T403 424T454 438Q494 438 494 396Q494 380 479 341T434 245L351 84L354 82ZM109 261Q121 287 133 315T145 356Q145 372 132 372Q124 372 115 368T98 354Q87 340
76 323T51 277L44 280Q53 311 68 340T104 390T147 425T195 438Q219 438 233 425T248 386Q248 359 236 324T205 246L113 38Q105 20 90 6T48 -8Q19 -8 9 4T5 32Q8 39 16 57T35 99T57 148T79 197T98 237T109 261ZM544 628Q533 605 521 584T489 546Q473 531 454 526T417
521Q408 521 394 522T363 524T331 527T303 528Q284 528 266 523T225 494L220 499Q248 548 289 574Q306 585 323 589T358 593Q381 593 409 591T454 588Q477 588 497 595T537 631L544 628Z" />
<glyph unicode="&#xf2;" glyph-name="ograve" horiz-adv-x="452" d="M287 431Q278 429 269 425T252 416Q221 395 197 356T155 269T129 171T120 77Q120 42 128 24T147 0L145 -7Q112 -4 89 9T51 43T29 88T22 137Q22 194 41 246T96 340T181 407T289 438L287 431ZM165
0Q178 2 191 9T215 26Q242 49 263 88T300 172T323 265T331 354Q331 389 324 407T305 431L307 438Q340 435 363 422T400 388T422 344T429 295Q429 238 410 185T355 91T271 24T163 -7L165 0ZM324 481L239 653L310 675L332 483L324 481Z" />
<glyph unicode="&#xf3;" glyph-name="oacute" horiz-adv-x="452" d="M284 475L276 479L376 678L438 641L284 475ZM287 431Q278 429 269 425T252 416Q221 395 197 356T155 269T129 171T120 77Q120 42 128 24T147 0L145 -7Q112 -4 89 9T51 43T29 88T22 137Q22 194
41 246T96 340T181 407T289 438L287 431ZM165 0Q178 2 191 9T215 26Q242 49 263 88T300 172T323 265T331 354Q331 389 324 407T305 431L307 438Q340 435 363 422T400 388T422 344T429 295Q429 238 410 185T355 91T271 24T163 -7L165 0Z" />
<glyph unicode="&#xf4;" glyph-name="ocircumflex" horiz-adv-x="452" d="M345 670H349L396 482L388 478L330 580H324L187 477L182 482L345 670ZM287 431Q278 429 269 425T252 416Q221 395 197 356T155 269T129 171T120 77Q120 42 128 24T147 0L145 -7Q112 -4
89 9T51 43T29 88T22 137Q22 194 41 246T96 340T181 407T289 438L287 431ZM165 0Q178 2 191 9T215 26Q242 49 263 88T300 172T323 265T331 354Q331 389 324 407T305 431L307 438Q340 435 363 422T400 388T422 344T429 295Q429 238 410 185T355 91T271 24T163 -7L165
0Z" />
<glyph unicode="&#xf5;" glyph-name="otilde" horiz-adv-x="452" d="M287 431Q278 429 269 425T252 416Q221 395 197 356T155 269T129 171T120 77Q120 42 128 24T147 0L145 -7Q112 -4 89 9T51 43T29 88T22 137Q22 194 41 246T96 340T181 407T289 438L287 431ZM165
0Q178 2 191 9T215 26Q242 49 263 88T300 172T323 265T331 354Q331 389 324 407T305 431L307 438Q340 435 363 422T400 388T422 344T429 295Q429 238 410 185T355 91T271 24T163 -7L165 0ZM480 628Q469 605 457 584T425 546Q409 531 390 526T353 521Q344 521 330
522T299 524T267 527T239 528Q220 528 202 523T161 494L156 499Q184 548 225 574Q242 585 259 589T294 593Q317 593 345 591T390 588Q413 588 433 595T473 631L480 628Z" />
<glyph unicode="&#xf6;" glyph-name="odieresis" horiz-adv-x="452" d="M232 628Q253 628 267 614T281 579Q281 558 267 543T232 528Q211 528 197 543T183 579Q183 599 197 613T232 628ZM409 628Q430 628 444 614T458 579Q458 558 444 543T409 528Q388 528 374
543T360 579Q360 599 374 613T409 628ZM287 431Q278 429 269 425T252 416Q221 395 197 356T155 269T129 171T120 77Q120 42 128 24T147 0L145 -7Q112 -4 89 9T51 43T29 88T22 137Q22 194 41 246T96 340T181 407T289 438L287 431ZM165 0Q178 2 191 9T215 26Q242
49 263 88T300 172T323 265T331 354Q331 389 324 407T305 431L307 438Q340 435 363 422T400 388T422 344T429 295Q429 238 410 185T355 91T271 24T163 -7L165 0Z" />
<glyph unicode="&#xf7;" glyph-name="divide" horiz-adv-x="369" d="M143 96Q143 113 154 124T182 136Q199 136 210 125T222 96Q222 79 211 68T182 57Q165 57 154 68T143 96ZM143 343Q143 360 154 371T182 383Q199 383 210 372T222 343Q222 326 211 315T182 304Q165
304 154 315T143 343ZM344 237V205H22V237H344Z" />
<glyph unicode="&#xf8;" glyph-name="oslash" horiz-adv-x="452" d="M287 431Q278 429 269 425T252 416Q221 395 197 356T155 269T129 171T120 77V76L329 385Q326 405 320 416T305 431L307 438Q333 435 357 424L402 490L418 480L374 414Q403 394 416 361T429 295Q429
238 410 185T355 91T271 24T163 -7L165 0Q178 2 191 9T215 26Q242 49 263 88T300 172T323 265T331 354L122 43Q126 25 132 15T147 0L145 -7Q116 -4 96 6L54 -55L37 -44L78 16Q49 37 36 70T22 137Q22 194 41 246T96 340T181 407T289 438L287 431Z" />
<glyph unicode="&#xf9;" glyph-name="ugrave" horiz-adv-x="501" d="M187 212Q160 159 142 122T123 75Q123 62 135 62Q151 62 186 91T263 177L269 172Q243 133 214 100T157 43T101 6T50 -8Q10 -8 10 34Q10 53 25 89Q36 118 52 151T89 224Q95 237 105 256T124 296T141
333T148 356Q148 372 131 372Q123 372 115 368T98 354Q87 340 76 323T51 277L44 280Q53 311 70 340T108 390T155 425T205 438Q228 438 240 425T253 387Q253 354 232 307T187 212ZM357 68Q371 76 388 88T421 113T451 140T475 163L481 159Q474 146 460 129T429 93T391
56T350 24T312 1T279 -8Q266 -8 254 -1T242 26Q242 38 250 63T271 117T297 176T321 229L391 393Q399 410 415 424T457 438Q485 438 495 426T497 394Q492 381 482 357T459 306T437 257T421 222Q409 196 393 159T354 70L357 68ZM353 481L268 653L339 675L361 483L353
481Z" />
<glyph unicode="&#xfa;" glyph-name="uacute" horiz-adv-x="501" d="M321 475L313 479L413 678L475 641L321 475ZM187 212Q160 159 142 122T123 75Q123 62 135 62Q151 62 186 91T263 177L269 172Q243 133 214 100T157 43T101 6T50 -8Q10 -8 10 34Q10 53 25 89Q36
118 52 151T89 224Q95 237 105 256T124 296T141 333T148 356Q148 372 131 372Q123 372 115 368T98 354Q87 340 76 323T51 277L44 280Q53 311 70 340T108 390T155 425T205 438Q228 438 240 425T253 387Q253 354 232 307T187 212ZM357 68Q371 76 388 88T421 113T451
140T475 163L481 159Q474 146 460 129T429 93T391 56T350 24T312 1T279 -8Q266 -8 254 -1T242 26Q242 38 250 63T271 117T297 176T321 229L391 393Q399 410 415 424T457 438Q485 438 495 426T497 394Q492 381 482 357T459 306T437 257T421 222Q409 196 393 159T354
70L357 68Z" />
<glyph unicode="&#xfb;" glyph-name="ucircumflex" horiz-adv-x="501" d="M399 670H403L450 482L442 478L384 580H378L241 477L236 482L399 670ZM187 212Q160 159 142 122T123 75Q123 62 135 62Q151 62 186 91T263 177L269 172Q243 133 214 100T157 43T101 6T50
-8Q10 -8 10 34Q10 53 25 89Q36 118 52 151T89 224Q95 237 105 256T124 296T141 333T148 356Q148 372 131 372Q123 372 115 368T98 354Q87 340 76 323T51 277L44 280Q53 311 70 340T108 390T155 425T205 438Q228 438 240 425T253 387Q253 354 232 307T187 212ZM357
68Q371 76 388 88T421 113T451 140T475 163L481 159Q474 146 460 129T429 93T391 56T350 24T312 1T279 -8Q266 -8 254 -1T242 26Q242 38 250 63T271 117T297 176T321 229L391 393Q399 410 415 424T457 438Q485 438 495 426T497 394Q492 381 482 357T459 306T437
257T421 222Q409 196 393 159T354 70L357 68Z" />
<glyph unicode="&#xfc;" glyph-name="udieresis" horiz-adv-x="501" d="M270 628Q291 628 305 614T319 579Q319 558 305 543T270 528Q249 528 235 543T221 579Q221 599 235 613T270 628ZM447 628Q468 628 482 614T496 579Q496 558 482 543T447 528Q426 528 412
543T398 579Q398 599 412 613T447 628ZM187 212Q160 159 142 122T123 75Q123 62 135 62Q151 62 186 91T263 177L269 172Q243 133 214 100T157 43T101 6T50 -8Q10 -8 10 34Q10 53 25 89Q36 118 52 151T89 224Q95 237 105 256T124 296T141 333T148 356Q148 372 131
372Q123 372 115 368T98 354Q87 340 76 323T51 277L44 280Q53 311 70 340T108 390T155 425T205 438Q228 438 240 425T253 387Q253 354 232 307T187 212ZM357 68Q371 76 388 88T421 113T451 140T475 163L481 159Q474 146 460 129T429 93T391 56T350 24T312 1T279
-8Q266 -8 254 -1T242 26Q242 38 250 63T271 117T297 176T321 229L391 393Q399 410 415 424T457 438Q485 438 495 426T497 394Q492 381 482 357T459 306T437 257T421 222Q409 196 393 159T354 70L357 68Z" />
<glyph unicode="&#xfd;" glyph-name="yacute" horiz-adv-x="410" d="M213 377Q216 352 217 303T216 197T210 83T197 -16Q189 -28 176 -44T146 -79T114 -113T85 -141Q98 -70 105 1T114 138T116 259T111 354Q110 362 106 368T93 374Q85 374 77 366T61 344T46 315T32
282L25 285Q39 353 76 395T162 438Q187 438 197 422T213 377ZM-83 -194Q-59 -194 -31 -188T29 -164L33 -169Q22 -179 8 -189T-22 -207T-54 -223T-85 -234Q-96 -238 -105 -239T-123 -241Q-147 -241 -165 -230T-184 -189Q-184 -176 -178 -164T-162 -142T-140 -125T-117
-116L-113 -120Q-118 -125 -121 -134T-124 -152Q-124 -175 -113 -184T-83 -194ZM357 354Q357 374 351 381T333 388Q325 388 311 382T284 364L279 369Q289 384 302 396T329 418T356 433T381 438Q405 438 412 422T419 389Q419 345 393 285T309 155L304 158Q335 210
346 258T357 354ZM254 475L246 479L346 678L408 641L254 475Z" />
<glyph unicode="&#xfe;" glyph-name="thorn" horiz-adv-x="449" d="M229 411Q236 415 250 420T281 429T312 435T337 438Q365 438 383 431T413 409T428 375T433 330Q433 276 416 224T367 129T293 53T201 4L203 13Q222 27 244 57T284 129T315 219T327 322Q327 364
311 381T253 400Q249 400 240 400T224 397L229 411ZM105 34Q114 22 132 14T166 5L164 -3Q152 -8 135 -8Q123 -8 114 -7T94 -3L62 -128Q56 -153 57 -170T66 -197T88 -213T121 -220L118 -228H-130L-127 -220Q-107 -218 -94 -213T-71 -198T-56 -173T-43 -134L149 574Q155
594 161 614T167 643Q167 649 166 653T159 659L126 674L127 678L290 714L291 713L105 34Z" />
<glyph unicode="&#xff;" glyph-name="ydieresis" horiz-adv-x="410" d="M213 377Q216 352 217 303T216 197T210 83T197 -16Q189 -28 176 -44T146 -79T114 -113T85 -141Q98 -70 105 1T114 138T116 259T111 354Q110 362 106 368T93 374Q85 374 77 366T61 344T46
315T32 282L25 285Q39 353 76 395T162 438Q187 438 197 422T213 377ZM-83 -194Q-59 -194 -31 -188T29 -164L33 -169Q22 -179 8 -189T-22 -207T-54 -223T-85 -234Q-96 -238 -105 -239T-123 -241Q-147 -241 -165 -230T-184 -189Q-184 -176 -178 -164T-162 -142T-140
-125T-117 -116L-113 -120Q-118 -125 -121 -134T-124 -152Q-124 -175 -113 -184T-83 -194ZM357 354Q357 374 351 381T333 388Q325 388 311 382T284 364L279 369Q289 384 302 396T329 418T356 433T381 438Q405 438 412 422T419 389Q419 345 393 285T309 155L304
158Q335 210 346 258T357 354ZM188 628Q209 628 223 614T237 579Q237 558 223 543T188 528Q167 528 153 543T139 579Q139 599 153 613T188 628ZM365 628Q386 628 400 614T414 579Q414 558 400 543T365 528Q344 528 330 543T316 579Q316 599 330 613T365 628Z" />
<glyph unicode="&#x100;" glyph-name="Amacron" horiz-adv-x="601" d="M339 278L312 500L389 639H420L478 131Q485 69 504 41T572 8L569 0H268L271 8Q300 11 318 20T345 44T356 81T356 131L341 251H160L175 278H339ZM-85 0L-82 8Q-47 13 -18 26T35 60Q63 82 81
104T122 159L130 156Q122 140 116 120T109 75Q109 51 126 31T168 8L165 0H-85ZM280 701L291 738H548L537 701H280Z" />
<glyph unicode="&#x101;" glyph-name="amacron" horiz-adv-x="425" d="M214 345Q200 328 179 294T137 221T103 147T89 90Q89 68 106 68Q113 68 123 74T142 89T161 108T178 127L184 123Q174 104 158 82T121 39T78 6T33 -8Q14 -8 1 7T-13 48Q-13 82 7 123T59 206T130
285T208 350L214 345ZM314 70Q321 70 333 79T357 103T380 133T399 163L405 160Q396 131 377 102T334 48T284 8T235 -8Q216 -8 207 2T197 30Q197 43 203 73T221 135Q233 173 247 214T273 292Q287 333 300 375Q297 377 292 377T282 378Q271 378 260 374T239 365L233
370Q241 376 253 383T279 398T308 410T338 416Q349 432 363 443T395 454Q416 454 416 440Q416 434 415 427T412 417Q407 404 395 369T369 290T339 201T314 123Q310 110 307 99T304 82Q304 74 307 72T314 70ZM204 542L216 579H462L450 542H204Z" />
<glyph unicode="&#x102;" glyph-name="Abreve" horiz-adv-x="601" d="M339 278L312 500L389 639H420L478 131Q485 69 504 41T572 8L569 0H268L271 8Q300 11 318 20T345 44T356 81T356 131L341 251H160L175 278H339ZM-85 0L-82 8Q-47 13 -18 26T35 60Q63 82 81
104T122 159L130 156Q122 140 116 120T109 75Q109 51 126 31T168 8L165 0H-85ZM415 744Q457 744 490 760T537 818H547Q542 791 532 766T505 722T465 692T409 680Q367 680 344 703T320 764Q320 792 333 818H341Q332 782 355 763T415 744Z" />
<glyph unicode="&#x103;" glyph-name="abreve" horiz-adv-x="425" d="M214 345Q200 328 179 294T137 221T103 147T89 90Q89 68 106 68Q113 68 123 74T142 89T161 108T178 127L184 123Q174 104 158 82T121 39T78 6T33 -8Q14 -8 1 7T-13 48Q-13 82 7 123T59 206T130
285T208 350L214 345ZM314 70Q321 70 333 79T357 103T380 133T399 163L405 160Q396 131 377 102T334 48T284 8T235 -8Q216 -8 207 2T197 30Q197 43 203 73T221 135Q233 173 247 214T273 292Q287 333 300 375Q297 377 292 377T282 378Q271 378 260 374T239 365L233
370Q241 376 253 383T279 398T308 410T338 416Q349 432 363 443T395 454Q416 454 416 440Q416 434 415 427T412 417Q407 404 395 369T369 290T339 201T314 123Q310 110 307 99T304 82Q304 74 307 72T314 70ZM317 556Q360 556 394 580T441 650H453Q449 622 439 595T412
545T370 508T312 494Q264 494 243 521T222 585Q222 602 226 618T237 650H247Q240 612 256 584T317 556Z" />
<glyph unicode="&#x104;" glyph-name="Aogonek" horiz-adv-x="601" d="M339 278L312 500L389 639H420L478 131Q485 69 504 41T572 8L569 0H372L341 251H160L175 278H339ZM-85 0L-82 8Q-47 13 -18 26T35 60Q63 82 81 104T122 159L130 156Q122 140 116 120T109 75Q109
51 126 31T168 8L165 0H-85ZM424 -166Q416 -178 405 -190T381 -211T350 -227T312 -234Q277 -234 254 -216T231 -161Q231 -139 246 -118T282 -78T328 -44T371 -20H384Q371 -30 357 -41T331 -66T311 -96T303 -132Q303 -155 315 -167T356 -180Q373 -180 390 -174T419
-160L424 -166Z" />
<glyph unicode="&#x105;" glyph-name="aogonek" horiz-adv-x="425" d="M214 345Q200 328 179 294T137 221T103 147T89 90Q89 68 106 68Q113 68 123 74T142 89T161 108T178 127L184 123Q174 104 158 82T121 39T78 6T33 -8Q14 -8 1 7T-13 48Q-13 82 7 123T59 206T130
285T208 350L214 345ZM314 70Q321 70 333 79T357 103T380 133T399 163L405 160Q396 131 377 102T334 48T284 8T235 -8Q216 -8 207 2T197 30Q197 43 203 73T221 135Q233 173 247 214T273 292Q287 333 300 375Q297 377 292 377T282 378Q271 378 260 374T239 365L233
370Q241 376 253 383T279 398T308 410T338 416Q349 432 363 443T395 454Q416 454 416 440Q416 434 415 427T412 417Q407 404 395 369T369 290T339 201T314 123Q310 110 307 99T304 82Q304 74 307 72T314 70ZM306 -166Q297 -178 287 -190T262 -211T232 -227T194
-234Q158 -234 135 -216T112 -161Q112 -139 127 -118T163 -78T209 -44T252 -20H265Q253 -30 239 -41T212 -66T192 -96T184 -132Q184 -155 196 -167T237 -180Q254 -180 271 -174T301 -160L306 -166Z" />
<glyph unicode="&#x106;" glyph-name="Cacute" horiz-adv-x="643" d="M612 418Q612 455 605 490T581 554T536 604T467 631L470 639Q493 639 520 635T574 625T626 612T669 596L621 418H612ZM303 -7Q248 -2 204 22T128 82T79 164T62 259Q62 338 94 406T181 528Q230
576 294 606T432 641L429 633Q384 628 345 596T273 510Q255 482 240 445T214 366T196 280T189 195Q189 160 196 128T218 70T255 26T306 1L303 -7ZM342 0Q386 8 421 28T486 77T539 142T584 218H593L540 26Q522 19 503 13T459 3T406 -4T339 -8L342 0ZM419 681L414
688L571 817L609 746L419 681Z" />
<glyph unicode="&#x107;" glyph-name="cacute" horiz-adv-x="329" d="M243 475L235 479L335 678L397 641L243 475ZM278 431Q242 419 213 383T163 299T131 203T119 117Q119 68 147 68Q165 68 182 77T214 100T243 130T264 161L271 158Q265 139 252 111T217 56T166
11T99 -8Q74 -8 58 0T31 23T16 55T11 93Q11 150 36 209T100 318T186 400T280 438L278 431ZM266 375Q266 395 278 408T311 421Q331 421 344 408T357 375Q357 355 344 343T311 330Q291 330 279 342T266 375Z" />
<glyph unicode="&#x108;" glyph-name="Ccircumflex" horiz-adv-x="643" d="M338 686L494 815H498L579 686L573 682L482 741H479L341 681L338 686ZM612 418Q612 455 605 490T581 554T536 604T467 631L470 639Q493 639 520 635T574 625T626 612T669 596L621 418H612ZM303
-7Q248 -2 204 22T128 82T79 164T62 259Q62 338 94 406T181 528Q230 576 294 606T432 641L429 633Q384 628 345 596T273 510Q255 482 240 445T214 366T196 280T189 195Q189 160 196 128T218 70T255 26T306 1L303 -7ZM342 0Q386 8 421 28T486 77T539 142T584 218H593L540
26Q522 19 503 13T459 3T406 -4T339 -8L342 0Z" />
<glyph unicode="&#x109;" glyph-name="ccircumflex" horiz-adv-x="329" d="M321 670H325L372 482L364 478L306 580H300L163 477L158 482L321 670ZM278 431Q242 419 213 383T163 299T131 203T119 117Q119 68 147 68Q165 68 182 77T214 100T243 130T264 161L271
158Q265 139 252 111T217 56T166 11T99 -8Q74 -8 58 0T31 23T16 55T11 93Q11 150 36 209T100 318T186 400T280 438L278 431ZM266 375Q266 395 278 408T311 421Q331 421 344 408T357 375Q357 355 344 343T311 330Q291 330 279 342T266 375Z" />
<glyph unicode="&#x10a;" glyph-name="Cdotaccent" horiz-adv-x="643" d="M612 418Q612 455 605 490T581 554T536 604T467 631L470 639Q493 639 520 635T574 625T626 612T669 596L621 418H612ZM303 -7Q248 -2 204 22T128 82T79 164T62 259Q62 338 94 406T181 528Q230
576 294 606T432 641L429 633Q384 628 345 596T273 510Q255 482 240 445T214 366T196 280T189 195Q189 160 196 128T218 70T255 26T306 1L303 -7ZM342 0Q386 8 421 28T486 77T539 142T584 218H593L540 26Q522 19 503 13T459 3T406 -4T339 -8L342 0ZM419 754Q419
777 435 793T475 810Q498 810 514 794T531 754Q531 731 515 716T475 700Q452 700 436 715T419 754Z" />
<glyph unicode="&#x10b;" glyph-name="cdotaccent" horiz-adv-x="329" d="M278 431Q242 419 213 383T163 299T131 203T119 117Q119 68 147 68Q165 68 182 77T214 100T243 130T264 161L271 158Q265 139 252 111T217 56T166 11T99 -8Q74 -8 58 0T31 23T16 55T11
93Q11 150 36 209T100 318T186 400T280 438L278 431ZM266 375Q266 395 278 408T311 421Q331 421 344 408T357 375Q357 355 344 343T311 330Q291 330 279 342T266 375ZM249 596Q249 619 265 634T304 650Q327 650 343 635T359 596Q359 573 343 558T304 542Q281 542
265 557T249 596Z" />
<glyph unicode="&#x10c;" glyph-name="Ccaron" horiz-adv-x="643" d="M617 810L462 681H458L376 810L382 814L474 755H477L614 815L617 810ZM612 418Q612 455 605 490T581 554T536 604T467 631L470 639Q493 639 520 635T574 625T626 612T669 596L621 418H612ZM303
-7Q248 -2 204 22T128 82T79 164T62 259Q62 338 94 406T181 528Q230 576 294 606T432 641L429 633Q384 628 345 596T273 510Q255 482 240 445T214 366T196 280T189 195Q189 160 196 128T218 70T255 26T306 1L303 -7ZM342 0Q386 8 421 28T486 77T539 142T584 218H593L540
26Q522 19 503 13T459 3T406 -4T339 -8L342 0Z" />
<glyph unicode="&#x10d;" glyph-name="ccaron" horiz-adv-x="329" d="M259 477H255L200 665L208 669L278 567H281L426 670L431 665L259 477ZM278 431Q242 419 213 383T163 299T131 203T119 117Q119 68 147 68Q165 68 182 77T214 100T243 130T264 161L271 158Q265
139 252 111T217 56T166 11T99 -8Q74 -8 58 0T31 23T16 55T11 93Q11 150 36 209T100 318T186 400T280 438L278 431ZM266 375Q266 395 278 408T311 421Q331 421 344 408T357 375Q357 355 344 343T311 330Q291 330 279 342T266 375Z" />
<glyph unicode="&#x10e;" glyph-name="Dcaron" horiz-adv-x="700" d="M575 810L420 681H416L334 810L340 814L432 755H435L572 815L575 810ZM691 379Q691 267 638 184T493 54Q438 26 372 14T235 0L237 8Q304 13 364 41T470 120T542 240T569 401Q569 503 533 558T410
622L412 630Q472 624 523 607T611 560T670 485T691 379ZM206 567Q206 593 186 606T136 622L139 630H353L175 0H-32L-29 8Q-5 11 12 18T44 40T69 77T89 133L194 501Q201 524 203 539T206 567Z" />
<glyph unicode="&#x10f;" glyph-name="dcaron" horiz-adv-x="456" d="M510 496H501L572 689H641L510 496ZM291 430Q265 419 235 387T177 309T132 207T114 90Q114 69 129 69Q142 69 153 74T172 88T188 107T203 128L209 124Q200 105 185 82T152 39T112 6T69 -8Q36
-8 22 17T7 73Q7 103 17 141T46 219T91 299T150 371Q182 402 221 418T293 438L291 430ZM344 123Q340 110 337 99T334 82Q334 74 337 72T344 70Q351 70 362 79T386 103T410 133T429 163L435 160Q426 131 408 102T366 48T318 8T269 -8Q225 -8 225 43Q225 56 230 79T246
135L316 367Q319 378 321 388T323 405Q323 416 320 421T314 429L316 437Q326 435 334 428L379 573Q385 593 391 613T397 642Q397 653 388 658L355 674L356 678L524 714L525 713L344 123Z" />
<glyph unicode="&#x110;" glyph-name="Dcroat" horiz-adv-x="700" d="M175 0H-32L-29 8Q-5 11 12 18T44 40T69 77T89 133L139 307H55L62 331H146L194 501Q201 524 203 539T206 567Q206 593 186 606T136 622L139 630H353L268 331H382L376 307H262L175 0ZM691 379Q691
267 638 184T493 54Q438 26 372 14T235 0L237 8Q304 13 364 41T470 120T542 240T569 401Q569 503 533 558T410 622L412 630Q472 624 523 607T611 560T670 485T691 379Z" />
<glyph unicode="&#x111;" glyph-name="dcroat" horiz-adv-x="456" d="M465 517L344 123Q340 110 337 99T334 82Q334 74 337 72T344 70Q351 70 362 79T386 103T410 133T429 163L435 160Q426 131 408 102T366 48T318 8T269 -8Q225 -8 225 43Q225 56 230 79T246 135L316
367Q319 378 321 388T323 405Q323 416 320 421T314 429L316 437Q326 435 334 428L361 517H228L236 541H368Q368 541 370 547T374 560T379 574T381 580Q386 599 391 616T397 642Q397 653 388 658L355 674L356 678L524 714L525 713L472 541H544L535 517H465ZM291
430Q265 419 235 387T177 309T132 207T114 90Q114 69 129 69Q142 69 153 74T172 88T188 107T203 128L209 124Q200 105 185 82T152 39T112 6T69 -8Q36 -8 22 17T7 73Q7 103 17 141T46 219T91 299T150 371Q182 402 221 418T293 438L291 430Z" />
<glyph unicode="&#x112;" glyph-name="Emacron" horiz-adv-x="592" d="M175 0H-32L-29 8Q-5 11 12 18T44 40T69 77T89 133L194 501Q201 524 203 539T206 567Q206 593 186 606T136 622L139 630H353L175 0ZM571 436Q570 485 562 519T536 575T488 608T411 623L413
630H619L579 436H571ZM238 8Q282 11 328 24T411 59Q436 74 455 89T490 124T521 168T554 225H563L494 0H236L238 8ZM335 322Q369 324 393 331T436 352T470 389T502 444H510L441 192H433Q433 224 429 246T414 282T383 303T333 314L335 322ZM291 701L302 738H559L548
701H291Z" />
<glyph unicode="&#x113;" glyph-name="emacron" horiz-adv-x="343" d="M266 431Q231 419 205 379T160 289T133 188T124 104Q124 81 133 71T155 61Q173 61 190 69T224 91T253 121T274 151L281 148Q274 128 259 102T222 51T172 9T110 -8Q82 -8 64 0T36 23T21 55T16
93Q16 149 37 208T94 316T175 399T268 438L266 431ZM159 227Q186 235 209 247T250 276Q277 303 285 338T294 406Q294 419 290 423T282 430L284 437Q322 435 341 419T361 376Q361 346 347 320T305 274T241 241T157 220L159 227ZM156 542L168 579H414L402 542H156Z"
/>
<glyph unicode="&#x114;" glyph-name="Ebreve" horiz-adv-x="592" d="M175 0H-32L-29 8Q-5 11 12 18T44 40T69 77T89 133L194 501Q201 524 203 539T206 567Q206 593 186 606T136 622L139 630H353L175 0ZM571 436Q570 485 562 519T536 575T488 608T411 623L413
630H619L579 436H571ZM238 8Q282 11 328 24T411 59Q436 74 455 89T490 124T521 168T554 225H563L494 0H236L238 8ZM335 322Q369 324 393 331T436 352T470 389T502 444H510L441 192H433Q433 224 429 246T414 282T383 303T333 314L335 322ZM420 744Q462 744 495 760T542
818H552Q547 791 537 766T510 722T470 692T414 680Q372 680 349 703T325 764Q325 792 338 818H346Q337 782 360 763T420 744Z" />
<glyph unicode="&#x115;" glyph-name="ebreve" horiz-adv-x="343" d="M266 431Q231 419 205 379T160 289T133 188T124 104Q124 81 133 71T155 61Q173 61 190 69T224 91T253 121T274 151L281 148Q274 128 259 102T222 51T172 9T110 -8Q82 -8 64 0T36 23T21 55T16
93Q16 149 37 208T94 316T175 399T268 438L266 431ZM159 227Q186 235 209 247T250 276Q277 303 285 338T294 406Q294 419 290 423T282 430L284 437Q322 435 341 419T361 376Q361 346 347 320T305 274T241 241T157 220L159 227ZM283 556Q326 556 360 580T407 650H419Q415
622 405 595T378 545T336 508T278 494Q230 494 209 521T188 585Q188 602 192 618T203 650H213Q206 612 222 584T283 556Z" />
<glyph unicode="&#x116;" glyph-name="Edotaccent" horiz-adv-x="592" d="M380 754Q380 777 396 793T436 810Q459 810 475 794T492 754Q492 731 476 716T436 700Q413 700 397 715T380 754ZM175 0H-32L-29 8Q-5 11 12 18T44 40T69 77T89 133L194 501Q201 524 203
539T206 567Q206 593 186 606T136 622L139 630H353L175 0ZM571 436Q570 485 562 519T536 575T488 608T411 623L413 630H619L579 436H571ZM238 8Q282 11 328 24T411 59Q436 74 455 89T490 124T521 168T554 225H563L494 0H236L238 8ZM335 322Q369 324 393 331T436
352T470 389T502 444H510L441 192H433Q433 224 429 246T414 282T383 303T333 314L335 322Z" />
<glyph unicode="&#x117;" glyph-name="edotaccent" horiz-adv-x="343" d="M266 431Q231 419 205 379T160 289T133 188T124 104Q124 81 133 71T155 61Q173 61 190 69T224 91T253 121T274 151L281 148Q274 128 259 102T222 51T172 9T110 -8Q82 -8 64 0T36 23T21
55T16 93Q16 149 37 208T94 316T175 399T268 438L266 431ZM159 227Q186 235 209 247T250 276Q277 303 285 338T294 406Q294 419 290 423T282 430L284 437Q322 435 341 419T361 376Q361 346 347 320T305 274T241 241T157 220L159 227ZM241 596Q241 619 257 634T296
650Q319 650 335 635T351 596Q351 573 335 558T296 542Q273 542 257 557T241 596Z" />
<glyph unicode="&#x118;" glyph-name="Eogonek" horiz-adv-x="592" d="M406 -166Q397 -178 387 -190T362 -211T332 -227T294 -234Q258 -234 235 -216T212 -161Q212 -139 227 -118T263 -78T309 -44T352 -20H365Q353 -30 339 -41T312 -66T292 -96T284 -132Q284 -155
296 -167T337 -180Q354 -180 371 -174T401 -160L406 -166ZM175 0H-32L-29 8Q-5 11 12 18T44 40T69 77T89 133L194 501Q201 524 203 539T206 567Q206 593 186 606T136 622L139 630H353L175 0ZM571 436Q570 485 562 519T536 575T488 608T411 623L413 630H619L579
436H571ZM238 8Q282 11 328 24T411 59Q436 74 455 89T490 124T521 168T554 225H563L494 0H236L238 8ZM335 322Q369 324 393 331T436 352T470 389T502 444H510L441 192H433Q433 224 429 246T414 282T383 303T333 314L335 322Z" />
<glyph unicode="&#x119;" glyph-name="eogonek" horiz-adv-x="343" d="M192 -166Q183 -178 173 -190T148 -211T118 -227T80 -234Q44 -234 21 -216T-2 -161Q-2 -139 13 -118T49 -78T95 -44T138 -20H151Q139 -30 125 -41T98 -66T78 -96T70 -132Q70 -155 82 -167T123
-180Q140 -180 157 -174T187 -160L192 -166ZM266 431Q231 419 205 379T160 289T133 188T124 104Q124 81 133 71T155 61Q173 61 190 69T224 91T253 121T274 151L281 148Q274 128 259 102T222 51T172 9T110 -8Q82 -8 64 0T36 23T21 55T16 93Q16 149 37 208T94 316T175
399T268 438L266 431ZM159 227Q186 235 209 247T250 276Q277 303 285 338T294 406Q294 419 290 423T282 430L284 437Q322 435 341 419T361 376Q361 346 347 320T305 274T241 241T157 220L159 227Z" />
<glyph unicode="&#x11a;" glyph-name="Ecaron" horiz-adv-x="592" d="M584 810L429 681H425L343 810L349 814L441 755H444L581 815L584 810ZM175 0H-32L-29 8Q-5 11 12 18T44 40T69 77T89 133L194 501Q201 524 203 539T206 567Q206 593 186 606T136 622L139 630H353L175
0ZM571 436Q570 485 562 519T536 575T488 608T411 623L413 630H619L579 436H571ZM238 8Q282 11 328 24T411 59Q436 74 455 89T490 124T521 168T554 225H563L494 0H236L238 8ZM335 322Q369 324 393 331T436 352T470 389T502 444H510L441 192H433Q433 224 429 246T414
282T383 303T333 314L335 322Z" />
<glyph unicode="&#x11b;" glyph-name="ecaron" horiz-adv-x="343" d="M260 477H256L201 665L209 669L279 567H282L427 670L432 665L260 477ZM266 431Q231 419 205 379T160 289T133 188T124 104Q124 81 133 71T155 61Q173 61 190 69T224 91T253 121T274 151L281
148Q274 128 259 102T222 51T172 9T110 -8Q82 -8 64 0T36 23T21 55T16 93Q16 149 37 208T94 316T175 399T268 438L266 431ZM159 227Q186 235 209 247T250 276Q277 303 285 338T294 406Q294 419 290 423T282 430L284 437Q322 435 341 419T361 376Q361 346 347 320T305
274T241 241T157 220L159 227Z" />
<glyph unicode="&#x11c;" glyph-name="Gcircumflex" horiz-adv-x="690" d="M344 686L500 815H504L585 686L579 682L488 741H485L347 681L344 686ZM623 420Q623 455 616 490T592 554T547 603T477 630L480 638Q502 637 529 633T584 623T636 610T679 595L632 420H623ZM295
-5Q246 1 204 24T130 84T80 165T62 259Q62 345 96 415T187 536Q238 583 303 610T443 639L440 631Q389 626 345 594T267 510Q249 482 234 444T207 364T189 276T182 186Q182 118 211 68T298 3L295 -5ZM467 151Q474 175 476 190T478 218Q478 244 459 257T410 273L413
281H696L693 273Q668 270 651 264T621 245T601 216T586 176L543 25Q524 19 498 13T444 3T386 -4T332 -8L335 1Q357 3 375 8T407 21Q435 39 446 75L467 151Z" />
<glyph unicode="&#x11d;" glyph-name="gcircumflex" horiz-adv-x="383" d="M310 670H314L361 482L353 478L295 580H289L152 477L147 482L310 670ZM118 -240Q76 -239 37 -233T-34 -215T-85 -185T-104 -141Q-104 -126 -88 -112T-47 -85T3 -65T50 -54L52 -62Q40 -65
26 -71T1 -86T-17 -108T-25 -138Q-25 -164 -12 -181T21 -208T68 -224T121 -232L118 -240ZM245 431Q233 428 216 413Q201 400 184 375T152 317T128 247T118 173Q118 137 129 132L127 125Q86 127 61 154T36 219Q36 255 52 292T96 361T163 414T247 438L245 431ZM153
-232Q191 -227 218 -213T245 -177Q245 -164 236 -153T211 -131T178 -110T140 -89Q119 -77 99 -66T64 -43T39 -15T30 22Q30 51 52 75T109 112L115 109Q108 101 104 95T100 77Q100 66 109 57T133 37T167 17T206 -3Q236 -19 257 -31T293 -56T315 -84T322 -122Q322
-146 309 -166T272 -202T217 -227T151 -240L153 -232ZM353 401L453 439L427 361L351 394L353 401ZM144 132Q154 135 164 144Q179 155 198 180T233 239T260 312T271 390Q271 425 260 431L262 438Q303 437 328 409T354 345Q354 308 338 271T294 202T226 150T142 125L144
132Z" />
<glyph unicode="&#x11e;" glyph-name="Gbreve" horiz-adv-x="690" d="M487 744Q529 744 562 760T609 818H619Q614 791 604 766T577 722T537 692T481 680Q439 680 416 703T392 764Q392 792 405 818H413Q404 782 427 763T487 744ZM623 420Q623 455 616 490T592 554T547
603T477 630L480 638Q502 637 529 633T584 623T636 610T679 595L632 420H623ZM295 -5Q246 1 204 24T130 84T80 165T62 259Q62 345 96 415T187 536Q238 583 303 610T443 639L440 631Q389 626 345 594T267 510Q249 482 234 444T207 364T189 276T182 186Q182 118 211
68T298 3L295 -5ZM467 151Q474 175 476 190T478 218Q478 244 459 257T410 273L413 281H696L693 273Q668 270 651 264T621 245T601 216T586 176L543 25Q524 19 498 13T444 3T386 -4T332 -8L335 1Q357 3 375 8T407 21Q435 39 446 75L467 151Z" />
<glyph unicode="&#x11f;" glyph-name="gbreve" horiz-adv-x="383" d="M118 -240Q76 -239 37 -233T-34 -215T-85 -185T-104 -141Q-104 -126 -88 -112T-47 -85T3 -65T50 -54L52 -62Q40 -65 26 -71T1 -86T-17 -108T-25 -138Q-25 -164 -12 -181T21 -208T68 -224T121
-232L118 -240ZM245 431Q233 428 216 413Q201 400 184 375T152 317T128 247T118 173Q118 137 129 132L127 125Q86 127 61 154T36 219Q36 255 52 292T96 361T163 414T247 438L245 431ZM153 -232Q191 -227 218 -213T245 -177Q245 -164 236 -153T211 -131T178 -110T140
-89Q119 -77 99 -66T64 -43T39 -15T30 22Q30 51 52 75T109 112L115 109Q108 101 104 95T100 77Q100 66 109 57T133 37T167 17T206 -3Q236 -19 257 -31T293 -56T315 -84T322 -122Q322 -146 309 -166T272 -202T217 -227T151 -240L153 -232ZM353 401L453 439L427 361L351
394L353 401ZM144 132Q154 135 164 144Q179 155 198 180T233 239T260 312T271 390Q271 425 260 431L262 438Q303 437 328 409T354 345Q354 308 338 271T294 202T226 150T142 125L144 132ZM290 556Q333 556 367 580T414 650H426Q422 622 412 595T385 545T343 508T285
494Q237 494 216 521T195 585Q195 602 199 618T210 650H220Q213 612 229 584T290 556Z" />
<glyph unicode="&#x120;" glyph-name="Gdotaccent" horiz-adv-x="690" d="M424 754Q424 777 440 793T480 810Q503 810 519 794T536 754Q536 731 520 716T480 700Q457 700 441 715T424 754ZM623 420Q623 455 616 490T592 554T547 603T477 630L480 638Q502 637 529
633T584 623T636 610T679 595L632 420H623ZM295 -5Q246 1 204 24T130 84T80 165T62 259Q62 345 96 415T187 536Q238 583 303 610T443 639L440 631Q389 626 345 594T267 510Q249 482 234 444T207 364T189 276T182 186Q182 118 211 68T298 3L295 -5ZM467 151Q474
175 476 190T478 218Q478 244 459 257T410 273L413 281H696L693 273Q668 270 651 264T621 245T601 216T586 176L543 25Q524 19 498 13T444 3T386 -4T332 -8L335 1Q357 3 375 8T407 21Q435 39 446 75L467 151Z" />
<glyph unicode="&#x121;" glyph-name="gdotaccent" horiz-adv-x="383" d="M118 -240Q76 -239 37 -233T-34 -215T-85 -185T-104 -141Q-104 -126 -88 -112T-47 -85T3 -65T50 -54L52 -62Q40 -65 26 -71T1 -86T-17 -108T-25 -138Q-25 -164 -12 -181T21 -208T68 -224T121
-232L118 -240ZM245 431Q233 428 216 413Q201 400 184 375T152 317T128 247T118 173Q118 137 129 132L127 125Q86 127 61 154T36 219Q36 255 52 292T96 361T163 414T247 438L245 431ZM153 -232Q191 -227 218 -213T245 -177Q245 -164 236 -153T211 -131T178 -110T140
-89Q119 -77 99 -66T64 -43T39 -15T30 22Q30 51 52 75T109 112L115 109Q108 101 104 95T100 77Q100 66 109 57T133 37T167 17T206 -3Q236 -19 257 -31T293 -56T315 -84T322 -122Q322 -146 309 -166T272 -202T217 -227T151 -240L153 -232ZM353 401L453 439L427 361L351
394L353 401ZM144 132Q154 135 164 144Q179 155 198 180T233 239T260 312T271 390Q271 425 260 431L262 438Q303 437 328 409T354 345Q354 308 338 271T294 202T226 150T142 125L144 132ZM239 596Q239 619 255 634T294 650Q317 650 333 635T349 596Q349 573 333
558T294 542Q271 542 255 557T239 596Z" />
<glyph unicode="&#x122;" glyph-name="Gcommaaccent" horiz-adv-x="690" d="M230 -106Q230 -77 249 -64T290 -50Q320 -50 336 -69T353 -123Q353 -148 339 -169T303 -207T254 -236T198 -255L195 -248Q240 -234 272 -210T307 -151Q295 -156 283 -156Q263 -156 247
-144T230 -106ZM623 420Q623 455 616 490T592 554T547 603T477 630L480 638Q502 637 529 633T584 623T636 610T679 595L632 420H623ZM295 -5Q246 1 204 24T130 84T80 165T62 259Q62 345 96 415T187 536Q238 583 303 610T443 639L440 631Q389 626 345 594T267 510Q249
482 234 444T207 364T189 276T182 186Q182 118 211 68T298 3L295 -5ZM467 151Q474 175 476 190T478 218Q478 244 459 257T410 273L413 281H696L693 273Q668 270 651 264T621 245T601 216T586 176L543 25Q524 19 498 13T444 3T386 -4T332 -8L335 1Q357 3 375 8T407
21Q435 39 446 75L467 151Z" />
<glyph unicode="&#x123;" glyph-name="gcommaaccent" horiz-adv-x="383" d="M340 559Q340 543 334 532T318 514T297 504T275 500Q243 500 227 520T211 571Q211 597 224 620T260 661T310 692T368 710L371 703Q350 697 330 687T293 664T268 634T258 601Q272 608
287 608Q306 608 323 597T340 559ZM118 -240Q76 -239 37 -233T-34 -215T-85 -185T-104 -141Q-104 -126 -88 -112T-47 -85T3 -65T50 -54L52 -62Q40 -65 26 -71T1 -86T-17 -108T-25 -138Q-25 -164 -12 -181T21 -208T68 -224T121 -232L118 -240ZM245 431Q233 428 216
413Q201 400 184 375T152 317T128 247T118 173Q118 137 129 132L127 125Q86 127 61 154T36 219Q36 255 52 292T96 361T163 414T247 438L245 431ZM153 -232Q191 -227 218 -213T245 -177Q245 -164 236 -153T211 -131T178 -110T140 -89Q119 -77 99 -66T64 -43T39 -15T30
22Q30 51 52 75T109 112L115 109Q108 101 104 95T100 77Q100 66 109 57T133 37T167 17T206 -3Q236 -19 257 -31T293 -56T315 -84T322 -122Q322 -146 309 -166T272 -202T217 -227T151 -240L153 -232ZM353 401L453 439L427 361L351 394L353 401ZM144 132Q154 135
164 144Q179 155 198 180T233 239T260 312T271 390Q271 425 260 431L262 438Q303 437 328 409T354 345Q354 308 338 271T294 202T226 150T142 125L144 132Z" />
<glyph unicode="&#x124;" glyph-name="Hcircumflex" horiz-adv-x="761" d="M303 312L310 338H527L519 312H303ZM211 129Q204 106 202 91T199 63Q199 37 216 24T265 8L262 0H-32L-29 8Q-5 11 12 18T44 40T69 77T89 133L194 501Q201 524 203 539T206 567Q206 593
186 606T136 622L139 630H433L430 622Q404 619 387 612T357 590T335 553T316 497L211 129ZM625 129Q618 106 616 91T613 63Q613 37 633 24T683 8L680 0H386L389 8Q412 11 429 18T460 39T483 76T504 133L608 501Q616 524 618 539T620 567Q620 593 602 606T554 622L557
630H851L848 622Q823 619 805 612T774 590T750 553T730 497L625 129ZM391 686L547 815H551L632 686L626 682L535 741H532L394 681L391 686Z" />
<glyph unicode="&#x125;" glyph-name="hcircumflex" horiz-adv-x="479" d="M366 343Q366 362 358 369T340 376Q323 376 290 349T218 269L212 273Q266 360 319 399T417 438Q443 438 460 423T477 369Q477 329 467 287T438 204T394 126T341 61T280 15T217 -6L221
1Q236 4 249 17Q270 37 291 75T328 160T355 254T366 343ZM163 573Q169 593 175 613T181 642Q181 653 172 658L139 674L140 678L309 714L310 713L105 38Q97 20 82 6T40 -8Q11 -8 2 4T-2 32L163 573ZM156 52Q156 70 168 83T198 96Q216 96 229 83T242 52Q242 35 229
23T198 10Q181 10 169 22T156 52ZM238 741L394 870H398L479 741L473 737L382 796H379L241 736L238 741Z" />
<glyph unicode="&#x126;" glyph-name="Hbar" horiz-adv-x="761" d="M307 312L315 338H531L524 312H307ZM198 501Q206 524 208 539T210 567Q210 593 190 606T141 622L144 630H437L434 622Q409 619 392 612T361 590T339 553T320 497L215 129Q208 106 206 91T203
63Q203 37 221 24T269 8L266 0H-28L-25 8Q23 13 49 40T94 133L198 501ZM613 501Q620 524 622 539T624 567Q624 593 606 606T558 622L561 630H855L852 622Q827 619 809 612T778 590T754 553T734 497L630 129Q622 106 620 91T617 63Q617 37 637 24T687 8L684 0H390L393
8Q417 11 434 18T464 39T488 76T508 133L613 501ZM338 426L345 452H561L554 426H338ZM741 426L748 452H832L825 426H741ZM66 426L74 452H157L150 426H66Z" />
<glyph unicode="&#x127;" glyph-name="hbar" horiz-adv-x="479" d="M263 516L118 38Q110 20 95 6T53 -8Q24 -8 15 4T11 32L158 516H94L102 541H165Q165 541 167 547T171 560T176 574T178 580Q183 599 188 617T194 643Q194 653 185 658L152 674L153 678L322 714L323
713L270 541H399L391 516H263ZM379 343Q379 362 371 369T353 376Q336 376 303 349T231 269L225 273Q279 360 332 399T430 438Q456 438 473 423T490 369Q490 329 480 287T451 204T407 126T354 61T293 15T230 -6L234 1Q251 4 264 19Q285 40 306 78T343 162T369 255T379
343ZM169 52Q169 70 181 83T211 96Q229 96 242 83T255 52Q255 35 242 23T211 10Q194 10 182 22T169 52Z" />
<glyph unicode="&#x128;" glyph-name="Itilde" horiz-adv-x="347" d="M194 501Q201 524 203 539T206 567Q206 593 186 606T136 622L139 630H437L434 622Q409 619 391 612T360 590T336 553T316 497L211 129Q204 106 202 91T199 63Q199 37 219 24T269 8L266 0H-32L-29
8Q-5 11 12 18T44 40T69 77T89 133L194 501ZM489 822Q476 787 453 764T403 730Q391 723 378 720T350 717Q319 717 294 719T244 722Q225 722 206 718T170 696L164 701Q181 728 198 745T234 774Q265 792 298 792Q321 792 348 790T404 787Q430 787 450 798T480 826L489
822Z" />
<glyph unicode="&#x129;" glyph-name="itilde" horiz-adv-x="266" d="M202 246Q189 216 180 195T162 156T146 121T127 82L130 80Q159 95 186 119T234 163L240 159Q229 139 206 111T154 56T97 11T47 -8Q34 -8 23 0T11 26Q11 34 18 54T37 102Q48 131 63 164T93 229Q113
274 127 309T141 358Q141 372 129 372Q121 372 112 365T94 348Q69 321 46 277L39 280Q49 310 65 338T103 388T148 424T200 438Q223 438 235 425T248 393Q248 367 236 331T202 246ZM403 628Q392 605 380 584T348 546Q332 531 313 526T276 521Q267 521 253 522T222
524T190 527T162 528Q143 528 125 523T84 494L79 499Q107 548 148 574Q165 585 182 589T217 593Q240 593 268 591T313 588Q336 588 356 595T396 631L403 628Z" />
<glyph unicode="&#x12a;" glyph-name="Imacron" horiz-adv-x="347" d="M194 501Q201 524 203 539T206 567Q206 593 186 606T136 622L139 630H437L434 622Q409 619 391 612T360 590T336 553T316 497L211 129Q204 106 202 91T199 63Q199 37 219 24T269 8L266 0H-32L-29
8Q-5 11 12 18T44 40T69 77T89 133L194 501ZM428 701L439 738H696L685 701H428Z" />
<glyph unicode="&#x12b;" glyph-name="imacron" horiz-adv-x="266" d="M202 246Q189 216 180 195T162 156T146 121T127 82L130 80Q159 95 186 119T234 163L240 159Q229 139 206 111T154 56T97 11T47 -8Q34 -8 23 0T11 26Q11 34 18 54T37 102Q48 131 63 164T93
229Q113 274 127 309T141 358Q141 372 129 372Q121 372 112 365T94 348Q69 321 46 277L39 280Q49 310 65 338T103 388T148 424T200 438Q223 438 235 425T248 393Q248 367 236 331T202 246ZM111 542L123 579H345L333 542H111Z" />
<glyph unicode="&#x12c;" glyph-name="Ibreve" horiz-adv-x="347" d="M194 501Q201 524 203 539T206 567Q206 593 186 606T136 622L139 630H437L434 622Q409 619 391 612T360 590T336 553T316 497L211 129Q204 106 202 91T199 63Q199 37 219 24T269 8L266 0H-32L-29
8Q-5 11 12 18T44 40T69 77T89 133L194 501ZM305 744Q347 744 380 760T427 818H437Q432 791 422 766T395 722T355 692T299 680Q257 680 234 703T210 764Q210 792 223 818H231Q222 782 245 763T305 744Z" />
<glyph unicode="&#x12d;" glyph-name="ibreve" horiz-adv-x="266" d="M202 246Q189 216 180 195T162 156T146 121T127 82L130 80Q159 95 186 119T234 163L240 159Q229 139 206 111T154 56T97 11T47 -8Q34 -8 23 0T11 26Q11 34 18 54T37 102Q48 131 63 164T93 229Q113
274 127 309T141 358Q141 372 129 372Q121 372 112 365T94 348Q69 321 46 277L39 280Q49 310 65 338T103 388T148 424T200 438Q223 438 235 425T248 393Q248 367 236 331T202 246ZM222 556Q265 556 299 580T346 650H358Q354 622 344 595T317 545T275 508T217 494Q169
494 148 521T127 585Q127 602 131 618T142 650H152Q145 612 161 584T222 556Z" />
<glyph unicode="&#x12e;" glyph-name="Iogonek" horiz-adv-x="347" d="M194 501Q201 524 203 539T206 567Q206 593 186 606T136 622L139 630H437L434 622Q409 619 391 612T360 590T336 553T316 497L211 129Q204 106 202 91T199 63Q199 37 219 24T269 8L266 0H-32L-29
8Q-5 11 12 18T44 40T69 77T89 133L194 501ZM204 -166Q195 -178 185 -190T160 -211T130 -227T92 -234Q56 -234 33 -216T10 -161Q10 -139 25 -118T61 -78T107 -44T150 -20H163Q151 -30 137 -41T110 -66T90 -96T82 -132Q82 -155 94 -167T135 -180Q152 -180 169 -174T199
-160L204 -166Z" />
<glyph unicode="&#x12f;" glyph-name="iogonek" horiz-adv-x="266" d="M202 246Q189 216 180 195T162 156T145 121T126 82L129 80Q158 95 186 119T233 163L239 159Q232 146 219 129T189 93T154 56T116 24T79 1T47 -8Q33 -8 22 0T11 26Q11 31 13 37T18 54Q23 68
31 88T49 131T70 180T92 229Q112 274 126 309T141 358Q141 372 129 372Q121 372 111 365T93 348Q69 321 45 277L38 280Q49 310 65 338T103 388T148 424T199 438Q222 438 235 425T248 393Q248 367 236 331T202 246ZM212 597Q212 620 228 636T268 653Q291 653 307
637T324 597Q324 574 308 558T268 541Q245 541 229 557T212 597ZM137 -166Q128 -178 118 -190T93 -211T63 -227T25 -234Q-11 -234 -34 -216T-57 -161Q-57 -139 -42 -118T-6 -78T40 -44T83 -20H96Q84 -30 70 -41T43 -66T23 -96T15 -132Q15 -155 27 -167T68 -180Q85
-180 102 -174T132 -160L137 -166Z" />
<glyph unicode="&#x130;" glyph-name="Idotaccent" horiz-adv-x="347" d="M194 501Q201 524 203 539T206 567Q206 593 186 606T136 622L139 630H437L434 622Q409 619 391 612T360 590T336 553T316 497L211 129Q204 106 202 91T199 63Q199 37 219 24T269 8L266
0H-32L-29 8Q-5 11 12 18T44 40T69 77T89 133L194 501ZM246 754Q246 777 262 793T302 810Q325 810 341 794T358 754Q358 731 342 716T302 700Q279 700 263 715T246 754Z" />
<glyph unicode="&#x131;" glyph-name="dotlessi" horiz-adv-x="267" d="M202 246Q189 216 180 195T162 156T146 121T127 82L130 80Q159 95 186 119T234 163L240 159Q229 139 206 111T154 56T97 11T47 -8Q34 -8 23 0T11 26Q11 34 18 54T37 102Q48 131 63 164T93
229Q113 274 127 309T141 358Q141 372 129 372Q121 372 112 365T94 348Q69 321 46 277L39 280Q49 310 65 338T103 388T148 424T200 438Q223 438 235 425T248 393Q248 367 236 331T202 246Z" />
<glyph unicode="&#x132;" glyph-name="IJ" horiz-adv-x="653" d="M521 76Q502 10 473 -34T404 -107T315 -150T208 -171V-161Q253 -153 283 -133T335 -80T372 -4T404 94L520 501Q528 524 530 539T532 567Q532 593 512 606T463 622L466 630H763L760 622Q735 619
717 612T686 590T662 553T642 497L521 76ZM194 501Q201 524 203 539T206 567Q206 593 186 606T136 622L139 630H436L433 622Q408 619 390 612T359 590T335 553T316 497L211 129Q204 106 202 91T199 63Q199 37 219 24T269 8L266 0H-32L-29 8Q-5 11 12 18T44 40T69
77T89 133L194 501Z" />
<glyph unicode="&#x133;" glyph-name="ij" horiz-adv-x="505" d="M239 159Q232 146 219 129T189 93T154 56T116 24T79 1T47 -8Q33 -8 22 0T11 26Q11 34 18 54T36 102Q48 131 63 164T92 229Q112 274 126 309T141 358Q141 372 129 372Q121 372 111 365T93 348Q69
321 45 277L38 280Q49 310 65 338T103 388T148 424T199 438Q222 438 235 425T248 393Q248 367 236 331T202 246Q189 216 180 195T162 156T145 121T126 82L129 80Q158 95 186 119T233 163L239 159ZM212 597Q212 620 228 636T268 653Q291 653 307 637T324 597Q324
574 308 558T268 541Q245 541 229 557T212 597ZM450 597Q450 620 466 636T506 653Q529 653 545 637T562 597Q562 574 546 558T506 541Q483 541 467 557T450 597ZM349 253Q358 278 363 295T373 324T378 344T380 358Q380 372 367 372Q360 372 350 365T332 348Q321
334 309 317T285 277L278 280Q288 310 304 338T341 388T385 424T435 438Q460 438 473 425T487 392Q487 366 475 331T446 246Q429 193 406 126T353 -17Q321 -105 261 -159T115 -222L117 -216Q135 -210 151 -198T183 -165T215 -111T249 -31Q259 -5 273 34T301 113T328
191T349 253ZM26 -159Q26 -139 40 -125T75 -110Q96 -110 110 -124T125 -159Q125 -179 111 -193T75 -208Q55 -208 41 -194T26 -159Z" />
<glyph unicode="&#x134;" glyph-name="Jcircumflex" horiz-adv-x="314" d="M158 686L314 815H318L399 686L393 682L302 741H299L161 681L158 686ZM182 76Q163 10 134 -35T66 -108T-22 -151T-131 -171V-161Q-86 -153 -56 -133T-4 -80T34 -4T65 94L182 501Q189 524
191 539T193 567Q193 593 173 606T124 622L127 630H424L421 622Q396 619 378 612T347 590T323 553T303 497L182 76Z" />
<glyph unicode="&#x135;" glyph-name="jcircumflex" horiz-adv-x="255" d="M501 670H505L552 482L544 478L486 580H480L343 477L338 482L501 670ZM98 -15Q66 -103 5 -157T-141 -219L-139 -213Q-121 -207 -105 -195T-73 -162T-41 -108T-6 -28Q4 -2 17 36T45 114T71
192T92 253Q101 278 106 295T116 324T121 344T123 358Q123 372 111 372Q103 372 93 365T75 348Q52 320 28 277L21 280Q31 310 47 338T84 388T128 424T178 438Q203 438 216 425T230 392Q230 366 219 331T190 246Q172 193 149 127T98 -15ZM-229 -156Q-229 -136 -215
-122T-180 -107Q-160 -107 -146 -121T-131 -156Q-131 -176 -145 -190T-180 -205Q-200 -205 -214 -191T-229 -156Z" />
<glyph unicode="&#x136;" glyph-name="Kcommaaccent" horiz-adv-x="703" d="M777 622Q736 617 698 602T624 566T557 520T494 468L488 474Q511 497 525 517T540 568Q540 593 521 605T471 622L473 630H779L777 622ZM211 129Q204 106 202 91T199 63Q199 37 219 24T269
8L266 0H-32L-29 8Q-5 11 12 18T44 40T69 77T89 133L194 501Q201 524 203 539T206 567Q206 593 186 606T136 622L139 630H437L434 622Q409 619 391 612T360 590T336 553T316 497L211 129ZM691 -7Q680 -7 665 -7T632 -5T597 -3T565 -1Q542 1 523 5T488 20T457 47T427
91Q414 113 400 139T371 193T342 251T318 307L406 393Q422 357 445 310T494 217T544 130T586 69Q604 46 629 26T693 1L691 -7ZM260 -106Q260 -77 279 -64T320 -50Q350 -50 366 -69T383 -123Q383 -148 369 -169T333 -207T284 -236T228 -255L225 -248Q270 -234 302
-210T337 -151Q325 -156 313 -156Q293 -156 277 -144T260 -106Z" />
<glyph unicode="&#x137;" glyph-name="kcommaaccent" horiz-adv-x="456" d="M199 276Q217 301 240 329T290 382T343 422T393 438Q419 438 429 420T440 380Q440 360 428 339T397 296T351 254T298 217Q310 176 321 143T342 87Q355 55 370 55Q381 55 400 67T431 103L437
99Q430 82 417 64T387 29T350 3T309 -8Q292 -8 278 3T251 43Q240 67 230 103T212 177Q228 185 241 192T268 209Q301 232 327 263T353 332Q353 349 347 357T326 365Q318 365 303 358T271 337T236 308T205 272L199 276ZM166 573Q172 593 178 613T184 642Q184 653
176 658L143 674L144 678L312 714L313 713L109 38Q102 19 86 6T43 -8Q15 -8 6 4T1 32L166 573ZM100 -106Q100 -77 119 -64T160 -50Q190 -50 206 -69T223 -123Q223 -148 209 -169T173 -207T124 -236T68 -255L65 -248Q110 -234 142 -210T177 -151Q165 -156 153 -156Q133
-156 117 -144T100 -106Z" />
<glyph unicode="&#x139;" glyph-name="Lacute" horiz-adv-x="577" d="M267 681L262 688L419 817L457 746L267 681ZM-32 0L-29 8Q-5 11 12 18T44 40T69 77T89 133L194 501Q201 524 203 539T206 567Q206 593 186 606T136 622L139 630H437L434 622Q409 619 391 612T360
590T336 553T316 497L175 0H-32ZM228 8Q273 13 308 28T381 64Q407 79 428 94T467 129T503 172T538 228H546L477 0H226L228 8Z" />
<glyph unicode="&#x13a;" glyph-name="lacute" horiz-adv-x="243" d="M216 733L211 740L368 869L406 798L216 733ZM-2 26Q-2 42 11 80T44 179L180 573Q187 593 192 613T198 642Q198 653 189 658L156 674L157 678L326 714L327 713L117 82L120 80Q155 94 180 111T224
146L230 142Q219 122 195 97T143 48T85 8T34 -8Q21 -8 10 0T-2 26Z" />
<glyph unicode="&#x13b;" glyph-name="Lcommaaccent" horiz-adv-x="577" d="M166 -106Q166 -77 185 -64T226 -50Q256 -50 272 -69T289 -123Q289 -148 275 -169T239 -207T190 -236T134 -255L131 -248Q176 -234 208 -210T243 -151Q231 -156 219 -156Q199 -156 183
-144T166 -106ZM-32 0L-29 8Q-5 11 12 18T44 40T69 77T89 133L194 501Q201 524 203 539T206 567Q206 593 186 606T136 622L139 630H437L434 622Q409 619 391 612T360 590T336 553T316 497L175 0H-32ZM228 8Q273 13 308 28T381 64Q407 79 428 94T467 129T503 172T538
228H546L477 0H226L228 8Z" />
<glyph unicode="&#x13c;" glyph-name="lcommaaccent" horiz-adv-x="243" d="M221 -106Q221 -77 240 -64T281 -50Q311 -50 327 -69T344 -123Q344 -148 330 -169T294 -207T245 -236T189 -255L186 -248Q231 -234 263 -210T298 -151Q286 -156 274 -156Q254 -156 238
-144T221 -106ZM-2 26Q-2 42 11 80T44 179L180 573Q187 593 192 613T198 642Q198 653 189 658L156 674L157 678L326 714L327 713L117 82L120 80Q155 94 180 111T224 146L230 142Q219 122 195 97T143 48T85 8T34 -8Q21 -8 10 0T-2 26Z" />
<glyph unicode="&#x13d;" glyph-name="Lcaron" horiz-adv-x="577" d="M434 476H425L496 669H565L434 476ZM-32 0L-29 8Q-5 11 12 18T44 40T69 77T89 133L194 501Q201 524 203 539T206 567Q206 593 186 606T136 622L139 630H437L434 622Q409 619 391 612T360 590T336
553T316 497L175 0H-32ZM228 8Q273 13 308 28T381 64Q407 79 428 94T467 129T503 172T538 228H546L477 0H226L228 8Z" />
<glyph unicode="&#x13e;" glyph-name="lcaron" horiz-adv-x="243" d="M310 496H301L372 689H441L310 496ZM-2 26Q-2 42 11 80T44 179L180 573Q187 593 192 613T198 642Q198 653 189 658L156 674L157 678L326 714L327 713L117 82L120 80Q155 94 180 111T224 146L230
142Q219 122 195 97T143 48T85 8T34 -8Q21 -8 10 0T-2 26Z" />
<glyph unicode="&#x13f;" glyph-name="Ldot" horiz-adv-x="577" d="M-32 0L-29 8Q-5 11 12 18T44 40T69 77T89 133L194 501Q201 524 203 539T206 567Q206 593 186 606T136 622L139 630H437L434 622Q409 619 391 612T360 590T336 553T316 497L175 0H-32ZM228 8Q271
13 304 25T373 58Q400 73 421 88T462 123T500 166T536 222H545L477 0H226L228 8ZM445 352Q445 377 462 393T505 410Q531 410 547 394T564 352Q564 327 548 310T505 292Q480 292 463 309T445 352Z" />
<glyph unicode="&#x140;" glyph-name="ldot" horiz-adv-x="313" d="M249 345Q249 371 266 387T310 404Q335 404 352 388T369 345Q369 320 352 303T310 286Q284 286 267 303T249 345ZM-2 26Q-2 42 11 80T44 179L180 573Q187 593 192 613T198 642Q198 653 189 658L156
674L157 678L326 714L327 713L117 82L120 80Q155 94 180 111T224 146L230 142Q219 122 195 97T143 48T85 8T34 -8Q21 -8 10 0T-2 26Z" />
<glyph unicode="&#x141;" glyph-name="Lslash" horiz-adv-x="577" d="M133 284L194 501Q201 524 203 539T206 567Q206 593 186 606T136 622L139 630H437L434 622Q409 619 391 612T360 590T336 553T316 497L270 335L456 404L464 381L262 306L175 0H-32L-29 8Q-5
11 12 18T44 40T69 77T89 133L125 256L15 216L8 239L133 284ZM226 0L228 8Q273 13 308 27T381 64Q408 81 429 98T469 134T504 176T538 228H546L477 0H226Z" />
<glyph unicode="&#x142;" glyph-name="lslash" horiz-adv-x="245" d="M95 324L181 573Q188 593 193 613T199 642Q199 653 190 658L157 674L158 678L327 714L328 713L216 376L300 412L309 391L207 348L118 82L121 80Q156 94 181 110T225 146L231 142Q220 122 196
97T144 48T86 8T35 -8Q22 -8 11 0T0 26Q0 42 12 80T46 179L86 295L-6 257L-14 278L95 324Z" />
<glyph unicode="&#x143;" glyph-name="Nacute" horiz-adv-x="673" d="M411 681L406 688L563 817L601 746L411 681ZM481 -3L220 517Q209 539 198 555T172 588Q157 603 140 611T97 622L100 630H303L547 142L504 -3H481ZM159 183Q150 156 147 137T144 95Q144 65 167
40T242 8L239 0H-53L-50 8Q-11 12 19 30T72 73T114 129T150 188L159 183ZM609 447Q615 470 619 495T623 544Q623 572 600 594T523 622L526 630H803L800 622Q736 614 693 571T616 444L609 447Z" />
<glyph unicode="&#x144;" glyph-name="nacute" horiz-adv-x="505" d="M319 475L311 479L411 678L473 641L319 475ZM354 82Q383 98 414 120T466 163L472 159Q461 139 434 111T373 56T308 11T254 -8Q241 -8 233 -2T224 25Q224 30 225 37T232 56Q238 71 248 90T269
130T290 170T309 205Q323 231 337 257T362 306T380 344T387 365Q387 377 375 377Q359 377 322 344T242 254L236 259Q262 298 290 331T347 387T403 424T454 438Q494 438 494 396Q494 380 479 341T434 245L351 84L354 82ZM109 261Q121 287 133 315T145 356Q145 372
132 372Q124 372 115 368T98 354Q87 340 76 323T51 277L44 280Q53 311 68 340T104 390T147 425T195 438Q219 438 233 425T248 386Q248 359 236 324T205 246L113 38Q105 20 90 6T48 -8Q19 -8 9 4T5 32Q8 39 16 57T35 99T57 148T79 197T98 237T109 261Z" />
<glyph unicode="&#x145;" glyph-name="Ncommaaccent" horiz-adv-x="673" d="M220 -106Q220 -77 239 -64T280 -50Q310 -50 326 -69T343 -123Q343 -148 329 -169T293 -207T244 -236T188 -255L185 -248Q230 -234 262 -210T297 -151Q285 -156 273 -156Q253 -156 237
-144T220 -106ZM481 -3L220 517Q209 539 198 555T172 588Q157 603 140 611T97 622L100 630H303L547 142L504 -3H481ZM159 183Q150 156 147 137T144 95Q144 65 167 40T242 8L239 0H-53L-50 8Q-11 12 19 30T72 73T114 129T150 188L159 183ZM609 447Q615 470 619 495T623
544Q623 572 600 594T523 622L526 630H803L800 622Q736 614 693 571T616 444L609 447Z" />
<glyph unicode="&#x146;" glyph-name="ncommaaccent" horiz-adv-x="505" d="M85 -106Q85 -77 104 -64T145 -50Q175 -50 191 -69T208 -123Q208 -148 194 -169T158 -207T109 -236T53 -255L50 -248Q95 -234 127 -210T162 -151Q150 -156 138 -156Q118 -156 102 -144T85
-106ZM354 82Q383 98 414 120T466 163L472 159Q461 139 434 111T373 56T308 11T254 -8Q241 -8 233 -2T224 25Q224 30 225 37T232 56Q238 71 248 90T269 130T290 170T309 205Q323 231 337 257T362 306T380 344T387 365Q387 377 375 377Q359 377 322 344T242 254L236
259Q262 298 290 331T347 387T403 424T454 438Q494 438 494 396Q494 380 479 341T434 245L351 84L354 82ZM109 261Q121 287 133 315T145 356Q145 372 132 372Q124 372 115 368T98 354Q87 340 76 323T51 277L44 280Q53 311 68 340T104 390T147 425T195 438Q219 438
233 425T248 386Q248 359 236 324T205 246L113 38Q105 20 90 6T48 -8Q19 -8 9 4T5 32Q8 39 16 57T35 99T57 148T79 197T98 237T109 261Z" />
<glyph unicode="&#x147;" glyph-name="Ncaron" horiz-adv-x="673" d="M615 810L460 681H456L374 810L380 814L472 755H475L612 815L615 810ZM481 -3L220 517Q209 539 198 555T172 588Q157 603 140 611T97 622L100 630H303L547 142L504 -3H481ZM159 183Q150 156
147 137T144 95Q144 65 167 40T242 8L239 0H-53L-50 8Q-11 12 19 30T72 73T114 129T150 188L159 183ZM609 447Q615 470 619 495T623 544Q623 572 600 594T523 622L526 630H803L800 622Q736 614 693 571T616 444L609 447Z" />
<glyph unicode="&#x148;" glyph-name="ncaron" horiz-adv-x="505" d="M327 477H323L268 665L276 669L346 567H349L494 670L499 665L327 477ZM354 82Q383 98 414 120T466 163L472 159Q461 139 434 111T373 56T308 11T254 -8Q241 -8 233 -2T224 25Q224 30 225 37T232
56Q238 71 248 90T269 130T290 170T309 205Q323 231 337 257T362 306T380 344T387 365Q387 377 375 377Q359 377 322 344T242 254L236 259Q262 298 290 331T347 387T403 424T454 438Q494 438 494 396Q494 380 479 341T434 245L351 84L354 82ZM109 261Q121 287 133
315T145 356Q145 372 132 372Q124 372 115 368T98 354Q87 340 76 323T51 277L44 280Q53 311 68 340T104 390T147 425T195 438Q219 438 233 425T248 386Q248 359 236 324T205 246L113 38Q105 20 90 6T48 -8Q19 -8 9 4T5 32Q8 39 16 57T35 99T57 148T79 197T98 237T109
261Z" />
<glyph unicode="&#x149;" glyph-name="napostrophe" horiz-adv-x="532" d="M319 576Q319 592 325 603T341 622T363 634T387 638Q422 638 438 617T455 560Q455 534 441 510T404 467T350 433T289 413L286 420Q308 427 329 438T367 463T394 495T404 530Q391 522 372
522Q352 522 336 536T319 576ZM381 82Q410 98 441 120T493 163L499 159Q488 139 461 111T400 56T335 11T281 -8Q268 -8 260 -2T251 25Q251 30 252 37T259 56Q265 71 275 90T296 130T317 170T336 205Q350 231 364 257T389 306T407 344T414 365Q414 377 402 377Q386
377 349 344T269 254L263 259Q289 298 317 331T374 387T430 424T481 438Q521 438 521 396Q521 380 506 341T461 245L378 84L381 82ZM136 261Q148 287 160 315T172 356Q172 372 159 372Q151 372 142 368T125 354Q114 340 103 323T78 277L71 280Q80 311 95 340T131
390T174 425T222 438Q246 438 260 425T275 386Q275 359 263 324T232 246L140 38Q132 20 117 6T75 -8Q46 -8 36 4T32 32Q35 39 43 57T62 99T84 148T106 197T125 237T136 261Z" />
<glyph unicode="&#x14a;" glyph-name="Eng" horiz-adv-x="671" d="M534 76Q515 12 486 -32T418 -106T329 -151T220 -171V-161Q263 -153 294 -131T348 -74T388 4T421 100L241 456Q237 465 230 482T213 518T195 553T180 575Q165 595 146 606T97 622L100 630H303L549
128L534 76ZM159 183Q150 156 147 137T144 95Q144 65 167 40T242 8L239 0H-53L-50 8Q-11 12 19 30T72 73T114 129T150 188L159 183ZM613 447Q620 470 623 495T627 544Q627 572 603 594T528 622L531 630H807L804 622Q740 614 698 571T621 444L613 447Z" />
<glyph unicode="&#x14b;" glyph-name="eng" horiz-adv-x="507" d="M115 261Q127 287 139 315T151 356Q151 372 137 372Q129 372 121 368T104 354Q93 340 82 323T57 277L50 280Q59 311 74 340T110 390T153 425T201 438Q225 438 239 425T254 386Q254 359 242 324T210
246L119 38Q111 20 96 6T53 -8Q25 -8 15 4T11 32Q14 39 22 57T41 99T63 148T85 197T104 237T115 261ZM230 -31Q256 25 282 87T332 206Q342 231 353 257T373 306T387 344T393 365Q393 377 381 377Q365 377 328 344T248 254L242 259Q268 298 296 331T353 387T409
424T460 438Q500 438 500 396Q500 388 495 371T482 331T463 280T440 223Q426 189 414 160T389 103T364 45T336 -17Q298 -103 237 -158T91 -222L93 -216Q111 -210 127 -198T159 -164T192 -110T230 -31ZM2 -159Q2 -139 16 -125T51 -110Q72 -110 86 -124T101 -159Q101
-179 87 -193T51 -208Q31 -208 17 -194T2 -159Z" />
<glyph unicode="&#x14c;" glyph-name="Omacron" horiz-adv-x="669" d="M320 701L331 738H588L577 701H320ZM260 -5Q216 4 180 27T119 86T79 166T65 259Q65 322 82 377T131 477T205 557T298 611Q330 625 364 632T432 641L429 633Q389 628 354 602Q317 574 286 525T232
418T197 298T184 184Q184 130 193 88T230 21Q243 9 262 3L260 -5ZM465 638Q509 629 545 606T606 547T646 467T660 374Q660 307 640 249T585 143T502 63T399 12Q347 -6 292 -8L295 0Q309 2 322 7Q370 25 410 74T479 186T524 319T540 449Q540 467 539 489T534 532T521
574T496 610Q480 624 462 630L465 638Z" />
<glyph unicode="&#x14d;" glyph-name="omacron" horiz-adv-x="452" d="M190 542L202 579H448L436 542H190ZM287 431Q278 429 269 425T252 416Q221 395 197 356T155 269T129 171T120 77Q120 42 128 24T147 0L145 -7Q112 -4 89 9T51 43T29 88T22 137Q22 194 41 246T96
340T181 407T289 438L287 431ZM165 0Q178 2 191 9T215 26Q242 49 263 88T300 172T323 265T331 354Q331 389 324 407T305 431L307 438Q340 435 363 422T400 388T422 344T429 295Q429 238 410 185T355 91T271 24T163 -7L165 0Z" />
<glyph unicode="&#x14e;" glyph-name="Obreve" horiz-adv-x="669" d="M471 744Q513 744 546 760T593 818H603Q598 791 588 766T561 722T521 692T465 680Q423 680 400 703T376 764Q376 792 389 818H397Q388 782 411 763T471 744ZM260 -5Q216 4 180 27T119 86T79
166T65 259Q65 322 82 377T131 477T205 557T298 611Q330 625 364 632T432 641L429 633Q389 628 354 602Q317 574 286 525T232 418T197 298T184 184Q184 130 193 88T230 21Q243 9 262 3L260 -5ZM465 638Q509 629 545 606T606 547T646 467T660 374Q660 307 640 249T585
143T502 63T399 12Q347 -6 292 -8L295 0Q309 2 322 7Q370 25 410 74T479 186T524 319T540 449Q540 467 539 489T534 532T521 574T496 610Q480 624 462 630L465 638Z" />
<glyph unicode="&#x14f;" glyph-name="obreve" horiz-adv-x="452" d="M287 431Q278 429 269 425T252 416Q221 395 197 356T155 269T129 171T120 77Q120 42 128 24T147 0L145 -7Q112 -4 89 9T51 43T29 88T22 137Q22 194 41 246T96 340T181 407T289 438L287 431ZM165
0Q178 2 191 9T215 26Q242 49 263 88T300 172T323 265T331 354Q331 389 324 407T305 431L307 438Q340 435 363 422T400 388T422 344T429 295Q429 238 410 185T355 91T271 24T163 -7L165 0ZM315 556Q358 556 392 580T439 650H451Q447 622 437 595T410 545T368 508T310
494Q262 494 241 521T220 585Q220 602 224 618T235 650H245Q238 612 254 584T315 556Z" />
<glyph unicode="&#x150;" glyph-name="Ohungarumlaut" horiz-adv-x="669" d="M382 670L377 675L473 823L517 782L382 670ZM505 670L500 675L596 823L640 782L505 670ZM260 -5Q216 4 180 27T119 86T79 166T65 259Q65 322 82 377T131 477T205 557T298 611Q330 625
364 632T432 641L429 633Q389 628 354 602Q317 574 286 525T232 418T197 298T184 184Q184 130 193 88T230 21Q243 9 262 3L260 -5ZM465 638Q509 629 545 606T606 547T646 467T660 374Q660 307 640 249T585 143T502 63T399 12Q347 -6 292 -8L295 0Q309 2 322 7Q370
25 410 74T479 186T524 319T540 449Q540 467 539 489T534 532T521 574T496 610Q480 624 462 630L465 638Z" />
<glyph unicode="&#x151;" glyph-name="ohungarumlaut" horiz-adv-x="452" d="M221 476L216 481L337 672L381 631L221 476ZM344 476L339 481L460 672L504 631L344 476ZM287 431Q278 429 269 425T252 416Q221 395 197 356T155 269T129 171T120 77Q120 42 128 24T147
0L145 -7Q112 -4 89 9T51 43T29 88T22 137Q22 194 41 246T96 340T181 407T289 438L287 431ZM165 0Q178 2 191 9T215 26Q242 49 263 88T300 172T323 265T331 354Q331 389 324 407T305 431L307 438Q340 435 363 422T400 388T422 344T429 295Q429 238 410 185T355
91T271 24T163 -7L165 0Z" />
<glyph unicode="&#x152;" glyph-name="OE" horiz-adv-x="864" d="M299 0Q254 0 211 17T133 68T79 149T58 259Q58 341 95 408T192 523T326 598T473 630L471 622Q452 620 433 616T396 601Q352 580 312 540T242 446T194 326T176 188Q176 153 182 121T204 64T243 23T302
8L299 0ZM645 630L467 0H343L523 630H645ZM529 0L530 8Q574 11 614 25T690 63Q741 97 771 137T827 225H836L767 0H529ZM843 436Q842 485 837 519T818 575T776 608T704 623L706 630H891L851 436H843ZM628 322Q662 324 682 331T718 352T745 388T774 444H782L714 192H706Q706
224 704 246T695 282T671 303T625 314L628 322Z" />
<glyph unicode="&#x153;" glyph-name="oe" horiz-adv-x="613" d="M537 431Q502 419 476 381T431 293T404 195T395 112Q395 89 405 75T434 61Q452 61 471 69T507 91T539 121T562 151L569 148Q562 128 547 102T507 51T452 9T384 -8Q350 -8 332 11T305 56H303Q275
31 239 14T160 -7L162 0Q206 10 236 51T284 147Q288 157 293 171T303 203Q313 242 318 281T324 354Q324 389 318 407T301 431L303 438Q341 433 364 408T398 354H399Q430 389 466 412T539 438L537 431ZM283 431Q261 427 238 409Q210 386 188 346T151 259T128 164T120
77Q120 42 126 24T144 0L142 -7Q109 -4 87 9T50 43T29 88T22 137Q22 194 41 246T94 340T177 407T285 438L283 431ZM430 227Q486 244 521 276Q547 303 556 338T565 406Q565 419 561 423T553 430L555 437Q593 435 612 419T631 376Q631 346 617 320T576 274T512 241T428
220L430 227Z" />
<glyph unicode="&#x154;" glyph-name="Racute" horiz-adv-x="630" d="M346 681L341 688L498 817L536 746L346 681ZM336 316Q377 320 405 337T450 381T474 441T481 512Q481 547 463 577T392 622L395 630Q441 626 479 616T545 589T588 545T604 482Q604 416 565 379T450
319Q457 295 468 266T493 206T520 145T546 88Q556 66 569 51T596 26T625 11T652 3L650 -5Q647 -5 635 -5T604 -5T565 -3T523 0Q496 3 478 11T447 30T428 53T417 75Q397 125 375 184T334 311L336 316ZM211 129Q204 106 202 91T199 64Q199 38 218 24T270 8L267 0H-32L-29
8Q-5 11 12 18T44 40T69 77T89 133L194 501Q201 524 203 539T206 567Q206 593 186 606T136 622L139 630H353L211 129Z" />
<glyph unicode="&#x155;" glyph-name="racute" horiz-adv-x="369" d="M266 475L258 479L358 678L420 641L266 475ZM303 295Q311 307 316 322T322 351Q322 356 320 360T311 365Q297 365 276 333T234 253L227 255Q240 292 254 325T285 383T321 422T364 437Q379 437
389 426T400 395Q400 377 392 360T371 328T342 302T311 286L303 295ZM102 261Q113 287 123 313T133 360Q133 372 121 372Q113 372 104 367T87 353Q76 340 65 322T44 277L37 280Q44 311 58 340T90 390T131 425T178 438Q204 438 219 425T234 387Q234 360 224 325T198
246Q188 216 177 185T155 126T135 74T120 38Q112 20 97 6T54 -8Q26 -8 16 4T12 32Q17 46 29 78T56 146T83 214T102 261Z" />
<glyph unicode="&#x156;" glyph-name="Rcommaaccent" horiz-adv-x="630" d="M336 316Q377 320 405 337T450 381T474 441T481 512Q481 547 463 577T392 622L395 630Q441 626 479 616T545 589T588 545T604 482Q604 416 565 379T450 319Q457 295 468 266T493 206T520
145T546 88Q556 66 569 51T596 26T625 11T652 3L650 -5Q647 -5 635 -5T604 -5T565 -3T523 0Q496 3 478 11T447 30T428 53T417 75Q397 125 375 184T334 311L336 316ZM211 129Q204 106 202 91T199 64Q199 38 218 24T270 8L267 0H-32L-29 8Q-5 11 12 18T44 40T69 77T89
133L194 501Q201 524 203 539T206 567Q206 593 186 606T136 622L139 630H353L211 129ZM250 -106Q250 -77 269 -64T310 -50Q340 -50 356 -69T373 -123Q373 -148 359 -169T323 -207T274 -236T218 -255L215 -248Q260 -234 292 -210T327 -151Q315 -156 303 -156Q283
-156 267 -144T250 -106Z" />
<glyph unicode="&#x157;" glyph-name="rcommaaccent" horiz-adv-x="369" d="M303 295Q311 307 316 322T322 351Q322 356 320 360T311 365Q297 365 276 333T234 253L227 255Q240 292 254 325T285 383T321 422T364 437Q379 437 389 426T400 395Q400 377 392 360T371
328T342 302T311 286L303 295ZM102 261Q113 287 123 313T133 360Q133 372 121 372Q113 372 104 367T87 353Q76 340 65 322T44 277L37 280Q44 311 58 340T90 390T131 425T178 438Q204 438 219 425T234 387Q234 360 224 325T198 246Q188 216 177 185T155 126T135
74T120 38Q112 20 97 6T54 -8Q26 -8 16 4T12 32Q17 46 29 78T56 146T83 214T102 261ZM217 -106Q217 -77 236 -64T277 -50Q307 -50 323 -69T340 -123Q340 -148 326 -169T290 -207T241 -236T185 -255L182 -248Q227 -234 259 -210T294 -151Q282 -156 270 -156Q250
-156 234 -144T217 -106Z" />
<glyph unicode="&#x158;" glyph-name="Rcaron" horiz-adv-x="630" d="M560 810L405 681H401L319 810L325 814L417 755H420L557 815L560 810ZM336 316Q377 320 405 337T450 381T474 441T481 512Q481 547 463 577T392 622L395 630Q441 626 479 616T545 589T588 545T604
482Q604 416 565 379T450 319Q457 295 468 266T493 206T520 145T546 88Q556 66 569 51T596 26T625 11T652 3L650 -5Q647 -5 635 -5T604 -5T565 -3T523 0Q496 3 478 11T447 30T428 53T417 75Q397 125 375 184T334 311L336 316ZM211 129Q204 106 202 91T199 64Q199
38 218 24T270 8L267 0H-32L-29 8Q-5 11 12 18T44 40T69 77T89 133L194 501Q201 524 203 539T206 567Q206 593 186 606T136 622L139 630H353L211 129Z" />
<glyph unicode="&#x159;" glyph-name="rcaron" horiz-adv-x="369" d="M264 477H260L205 665L213 669L283 567H286L431 670L436 665L264 477ZM303 295Q311 307 316 322T322 351Q322 356 320 360T311 365Q297 365 276 333T234 253L227 255Q240 292 254 325T285 383T321
422T364 437Q379 437 389 426T400 395Q400 377 392 360T371 328T342 302T311 286L303 295ZM102 261Q113 287 123 313T133 360Q133 372 121 372Q113 372 104 367T87 353Q76 340 65 322T44 277L37 280Q44 311 58 340T90 390T131 425T178 438Q204 438 219 425T234
387Q234 360 224 325T198 246Q188 216 177 185T155 126T135 74T120 38Q112 20 97 6T54 -8Q26 -8 16 4T12 32Q17 46 29 78T56 146T83 214T102 261Z" />
<glyph unicode="&#x15a;" glyph-name="Sacute" horiz-adv-x="473" d="M475 442Q478 473 471 504T449 560T414 604T368 629L371 638Q386 637 407 633T451 624T494 614T528 606L484 442H475ZM417 184Q417 132 398 97T348 39T277 5T194 -8L197 0Q242 5 273 35T305
121Q305 141 297 163T277 207T249 254T220 303Q203 333 190 354T169 395T156 433T152 477Q152 510 167 539T208 589T267 624T337 639L334 630Q300 625 282 600T263 542Q263 521 268 503T282 465T305 423T336 372Q352 345 366 322T392 276T410 232T417 184ZM155
-6Q135 -5 111 -2T64 6T23 16T-5 26L45 220H54Q52 189 57 155T76 90T109 36T159 2L155 -6ZM315 681L310 688L467 817L505 746L315 681Z" />
<glyph unicode="&#x15b;" glyph-name="sacute" horiz-adv-x="292" d="M224 475L216 479L316 678L378 641L224 475ZM237 431Q208 427 189 409T170 358Q170 338 176 312T196 244Q211 202 218 176T226 129Q226 105 216 81T185 38T135 7T64 -8L66 -1Q100 4 117 19T135
68Q135 89 126 121T102 191Q88 226 83 253T77 303Q77 326 87 349T117 390T167 422T239 438L237 431ZM-40 66Q-40 86 -26 101T10 116Q31 116 45 101T60 66Q60 45 46 31T10 16Q-11 16 -25 30T-40 66ZM235 385Q235 405 248 418T280 431Q299 431 312 418T325 385Q325
366 312 353T280 340Q261 340 248 353T235 385Z" />
<glyph unicode="&#x15c;" glyph-name="Scircumflex" horiz-adv-x="473" d="M264 686L420 815H424L505 686L499 682L408 741H405L267 681L264 686ZM475 442Q478 473 471 504T449 560T414 604T368 629L371 638Q386 637 407 633T451 624T494 614T528 606L484 442H475ZM417
184Q417 132 398 97T348 39T277 5T194 -8L197 0Q242 5 273 35T305 121Q305 141 297 163T277 207T249 254T220 303Q203 333 190 354T169 395T156 433T152 477Q152 510 167 539T208 589T267 624T337 639L334 630Q300 625 282 600T263 542Q263 521 268 503T282 465T305
423T336 372Q352 345 366 322T392 276T410 232T417 184ZM155 -6Q135 -5 111 -2T64 6T23 16T-5 26L45 220H54Q52 189 57 155T76 90T109 36T159 2L155 -6Z" />
<glyph unicode="&#x15d;" glyph-name="scircumflex" horiz-adv-x="292" d="M286 670H290L337 482L329 478L271 580H265L128 477L123 482L286 670ZM237 431Q208 427 189 409T170 358Q170 338 176 312T196 244Q211 202 218 176T226 129Q226 105 216 81T185 38T135
7T64 -8L66 -1Q100 4 117 19T135 68Q135 89 126 121T102 191Q88 226 83 253T77 303Q77 326 87 349T117 390T167 422T239 438L237 431ZM-40 66Q-40 86 -26 101T10 116Q31 116 45 101T60 66Q60 45 46 31T10 16Q-11 16 -25 30T-40 66ZM235 385Q235 405 248 418T280
431Q299 431 312 418T325 385Q325 366 312 353T280 340Q261 340 248 353T235 385Z" />
<glyph unicode="&#x15e;" glyph-name="Scedilla" horiz-adv-x="473" d="M475 442Q478 473 471 504T449 560T414 604T368 629L371 638Q386 637 407 633T451 624T494 614T528 606L484 442H475ZM417 184Q417 132 398 97T348 39T277 5T194 -8L197 0Q242 5 273 35T305
121Q305 141 297 163T277 207T249 254T220 303Q203 333 190 354T169 395T156 433T152 477Q152 510 167 539T208 589T267 624T337 639L334 630Q300 625 282 600T263 542Q263 521 268 503T282 465T305 423T336 372Q352 345 366 322T392 276T410 232T417 184ZM155
-6Q135 -5 111 -2T64 6T23 16T-5 26L45 220H54Q52 189 57 155T76 90T109 36T159 2L155 -6ZM102 -227Q89 -234 72 -239T41 -245Q19 -245 9 -236T-2 -215Q-2 -197 12 -186T45 -167Q48 -192 64 -206T98 -221L102 -227ZM117 -211Q125 -203 125 -187Q125 -179 121 -171T109
-149Q94 -126 94 -109Q94 -96 102 -84T122 -61T148 -41T177 -24L181 -30Q175 -38 169 -45T163 -64Q163 -72 167 -83T177 -105Q184 -117 188 -127T194 -147Q194 -169 173 -185Q164 -193 150 -201T121 -217L117 -211Z" />
<glyph unicode="&#x15f;" glyph-name="scedilla" horiz-adv-x="292" d="M237 431Q208 427 189 409T170 358Q170 338 176 312T196 244Q211 202 218 176T226 129Q226 105 216 81T185 38T135 7T64 -8L66 -1Q100 4 117 19T135 68Q135 89 126 121T102 191Q88 226 83
253T77 303Q77 326 87 349T117 390T167 422T239 438L237 431ZM-40 66Q-40 86 -26 101T10 116Q31 116 45 101T60 66Q60 45 46 31T10 16Q-11 16 -25 30T-40 66ZM235 385Q235 405 248 418T280 431Q299 431 312 418T325 385Q325 366 312 353T280 340Q261 340 248 353T235
385ZM219 -221Q207 -227 190 -233T160 -239Q138 -239 129 -230T118 -209Q118 -190 133 -180T166 -162Q168 -186 183 -200T215 -214L219 -221ZM235 -204Q244 -195 244 -178Q244 -169 240 -161T229 -141Q216 -120 216 -103Q216 -89 224 -77T244 -54T270 -34T298 -19L301
-25Q294 -32 288 -40T282 -60Q282 -78 295 -99Q301 -110 305 -120T311 -140Q311 -153 304 -163T287 -182Q277 -190 265 -197T239 -210L235 -204Z" />
<glyph unicode="&#x160;" glyph-name="Scaron" horiz-adv-x="473" d="M523 810L368 681H364L282 810L288 814L380 755H383L520 815L523 810ZM475 442Q478 473 471 504T449 560T414 604T368 629L371 638Q386 637 407 633T451 624T494 614T528 606L484 442H475ZM417
184Q417 132 398 97T348 39T277 5T194 -8L197 0Q242 5 273 35T305 121Q305 141 297 163T277 207T249 254T220 303Q203 333 190 354T169 395T156 433T152 477Q152 510 167 539T208 589T267 624T337 639L334 630Q300 625 282 600T263 542Q263 521 268 503T282 465T305
423T336 372Q352 345 366 322T392 276T410 232T417 184ZM155 -6Q135 -5 111 -2T64 6T23 16T-5 26L45 220H54Q52 189 57 155T76 90T109 36T159 2L155 -6Z" />
<glyph unicode="&#x161;" glyph-name="scaron" horiz-adv-x="292" d="M230 477H226L171 665L179 669L249 567H252L397 670L402 665L230 477ZM237 431Q208 427 189 409T170 358Q170 338 176 312T196 244Q211 202 218 176T226 129Q226 105 216 81T185 38T135 7T64
-8L66 -1Q100 4 117 19T135 68Q135 89 126 121T102 191Q88 226 83 253T77 303Q77 326 87 349T117 390T167 422T239 438L237 431ZM-40 66Q-40 86 -26 101T10 116Q31 116 45 101T60 66Q60 45 46 31T10 16Q-11 16 -25 30T-40 66ZM235 385Q235 405 248 418T280 431Q299
431 312 418T325 385Q325 366 312 353T280 340Q261 340 248 353T235 385Z" />
<glyph unicode="&#x162;" glyph-name="Tcommaaccent" horiz-adv-x="643" d="M165 -106Q165 -77 184 -64T225 -50Q255 -50 271 -69T288 -123Q288 -148 274 -169T238 -207T189 -236T133 -255L130 -248Q175 -234 207 -210T242 -151Q230 -156 218 -156Q198 -156 182
-144T165 -106ZM493 630L350 129Q343 106 341 91T338 63Q338 37 358 24T408 8L405 0H108L111 8Q135 11 152 18T184 40T209 77T229 133L370 630H493ZM330 622Q266 605 205 557T101 436H92L156 630H332L330 622ZM731 630L674 436H665Q667 524 634 568T529 622L531
630H731Z" />
<glyph unicode="&#x163;" glyph-name="tcommaaccent" horiz-adv-x="287" d="M225 -106Q225 -77 244 -64T285 -50Q315 -50 331 -69T348 -123Q348 -148 334 -169T298 -207T249 -236T193 -255L190 -248Q235 -234 267 -210T302 -151Q290 -156 278 -156Q258 -156 242
-144T225 -106ZM33 124Q44 155 61 198T93 284Q111 332 129 383H64L73 404Q93 411 111 416Q126 421 139 425T155 432Q161 440 169 449Q175 457 183 465T199 482Q212 498 225 513T248 536Q252 539 258 539T268 539T276 533T277 524Q275 519 270 504T258 471Q251 452
242 428H353L336 383H227L117 77L120 75Q135 82 152 94T187 121T219 152T245 186L251 183Q240 155 216 118T159 51Q132 25 105 9T54 -8Q35 -8 23 3T9 35Q9 48 14 68T33 124Z" />
<glyph unicode="&#x164;" glyph-name="Tcaron" horiz-adv-x="643" d="M594 810L439 681H435L353 810L359 814L451 755H454L591 815L594 810ZM493 630L350 129Q343 106 341 91T338 63Q338 37 358 24T408 8L405 0H108L111 8Q135 11 152 18T184 40T209 77T229 133L370
630H493ZM330 622Q266 605 205 557T101 436H92L156 630H332L330 622ZM731 630L674 436H665Q667 524 634 568T529 622L531 630H731Z" />
<glyph unicode="&#x165;" glyph-name="tcaron" horiz-adv-x="287" d="M321 500H312L383 693H452L321 500ZM33 124Q44 155 61 198T93 284Q111 332 129 383H64L73 404Q93 411 111 416Q126 421 139 425T155 432Q161 440 169 449Q175 457 183 465T199 482Q212 498
225 513T248 536Q252 539 258 539T268 539T276 533T277 524Q275 519 270 504T258 471Q251 452 242 428H353L336 383H227L117 77L120 75Q135 82 152 94T187 121T219 152T245 186L251 183Q240 155 216 118T159 51Q132 25 105 9T54 -8Q35 -8 23 3T9 35Q9 48 14 68T33
124Z" />
<glyph unicode="&#x166;" glyph-name="Tbar" horiz-adv-x="643" d="M476 630L333 129Q326 106 324 91T321 63Q321 37 341 24T391 8L388 0H91L94 8Q118 11 135 18T167 40T192 77T212 133L353 630H476ZM313 622Q249 605 188 557T84 436H75L139 630H315L313 622ZM514
630H714L657 436H648Q650 524 617 568T512 622L514 630ZM104 314L111 341H236L229 314H104ZM419 314L426 341H559L552 314H419Z" />
<glyph unicode="&#x167;" glyph-name="tbar" horiz-adv-x="293" d="M122 77L125 75Q140 82 157 94T192 121T224 152T250 186L256 183Q245 155 221 118T164 51Q137 25 110 9T59 -8Q40 -8 28 3T14 35Q14 48 19 68T38 124Q49 154 65 196T97 281H33L43 306H106Q112
322 117 336T126 361Q130 373 134 383H69L78 404Q99 410 117 416Q132 421 145 425T160 432Q178 455 195 475Q209 492 222 508T242 533Q252 543 269 540Q276 539 280 535T282 524Q280 519 275 504T263 471Q256 452 247 428H358L341 383H232L204 306H322L313 281H195L122
77Z" />
<glyph unicode="&#x168;" glyph-name="Utilde" horiz-adv-x="651" d="M783 630L780 622Q751 619 720 606T664 570Q652 559 640 541T618 502T599 461T587 427H576Q584 459 587 480T590 524Q590 572 565 595T489 622L492 630H783ZM214 227Q206 203 203 179T203 133T220
90T258 56Q281 42 322 34T413 26L416 18Q411 14 400 10T374 1T340 -5T302 -8Q254 -8 213 0T143 27Q115 45 101 70T83 124T83 184T96 246L168 501Q175 524 177 539T180 567Q180 593 160 606T110 622L113 630H411L408 622Q383 619 365 612T334 590T310 553T290 497L214
227ZM670 822Q657 787 634 764T584 730Q572 723 559 720T531 717Q500 717 475 719T425 722Q406 722 387 718T351 696L345 701Q362 728 379 745T415 774Q446 792 479 792Q502 792 529 790T585 787Q611 787 631 798T661 826L670 822Z" />
<glyph unicode="&#x169;" glyph-name="utilde" horiz-adv-x="501" d="M187 212Q160 159 142 122T123 75Q123 62 135 62Q151 62 186 91T263 177L269 172Q243 133 214 100T157 43T101 6T50 -8Q10 -8 10 34Q10 53 25 89Q36 118 52 151T89 224Q95 237 105 256T124
296T141 333T148 356Q148 372 131 372Q123 372 115 368T98 354Q87 340 76 323T51 277L44 280Q53 311 70 340T108 390T155 425T205 438Q228 438 240 425T253 387Q253 354 232 307T187 212ZM357 68Q371 76 388 88T421 113T451 140T475 163L481 159Q474 146 460 129T429
93T391 56T350 24T312 1T279 -8Q266 -8 254 -1T242 26Q242 38 250 63T271 117T297 176T321 229L391 393Q399 410 415 424T457 438Q485 438 495 426T497 394Q492 381 482 357T459 306T437 257T421 222Q409 196 393 159T354 70L357 68ZM529 628Q518 605 506 584T474
546Q458 531 439 526T402 521Q393 521 379 522T348 524T316 527T288 528Q269 528 251 523T210 494L205 499Q233 548 274 574Q291 585 308 589T343 593Q366 593 394 591T439 588Q462 588 482 595T522 631L529 628Z" />
<glyph unicode="&#x16a;" glyph-name="Umacron" horiz-adv-x="651" d="M783 630L780 622Q751 619 720 606T664 570Q652 559 640 541T618 502T599 461T587 427H576Q584 459 587 480T590 524Q590 572 565 595T489 622L492 630H783ZM214 227Q206 203 203 179T203
133T220 90T258 56Q281 42 322 34T413 26L416 18Q411 14 400 10T374 1T340 -5T302 -8Q254 -8 213 0T143 27Q115 45 101 70T83 124T83 184T96 246L168 501Q175 524 177 539T180 567Q180 593 160 606T110 622L113 630H411L408 622Q383 619 365 612T334 590T310 553T290
497L214 227ZM356 701L367 738H624L613 701H356Z" />
<glyph unicode="&#x16b;" glyph-name="umacron" horiz-adv-x="501" d="M187 212Q160 159 142 122T123 75Q123 62 135 62Q151 62 186 91T263 177L269 172Q243 133 214 100T157 43T101 6T50 -8Q10 -8 10 34Q10 53 25 89Q36 118 52 151T89 224Q95 237 105 256T124
296T141 333T148 356Q148 372 131 372Q123 372 115 368T98 354Q87 340 76 323T51 277L44 280Q53 311 70 340T108 390T155 425T205 438Q228 438 240 425T253 387Q253 354 232 307T187 212ZM357 68Q371 76 388 88T421 113T451 140T475 163L481 159Q474 146 460 129T429
93T391 56T350 24T312 1T279 -8Q266 -8 254 -1T242 26Q242 38 250 63T271 117T297 176T321 229L391 393Q399 410 415 424T457 438Q485 438 495 426T497 394Q492 381 482 357T459 306T437 257T421 222Q409 196 393 159T354 70L357 68ZM227 542L239 579H485L473 542H227Z"
/>
<glyph unicode="&#x16c;" glyph-name="Ubreve" horiz-adv-x="651" d="M783 630L780 622Q751 619 720 606T664 570Q652 559 640 541T618 502T599 461T587 427H576Q584 459 587 480T590 524Q590 572 565 595T489 622L492 630H783ZM214 227Q206 203 203 179T203 133T220
90T258 56Q281 42 322 34T413 26L416 18Q411 14 400 10T374 1T340 -5T302 -8Q254 -8 213 0T143 27Q115 45 101 70T83 124T83 184T96 246L168 501Q175 524 177 539T180 567Q180 593 160 606T110 622L113 630H411L408 622Q383 619 365 612T334 590T310 553T290 497L214
227ZM476 744Q518 744 551 760T598 818H608Q603 791 593 766T566 722T526 692T470 680Q428 680 405 703T381 764Q381 792 394 818H402Q393 782 416 763T476 744Z" />
<glyph unicode="&#x16d;" glyph-name="ubreve" horiz-adv-x="501" d="M187 212Q160 159 142 122T123 75Q123 62 135 62Q151 62 186 91T263 177L269 172Q243 133 214 100T157 43T101 6T50 -8Q10 -8 10 34Q10 53 25 89Q36 118 52 151T89 224Q95 237 105 256T124
296T141 333T148 356Q148 372 131 372Q123 372 115 368T98 354Q87 340 76 323T51 277L44 280Q53 311 70 340T108 390T155 425T205 438Q228 438 240 425T253 387Q253 354 232 307T187 212ZM357 68Q371 76 388 88T421 113T451 140T475 163L481 159Q474 146 460 129T429
93T391 56T350 24T312 1T279 -8Q266 -8 254 -1T242 26Q242 38 250 63T271 117T297 176T321 229L391 393Q399 410 415 424T457 438Q485 438 495 426T497 394Q492 381 482 357T459 306T437 257T421 222Q409 196 393 159T354 70L357 68ZM342 556Q385 556 419 580T466
650H478Q474 622 464 595T437 545T395 508T337 494Q289 494 268 521T247 585Q247 602 251 618T262 650H272Q265 612 281 584T342 556Z" />
<glyph unicode="&#x16e;" glyph-name="Uring" horiz-adv-x="651" d="M783 630L780 622Q751 619 720 606T664 570Q652 559 640 541T618 502T599 461T587 427H576Q584 459 587 480T590 524Q590 572 565 595T489 622L492 630H783ZM214 227Q206 203 203 179T203 133T220
90T258 56Q281 42 322 34T413 26L416 18Q411 14 400 10T374 1T340 -5T302 -8Q254 -8 213 0T143 27Q115 45 101 70T83 124T83 184T96 246L168 501Q175 524 177 539T180 567Q180 593 160 606T110 622L113 630H411L408 622Q383 619 365 612T334 590T310 553T290 497L214
227ZM398 735Q398 770 419 788T467 809V789Q461 789 453 787T438 778T425 762T420 735Q420 719 425 709T437 692T453 684T467 681V661Q441 663 420 681T398 735ZM556 735Q556 700 535 682T488 661V681Q494 681 502 683T517 692T530 708T535 735Q535 751 530 761T517
778T501 786T488 789V809Q513 807 534 789T556 735Z" />
<glyph unicode="&#x16f;" glyph-name="uring" horiz-adv-x="501" d="M266 574Q266 609 287 632T340 657V637Q318 635 303 621T287 574Q287 542 302 528T340 511V492Q308 494 287 516T266 574ZM437 574Q437 540 416 517T362 492V511Q384 513 399 527T415 574Q415
606 400 620T362 637V657Q394 655 415 633T437 574ZM187 212Q160 159 142 122T123 75Q123 62 135 62Q151 62 186 91T263 177L269 172Q243 133 214 100T157 43T101 6T50 -8Q10 -8 10 34Q10 53 25 89Q36 118 52 151T89 224Q95 237 105 256T124 296T141 333T148 356Q148
372 131 372Q123 372 115 368T98 354Q87 340 76 323T51 277L44 280Q53 311 70 340T108 390T155 425T205 438Q228 438 240 425T253 387Q253 354 232 307T187 212ZM357 68Q371 76 388 88T421 113T451 140T475 163L481 159Q474 146 460 129T429 93T391 56T350 24T312
1T279 -8Q266 -8 254 -1T242 26Q242 38 250 63T271 117T297 176T321 229L391 393Q399 410 415 424T457 438Q485 438 495 426T497 394Q492 381 482 357T459 306T437 257T421 222Q409 196 393 159T354 70L357 68Z" />
<glyph unicode="&#x170;" glyph-name="Uhungarumlaut" horiz-adv-x="651" d="M391 670L386 675L482 823L526 782L391 670ZM514 670L509 675L605 823L649 782L514 670ZM783 630L780 622Q751 619 720 606T664 570Q652 559 640 541T618 502T599 461T587 427H576Q584
459 587 480T590 524Q590 572 565 595T489 622L492 630H783ZM214 227Q206 203 203 179T203 133T220 90T258 56Q281 42 322 34T413 26L416 18Q411 14 400 10T374 1T340 -5T302 -8Q254 -8 213 0T143 27Q115 45 101 70T83 124T83 184T96 246L168 501Q175 524 177 539T180
567Q180 593 160 606T110 622L113 630H411L408 622Q383 619 365 612T334 590T310 553T290 497L214 227Z" />
<glyph unicode="&#x171;" glyph-name="uhungarumlaut" horiz-adv-x="501" d="M187 212Q160 159 142 122T123 75Q123 62 135 62Q151 62 186 91T263 177L269 172Q243 133 214 100T157 43T101 6T50 -8Q10 -8 10 34Q10 53 25 89Q36 118 52 151T89 224Q95 237 105 256T124
296T141 333T148 356Q148 372 131 372Q123 372 115 368T98 354Q87 340 76 323T51 277L44 280Q53 311 70 340T108 390T155 425T205 438Q228 438 240 425T253 387Q253 354 232 307T187 212ZM357 68Q371 76 388 88T421 113T451 140T475 163L481 159Q474 146 460 129T429
93T391 56T350 24T312 1T279 -8Q266 -8 254 -1T242 26Q242 38 250 63T271 117T297 176T321 229L391 393Q399 410 415 424T457 438Q485 438 495 426T497 394Q492 381 482 357T459 306T437 257T421 222Q409 196 393 159T354 70L357 68ZM263 476L258 481L379 672L423
631L263 476ZM386 476L381 481L502 672L546 631L386 476Z" />
<glyph unicode="&#x172;" glyph-name="Uogonek" horiz-adv-x="651" d="M394 -166Q385 -178 375 -190T350 -211T320 -227T282 -234Q246 -234 223 -216T200 -161Q200 -139 215 -118T251 -78T297 -44T340 -20H353Q341 -30 327 -41T300 -66T280 -96T272 -132Q272 -155
284 -167T325 -180Q342 -180 359 -174T389 -160L394 -166ZM783 630L780 622Q751 619 720 606T664 570Q652 559 640 541T618 502T599 461T587 427H576Q584 459 587 480T590 524Q590 572 565 595T489 622L492 630H783ZM214 227Q206 203 203 179T203 133T220 90T258
56Q281 42 322 34T413 26L416 18Q411 14 400 10T374 1T340 -5T302 -8Q254 -8 213 0T143 27Q115 45 101 70T83 124T83 184T96 246L168 501Q175 524 177 539T180 567Q180 593 160 606T110 622L113 630H411L408 622Q383 619 365 612T334 590T310 553T290 497L214 227Z"
/>
<glyph unicode="&#x173;" glyph-name="uogonek" horiz-adv-x="501" d="M296 -166Q287 -178 277 -190T252 -211T222 -227T184 -234Q148 -234 125 -216T102 -161Q102 -139 117 -118T153 -78T199 -44T242 -20H255Q243 -30 229 -41T202 -66T182 -96T174 -132Q174 -155
186 -167T227 -180Q244 -180 261 -174T291 -160L296 -166ZM187 212Q160 159 142 122T123 75Q123 62 135 62Q151 62 186 91T263 177L269 172Q243 133 214 100T157 43T101 6T50 -8Q10 -8 10 34Q10 53 25 89Q36 118 52 151T89 224Q95 237 105 256T124 296T141 333T148
356Q148 372 131 372Q123 372 115 368T98 354Q87 340 76 323T51 277L44 280Q53 311 70 340T108 390T155 425T205 438Q228 438 240 425T253 387Q253 354 232 307T187 212ZM357 68Q371 76 388 88T421 113T451 140T475 163L481 159Q474 146 460 129T429 93T391 56T350
24T312 1T279 -8Q266 -8 254 -1T242 26Q242 38 250 63T271 117T297 176T321 229L391 393Q399 410 415 424T457 438Q485 438 495 426T497 394Q492 381 482 357T459 306T437 257T421 222Q409 196 393 159T354 70L357 68Z" />
<glyph unicode="&#x174;" glyph-name="Wcircumflex" horiz-adv-x="839" d="M419 686L575 815H579L660 686L654 682L563 741H560L422 681L419 686ZM316 151L225 -8H207L171 501Q166 564 146 591T77 622L80 630H377L374 622Q321 617 306 589T295 504L316 151ZM617
151L525 -8H507L471 506Q468 536 464 557T451 592T428 613T391 622L394 630H682L679 622Q650 619 633 610T606 586T596 549T596 499L617 151ZM989 630L986 622Q954 617 926 605T875 575Q844 551 821 526T778 462L769 466Q777 482 786 507T795 557Q795 583 775 601T730
622L733 630H989Z" />
<glyph unicode="&#x175;" glyph-name="wcircumflex" horiz-adv-x="587" d="M417 670H421L468 482L460 478L402 580H396L259 477L254 482L417 670ZM165 438Q188 438 201 417T214 361Q214 340 210 300T201 217T190 137T181 86L82 -6L53 10Q67 48 78 95T97 188T109
274T113 339Q113 365 102 373T81 381Q70 381 58 377T28 360L25 366Q37 378 54 391T90 414T128 431T165 438ZM365 438Q389 438 402 417T415 361Q415 338 411 298T402 215T391 136T382 86L282 -6L254 10Q267 49 278 94T297 184T309 269T314 340Q314 367 303 374T282
381Q276 381 266 379T239 366L236 372Q248 384 263 395T296 416T330 432T365 438ZM537 348Q537 364 531 372T514 381Q507 381 491 376T452 353L447 358Q459 371 477 385T513 411T549 430T576 438Q593 438 604 427T616 393Q616 372 603 343T566 280T507 210T431
140L428 147Q455 172 475 200T509 255T530 306T537 348Z" />
<glyph unicode="&#x176;" glyph-name="Ycircumflex" horiz-adv-x="583" d="M256 302L196 529Q185 569 164 593T98 622L100 630H400L398 622Q318 616 318 572Q318 560 323 540T332 506L382 315L330 129Q322 106 320 91T317 63Q317 37 337 24T387 8L384 0H87L90
8Q114 11 131 18T163 40T188 77T208 133L256 302ZM716 622Q685 617 657 606T603 577Q565 552 536 522T483 466L477 475Q494 494 509 522T524 574Q524 597 501 608T454 622L457 630H719L716 622ZM312 686L468 815H472L553 686L547 682L456 741H453L315 681L312 686Z"
/>
<glyph unicode="&#x177;" glyph-name="ycircumflex" horiz-adv-x="410" d="M213 377Q216 352 217 303T216 197T210 83T197 -16Q189 -28 176 -44T146 -79T114 -113T85 -141Q98 -70 105 1T114 138T116 259T111 354Q110 362 106 368T93 374Q85 374 77 366T61 344T46
315T32 282L25 285Q39 353 76 395T162 438Q187 438 197 422T213 377ZM-83 -194Q-59 -194 -31 -188T29 -164L33 -169Q22 -179 8 -189T-22 -207T-54 -223T-85 -234Q-96 -238 -105 -239T-123 -241Q-147 -241 -165 -230T-184 -189Q-184 -176 -178 -164T-162 -142T-140
-125T-117 -116L-113 -120Q-118 -125 -121 -134T-124 -152Q-124 -175 -113 -184T-83 -194ZM357 354Q357 374 351 381T333 388Q325 388 311 382T284 364L279 369Q289 384 302 396T329 418T356 433T381 438Q405 438 412 422T419 389Q419 345 393 285T309 155L304
158Q335 210 346 258T357 354ZM322 670H326L373 482L365 478L307 580H301L164 477L159 482L322 670Z" />
<glyph unicode="&#x178;" glyph-name="Ydieresis" horiz-adv-x="583" d="M256 302L196 529Q185 569 164 593T98 622L100 630H400L398 622Q318 616 318 572Q318 560 323 540T332 506L382 315L330 129Q322 106 320 91T317 63Q317 37 337 24T387 8L384 0H87L90 8Q114
11 131 18T163 40T188 77T208 133L256 302ZM716 622Q685 617 657 606T603 577Q565 552 536 522T483 466L477 475Q494 494 509 522T524 574Q524 597 501 608T454 622L457 630H719L716 622ZM319 803Q342 803 358 788T374 749Q374 726 358 710T319 693Q296 693 281
709T265 749Q265 772 280 787T319 803ZM528 803Q551 803 567 788T583 749Q583 726 567 710T528 693Q505 693 490 709T474 749Q474 772 489 787T528 803Z" />
<glyph unicode="&#x179;" glyph-name="Zacute" horiz-adv-x="604" d="M407 681L402 688L559 817L597 746L407 681ZM126 0H-18L530 630H673L126 0ZM442 622Q404 619 364 609T278 576Q255 564 233 547T189 508T148 462T111 414H102L180 630H446L442 622ZM209 0L216
8Q273 14 329 27T422 61Q480 94 514 134T572 214H581Q580 210 574 194T559 155T540 106T521 58T505 19T497 0H209Z" />
<glyph unicode="&#x17a;" glyph-name="zacute" horiz-adv-x="439" d="M260 475L252 479L352 678L414 641L260 475ZM68 118Q85 118 99 116T127 111T158 102T195 90Q214 84 234 79T274 69T308 61T331 58Q354 58 374 68T408 105L414 102Q408 77 397 55T369 15T331
-12T285 -22Q258 -22 216 -11T126 16Q96 25 73 29T30 34Q11 34 -12 25T-52 -2L-58 1Q-52 20 -39 41T-8 79T28 107T68 118ZM161 438Q175 438 204 434T264 422Q306 411 333 407T369 403Q392 403 408 413T431 431L437 427Q423 401 396 371T337 321Q314 323 276 331T202
348Q170 356 142 362T94 369Q82 369 71 360T57 334L48 335Q48 355 59 373T86 406T123 429T161 438ZM334 148Q334 165 345 176T374 188Q391 188 402 177T414 148Q414 132 403 120T374 108Q357 108 346 120T334 148ZM63 308Q63 323 74 334T100 345Q116 345 127 334T138
308Q138 293 127 282T100 271Q85 271 74 281T63 308Z" />
<glyph unicode="&#x17b;" glyph-name="Zdotaccent" horiz-adv-x="604" d="M126 0H-18L530 630H673L126 0ZM442 622Q404 619 364 609T278 576Q255 564 233 547T189 508T148 462T111 414H102L180 630H446L442 622ZM209 0L216 8Q273 14 329 27T422 61Q480 94 514
134T572 214H581Q580 210 574 194T559 155T540 106T521 58T505 19T497 0H209ZM401 754Q401 777 417 793T457 810Q480 810 496 794T513 754Q513 731 497 716T457 700Q434 700 418 715T401 754Z" />
<glyph unicode="&#x17c;" glyph-name="zdotaccent" horiz-adv-x="439" d="M68 118Q85 118 99 116T127 111T158 102T195 90Q214 84 234 79T274 69T308 61T331 58Q354 58 374 68T408 105L414 102Q408 77 397 55T369 15T331 -12T285 -22Q258 -22 216 -11T126 16Q96
25 73 29T30 34Q11 34 -12 25T-52 -2L-58 1Q-52 20 -39 41T-8 79T28 107T68 118ZM161 438Q175 438 204 434T264 422Q306 411 333 407T369 403Q392 403 408 413T431 431L437 427Q423 401 396 371T337 321Q314 323 276 331T202 348Q170 356 142 362T94 369Q82 369
71 360T57 334L48 335Q48 355 59 373T86 406T123 429T161 438ZM334 148Q334 165 345 176T374 188Q391 188 402 177T414 148Q414 132 403 120T374 108Q357 108 346 120T334 148ZM63 308Q63 323 74 334T100 345Q116 345 127 334T138 308Q138 293 127 282T100 271Q85
271 74 281T63 308ZM240 596Q240 619 256 634T295 650Q318 650 334 635T350 596Q350 573 334 558T295 542Q272 542 256 557T240 596Z" />
<glyph unicode="&#x17d;" glyph-name="Zcaron" horiz-adv-x="604" d="M591 810L436 681H432L350 810L356 814L448 755H451L588 815L591 810ZM126 0H-18L530 630H673L126 0ZM442 622Q404 619 364 609T278 576Q255 564 233 547T189 508T148 462T111 414H102L180
630H446L442 622ZM209 0L216 8Q273 14 329 27T422 61Q480 94 514 134T572 214H581Q580 210 574 194T559 155T540 106T521 58T505 19T497 0H209Z" />
<glyph unicode="&#x17e;" glyph-name="zcaron" horiz-adv-x="439" d="M265 477H261L206 665L214 669L284 567H287L432 670L437 665L265 477ZM68 118Q85 118 99 116T127 111T158 102T195 90Q214 84 234 79T274 69T308 61T331 58Q354 58 374 68T408 105L414 102Q408
77 397 55T369 15T331 -12T285 -22Q258 -22 216 -11T126 16Q96 25 73 29T30 34Q11 34 -12 25T-52 -2L-58 1Q-52 20 -39 41T-8 79T28 107T68 118ZM161 438Q175 438 204 434T264 422Q306 411 333 407T369 403Q392 403 408 413T431 431L437 427Q423 401 396 371T337
321Q314 323 276 331T202 348Q170 356 142 362T94 369Q82 369 71 360T57 334L48 335Q48 355 59 373T86 406T123 429T161 438ZM334 148Q334 165 345 176T374 188Q391 188 402 177T414 148Q414 132 403 120T374 108Q357 108 346 120T334 148ZM63 308Q63 323 74 334T100
345Q116 345 127 334T138 308Q138 293 127 282T100 271Q85 271 74 281T63 308Z" />
<glyph unicode="&#x17f;" glyph-name="longs" horiz-adv-x="219" d="M94 402Q101 432 111 464T136 526T167 584T207 632Q239 663 284 682T375 704L373 698Q340 695 315 676T270 625T236 553T210 465Q205 445 201 425T191 382Q179 319 165 248T132 107T85 -29T18
-147Q-14 -191 -58 -213T-156 -241L-154 -235Q-133 -231 -112 -220T-73 -191T-39 -148T-13 -88Q19 25 42 151T94 402ZM332 632Q332 655 347 670T386 686Q409 686 424 671T440 632Q440 609 425 594T386 578Q363 578 348 593T332 632ZM-218 -181Q-218 -163 -205 -150T-174
-137Q-156 -137 -143 -150T-130 -181Q-130 -199 -143 -212T-174 -225Q-192 -225 -205 -212T-218 -181Z" />
<glyph unicode="&#x192;" glyph-name="florin" horiz-adv-x="323" d="M39 0Q53 52 61 86T77 151T92 213T114 293H51L55 301Q100 320 114 328T128 338Q140 377 158 412T203 475T263 520T337 543L335 537Q316 530 302 514T276 472T253 413T230 337H319L304 293H216Q204
251 196 221T179 164T160 105T135 31Q124 1 109 -29T73 -85T23 -127T-43 -150L-42 -144Q-28 -140 -18 -132T1 -107T19 -66T39 0ZM311 475Q311 495 324 509T358 523Q378 523 391 509T405 475Q405 456 392 442T358 428Q338 428 325 442T311 475ZM-111 -86Q-111 -69
-99 -57T-69 -45Q-52 -45 -40 -57T-27 -86Q-27 -103 -39 -115T-69 -128Q-86 -128 -98 -116T-111 -86Z" />
<glyph unicode="&#x1fa;" glyph-name="Aringacute" horiz-adv-x="601" d="M339 278L312 500L389 639H420L478 131Q485 69 504 41T572 8L569 0H268L271 8Q300 11 318 20T345 44T356 81T356 131L341 251H160L175 278H339ZM-85 0L-82 8Q-47 13 -18 26T35 60Q63 82
81 104T122 159L130 156Q122 140 116 120T109 75Q109 51 126 31T168 8L165 0H-85ZM349 844L344 851L501 980L539 909L349 844ZM327 751Q327 786 348 804T396 825V805Q390 805 382 803T367 794T354 778T349 751Q349 735 354 725T366 708T382 700T396 697V677Q370
679 349 697T327 751ZM485 751Q485 716 464 698T417 677V697Q423 697 431 699T446 708T459 724T464 751Q464 767 459 777T446 794T430 802T417 805V825Q442 823 463 805T485 751Z" />
<glyph unicode="&#x1fb;" glyph-name="aringacute" horiz-adv-x="425" d="M214 345Q200 328 179 294T137 221T103 147T89 90Q89 68 106 68Q113 68 123 74T142 89T161 108T178 127L184 123Q174 104 158 82T121 39T78 6T33 -8Q14 -8 1 7T-13 48Q-13 82 7 123T59
206T130 285T208 350L214 345ZM314 70Q321 70 333 79T357 103T380 133T399 163L405 160Q396 131 377 102T334 48T284 8T235 -8Q216 -8 207 2T197 30Q197 43 203 73T221 135Q233 173 247 214T273 292Q287 333 300 375Q297 377 292 377T282 378Q271 378 260 374T239
365L233 370Q241 376 253 383T279 398T308 410T338 416Q349 432 363 443T395 454Q416 454 416 440Q416 434 415 427T412 417Q407 404 395 369T369 290T339 201T314 123Q310 110 307 99T304 82Q304 74 307 72T314 70ZM238 821Q238 856 259 879T312 904V884Q290 882
275 868T259 821Q259 789 274 775T312 758V739Q280 741 259 763T238 821ZM409 821Q409 787 388 764T334 739V758Q356 760 371 774T387 821Q387 853 372 867T334 884V904Q366 902 387 880T409 821ZM277 673L272 680L429 809L467 738L277 673Z" />
<glyph unicode="&#x1fc;" glyph-name="AEacute" horiz-adv-x="837" d="M626 681L621 688L778 817L816 746L626 681ZM-96 0L-93 8Q-61 16 -32 28T19 54Q54 77 82 105T133 162L139 156Q127 140 116 117T104 69Q104 46 116 29T158 8L155 0H-96ZM438 0H232L235 8Q259
11 276 18T308 40T333 77T353 133L401 304H240L263 331H409L458 501Q465 524 467 539T469 567Q469 593 449 606T400 622L403 630H616L438 0ZM501 8Q546 11 586 25T662 63Q713 97 743 137T800 225H809L740 0H500L501 8ZM816 436Q815 485 810 519T791 575T749 608T675
623L677 630H864L824 436H816ZM599 322Q633 324 654 331T691 352T718 389T747 444H755L687 192H679Q679 224 677 246T668 282T644 303T597 314L599 322Z" />
<glyph unicode="&#x1fd;" glyph-name="aeacute" horiz-adv-x="500" d="M312 475L304 479L404 678L466 641L312 475ZM284 383Q249 360 215 329T153 260T108 181T90 96Q90 86 95 80T109 73Q126 73 148 88T183 121L189 117Q181 100 166 79T133 38T92 5T46 -8Q14 -8
1 14T-13 63Q-13 109 14 156T83 247T177 328T281 390L284 383ZM424 431Q389 419 367 383T333 300T316 206T311 124Q311 99 320 80T352 61Q367 61 382 69T412 91T438 120T458 151L465 148Q457 124 442 97T406 46T357 7T297 -8Q270 -8 252 3T223 31T208 69T203 110Q203
166 220 222T267 325T338 402T426 438L424 431ZM337 227Q364 235 380 245T414 272Q425 282 432 297T445 330T452 365T455 399Q455 416 450 422T439 431L441 438Q477 436 497 420T518 378Q518 318 473 276T335 220L337 227Z" />
<glyph unicode="&#x1fe;" glyph-name="Oslashacute" horiz-adv-x="669" d="M260 -5Q221 2 186 23L127 -66L108 -53L167 36Q119 73 92 131T65 259Q65 322 82 377T131 477T205 556T297 611Q329 625 363 632T432 641L429 633Q389 629 354 602Q317 575 286 526T233
419T197 298T184 184Q184 154 186 128T195 78L523 570Q514 591 500 606T462 630L465 638Q511 629 546 605L599 685L617 673L563 592Q609 555 634 498T660 374Q660 307 640 249T585 143T502 63T399 12Q347 -6 292 -8L295 0Q301 1 308 2T323 7Q371 25 410 74T479
187T524 320T540 449Q540 470 539 495T531 544L206 52Q216 32 230 21Q243 9 262 3L260 -5ZM400 681L395 688L552 817L590 746L400 681Z" />
<glyph unicode="&#x1ff;" glyph-name="oslashacute" horiz-adv-x="452" d="M287 431Q278 429 269 425T252 416Q221 395 197 356T155 269T129 171T120 77V76L329 385Q326 405 320 416T305 431L307 438Q333 435 357 424L402 490L418 480L374 414Q403 394 416 361T429
295Q429 238 410 185T355 91T271 24T163 -7L165 0Q178 2 191 9T215 26Q242 49 263 88T300 172T323 265T331 354L122 43Q126 25 132 15T147 0L145 -7Q116 -4 96 6L54 -55L37 -44L78 16Q49 37 36 70T22 137Q22 194 41 246T96 340T181 407T289 438L287 431ZM279 475L271
479L371 678L433 641L279 475Z" />
<glyph unicode="&#x218;" glyph-name="Scommaaccent" horiz-adv-x="473" d="M475 442Q478 473 471 504T449 560T414 604T368 629L371 638Q386 637 407 633T451 624T494 614T528 606L484 442H475ZM417 184Q417 132 398 97T348 39T277 5T194 -8L197 0Q242 5 273
35T305 121Q305 141 297 163T277 207T249 254T220 303Q203 333 190 354T169 395T156 433T152 477Q152 510 167 539T208 589T267 624T337 639L334 630Q300 625 282 600T263 542Q263 521 268 503T282 465T305 423T336 372Q352 345 366 322T392 276T410 232T417 184ZM155
-6Q135 -5 111 -2T64 6T23 16T-5 26L45 220H54Q52 189 57 155T76 90T109 36T159 2L155 -6ZM76 -106Q76 -77 95 -64T136 -50Q166 -50 182 -69T199 -123Q199 -148 185 -169T149 -207T100 -236T44 -255L41 -248Q86 -234 118 -210T153 -151Q141 -156 129 -156Q109 -156
93 -144T76 -106Z" />
<glyph unicode="&#x219;" glyph-name="scommaaccent" horiz-adv-x="292" d="M237 431Q208 427 189 409T170 358Q170 338 176 312T196 244Q211 202 218 176T226 129Q226 105 216 81T185 38T135 7T64 -8L66 -1Q100 4 117 19T135 68Q135 89 126 121T102 191Q88 226
83 253T77 303Q77 326 87 349T117 390T167 422T239 438L237 431ZM-40 66Q-40 86 -26 101T10 116Q31 116 45 101T60 66Q60 45 46 31T10 16Q-11 16 -25 30T-40 66ZM235 385Q235 405 248 418T280 431Q299 431 312 418T325 385Q325 366 312 353T280 340Q261 340 248
353T235 385ZM223 -106Q223 -77 242 -64T283 -50Q313 -50 329 -69T346 -123Q346 -148 332 -169T296 -207T247 -236T191 -255L188 -248Q233 -234 265 -210T300 -151Q288 -156 276 -156Q256 -156 240 -144T223 -106Z" />
<glyph unicode="&#x237;" glyph-name="uni0237" horiz-adv-x="222" d="M96 -15Q64 -103 3 -157T-143 -219L-141 -213Q-123 -207 -107 -195T-75 -162T-43 -108T-8 -28Q2 -2 15 36T43 114T69 192T90 253Q99 278 104 295T114 324T119 344T121 358Q121 372 109 372Q101
372 91 365T73 348Q50 320 26 277L19 280Q29 310 45 338T82 388T126 424T176 438Q201 438 214 425T228 392Q228 366 217 331T188 246Q170 193 147 127T96 -15ZM-231 -156Q-231 -136 -217 -122T-182 -107Q-162 -107 -148 -121T-133 -156Q-133 -176 -147 -190T-182
-205Q-202 -205 -216 -191T-231 -156Z" />
<glyph unicode="&#x2c6;" glyph-name="circumflex" horiz-adv-x="263" d="M262 670H266L313 482L305 478L247 580H241L104 477L99 482L262 670Z" />
<glyph unicode="&#x2c7;" glyph-name="caron" horiz-adv-x="226" d="M162 477H158L103 665L111 669L181 567H184L329 670L334 665L162 477Z" />
<glyph unicode="&#x2d8;" glyph-name="breve" horiz-adv-x="265" d="M216 556Q259 556 293 580T340 650H352Q348 622 338 595T311 545T269 508T211 494Q163 494 142 521T121 585Q121 602 125 618T136 650H146Q139 612 155 584T216 556Z" />
<glyph unicode="&#x2d9;" glyph-name="dotaccent" horiz-adv-x="217" d="M138 596Q138 619 154 634T193 650Q216 650 232 635T248 596Q248 573 232 558T193 542Q170 542 154 557T138 596Z" />
<glyph unicode="&#x2da;" glyph-name="ring" horiz-adv-x="236" d="M122 574Q122 609 143 632T196 657V637Q174 635 159 621T143 574Q143 542 158 528T196 511V492Q164 494 143 516T122 574ZM293 574Q293 540 272 517T218 492V511Q240 513 255 527T271 574Q271
606 256 620T218 637V657Q250 655 271 633T293 574Z" />
<glyph unicode="&#x2db;" glyph-name="ogonek" horiz-adv-x="108" d="M88 -166Q79 -178 69 -190T44 -211T14 -227T-24 -234Q-60 -234 -83 -216T-106 -161Q-106 -139 -91 -118T-55 -78T-9 -44T34 -20H47Q35 -30 21 -41T-6 -66T-26 -96T-34 -132Q-34 -155 -22 -167T19
-180Q36 -180 53 -174T83 -160L88 -166Z" />
<glyph unicode="&#x2dc;" glyph-name="tilde" horiz-adv-x="280" d="M397 628Q386 605 374 584T342 546Q326 531 307 526T270 521Q261 521 247 522T216 524T184 527T156 528Q137 528 119 523T78 494L73 499Q101 548 142 574Q159 585 176 589T211 593Q234 593 262
591T307 588Q330 588 350 595T390 631L397 628Z" />
<glyph unicode="&#x2dd;" glyph-name="hungarumlaut" horiz-adv-x="255" d="M77 476L72 481L193 672L237 631L77 476ZM200 476L195 481L316 672L360 631L200 476Z" />
</font>
</defs>
</svg>
