<?xml version="1.0" standalone="no"?> <!DOCTYPE svg PUBLIC "-//W3C//DTD SVG 1.0//EN" "http://www.w3.org/TR/2001/REC-SVG-20010904/DTD/svg10.dtd" > <svg xmlns="http://www.w3.org/2000/svg" width="100%" height="100%">
<defs >
<font horiz-adv-x="570" ><font-face
    font-family=""
    units-per-em="1000"
    panose-1="2 2 7 3 9 3 8 9 3 3"
    ascent="747"
    descent="-253"
    alphabetic="0" />
<missing-glyph horiz-adv-x="1000" />
<glyph unicode=" " glyph-name="space" horiz-adv-x="168" />
<glyph unicode="!" glyph-name="exclam" horiz-adv-x="268" d="M29 55Q29 81 47 99T93 117Q120 117 138 99T156 55Q156 28 138 10T93 -8Q66 -8 48 10T29 55ZM114 164Q120 204 126 262T138 379T151 491T165 575Q173 607 191 622T243 638Q273 638 285 624T297 586Q297
566 283 528T248 444Q216 367 182 293T123 164H114Z" />
<glyph unicode="&quot;" glyph-name="quotedbl" horiz-adv-x="266" d="M104 386Q105 417 105 447T106 504T108 552T113 586Q118 614 133 626T170 638Q193 639 203 627T214 595Q214 582 205 561T180 512T147 452T110 386H104ZM238 386Q239 417 239 447T241 504T243
552T248 586Q253 614 267 626T304 638Q328 638 338 627T348 595Q348 582 339 561T315 512T282 452T245 386H238Z" />
<glyph unicode="#" glyph-name="numbersign" horiz-adv-x="522" d="M279 630H310Q265 481 218 326T126 22H94L279 630ZM451 630H482L297 22H266L451 630ZM41 269H136L127 242H33L41 269ZM88 432H184L176 406H80L88 432ZM447 432H544L536 406H440L447 432ZM400
269H496L487 242H391L400 269ZM228 269H311L302 242H221L228 269ZM277 432H359L350 406H269L277 432Z" />
<glyph unicode="$" glyph-name="dollar" horiz-adv-x="387" d="M246 346L262 328Q281 306 298 287T327 249T347 210T354 166Q354 127 335 96T286 42T216 6T135 -8L137 -1Q155 0 173 6T206 24T230 51T239 88Q239 122 226 145T190 192L95 -78H74L175 208Q170 213
165 218T155 230Q127 261 105 296T83 376Q83 410 98 439T139 491T201 526T279 543L277 536Q264 534 250 529T223 513T202 486T194 445Q194 422 205 402T231 364L320 616H341L246 346ZM85 -7Q54 -4 27 3T-20 21L19 165H26Q26 98 42 56T87 0L85 -7ZM328 542Q359 539
382 532T422 517L386 391H378Q382 440 368 480T326 536L328 542Z" />
<glyph unicode="%" glyph-name="percent" horiz-adv-x="576" d="M62 410Q62 446 75 478T112 536T165 579T229 600L226 591Q218 589 212 583Q197 572 186 552T164 505Q158 489 153 470T143 433T137 398T134 369Q134 346 137 338T149 322L146 312Q109 315 86 344T62
410ZM52 -8L38 4L544 600L557 586L52 -8ZM329 502Q329 466 316 433T279 375T226 332T161 311L164 321Q171 323 181 330Q197 342 209 366T231 420Q241 450 248 486T256 543Q256 564 254 574T241 590L244 600Q281 597 305 568T329 502ZM267 91Q267 127 280 159T317
217T370 260T435 281L432 271Q423 269 418 264Q403 253 392 232T370 185Q364 169 359 151T349 114T343 79T340 50Q340 27 343 19T355 2L352 -7Q315 -4 291 25T267 91ZM535 182Q535 146 522 114T485 56T432 13T367 -8L370 1Q380 4 388 11Q403 23 415 47T437 101Q447
131 454 166T462 224Q462 245 460 255T448 271L451 281Q487 277 511 249T535 182Z" />
<glyph unicode="&amp;" glyph-name="ampersand" horiz-adv-x="782" d="M91 270Q91 229 104 192T143 127T205 81T286 64Q335 64 378 76T458 114T522 183T568 285L577 282Q566 213 542 154T479 50T388 -20T269 -46Q212 -46 168 -28T92 21T45 95T29 188Q29 226 37
258T57 316T86 361T117 392L121 388Q108 368 100 342T91 270ZM185 424Q171 424 161 420T143 409L138 414Q151 428 180 442T242 457Q284 457 309 439T347 389L150 208L146 217L249 347Q247 361 243 374T230 399T211 417T185 424ZM394 287Q394 313 403 338T429 384T471
417T525 430Q557 430 582 418T637 390Q672 372 696 361T744 349Q798 349 811 395H819Q815 335 784 299T701 263Q671 263 643 275T580 308Q549 325 524 338T477 351Q449 351 429 336T402 286L394 287ZM417 493Q411 493 404 496T390 505T378 519T373 540Q373 568
390 580T426 593Q447 593 462 581T478 544Q478 527 470 511T442 476L377 417L373 423Q387 441 400 459T417 493Z" />
<glyph unicode="&apos;" glyph-name="quotesingle" horiz-adv-x="131" d="M104 386Q105 417 105 447T106 504T108 552T113 586Q118 614 133 626T170 638Q193 639 203 627T214 595Q214 582 205 561T180 512T147 452T110 386H104Z" />
<glyph unicode="(" glyph-name="parenleft" horiz-adv-x="294" d="M33 106Q33 190 60 269T135 417T247 542T385 638L390 631Q324 590 273 529T186 394T133 241T114 80Q114 -26 139 -100T200 -213L194 -220Q165 -198 137 -165T85 -89T48 2T33 106Z" />
<glyph unicode=")" glyph-name="parenright" horiz-adv-x="294" d="M267 312Q267 228 241 149T167 1T55 -124T-85 -220L-90 -213Q-25 -172 26 -111T112 24T167 177T186 338Q186 444 161 518T100 631L107 638Q135 615 164 582T215 506T252 415T267 312Z" />
<glyph unicode="*" glyph-name="asterisk" horiz-adv-x="288" d="M258 524L385 506V498L258 478L305 359L298 356L219 457L139 356L132 359L180 478L53 498V506L180 524L132 644L139 647L219 546L298 647L305 644L258 524Z" />
<glyph unicode="+" glyph-name="plus" horiz-adv-x="370" d="M166 240V383H201V240H345V206H201V62H166V206H23V240H166Z" />
<glyph unicode="," glyph-name="comma" horiz-adv-x="232" d="M8 56Q8 74 15 87T33 110T59 125T87 130Q126 130 147 107T168 33Q168 4 151 -25T106 -78T40 -120T-40 -145L-42 -138Q-18 -131 7 -119T53 -89T88 -49T103 -1Q97 -4 90 -6T73 -8Q49 -8 29 8T8 56Z" />
<glyph unicode="-" glyph-name="hyphen" horiz-adv-x="277" d="M38 219L57 283H255L236 219H38Z" />
<glyph unicode="." glyph-name="period" horiz-adv-x="211" d="M9 61Q9 90 30 110T80 130Q109 130 129 110T149 61Q149 32 129 12T80 -8Q51 -8 30 12T9 61Z" />
<glyph unicode="/" glyph-name="slash" horiz-adv-x="284" d="M-94 -143L336 633L358 622L-72 -154L-94 -143Z" />
<glyph unicode="0" glyph-name="zero" horiz-adv-x="493" d="M22 152Q22 204 43 255T101 347T191 415T305 447L303 440Q264 432 233 391T179 295T144 180T132 77Q132 45 142 25T171 -1L169 -8Q137 -6 110 9T64 46T33 96T22 152ZM471 287Q471 234 450 184T391 92T301
24T187 -8L189 -1Q228 7 259 48T313 144T348 259T360 362Q360 393 350 414T321 440L323 447Q355 445 382 430T429 393T460 343T471 287Z" />
<glyph unicode="1" glyph-name="one" horiz-adv-x="315" d="M137 337Q139 344 143 358T148 381Q148 426 98 431L101 439H356L353 431Q320 425 298 408T259 346L174 98Q172 92 168 78T163 56Q162 33 176 22T213 8L210 0H-45L-42 8Q-24 11 -10 16T15 31T35 56T52
93L137 337Z" />
<glyph unicode="2" glyph-name="two" horiz-adv-x="380" d="M61 100H206Q251 100 287 123T351 188H358L282 0H-67L61 100ZM93 127Q119 146 143 164T187 203T219 246T231 296Q231 325 214 343T164 361Q135 361 107 352T50 317L46 321Q79 383 128 415T239 447Q269
447 291 438T328 415T350 382T358 344Q358 308 337 277T279 218T196 167T98 122L93 127Z" />
<glyph unicode="3" glyph-name="three" horiz-adv-x="346" d="M165 212Q184 227 198 247T213 302Q213 331 196 348T148 365Q119 365 96 359T51 337L46 343Q76 395 124 421T217 447Q277 447 304 419T331 351Q331 322 319 299T284 259T233 228T170 206L165 212ZM151
-10Q151 34 116 60T32 98L33 104L127 183Q201 170 238 128T276 34Q276 -9 259 -46T208 -113T125 -163T12 -189L15 -180Q89 -163 120 -117T151 -10ZM-45 -67Q-22 -67 -6 -83T11 -123Q11 -146 -5 -163T-45 -180Q-68 -180 -84 -163T-101 -123Q-101 -100 -85 -84T-45
-67Z" />
<glyph unicode="4" glyph-name="four" horiz-adv-x="504" d="M231 -156H105L275 322L402 446H445L231 -156ZM364 127H485L451 31H333L364 127ZM138 31H-58L-56 36L46 127H172L138 31Z" />
<glyph unicode="5" glyph-name="five" horiz-adv-x="325" d="M146 439L354 449L310 349L100 339L146 439ZM-57 -170Q-14 -164 21 -145T82 -96T120 -31T134 46Q134 72 124 94T98 134T61 168T21 197L83 310Q109 297 139 275T196 226T239 166T256 101Q256 47 230
-2T159 -88T59 -150T-57 -178V-170Z" />
<glyph unicode="6" glyph-name="six" horiz-adv-x="473" d="M551 613Q494 598 431 564T307 469Q274 437 244 394T189 301T151 193T136 74Q136 50 142 28T166 2L162 -8Q129 -7 103 6T59 41T32 91T22 153Q22 222 45 281T108 390T200 479T311 547T431 595T550 623L551
613ZM240 338Q254 354 279 365T334 377Q365 377 388 367T427 340T449 301T457 254Q457 201 436 155T378 75T292 18T186 -8L189 2Q215 6 240 36T286 107T318 193T330 271Q330 308 318 325T276 342Q267 342 257 340T242 335L240 338Z" />
<glyph unicode="7" glyph-name="seven" horiz-adv-x="395" d="M384 336H172Q155 336 138 334T105 323Q85 315 70 303T40 271L33 275L104 439H456L384 336ZM48 -167H-58L346 302H357L48 -167Z" />
<glyph unicode="8" glyph-name="eight" horiz-adv-x="448" d="M338 375Q385 404 402 441T420 522Q420 561 404 583T353 605Q304 605 277 573T249 487Q249 455 268 422T317 347Q352 300 375 259T399 175Q399 130 381 96T332 39T260 4T172 -8Q132 -8 101 2T49 31T17
72T6 120Q6 150 20 174T57 217T107 249T159 270L162 264Q123 241 104 208T84 115Q84 95 89 76T104 40T131 15T172 5Q219 5 250 29T282 110Q282 128 276 146T258 183T233 221T204 261Q173 304 152 342T131 422Q131 463 147 498T192 560T262 602T352 617Q421 617
458 588T495 517Q495 489 482 466T448 425T399 393T343 369L338 375Z" />
<glyph unicode="9" glyph-name="nine" horiz-adv-x="478" d="M-71 -166Q-2 -150 64 -114T188 -20Q221 13 249 55T299 148T332 255T345 373Q345 396 338 414T315 437L318 447Q354 445 380 433T424 398T450 348T459 286Q459 218 436 159T372 52T279 -36T168 -103T48
-150T-70 -176L-71 -166ZM257 105Q242 85 215 70T149 55Q120 55 98 66T60 96T37 139T29 188Q29 246 51 292T110 372T195 424T296 447L292 437Q264 432 239 404T194 336T163 254T151 178Q151 143 166 121T208 98Q225 98 236 100T254 108L257 105Z" />
<glyph unicode=":" glyph-name="colon" horiz-adv-x="214" d="M-8 60Q-8 91 12 110T62 130Q93 130 113 110T133 60Q133 30 113 11T62 -9Q31 -9 12 10T-8 60ZM82 377Q82 408 102 427T152 447Q183 447 203 427T223 377Q223 347 203 328T152 308Q121 308 102 327T82 377Z" />
<glyph unicode=";" glyph-name="semicolon" horiz-adv-x="232" d="M81 377Q81 408 101 427T152 447Q182 447 202 427T222 377Q222 347 203 328T152 308Q121 308 101 327T81 377ZM-9 56Q-9 74 -2 87T16 110T42 125T70 130Q109 130 130 107T151 33Q151 4 134 -25T89
-78T23 -120T-57 -145L-59 -138Q-36 -132 -11 -120T36 -89T71 -49T86 -1Q74 -8 56 -8Q33 -8 12 8T-9 56Z" />
<glyph unicode="&lt;" glyph-name="less" horiz-adv-x="373" d="M87 224L328 130V95L44 206V241L328 352V317L87 224Z" />
<glyph unicode="=" glyph-name="equal" horiz-adv-x="394" d="M354 160V126H33V160H354ZM354 320V286H33V320H354Z" />
<glyph unicode="&gt;" glyph-name="greater" horiz-adv-x="373" d="M46 317V352L330 241V206L46 95V130L287 224L46 317Z" />
<glyph unicode="?" glyph-name="question" horiz-adv-x="339" d="M187 171Q168 171 149 177T115 197T91 230T82 277Q82 300 93 321T122 363T162 403T208 442Q232 461 251 476T283 506T304 533T312 560Q312 585 297 604T247 633L249 639Q284 634 312 621T360 589T391
549T402 503Q402 467 373 434T298 365Q278 349 259 333T224 301T200 270T191 239Q191 216 204 206T232 195Q252 195 264 202T287 217L291 213Q278 197 250 184T187 171ZM48 55Q48 82 66 100T113 118Q142 118 159 100T177 55Q177 29 160 11T113 -8Q85 -8 67 10T48
55ZM128 580Q128 603 143 618T182 633Q205 633 220 618T236 580Q236 557 221 542T182 527Q159 527 144 542T128 580Z" />
<glyph unicode="@" glyph-name="at" horiz-adv-x="806" d="M371 323Q357 306 346 280T326 226T313 169T308 121Q308 76 334 76Q351 76 366 92T393 123L400 119Q386 98 370 77T331 35Q311 17 288 5T245 -7Q225 -7 209 10T193 55Q193 82 207 118T246 191T301 265T365
328L371 323ZM397 351Q408 363 418 373T439 390Q466 405 495 408Q506 410 519 408Q521 410 529 420T540 432Q545 437 554 441T572 446Q593 446 605 439T609 407L506 52Q512 50 523 48T549 45Q604 45 647 68T718 127T762 208T777 295Q777 355 758 405T700 491T600
547T457 567Q374 567 303 533T181 443T100 312T70 158Q70 84 93 21T160 -89T268 -162T415 -189Q467 -189 512 -179T596 -154T665 -121T716 -86L723 -96Q704 -113 673 -132T600 -167T511 -195T410 -206Q317 -206 244 -182T121 -112T45 1T18 153Q18 242 55 320T153
456T293 548T457 582Q542 582 605 561T711 501T773 411T794 295Q794 241 772 187T710 90T615 20T494 -7Q477 -7 459 -6T426 -1T403 8T396 21L495 368Q493 369 482 369T457 366T427 359T402 349Q401 349 400 350T397 351Z" />
<glyph unicode="A" glyph-name="A" horiz-adv-x="603" d="M324 274L298 486L384 638H426L484 126Q490 66 509 40T574 8L571 0H256L259 8Q315 13 330 42T341 125L327 244H150L168 274H324ZM-88 0L-85 8Q-50 14 -20 29T35 67Q61 88 77 108T115 159L123 156Q115 141
109 120T103 76Q103 52 119 31T163 8L160 0H-88Z" />
<glyph unicode="B" glyph-name="B" horiz-adv-x="641" d="M591 189Q591 142 567 107T502 48T406 12T287 0H247L249 8Q299 9 336 25T398 68T435 133T447 212Q447 260 423 291T339 328L341 336Q376 337 404 352T452 394T483 453T494 525Q494 549 486 569T461 604Q441
619 412 622L414 630Q461 629 500 621T567 598T610 559T626 506Q626 468 608 438T560 386T490 351T409 333Q449 328 482 317T540 287T577 245T591 189ZM197 567Q197 593 177 606T130 622L133 630H366L188 0H-38L-35 8Q-12 11 5 18T36 39T60 74T79 127L186 503Q193
526 195 540T197 567Z" />
<glyph unicode="C" glyph-name="C" horiz-adv-x="644" d="M612 414Q612 452 604 488T580 553T536 602T470 630L473 638Q497 638 523 634T576 625T627 612T670 598L621 414H612ZM302 -7Q246 -2 201 22T123 82T73 165T55 260Q55 343 90 412T186 534Q235 579 299
608T437 640L434 632Q394 628 358 599T293 522Q275 494 259 453T230 364T210 267T202 173Q202 110 227 62T305 1L302 -7ZM341 0Q384 9 420 30T486 81T540 147T586 222H595L541 24Q523 18 503 13T459 3T406 -4T338 -8L341 0Z" />
<glyph unicode="D" glyph-name="D" horiz-adv-x="711" d="M703 377Q703 265 650 183T505 55Q448 26 382 14T244 0L246 8Q309 14 366 45T467 129T535 254T561 414Q561 511 529 562T418 622L420 630Q483 624 535 607T624 558T682 482T703 377ZM197 567Q197 593 177
606T130 622L133 630H366L188 0H-38L-35 8Q-12 11 5 18T36 39T60 74T79 127L186 503Q193 526 195 540T197 567Z" />
<glyph unicode="E" glyph-name="E" horiz-adv-x="605" d="M188 0H-38L-35 8Q-12 11 5 18T36 39T60 74T79 127L186 503Q193 526 195 540T197 567Q197 593 177 606T130 622L133 630H366L188 0ZM578 428Q578 476 571 510T545 568T497 604T421 623L423 630H630L586
428H578ZM248 8Q292 11 338 26T422 65Q447 80 466 96T502 132T534 176T568 231H577L505 0H246L248 8ZM344 322Q378 325 402 333T444 356T477 393T510 448H518L447 188H439Q439 219 435 241T420 279T390 302T342 314L344 322Z" />
<glyph unicode="F" glyph-name="F" horiz-adv-x="574" d="M224 127Q217 104 215 91T212 65Q212 39 231 25T283 8L280 0H-38L-35 8Q-12 11 5 18T36 39T60 74T79 127L186 503Q193 526 195 540T197 567Q197 593 177 606T130 622L133 630H366L224 127ZM574 415Q567
512 529 561T421 623L423 630H626L582 415H574ZM344 322Q376 324 400 333T442 358T477 399T511 455H519L443 181H435Q435 212 431 236T416 277T388 303T342 314L344 322Z" />
<glyph unicode="G" glyph-name="G" horiz-adv-x="694" d="M623 418Q622 453 615 488T591 552T547 602T480 630L483 638Q505 637 532 633T586 623T637 610T680 595L632 418H623ZM296 -6Q245 0 201 23T125 83T74 165T55 260Q55 349 93 419T192 541Q242 586 307 612T448
639L445 631Q399 627 359 598T288 522Q270 494 253 453T224 363T204 263T196 165Q196 136 202 109T222 60T254 23T299 2L296 -6ZM457 155Q463 178 465 193T468 220Q468 246 449 258T404 274L407 282H703L700 274Q652 269 630 247T595 179L551 25Q532 19 505 13T448
3T387 -4T331 -8L334 0Q375 5 399 20Q425 39 434 72L457 155Z" />
<glyph unicode="H" glyph-name="H" horiz-adv-x="770" d="M315 310L324 340H518L509 310H315ZM224 127Q217 104 215 89T212 62Q212 36 229 23T275 8L272 0H-38L-35 8Q-12 11 5 18T36 39T60 74T79 127L186 503Q193 526 195 540T197 567Q197 593 177 606T130 622L133
630H443L440 622Q416 619 400 612T371 591T349 556T331 503L224 127ZM636 127Q629 104 627 89T625 62Q625 36 644 23T692 8L689 0H379L382 8Q404 11 420 17T449 37T472 72T491 127L598 503Q605 526 607 541T610 568Q610 594 592 607T547 622L550 630H860L857 622Q809
617 785 591T743 503L636 127Z" />
<glyph unicode="I" glyph-name="I" horiz-adv-x="358" d="M186 503Q193 526 195 540T197 567Q197 593 177 606T130 622L133 630H448L445 622Q397 617 373 591T331 503L224 127Q217 104 215 89T212 62Q212 36 232 23T280 8L277 0H-38L-35 8Q-12 11 5 18T36 39T60
74T79 127L186 503Z" />
<glyph unicode="J" glyph-name="J" horiz-adv-x="327" d="M198 82Q178 14 148 -32T75 -108T-20 -151T-140 -171V-161Q-96 -153 -66 -133T-13 -82T25 -8T56 88L174 503Q181 526 183 540T185 567Q185 593 165 606T119 622L122 630H436L433 622Q385 617 361 591T319
503L198 82Z" />
<glyph unicode="K" glyph-name="K" horiz-adv-x="714" d="M785 622Q745 616 707 601T633 565T565 519T502 467L496 473Q519 497 532 517T546 567Q546 592 528 605T479 622L481 630H787L785 622ZM224 127Q217 104 215 89T212 62Q212 36 232 23T280 8L277 0H-38L-35
8Q-12 11 5 18T36 39T60 74T79 127L186 503Q193 526 195 540T197 567Q197 593 177 606T130 622L133 630H448L445 622Q397 617 373 591T331 503L224 127ZM702 -7Q689 -7 672 -7T635 -5T596 -3T562 -1Q539 1 520 5T485 19T454 45T424 89Q412 110 398 135T371 189T345
246T324 302L425 403Q442 362 466 313T515 217T564 130T605 67Q623 43 646 25T704 1L702 -7Z" />
<glyph unicode="L" glyph-name="L" horiz-adv-x="592" d="M-38 0L-35 8Q-12 11 5 18T36 39T60 74T79 127L186 503Q193 526 195 540T197 567Q197 593 177 606T130 622L133 630H448L445 622Q397 617 373 591T331 503L188 0H-38ZM238 8Q284 15 322 32T399 74Q424
90 445 106T484 141T520 184T554 237H562L490 0H236L238 8Z" />
<glyph unicode="M" glyph-name="M" horiz-adv-x="845" d="M123 190Q114 163 106 133T97 79Q97 50 116 32T167 8L164 0H-98L-95 8Q-58 13 -28 30T28 73T75 128T114 190H123ZM327 -8H321L242 487Q237 523 227 547T200 588Q185 602 168 610T122 622L124 630H367L439
149L327 -8ZM935 630L932 622Q908 619 891 612T860 591T838 556T819 503L712 127Q705 104 703 89T700 62Q700 36 719 23T767 8L764 0H451L454 8Q477 11 494 18T524 39T548 74T567 127L710 630H935Z" />
<glyph unicode="N" glyph-name="N" horiz-adv-x="681" d="M465 -3L212 513Q192 555 162 586Q146 601 128 610T85 622L88 630H319L552 157L504 -3H465ZM156 190Q147 163 143 142T139 97Q139 66 162 41T235 8L232 0H-60L-57 8Q-18 13 12 31T66 74T109 131T147 193L156
190ZM609 440Q617 464 621 491T625 542Q625 571 603 593T527 622L530 630H810L807 622Q744 613 699 569T617 438L609 440Z" />
<glyph unicode="O" glyph-name="O" horiz-adv-x="677" d="M262 -6Q216 2 178 26T113 86T72 166T57 260Q57 321 74 374T122 472T194 551T285 606Q320 621 358 630T434 640L431 633Q396 629 366 604T309 540T262 452T227 352T205 251T197 161Q197 137 199 112T208
66T228 27T264 2L262 -6ZM464 638Q510 630 548 606T613 546T654 466T669 372Q669 307 650 252T598 151T518 72T419 18Q390 7 357 0T293 -8L295 0Q329 8 360 34T417 98T463 183T498 280T521 379T529 472Q529 495 527 520T518 566T498 605T462 630L464 638Z" />
<glyph unicode="P" glyph-name="P" horiz-adv-x="606" d="M224 127Q217 104 216 91T214 66Q214 40 236 25T290 8L287 0H-38L-35 8Q-12 11 5 18T36 39T60 74T79 127L186 503Q193 526 195 540T197 567Q197 593 177 606T130 622L133 630H366L224 127ZM316 279Q331
280 347 283T372 288Q405 297 430 318T473 370T500 439T509 521Q509 560 487 588T414 622L417 630Q522 622 584 585T646 475Q646 427 621 390T552 327T446 287T314 270L316 279Z" />
<glyph unicode="Q" glyph-name="Q" horiz-adv-x="677" d="M-55 -122Q-39 -115 -15 -104T36 -80T87 -56T130 -38Q236 -52 344 -70T548 -107Q636 -123 719 -134T868 -145Q922 -145 957 -136T1020 -112L1024 -118Q1007 -144 978 -168T914 -210T841 -240T770 -252Q714
-252 647 -244T484 -218Q429 -208 365 -197T231 -173T89 -149T-55 -127V-122ZM262 -2Q216 6 178 30T113 89T72 168T57 262Q57 324 75 378T124 476T198 553T291 608Q323 622 361 630T434 640L431 633Q395 629 364 604T306 540T260 451T226 351T205 251T197 164Q197
103 210 62T264 6L262 -2ZM464 638Q510 630 548 606T613 547T654 467T669 373Q669 310 651 255T600 156T523 78T426 24Q396 12 360 5T293 -4L295 3Q330 6 361 31T418 96T464 183T499 283T521 383T529 472Q529 533 516 574T462 630L464 638Z" />
<glyph unicode="R" glyph-name="R" horiz-adv-x="654" d="M345 316Q383 322 409 341T452 387T476 449T483 520Q483 552 466 580T403 622L406 630Q457 626 498 616T568 588T612 543T628 478Q628 414 589 378T480 319Q487 293 498 263T522 202T548 142T573 87Q592
45 620 26T673 3L671 -5Q665 -5 650 -5T614 -5T572 -3T529 1Q502 4 483 12T451 30T430 53T418 78Q399 128 380 186T343 311L345 316ZM224 127Q217 104 215 91T212 65Q212 39 231 25T283 8L280 0H-38L-35 8Q-12 11 5 18T36 39T60 74T79 127L186 503Q193 526 195
540T197 567Q197 593 177 606T130 622L133 630H366L224 127Z" />
<glyph unicode="S" glyph-name="S" horiz-adv-x="482" d="M482 438Q483 469 476 500T453 558T418 603T373 629L376 638Q391 638 413 634T458 626T503 616T537 607L491 438H482ZM427 190Q427 138 408 102T357 42T282 7T192 -8L195 0Q237 6 265 33T293 111Q293 132
285 153T265 197T238 243T209 293Q192 322 180 343T160 384T147 422T143 466Q143 503 160 534T206 587T271 623T344 639L341 630Q309 625 293 601T276 547Q276 527 281 509T295 471T318 429T349 378Q364 352 378 329T403 284T420 239T427 190ZM155 -7Q135 -5 110
-2T62 6T19 15T-10 25L42 223H51Q49 192 56 158T77 92T111 36T159 2L155 -7Z" />
<glyph unicode="T" glyph-name="T" horiz-adv-x="656" d="M507 630L364 127Q357 104 355 89T352 62Q352 36 372 23T420 8L417 0H102L105 8Q128 11 145 18T176 39T200 74T219 127L362 630H507ZM325 622Q293 612 261 594T199 551T142 495T94 428H85L150 630H327L325
622ZM742 630L682 428H673Q676 599 541 622L543 630H742Z" />
<glyph unicode="U" glyph-name="U" horiz-adv-x="652" d="M785 630L782 622Q754 618 725 605T670 571Q658 560 645 542T621 502T602 461T589 427H578Q586 459 589 481T592 525Q592 616 494 622L497 630H785ZM228 226Q220 201 217 176T219 128T238 87T280 56Q304
44 343 39T428 36L431 28Q425 22 413 16T383 5T345 -4T301 -8Q253 -8 211 -1T139 26Q110 45 96 70T77 125T76 186T89 250L161 503Q168 526 170 540T172 567Q172 593 152 606T105 622L108 630H423L420 622Q372 617 348 591T306 503L228 226Z" />
<glyph unicode="V" glyph-name="V" horiz-adv-x="581" d="M352 154L258 -6H224L164 504Q157 563 138 590T74 622L77 630H396L393 622Q364 619 347 611T322 587T311 551T311 504L352 154ZM725 630L722 622Q691 617 663 604T611 572Q582 548 563 524T519 466L511
469Q519 484 526 507T533 554Q533 578 518 599T474 622L477 630H725Z" />
<glyph unicode="W" glyph-name="W" horiz-adv-x="852" d="M330 170L224 -6H199L164 507Q159 566 140 592T74 622L77 630H385L382 622Q335 617 321 591T310 513L330 170ZM640 170L534 -6H508L473 516Q471 544 467 563T455 595T433 614T400 622L403 630H703L700
622Q671 619 655 611T630 587T620 551T620 504L640 170ZM1001 630L998 622Q966 617 939 604T888 572Q858 548 836 522T793 460L784 465Q792 480 801 507T810 557Q810 583 791 601T746 622L749 630H1001Z" />
<glyph unicode="X" glyph-name="X" horiz-adv-x="638" d="M-85 0L-83 8Q-49 15 -15 32T52 73T118 126T182 187L186 178Q177 168 167 154T147 124T132 93T125 67Q125 40 144 26T188 8L185 0H-85ZM230 514Q219 562 199 589T134 622L136 630H458L456 622Q413 618
396 600T376 550Q375 538 376 526T382 497L471 116Q482 65 502 39T568 8L565 0H244L247 8Q290 12 306 30T322 80Q322 91 321 103T315 133L230 514ZM760 630L757 622Q698 608 639 571T514 466L510 475Q527 495 543 520T560 569Q560 596 540 607T494 622L497 630H760Z"
/>
<glyph unicode="Y" glyph-name="Y" horiz-adv-x="593" d="M245 297L186 532Q175 571 156 594T93 622L95 630H409L407 622Q331 616 331 573Q331 562 336 541T345 507L394 312L341 127Q334 104 332 89T330 62Q330 36 349 23T397 8L394 0H80L83 8Q105 11 122 18T153
39T177 74T196 127L245 297ZM727 622Q697 617 668 605T613 575Q576 550 547 520T492 463L487 472Q495 482 503 495T517 522T528 549T532 575Q532 597 512 608T465 622L467 630H730L727 622Z" />
<glyph unicode="Z" glyph-name="Z" horiz-adv-x="616" d="M222 0L229 8Q284 16 338 31T431 70Q488 103 522 143T583 222H592Q590 215 584 198T569 158T550 110T531 63T515 23T505 0H222ZM143 0H-23L519 630H684L143 0ZM436 622Q398 618 357 607T269 570Q224 545
180 501T103 408H94Q96 414 102 431T117 472T135 522T153 571T167 610T174 630H440L436 622Z" />
<glyph unicode="[" glyph-name="bracketleft" horiz-adv-x="332" d="M227 638H432L429 625H302L63 -206H190L187 -219H-17L227 638Z" />
<glyph unicode="\" glyph-name="backslash" horiz-adv-x="363" d="M317 -154L116 626L138 633L341 -147L317 -154Z" />
<glyph unicode="]" glyph-name="bracketright" horiz-adv-x="332" d="M91 -219H-114L-111 -206H16L255 625H128L131 638H335L91 -219Z" />
<glyph unicode="^" glyph-name="asciicircum" horiz-adv-x="391" d="M208 544L111 321H72L190 591H226L344 321H305L208 544Z" />
<glyph unicode="_" glyph-name="underscore" horiz-adv-x="475" d="M-60 -127L-55 -90H445L439 -127H-60Z" />
<glyph unicode="`" glyph-name="grave" horiz-adv-x="224" d="M218 486L125 656L206 683L226 489L218 486Z" />
<glyph unicode="a" glyph-name="a" horiz-adv-x="446" d="M225 354Q211 337 190 302T149 227T115 152T101 95Q101 73 118 73Q125 73 134 78T152 92T169 109T185 127L190 123Q180 103 163 81T125 38T80 5T34 -8Q14 -8 -1 7T-16 51Q-16 87 5 130T61 215T136 295T219
359L225 354ZM337 76Q344 76 355 85T379 107T402 137T421 167L427 164Q418 135 399 105T354 50T300 8T245 -8Q223 -8 213 4T202 35Q202 48 208 78T226 138Q238 176 252 218T278 297L306 381Q300 384 289 384Q278 385 268 382T249 373L243 378Q251 384 263 391T290
406T320 417T348 424Q359 440 375 452T414 464Q439 464 439 448Q439 441 438 434T435 424Q430 411 418 376T392 296T362 207T337 129Q333 116 330 105T327 88Q327 80 330 78T337 76Z" />
<glyph unicode="b" glyph-name="b" horiz-adv-x="480" d="M151 -1Q165 1 181 11T214 41Q237 69 260 110T302 194T332 278T344 345Q344 371 322 371Q305 371 277 352T221 292L215 295Q232 326 255 353T303 402T356 435T409 447Q441 447 460 427T480 372Q480 310
453 245T381 126T275 35T149 -8L151 -1ZM152 570Q158 590 164 610T170 639Q170 645 169 648T162 656L130 673L131 677L319 714L320 713L142 130Q140 122 137 109T132 81T127 53T125 32Q125 6 134 1L132 -6Q81 -4 50 24T19 90Q19 102 21 116T25 143T31 169T36 189L152
570Z" />
<glyph unicode="c" glyph-name="c" horiz-adv-x="347" d="M289 440Q255 429 228 394T180 312T149 217T138 129Q138 79 169 79Q186 79 203 87T236 109T265 139T287 171L294 168Q288 147 273 117T235 59T179 12T107 -8Q79 -8 61 1T31 27T15 62T10 101Q10 159 35
218T101 327T192 409T291 447L289 440ZM275 379Q275 400 289 414T324 429Q345 429 359 415T374 379Q374 358 360 344T324 330Q303 330 289 344T275 379Z" />
<glyph unicode="d" glyph-name="d" horiz-adv-x="482" d="M302 439Q278 428 249 396T193 317T149 213T131 96Q131 76 146 76Q171 76 186 93T214 128L220 124Q210 105 194 82T159 39T117 6T71 -8Q38 -8 22 16T5 76Q5 106 15 144T44 223T89 303T149 376Q184 410
226 427T304 447L302 439ZM373 129Q369 116 366 105T363 88Q363 80 366 78T373 76Q380 76 391 85T415 108T438 138T457 167L463 164Q454 135 435 105T390 50T336 8T281 -8Q258 -8 246 6T234 46Q234 59 239 83T254 138L326 374Q329 385 331 396T333 413Q333 424
330 429T323 438L325 446Q336 444 345 437L386 570Q392 590 398 610T404 639Q404 650 395 656L364 673L365 677L551 714L552 713L373 129Z" />
<glyph unicode="e" glyph-name="e" horiz-adv-x="363" d="M279 440Q257 433 239 412T205 361T178 297T158 228T146 164T142 112Q142 89 151 79T175 68Q193 68 211 77T245 99T274 129T297 161L304 158Q297 136 281 108T240 54T185 10T117 -8Q85 -8 65 1T34 27T19
62T14 101Q14 157 36 216T95 324T180 408T281 447L279 440ZM176 231Q202 239 223 250T261 278Q288 306 297 343T306 415Q306 428 302 432T295 439L297 446Q339 444 361 427T383 381Q383 351 368 325T326 279T261 245T174 224L176 231Z" />
<glyph unicode="f" glyph-name="f" horiz-adv-x="289" d="M119 436Q133 486 153 535T209 620Q243 658 293 680T404 704L402 698Q364 694 338 671T293 613T262 532T239 436H340L325 387H229L217 324Q205 266 193 206T163 88T120 -26T58 -129Q-15 -222 -136 -231L-134
-225Q-92 -216 -55 -181T3 -78Q35 30 58 146T106 387H41L44 395L119 436ZM359 627Q359 653 376 670T419 688Q444 688 461 671T479 627Q479 602 462 585T419 567Q394 567 377 584T359 627ZM-204 -165Q-204 -145 -189 -131T-154 -116Q-134 -116 -120 -130T-105 -165Q-105
-185 -119 -200T-154 -215Q-174 -215 -189 -200T-204 -165Z" />
<glyph unicode="g" glyph-name="g" horiz-adv-x="404" d="M129 -238Q86 -237 45 -232T-30 -214T-83 -184T-104 -141Q-104 -126 -88 -112T-47 -86T4 -66T53 -56L55 -64Q43 -67 30 -73T7 -88T-10 -110T-17 -139Q-17 -165 -4 -182T31 -208T79 -223T132 -230L129 -238ZM162
-230Q198 -225 223 -213T249 -179Q249 -167 241 -156T218 -135T184 -114T145 -93Q120 -80 99 -68T61 -43T35 -13T25 25Q25 57 51 82T116 122L122 119Q116 112 113 106T109 91Q109 81 118 72T142 53T179 33T223 10Q254 -7 276 -19T313 -45T335 -75T342 -113Q342
-138 328 -159T290 -197T233 -224T160 -238L162 -230ZM369 409L476 450L447 362L367 402L369 409ZM255 440Q242 436 225 421Q213 410 197 383T165 322T140 249T130 176Q130 144 141 140L139 133Q116 134 97 142T65 164T44 195T37 233Q37 270 53 307T98 374T167
424T257 447L255 440ZM155 140Q164 141 178 153Q190 163 207 189T241 251T268 326T279 403Q279 419 276 428T269 440L271 447Q317 445 345 416T374 347Q374 310 358 273T312 206T243 156T153 133L155 140Z" />
<glyph unicode="h" glyph-name="h" horiz-adv-x="503" d="M371 345Q371 362 364 369T346 376Q330 376 300 352T236 281L230 286Q281 368 336 407T438 447Q467 447 485 431T503 372Q503 312 480 248T419 129T332 37T230 -6L233 1Q249 4 262 19Q281 40 300 79T336
163T361 257T371 345ZM158 570Q164 590 170 610T176 639Q176 649 168 656L136 673L137 677L325 714L326 713L123 42Q115 22 97 7T47 -8Q13 -8 2 4T-4 36L158 570ZM168 53Q168 71 180 84T211 97Q229 97 242 84T255 53Q255 34 242 22T211 9Q192 9 180 21T168 53Z"
/>
<glyph unicode="i" glyph-name="i" horiz-adv-x="280" d="M216 246Q204 218 196 200T181 165T164 132T142 87L145 85Q174 100 201 123T249 166L255 162Q242 140 218 111T164 55T104 11T49 -8Q32 -8 20 1T7 31Q7 36 9 45T16 66Q27 95 47 142T89 234Q108 276 123
313T139 363Q139 378 126 378Q118 378 109 370T91 353Q80 341 67 322T43 282L36 285Q46 315 63 344T102 396T150 433T207 447Q233 447 248 432T263 395Q263 368 250 331T216 246ZM213 599Q213 625 231 643T276 662Q302 662 320 644T339 599Q339 573 321 555T276
536Q250 536 232 554T213 599Z" />
<glyph unicode="j" glyph-name="j" horiz-adv-x="270" d="M207 599Q207 625 225 643T270 662Q297 662 315 644T334 599Q334 573 316 555T270 536Q244 536 226 554T207 599ZM131 -12Q96 -102 32 -155T-125 -217L-123 -211Q-105 -205 -89 -193T-58 -160T-28 -108T5
-33Q15 -7 29 32T57 114T85 194T106 255Q123 304 130 327T137 363Q137 378 124 378Q117 378 107 371T89 353Q78 341 66 323T43 282L36 285Q46 315 62 344T100 396T146 433T200 447Q229 447 245 431T261 392Q261 365 250 330T223 246Q206 195 183 129T131 -12ZM-219
-148Q-219 -125 -204 -110T-165 -94Q-142 -94 -126 -109T-110 -148Q-110 -171 -126 -187T-165 -203Q-188 -203 -203 -187T-219 -148Z" />
<glyph unicode="k" glyph-name="k" horiz-adv-x="478" d="M215 277Q234 303 259 333T311 388T366 430T418 447Q444 447 455 429T467 389Q467 368 455 346T424 303T378 261T324 225Q335 185 346 151T367 93Q373 76 380 69T395 62Q406 62 424 75T454 109L461 105Q453
87 439 67T405 31T364 3T319 -8Q299 -8 283 4T255 48Q245 73 236 108T221 178Q243 189 258 197T288 216Q320 238 343 268T367 333Q367 364 341 364Q332 364 318 357T286 337T251 308T221 273L215 277ZM161 570Q167 590 173 610T179 639Q179 649 171 656L139 673L140
677L328 714L329 713L125 42Q118 22 100 7T49 -8Q16 -8 5 4T-2 36L161 570Z" />
<glyph unicode="l" glyph-name="l" horiz-adv-x="258" d="M-3 31Q-3 48 10 89T42 184L173 570Q179 590 185 610T191 639Q191 650 182 656L151 673L152 677L339 714L340 713L135 87L138 85Q171 99 196 116T242 152L248 148Q235 126 210 99T154 48T94 8T39 -8Q22
-8 10 1T-3 31Z" />
<glyph unicode="m" glyph-name="m" horiz-adv-x="751" d="M105 261Q111 274 118 288T131 317T142 343T146 362Q146 378 130 378Q114 378 97 358Q75 334 50 282L43 285Q52 317 67 346T103 398T149 434T203 447Q229 447 245 433T262 391Q262 361 250 325T220 246L130
42Q122 22 104 7T54 -8Q20 -8 8 5T3 36Q6 43 14 61T32 102T54 150T76 198T94 238T105 261ZM688 261Q686 256 675 235T650 187T622 133T600 89L603 87Q632 102 662 124T713 166L719 162Q706 140 678 111T616 55T549 11T491 -8Q474 -8 464 0T454 28Q454 42 466 69Q472
84 481 103T501 143T522 181T540 214Q554 241 567 266T591 311T607 346T613 364Q613 375 603 375Q589 375 560 345T492 264L486 269Q511 308 537 340T591 396T644 433T697 447Q742 447 742 400Q742 386 729 350T688 261ZM323 241Q376 347 376 362Q376 373 365 373Q351
373 324 344T259 264L253 269Q278 308 304 340T356 396T409 433T462 447Q508 447 508 400Q508 393 504 379T492 344T474 300T452 250Q437 217 426 191T403 141T381 94T356 42Q347 23 330 8T280 -8Q247 -8 234 5T229 36Q235 48 246 73T271 129T298 189T323 241Z"
/>
<glyph unicode="n" glyph-name="n" horiz-adv-x="529" d="M382 87Q411 102 441 124T492 166L498 162Q485 140 457 111T395 55T327 11T269 -8Q253 -8 243 0T233 28Q233 34 235 44T243 67Q249 82 259 101T279 141T300 180T319 214Q332 239 345 264T369 309T385 344T392
363Q392 374 380 374Q373 374 361 366T332 344T298 309T261 264L255 269Q281 308 309 341T366 397T423 434T476 447Q520 447 520 400Q520 386 507 350T467 261Q465 256 454 235T429 187T401 133T379 89L382 87ZM105 261Q111 274 118 288T130 317T140 343T144 362Q144
378 130 378Q114 378 97 358Q75 334 50 282L43 285Q52 317 67 346T104 398T150 434T204 447Q231 447 247 432T263 389Q263 359 251 324T220 246L130 42Q122 22 104 7T54 -8Q20 -8 8 5T3 36Q6 43 14 61T32 102T54 150T76 198T94 238T105 261Z" />
<glyph unicode="o" glyph-name="o" horiz-adv-x="477" d="M300 440Q284 437 266 424Q237 402 213 360T172 268T145 165T135 70Q135 38 142 22T159 0L157 -7Q119 -4 93 11T51 47T28 94T20 144Q20 202 40 255T98 349T187 416T302 447L300 440ZM177 0Q188 2 200 8T224
25Q250 49 271 90T309 179T333 278T342 370Q342 402 335 418T318 440L320 447Q357 444 383 429T426 393T449 346T457 296Q457 237 437 185T380 91T291 23T175 -7L177 0Z" />
<glyph unicode="p" glyph-name="p" horiz-adv-x="490" d="M108 372Q91 369 70 364T32 354L30 360Q42 368 67 378T115 396L137 479Q143 501 166 512T221 523Q252 523 259 513T261 485L139 34Q147 22 164 14T196 4L194 -4Q189 -6 183 -7T167 -8Q156 -8 147 -7T128
-4L97 -124Q84 -173 101 -193T154 -216L151 -224H-113L-110 -216Q-91 -213 -79 -208T-57 -194T-42 -171T-29 -135L108 372ZM264 417Q273 422 288 427T321 436T354 444T380 447Q436 447 457 417T478 338Q478 284 460 231T409 132T330 53T229 3L231 12Q249 26 270
58T309 133T339 228T351 332Q351 368 337 384T287 401Q283 402 275 402T259 400L264 417Z" />
<glyph unicode="q" glyph-name="q" horiz-adv-x="467" d="M151 381Q184 412 222 428T292 447L290 440Q265 425 249 407T212 357Q194 330 179 297T154 229T137 164T131 109Q131 92 136 81T157 70Q168 70 179 77T202 94T222 116T238 135L244 131Q233 111 216 87T178
41T133 6T82 -8Q51 -8 29 15T6 86Q6 122 17 162T47 241T93 317T151 381ZM324 -127Q317 -151 318 -167T327 -194T348 -210T380 -216L377 -224H112L115 -216Q135 -213 148 -208T171 -193T186 -168T199 -132L328 330Q340 374 334 404T314 439L316 446Q340 443 365
431T400 387H404L484 454L490 451Q487 443 482 431T472 402T462 369T452 336L324 -127Z" />
<glyph unicode="r" glyph-name="r" horiz-adv-x="397" d="M317 288Q325 301 331 320T338 352Q338 357 336 361T327 366Q313 366 293 335T253 259L246 261Q258 298 272 331T305 390T344 431T389 446Q406 446 417 434T429 400Q429 379 420 360T395 325T361 297T324
280L317 288ZM99 261Q110 287 122 316T134 365Q134 378 122 378Q105 378 88 358Q77 345 65 326T44 282L37 285Q44 317 58 346T92 398T136 434T190 447Q219 447 235 432T252 390Q252 360 241 325T214 246Q205 221 194 190T171 130T151 77T136 42Q128 22 110 7T60
-8Q26 -8 14 5T9 36Q12 45 19 62T35 102T53 148T72 194T88 234T99 261Z" />
<glyph unicode="s" glyph-name="s" horiz-adv-x="306" d="M248 440Q222 436 204 420T186 371Q186 350 193 323T214 251Q228 210 236 184T244 136Q244 112 233 87T201 42T146 9T67 -8L69 -1Q100 4 117 19T134 66Q134 88 125 119T100 189Q74 257 74 304Q74 328 85
352T118 396T173 430T250 447L248 440ZM-42 68Q-42 91 -27 106T12 122Q35 122 50 107T66 68Q66 45 51 30T12 14Q-11 14 -26 29T-42 68ZM245 390Q245 411 259 425T294 440Q314 440 328 426T343 390Q343 370 329 356T294 342Q273 342 259 356T245 390Z" />
<glyph unicode="t" glyph-name="t" horiz-adv-x="303" d="M28 126Q39 156 56 200T89 286Q107 334 126 386H61L70 407Q91 415 109 422Q124 428 138 434T157 444L176 463Q184 471 193 480T211 499Q225 514 239 528T264 549Q269 552 275 552T286 549T293 543T294
532Q292 527 287 512T275 479Q268 460 259 436H370L351 386H242L134 85L137 83Q169 97 205 126T263 185L269 182Q257 154 232 118T173 51Q143 25 113 9T55 -8Q33 -8 19 5T4 39Q4 52 9 72T28 126Z" />
<glyph unicode="u" glyph-name="u" horiz-adv-x="526" d="M204 217Q178 165 160 130T142 85Q142 73 153 73Q168 73 200 99T270 175L276 170Q250 131 222 99T164 42T106 5T53 -8Q8 -8 8 39Q8 47 12 62T24 97Q35 126 50 157T87 229Q93 242 103 261T122 301T138 338T145
362Q145 378 129 378Q113 378 96 358Q74 334 49 282L42 285Q51 317 68 346T108 398T157 434T213 447Q239 447 253 432T268 390Q268 355 248 310T204 217ZM385 74Q399 81 415 93T447 118T477 143T502 166L508 162Q495 140 469 111T412 55T348 11T292 -8Q276 -8 264
0T251 30Q251 42 259 67T280 121T305 179T327 231Q338 256 349 282T369 330T387 370T399 397Q407 417 425 432T475 447Q508 447 521 435T524 399L449 229L382 76L385 74Z" />
<glyph unicode="v" glyph-name="v" horiz-adv-x="418" d="M183 447Q209 447 222 425T235 367Q235 344 230 303T217 220T202 141T192 90L89 -6L45 13Q59 51 71 96T93 186T108 271T114 342Q114 371 104 379T82 387Q59 387 26 364L23 370Q35 383 55 396T97 421T142
439T183 447ZM360 356Q360 372 354 380T337 388Q328 388 311 382T274 360L269 365Q281 378 299 392T338 419T378 439T410 447Q430 447 441 435T452 399Q452 382 441 359T409 310Q349 233 241 148L238 155Q266 180 289 208T327 263T351 314T360 356Z" />
<glyph unicode="w" glyph-name="w" horiz-adv-x="621" d="M176 447Q202 447 215 425T229 367Q229 346 225 306T216 222T205 142T196 90L93 -6L51 15Q64 54 75 100T93 191T105 276T109 342Q109 368 99 376T77 384Q67 384 55 380T26 365L23 371Q36 384 54 397T94
422T136 440T176 447ZM391 447Q417 447 430 425T444 367Q444 344 440 303T431 220T420 141T411 90L309 -6L265 15Q278 55 289 100T308 189T320 274T324 344Q324 370 313 377T293 385Q287 385 278 383T252 370L249 376Q262 389 278 401T314 424T352 440T391 447ZM564
354Q564 370 558 378T541 387Q533 387 517 382T480 360L475 365Q487 379 505 393T544 420T582 439T611 447Q631 447 643 436T655 401Q655 380 642 351T603 287T541 216T460 141L457 148Q484 173 504 201T537 258T557 311T564 354Z" />
<glyph unicode="x" glyph-name="x" horiz-adv-x="455" d="M39 63Q53 63 78 77T125 118L131 113Q119 93 101 67T62 23Q47 9 30 1T-3 -8Q-18 -8 -28 1T-38 28Q-38 43 -30 60T-10 95T13 127T33 148L39 145Q34 132 28 116T22 88Q22 63 39 63ZM145 339Q138 372 119
372Q110 372 101 364T82 344T66 319T56 297L48 300Q57 334 72 361T106 408T145 437T185 447Q218 447 235 424T264 352Q270 321 276 292T288 234T300 173T315 108Q323 76 329 67T346 57Q356 57 367 65T388 86T405 111T415 133L422 132Q417 106 404 81T372 36T329
4T279 -8Q247 -8 230 14T200 91Q193 119 186 151T172 217T158 282T145 339ZM425 379Q411 379 384 363T334 321L328 326Q341 348 359 372T397 414Q412 428 428 437T462 446Q477 446 487 438T498 413Q498 398 491 383T474 353T452 326T434 307L429 311Q437 325 440
337T443 355Q443 369 438 374T425 379Z" />
<glyph unicode="y" glyph-name="y" horiz-adv-x="434" d="M229 385Q232 359 233 312T234 209T228 97T217 -2Q208 -14 193 -31T159 -67T122 -104T88 -134Q99 -62 105 9T113 144T114 263T109 357Q108 365 104 371T91 377Q83 377 75 370T59 350T44 322T30 291L23
294Q30 328 45 356T81 404T126 435T175 447Q201 447 213 431T229 385ZM-82 -186Q-56 -186 -27 -180T34 -156L38 -161Q28 -171 13 -182T-18 -202T-52 -220T-83 -233Q-95 -238 -106 -239T-125 -241Q-148 -241 -168 -230T-188 -186Q-188 -172 -181 -159T-164 -136T-140
-118T-116 -108L-112 -112Q-117 -117 -120 -126T-123 -144Q-123 -167 -112 -176T-82 -186ZM372 358Q372 378 366 384T348 391Q340 391 325 385T297 366L292 371Q302 387 316 400T347 424T378 441T407 447Q432 447 439 430T447 395Q447 352 416 286T318 148L313
151Q348 203 360 258T372 358Z" />
<glyph unicode="z" glyph-name="z" horiz-adv-x="446" d="M75 129Q107 129 135 121T204 101Q223 95 243 90T283 80T317 73T340 70Q363 70 383 80T415 114L421 111Q415 84 403 60T373 18T333 -11T282 -22Q256 -22 214 -11T123 14Q93 23 69 28T25 33Q6 33 -16 25T-55
-2L-61 1Q-55 23 -41 45T-9 86T32 117T75 129ZM174 447Q188 447 216 443T275 431Q319 420 346 416T384 412Q407 412 423 422T446 441L452 438Q440 406 410 372T341 321Q318 323 281 330T205 347Q170 355 144 361T96 368Q84 368 72 359T56 332L47 333Q48 355 60
375T90 412T130 437T174 447ZM337 158Q337 175 349 188T379 201Q396 201 409 188T422 158Q422 141 409 129T379 116Q362 116 350 128T337 158ZM64 306Q64 323 75 334T102 345Q119 345 130 334T141 306Q141 290 130 279T102 267Q86 267 75 278T64 306Z" />
<glyph unicode="{" glyph-name="braceleft" horiz-adv-x="335" d="M65 207Q120 197 145 165T171 88Q171 62 162 34L124 -98Q118 -121 118 -143Q118 -161 125 -174T143 -195T168 -207T195 -212L193 -219Q166 -218 140 -210T94 -186T62 -148T49 -96Q49 -70 61 -34L91
74Q96 88 98 100T101 124Q103 168 80 184T12 205L14 212Q38 213 60 217T102 234T138 271T165 334L202 459Q216 507 239 540T292 595T359 627T438 638L436 631Q415 629 395 623T356 604T324 570T300 516L261 380Q241 310 191 264T65 208V207Z" />
<glyph unicode="|" glyph-name="bar" horiz-adv-x="222" d="M123 637H149V-220H123V637Z" />
<glyph unicode="}" glyph-name="braceright" horiz-adv-x="342" d="M316 207Q292 206 270 202T228 184T192 148T165 85L128 -40Q114 -88 91 -121T38 -176T-29 -208T-108 -219L-106 -212Q-87 -211 -67 -205T-28 -186T6 -152T31 -97L69 39Q89 109 139 155T265 211V212Q210
222 185 253T160 330Q160 343 161 356T168 385L206 517Q209 528 211 540T213 563Q213 581 206 593T187 614T162 626T135 631L137 638Q165 636 191 628T237 604T269 566T281 515Q281 489 269 453L239 345Q234 329 232 316T229 291Q228 249 251 234T319 214L316 207V207Z"
/>
<glyph unicode="~" glyph-name="asciitilde" horiz-adv-x="402" d="M203 252Q189 261 172 272T132 283Q109 283 95 267T77 220L38 222Q42 268 69 295T132 323Q165 323 185 313T225 287Q244 274 262 262T297 250Q323 250 333 267T347 313L385 311Q381 259 355 235T294
211Q265 211 246 223T203 252Z" />
<glyph unicode="&#xa0;" glyph-name="uni00A0" horiz-adv-x="168" />
<glyph unicode="&#xa1;" glyph-name="exclamdown" horiz-adv-x="268" d="M265 436Q265 410 247 392T201 374Q174 374 156 392T138 436Q138 463 156 481T201 499Q228 499 246 481T265 436ZM180 327Q174 287 168 229T156 112T143 0T129 -84Q121 -116 103 -131T51
-147Q21 -147 9 -133T-3 -95Q-3 -75 11 -37T46 47Q78 124 112 198T171 327H180Z" />
<glyph unicode="&#xa2;" glyph-name="cent" horiz-adv-x="361" d="M128 -6Q124 -7 117 -7Q89 -7 70 2T38 28T19 63T13 102Q13 145 31 193T81 286T155 367T247 425L244 413Q222 395 203 363T170 292T147 212T139 135Q139 97 159 85L310 541H329L177 80H178Q196
80 214 89T247 111T276 141T298 172L305 169Q298 148 285 122T252 70T206 25T149 -3L122 -86H102L128 -6ZM299 376Q299 397 313 411T349 426Q370 426 384 412T399 376Q399 355 385 341T349 327Q328 327 314 341T299 376Z" />
<glyph unicode="&#xa3;" glyph-name="sterling" horiz-adv-x="527" d="M146 265L164 315H86L91 336H171Q173 342 175 348T180 362Q204 434 234 482T300 561T381 605T477 623V617Q446 609 426 589T389 539T357 466T322 370Q322 369 320 364T316 353T312 342T309
336H416L411 315H300Q293 301 287 289T273 265H384L379 244H257Q227 207 185 181T81 129L76 133Q84 143 91 153T106 175T121 204T138 244H50L55 265H146ZM-58 -2Q-49 18 -33 37T5 73T53 98T107 108Q148 108 176 103T236 93Q274 87 309 82T376 76Q424 76 450 87T497
121L501 120Q481 49 443 10T332 -29Q297 -29 252 -20T168 -5Q142 -1 124 1T89 6T59 9T27 10Q7 10 -16 6T-56 -4L-58 -2ZM500 598Q523 598 540 582T557 541Q557 518 540 501T500 484Q476 484 459 501T442 541Q442 565 459 581T500 598Z" />
<glyph unicode="&#xa5;" glyph-name="yen" horiz-adv-x="476" d="M178 278L134 458Q125 495 107 513T56 537L58 545H345L342 537Q290 534 273 511T266 434L305 278H416L410 259H304L283 200H392L386 181H277L250 104Q247 96 243 80T238 55Q238 32 250 22T286 8L283
0H24L27 8Q46 11 60 16T85 32T106 59T125 100L153 181H44L50 200H160L181 259H68L74 278H178ZM627 537Q574 530 521 491T408 389L403 395Q412 407 421 420T438 447T449 473T454 494Q454 515 442 525T400 537L402 545H629L627 537Z" />
<glyph unicode="&#xa6;" glyph-name="brokenbar" horiz-adv-x="160" d="M94 637H119V253H94V637ZM94 164H119V-220H94V164Z" />
<glyph unicode="&#xa7;" glyph-name="section" horiz-adv-x="462" d="M-31 -145Q-31 -122 -14 -105T27 -88Q51 -88 68 -105T86 -145Q86 -169 69 -186T27 -204Q3 -204 -14 -187T-31 -145ZM67 -214Q113 -206 135 -175T158 -97Q158 -70 139 -25T83 83Q57 128 41 169T26
255Q26 282 33 303Q41 331 56 356T90 404T129 444T168 475L173 469Q147 445 136 414T125 362Q125 338 129 316T143 272T164 226T193 173Q224 119 244 71T265 -9Q265 -49 248 -85T203 -149T140 -197T68 -221L67 -214ZM480 550Q480 526 463 509T422 492Q398 492 381
509T363 550Q363 573 380 590T422 608Q446 608 463 591T480 550ZM394 625Q350 615 322 583T293 496Q293 467 313 425T368 319Q394 274 410 232T427 145Q427 113 414 82T379 22T332 -31T282 -73L278 -67Q304 -43 315 -15T327 35Q327 85 308 130T258 232Q243 259
230 286T206 337T191 382T185 418Q185 461 204 497T254 561T322 607T394 632V625Z" />
<glyph unicode="&#xa8;" glyph-name="dieresis" horiz-adv-x="374" d="M189 636Q212 636 227 620T243 581Q243 558 228 542T189 525Q166 525 150 541T134 581Q134 604 150 620T189 636ZM370 636Q393 636 409 620T425 581Q425 558 409 542T370 525Q347 525 332
541T316 581Q316 604 331 620T370 636Z" />
<glyph unicode="&#xa9;" glyph-name="copyright" horiz-adv-x="709" d="M48 315Q48 384 71 441T136 540T232 606T353 636V621Q290 616 238 592T147 529T88 435T66 315Q66 249 87 195T147 102T238 38T353 9V-6Q288 -1 233 23T136 90T72 189T48 315ZM694 315Q694
246 671 189T606 90T508 24T388 -6V9Q451 14 503 38T594 101T654 195T676 315Q676 381 655 435T595 528T504 592T388 621V636Q452 631 508 607T605 540T670 441T694 315ZM520 374Q512 416 490 455T426 511Q417 513 409 515T391 519V528Q432 526 468 520T530 506L531
374H520ZM533 257L532 125Q510 117 473 112T397 102V111Q414 114 428 119Q448 126 463 140T491 174T510 214T523 257H533ZM369 101Q317 104 276 121T205 168T160 237T144 321Q144 369 164 406T216 469T286 510T362 528V518Q356 517 343 513T322 504Q307 495 294
481T270 445T255 393T249 323Q249 251 267 199T327 124Q337 119 347 116T369 111V101Z" />
<glyph unicode="&#xaa;" glyph-name="ordfeminine" horiz-adv-x="275" d="M273 422Q273 415 280 415Q289 415 306 431T334 465L340 461Q334 445 320 428T289 396T254 372T220 362Q208 362 201 369T193 387Q193 395 197 413T208 451Q216 474 224 499T239 546Q247
572 255 597Q252 599 244 599Q239 599 233 597T220 593L217 598Q227 606 245 614T279 624Q286 635 297 642T322 650Q330 650 335 648T341 640Q341 636 340 632T338 625L278 445Q273 428 273 422ZM204 581Q195 572 182 552T157 510T136 465T127 427Q127 421 130
417T139 412Q148 412 161 422T183 446L187 442Q181 430 170 416T145 390T116 370T87 362Q75 362 64 372T52 399Q52 421 66 447T102 499T150 548T201 586L204 581Z" />
<glyph unicode="&#xab;" glyph-name="guillemotleft" horiz-adv-x="307" d="M123 85L32 219V229L197 364L203 356L106 221L131 88L123 85ZM151 219L152 229L315 364L323 356L225 221L250 88L242 85L151 219Z" />
<glyph unicode="&#xae;" glyph-name="registered" horiz-adv-x="412" d="M82 448Q82 484 94 516T129 574T181 615T248 636V621Q217 616 190 601T143 563T112 511T100 448Q100 414 111 385T143 332T190 294T248 274V259Q212 264 182 280T129 322T95 379T82 448ZM241
396Q241 377 248 370T271 361V354H166V361Q180 363 186 370T193 396V513Q193 531 187 538T166 548V553H241V396ZM395 354Q388 353 375 353T350 354Q333 355 323 362T300 386Q292 397 284 412T264 445V450Q279 454 286 465T294 499Q294 521 284 533T255 548V553Q260
553 269 553T283 551Q312 546 328 534T345 501Q345 484 334 472T307 453V451Q318 433 333 414T362 381Q369 374 378 368T395 359V354ZM460 448Q460 411 448 379T413 322T360 281T293 259V274Q324 278 351 293T398 332T429 384T441 448Q441 481 430 510T398 563T351
601T293 621V636Q329 631 359 615T412 574T447 517T460 448Z" />
<glyph unicode="&#xaf;" glyph-name="macron" horiz-adv-x="365" d="M133 545L146 587H397L384 545H133Z" />
<glyph unicode="&#xb0;" glyph-name="degree" horiz-adv-x="290" d="M94 516Q94 563 123 594T194 628V611Q160 607 137 583T114 516Q114 474 137 450T194 422V405Q152 408 123 438T94 516ZM325 516Q325 469 296 439T224 405V422Q259 425 281 449T304 516Q304 558
282 582T224 611V628Q245 626 263 618T295 594T317 559T325 516Z" />
<glyph unicode="&#xb2;" glyph-name="twosuperior" horiz-adv-x="315" d="M98 349H231Q263 349 287 368T324 409H333L283 281H23L98 349ZM119 371Q170 407 204 446T238 522Q238 575 187 574Q162 574 143 567T106 545L101 548Q124 584 162 609T244 634Q291 634
312 612T333 557Q333 533 316 507T270 455T205 408T129 370L119 371Z" />
<glyph unicode="&#xb3;" glyph-name="threesuperior" horiz-adv-x="264" d="M164 478Q199 481 224 476T266 459T290 431T298 397Q298 372 285 350T249 312T193 286T121 275L123 282Q167 286 189 308T211 362Q211 385 193 401T130 418Q125 418 117 418T104 415L103
419L164 478ZM183 497Q200 507 211 519T222 549Q222 586 177 586Q160 586 146 580T120 566L115 571Q132 599 161 616T223 634Q266 634 286 618T306 573Q306 557 297 545T271 522T232 505T184 493L183 497ZM55 322Q55 337 65 347T91 358Q106 358 116 348T127 322Q127
307 117 297T91 286Q76 286 66 296T55 322Z" />
<glyph unicode="&#xb4;" glyph-name="acute" horiz-adv-x="168" d="M113 481L105 486L202 687L272 643L113 481Z" />
<glyph unicode="&#xb6;" glyph-name="paragraph" horiz-adv-x="554" d="M295 165Q247 165 206 179T135 219T89 285T72 376Q72 431 96 477T163 558T261 611T381 630H656L651 612H479L359 165H295ZM355 -171L557 579H578L376 -171H355ZM328 131H350L306 -28Q292
-80 274 -115T234 -171T186 -200T132 -209Q87 -209 58 -186T27 -121Q27 -96 36 -78T58 -47T88 -27T120 -16L123 -28Q92 -36 72 -57T51 -117Q51 -151 74 -170T133 -190Q158 -190 180 -182T221 -155T257 -104T287 -23L328 131ZM99 -85Q99 -68 112 -55T143 -42Q160
-42 173 -55T186 -85Q186 -103 173 -116T143 -129Q125 -129 112 -116T99 -85Z" />
<glyph unicode="&#xb7;" glyph-name="periodcentered" horiz-adv-x="242" d="M62 228Q62 257 82 277T132 297Q161 297 181 277T201 228Q201 199 181 179T132 159Q103 159 83 179T62 228Z" />
<glyph unicode="&#xb8;" glyph-name="cedilla" horiz-adv-x="152" d="M-26 -221Q-38 -227 -55 -232T-87 -238Q-110 -238 -119 -229T-130 -208Q-130 -188 -114 -178T-78 -159Q-76 -184 -62 -199T-30 -215L-26 -221ZM-11 -205Q-2 -198 -2 -179Q-2 -170 -6 -162T-18
-142Q-23 -132 -27 -123T-31 -104Q-31 -89 -22 -76T0 -53T29 -33T57 -18L61 -24Q54 -30 48 -38T42 -58Q42 -66 46 -76T56 -98Q63 -109 67 -119T72 -139Q72 -153 65 -164T46 -184Q35 -192 21 -199T-7 -212L-11 -205Z" />
<glyph unicode="&#xb9;" glyph-name="onesuperior" horiz-adv-x="262" d="M209 356Q199 319 210 304T247 287L245 279H46L48 287Q77 290 94 304T123 354L179 554Q184 571 185 583T183 603Q179 610 167 613T140 619L142 626Q176 626 215 627T289 630Q284 614 279
598T265 553L209 356Z" />
<glyph unicode="&#xba;" glyph-name="ordmasculine" horiz-adv-x="277" d="M244 631Q227 626 214 615Q198 601 185 577T163 525T149 466T144 410Q144 390 149 381T160 368L158 362Q134 364 118 373T91 396T75 424T70 455Q70 492 84 524T122 580T178 619T246 637L244
631ZM175 368Q184 370 193 375T209 388Q223 403 235 426T256 478T270 535T275 588Q275 608 269 617T258 630L260 637Q284 635 301 626T328 603T344 575T349 544Q349 507 335 475T296 419T240 380T172 362L175 368Z" />
<glyph unicode="&#xbb;" glyph-name="guillemotright" horiz-adv-x="314" d="M295 230L294 220L130 85L123 92L221 228L196 361L204 364L295 230ZM85 364L175 230V220L11 85L4 92L102 228L76 361L85 364Z" />
<glyph unicode="&#xbc;" glyph-name="onequarter" horiz-adv-x="528" d="M350 356Q339 319 350 304T388 287L386 279H186L188 287Q217 290 234 304T263 354L320 554Q330 589 324 603Q319 610 307 613T280 619L282 626Q316 626 355 627T429 630Q424 614 419 598T405
553L350 356ZM212 64L289 152L322 151L244 -127Q233 -162 244 -178T282 -196L280 -203H80L82 -196Q111 -192 129 -178T157 -129L212 64ZM508 222L502 198H25L31 222H508ZM137 -107H37L38 -103L91 -45H154L137 -107ZM289 -45H356L332 -107H271L289 -45Z" />
<glyph unicode="&#xbd;" glyph-name="onehalf" horiz-adv-x="521" d="M502 222L495 199H18L25 222H502ZM114 -134H247Q279 -134 303 -116T340 -75H348L299 -203H36L114 -134ZM135 -113Q186 -77 220 -38T254 39Q254 91 203 90Q178 90 159 83T122 61L117 64Q139
100 178 125T259 150Q307 150 328 128T349 74Q349 49 332 23T286 -29T221 -76T145 -114L135 -113ZM343 356Q333 319 344 304T381 287L379 279H180L182 287Q211 290 228 304T257 354L313 554Q318 571 319 583T317 603Q313 610 301 613T274 619L276 626Q310 626 349
627T423 630Q418 614 413 598T399 553L343 356Z" />
<glyph unicode="&#xbe;" glyph-name="threequarters" horiz-adv-x="528" d="M244 -127Q233 -162 244 -178T282 -196L280 -203H80L82 -196Q111 -192 129 -178T157 -129L212 64L289 152L322 151L244 -127ZM508 222L502 199H25L31 222H508ZM137 -107H37L38 -103L91
-45H154L137 -107ZM289 -45H356L332 -107H271L289 -45ZM278 478Q313 481 338 476T380 459T403 431T411 397Q411 372 398 350T362 312T306 286T235 275L237 282Q281 286 303 308T325 362Q325 385 307 401T243 418Q238 418 231 418T218 415L217 419L278 478ZM296
497Q313 507 324 519T335 549Q335 586 290 586Q273 586 259 580T233 566L228 571Q245 599 274 616T337 634Q379 634 399 618T419 573Q419 557 410 545T384 522T345 505T297 493L296 497ZM169 322Q169 337 179 347T204 358Q220 358 230 348T241 322Q240 307 230
297T205 286Q190 286 179 296T169 322Z" />
<glyph unicode="&#xbf;" glyph-name="questiondown" horiz-adv-x="339" d="M186 321Q205 321 224 315T258 295T282 262T291 215Q291 192 280 171T251 129T211 89T165 50Q141 31 122 16T90 -14T69 -41T61 -68Q61 -93 76 -112T126 -141L124 -147Q89 -142 61 -129T13
-97T-18 -57T-29 -11Q-29 25 0 58T75 127Q95 143 114 159T149 191T173 222T182 253Q182 276 169 286T141 297Q121 297 109 290T86 275L82 279Q95 295 123 308T186 321ZM325 437Q325 410 307 392T260 374Q231 374 214 392T196 437Q196 463 213 481T260 500Q288 500
306 482T325 437ZM245 -88Q245 -111 230 -126T191 -141Q168 -141 153 -126T137 -88Q137 -65 152 -50T191 -35Q214 -35 229 -50T245 -88Z" />
<glyph unicode="&#xc0;" glyph-name="Agrave" horiz-adv-x="603" d="M324 274L298 486L384 638H426L484 126Q490 66 509 40T574 8L571 0H256L259 8Q315 13 330 42T341 125L327 244H150L168 274H324ZM-88 0L-85 8Q-50 14 -20 29T35 67Q61 88 77 108T115 159L123
156Q115 141 109 120T103 76Q103 52 119 31T163 8L160 0H-88ZM478 679L294 741L340 818L482 686L478 679Z" />
<glyph unicode="&#xc1;" glyph-name="Aacute" horiz-adv-x="603" d="M324 274L298 486L384 638H426L484 126Q490 66 509 40T574 8L571 0H256L259 8Q315 13 330 42T341 125L327 244H150L168 274H324ZM-88 0L-85 8Q-50 14 -20 29T35 67Q61 88 77 108T115 159L123
156Q115 141 109 120T103 76Q103 52 119 31T163 8L160 0H-88ZM312 679L307 686L469 822L510 741L312 679Z" />
<glyph unicode="&#xc2;" glyph-name="Acircumflex" horiz-adv-x="603" d="M324 274L298 486L384 638H426L484 126Q490 66 509 40T574 8L571 0H256L259 8Q315 13 330 42T341 125L327 244H150L168 274H324ZM-88 0L-85 8Q-50 14 -20 29T35 67Q61 88 77 108T115 159L123
156Q115 141 109 120T103 76Q103 52 119 31T163 8L160 0H-88ZM281 684L441 816H445L528 684L523 680L428 738H425L284 679L281 684Z" />
<glyph unicode="&#xc3;" glyph-name="Atilde" horiz-adv-x="603" d="M324 274L298 486L384 638H426L484 126Q490 66 509 40T574 8L571 0H256L259 8Q315 13 330 42T341 125L327 244H150L168 274H324ZM-88 0L-85 8Q-50 14 -20 29T35 67Q61 88 77 108T115 159L123
156Q115 141 109 120T103 76Q103 52 119 31T163 8L160 0H-88ZM586 820Q574 788 552 765T503 727Q474 708 441 708Q410 708 384 710T332 713Q313 713 293 708T258 686L251 690Q268 719 284 737T321 770Q338 781 355 787T394 793Q420 793 447 791T504 788Q530 788
549 798T577 825L586 820Z" />
<glyph unicode="&#xc4;" glyph-name="Adieresis" horiz-adv-x="603" d="M324 274L298 486L384 638H426L484 126Q490 66 509 40T574 8L571 0H256L259 8Q315 13 330 42T341 125L327 244H150L168 274H324ZM-88 0L-85 8Q-50 14 -20 29T35 67Q61 88 77 108T115 159L123
156Q115 141 109 120T103 76Q103 52 119 31T163 8L160 0H-88ZM304 808Q329 808 346 791T363 749Q363 724 346 707T304 689Q279 689 262 706T245 749Q245 774 262 791T304 808ZM515 808Q540 808 557 791T574 749Q574 724 557 707T515 689Q491 689 474 706T456 749Q456
774 473 791T515 808Z" />
<glyph unicode="&#xc5;" glyph-name="Aring" horiz-adv-x="603" d="M324 274L298 486L384 638H426L484 126Q490 66 509 40T574 8L571 0H256L259 8Q315 13 330 42T341 125L327 244H150L168 274H324ZM-88 0L-85 8Q-50 14 -20 29T35 67Q61 88 77 108T115 159L123
156Q115 141 109 120T103 76Q103 52 119 31T163 8L160 0H-88ZM329 752Q329 787 351 806T399 827V807Q393 807 385 804T369 795T356 779T351 752Q351 736 356 726T368 709T384 699T399 696V676Q373 678 351 697T329 752ZM491 752Q491 716 469 697T421 676V696Q427
696 435 699T450 708T463 725T469 752Q469 768 464 778T451 795T435 804T421 807V827Q447 825 469 806T491 752Z" />
<glyph unicode="&#xc6;" glyph-name="AE" horiz-adv-x="849" d="M-101 0L-98 8Q-66 15 -37 28T15 56Q47 78 74 105T124 161L130 156Q119 141 108 118T97 72Q97 49 110 30T153 8L150 0H-101ZM449 0H223L226 8Q249 11 266 18T297 39T321 74T340 127L389 302H226L252
332H398L447 503Q454 526 456 540T458 567Q458 593 438 606T391 622L394 630H627L449 0ZM508 8Q553 11 594 27T672 68Q723 103 754 144T811 231H820L749 0H507L508 8ZM822 428Q822 476 817 510T798 568T756 604T682 623L684 630H874L830 428H822ZM605 322Q639 325
660 333T696 356T724 393T754 448H762L690 188H682Q682 219 681 241T672 279T648 302T603 314L605 322Z" />
<glyph unicode="&#xc7;" glyph-name="Ccedilla" horiz-adv-x="644" d="M612 414Q612 452 604 488T580 553T536 602T470 630L473 638Q497 638 523 634T576 625T627 612T670 598L621 414H612ZM302 -7Q246 -2 201 22T123 82T73 165T55 260Q55 343 90 412T186 534Q235
579 299 608T437 640L434 632Q394 628 358 599T293 522Q275 494 259 453T230 364T210 267T202 173Q202 110 227 62T305 1L302 -7ZM341 0Q384 9 420 30T486 81T540 147T586 222H595L541 24Q523 18 503 13T459 3T406 -4T338 -8L341 0ZM235 -228Q222 -235 204 -240T172
-246Q149 -246 139 -236T127 -214Q127 -196 141 -184T176 -164Q181 -191 197 -207T232 -222L235 -228ZM249 -213Q257 -206 257 -192Q257 -184 252 -175T239 -152Q232 -141 227 -130T222 -111Q222 -98 230 -86T251 -62T280 -41T312 -23L316 -29Q310 -36 305 -43T299
-61Q299 -70 304 -81T314 -103Q322 -117 327 -128T332 -147Q332 -168 313 -184Q304 -192 287 -202T253 -219L249 -213Z" />
<glyph unicode="&#xc8;" glyph-name="Egrave" horiz-adv-x="605" d="M516 679L332 741L378 818L520 686L516 679ZM188 0H-38L-35 8Q-12 11 5 18T36 39T60 74T79 127L186 503Q193 526 195 540T197 567Q197 593 177 606T130 622L133 630H366L188 0ZM578 428Q578
476 571 510T545 568T497 604T421 623L423 630H630L586 428H578ZM248 8Q292 11 338 26T422 65Q447 80 466 96T502 132T534 176T568 231H577L505 0H246L248 8ZM344 322Q378 325 402 333T444 356T477 393T510 448H518L447 188H439Q439 219 435 241T420 279T390 302T342
314L344 322Z" />
<glyph unicode="&#xc9;" glyph-name="Eacute" horiz-adv-x="605" d="M354 679L349 686L511 822L552 741L354 679ZM188 0H-38L-35 8Q-12 11 5 18T36 39T60 74T79 127L186 503Q193 526 195 540T197 567Q197 593 177 606T130 622L133 630H366L188 0ZM578 428Q578
476 571 510T545 568T497 604T421 623L423 630H630L586 428H578ZM248 8Q292 11 338 26T422 65Q447 80 466 96T502 132T534 176T568 231H577L505 0H246L248 8ZM344 322Q378 325 402 333T444 356T477 393T510 448H518L447 188H439Q439 219 435 241T420 279T390 302T342
314L344 322Z" />
<glyph unicode="&#xca;" glyph-name="Ecircumflex" horiz-adv-x="605" d="M309 684L469 816H473L556 684L551 680L456 738H453L312 679L309 684ZM188 0H-38L-35 8Q-12 11 5 18T36 39T60 74T79 127L186 503Q193 526 195 540T197 567Q197 593 177 606T130 622L133
630H366L188 0ZM578 428Q578 476 571 510T545 568T497 604T421 623L423 630H630L586 428H578ZM248 8Q292 11 338 26T422 65Q447 80 466 96T502 132T534 176T568 231H577L505 0H246L248 8ZM344 322Q378 325 402 333T444 356T477 393T510 448H518L447 188H439Q439
219 435 241T420 279T390 302T342 314L344 322Z" />
<glyph unicode="&#xcb;" glyph-name="Edieresis" horiz-adv-x="605" d="M188 0H-38L-35 8Q-12 11 5 18T36 39T60 74T79 127L186 503Q193 526 195 540T197 567Q197 593 177 606T130 622L133 630H366L188 0ZM578 428Q578 476 571 510T545 568T497 604T421 623L423
630H630L586 428H578ZM248 8Q292 11 338 26T422 65Q447 80 466 96T502 132T534 176T568 231H577L505 0H246L248 8ZM344 322Q378 325 402 333T444 356T477 393T510 448H518L447 188H439Q439 219 435 241T420 279T390 302T342 314L344 322ZM318 808Q343 808 360 791T377
749Q377 724 360 707T318 689Q293 689 276 706T259 749Q259 774 276 791T318 808ZM529 808Q554 808 571 791T588 749Q588 724 571 707T529 689Q505 689 488 706T470 749Q470 774 487 791T529 808Z" />
<glyph unicode="&#xcc;" glyph-name="Igrave" horiz-adv-x="358" d="M186 503Q193 526 195 540T197 567Q197 593 177 606T130 622L133 630H448L445 622Q397 617 373 591T331 503L224 127Q217 104 215 89T212 62Q212 36 232 23T280 8L277 0H-38L-35 8Q-12 11 5
18T36 39T60 74T79 127L186 503ZM384 679L200 741L246 818L388 686L384 679Z" />
<glyph unicode="&#xcd;" glyph-name="Iacute" horiz-adv-x="358" d="M186 503Q193 526 195 540T197 567Q197 593 177 606T130 622L133 630H448L445 622Q397 617 373 591T331 503L224 127Q217 104 215 89T212 62Q212 36 232 23T280 8L277 0H-38L-35 8Q-12 11 5
18T36 39T60 74T79 127L186 503ZM234 679L229 686L391 822L432 741L234 679Z" />
<glyph unicode="&#xce;" glyph-name="Icircumflex" horiz-adv-x="358" d="M186 503Q193 526 195 540T197 567Q197 593 177 606T130 622L133 630H448L445 622Q397 617 373 591T331 503L224 127Q217 104 215 89T212 62Q212 36 232 23T280 8L277 0H-38L-35 8Q-12
11 5 18T36 39T60 74T79 127L186 503ZM178 684L338 816H342L425 684L420 680L325 738H322L181 679L178 684Z" />
<glyph unicode="&#xcf;" glyph-name="Idieresis" horiz-adv-x="358" d="M186 503Q193 526 195 540T197 567Q197 593 177 606T130 622L133 630H448L445 622Q397 617 373 591T331 503L224 127Q217 104 215 89T212 62Q212 36 232 23T280 8L277 0H-38L-35 8Q-12 11
5 18T36 39T60 74T79 127L186 503ZM466 808Q491 808 508 791T525 749Q525 724 508 707T466 689Q441 689 424 706T407 749Q407 774 424 791T466 808ZM677 808Q702 808 719 791T736 749Q736 724 719 707T677 689Q653 689 636 706T618 749Q618 774 635 791T677 808Z"
/>
<glyph unicode="&#xd0;" glyph-name="Eth" horiz-adv-x="711" d="M275 307L188 0H-38L-35 8Q-12 11 5 18T36 39T60 74T79 127L131 307H47L55 331H137L186 503Q193 526 195 540T197 567Q197 593 177 606T130 622L133 630H366L282 331H394L387 307H275ZM703 377Q703
265 650 183T505 55Q448 26 382 14T244 0L246 8Q309 14 366 45T467 129T535 254T561 414Q561 511 529 562T418 622L420 630Q483 624 535 607T624 558T682 482T703 377Z" />
<glyph unicode="&#xd1;" glyph-name="Ntilde" horiz-adv-x="681" d="M689 826Q677 794 655 771T606 733Q577 714 544 714Q513 714 487 716T435 719Q416 719 396 714T361 692L354 696Q371 725 387 743T424 776Q441 787 458 793T497 799Q523 799 550 797T607 794Q633
794 652 804T680 831L689 826ZM465 -3L212 513Q192 555 162 586Q146 601 128 610T85 622L88 630H319L552 157L504 -3H465ZM156 190Q147 163 143 142T139 97Q139 66 162 41T235 8L232 0H-60L-57 8Q-18 13 12 31T66 74T109 131T147 193L156 190ZM609 440Q617 464
621 491T625 542Q625 571 603 593T527 622L530 630H810L807 622Q744 613 699 569T617 438L609 440Z" />
<glyph unicode="&#xd2;" glyph-name="Ograve" horiz-adv-x="677" d="M532 679L348 741L394 818L536 686L532 679ZM262 -6Q216 2 178 26T113 86T72 166T57 260Q57 321 74 374T122 472T194 551T285 606Q320 621 358 630T434 640L431 633Q396 629 366 604T309 540T262
452T227 352T205 251T197 161Q197 137 199 112T208 66T228 27T264 2L262 -6ZM464 638Q510 630 548 606T613 546T654 466T669 372Q669 307 650 252T598 151T518 72T419 18Q390 7 357 0T293 -8L295 0Q329 8 360 34T417 98T463 183T498 280T521 379T529 472Q529 495
527 520T518 566T498 605T462 630L464 638Z" />
<glyph unicode="&#xd3;" glyph-name="Oacute" horiz-adv-x="677" d="M399 679L394 686L556 822L597 741L399 679ZM262 -6Q216 2 178 26T113 86T72 166T57 260Q57 321 74 374T122 472T194 551T285 606Q320 621 358 630T434 640L431 633Q396 629 366 604T309 540T262
452T227 352T205 251T197 161Q197 137 199 112T208 66T228 27T264 2L262 -6ZM464 638Q510 630 548 606T613 546T654 466T669 372Q669 307 650 252T598 151T518 72T419 18Q390 7 357 0T293 -8L295 0Q329 8 360 34T417 98T463 183T498 280T521 379T529 472Q529 495
527 520T518 566T498 605T462 630L464 638Z" />
<glyph unicode="&#xd4;" glyph-name="Ocircumflex" horiz-adv-x="677" d="M324 684L484 816H488L571 684L566 680L471 738H468L327 679L324 684ZM262 -6Q216 2 178 26T113 86T72 166T57 260Q57 321 74 374T122 472T194 551T285 606Q320 621 358 630T434 640L431
633Q396 629 366 604T309 540T262 452T227 352T205 251T197 161Q197 137 199 112T208 66T228 27T264 2L262 -6ZM464 638Q510 630 548 606T613 546T654 466T669 372Q669 307 650 252T598 151T518 72T419 18Q390 7 357 0T293 -8L295 0Q329 8 360 34T417 98T463 183T498
280T521 379T529 472Q529 495 527 520T518 566T498 605T462 630L464 638Z" />
<glyph unicode="&#xd5;" glyph-name="Otilde" horiz-adv-x="677" d="M629 826Q617 794 595 771T546 733Q517 714 484 714Q453 714 427 716T375 719Q356 719 336 714T301 692L294 696Q311 725 327 743T364 776Q381 787 398 793T437 799Q463 799 490 797T547 794Q573
794 592 804T620 831L629 826ZM262 -6Q216 2 178 26T113 86T72 166T57 260Q57 321 74 374T122 472T194 551T285 606Q320 621 358 630T434 640L431 633Q396 629 366 604T309 540T262 452T227 352T205 251T197 161Q197 137 199 112T208 66T228 27T264 2L262 -6ZM464
638Q510 630 548 606T613 546T654 466T669 372Q669 307 650 252T598 151T518 72T419 18Q390 7 357 0T293 -8L295 0Q329 8 360 34T417 98T463 183T498 280T521 379T529 472Q529 495 527 520T518 566T498 605T462 630L464 638Z" />
<glyph unicode="&#xd6;" glyph-name="Odieresis" horiz-adv-x="677" d="M347 808Q372 808 389 791T406 749Q406 724 389 707T347 689Q322 689 305 706T288 749Q288 774 305 791T347 808ZM558 808Q583 808 600 791T617 749Q617 724 600 707T558 689Q534 689 517
706T499 749Q499 774 516 791T558 808ZM262 -6Q216 2 178 26T113 86T72 166T57 260Q57 321 74 374T122 472T194 551T285 606Q320 621 358 630T434 640L431 633Q396 629 366 604T309 540T262 452T227 352T205 251T197 161Q197 137 199 112T208 66T228 27T264 2L262
-6ZM464 638Q510 630 548 606T613 546T654 466T669 372Q669 307 650 252T598 151T518 72T419 18Q390 7 357 0T293 -8L295 0Q329 8 360 34T417 98T463 183T498 280T521 379T529 472Q529 495 527 520T518 566T498 605T462 630L464 638Z" />
<glyph unicode="&#xd7;" glyph-name="multiply" horiz-adv-x="366" d="M154 217L31 339L56 364L178 242L301 364L325 340L202 217L325 94L301 70L178 192L56 70L31 95L154 217Z" />
<glyph unicode="&#xd8;" glyph-name="Oslash" horiz-adv-x="677" d="M669 372Q669 307 650 252T598 151T518 72T419 18Q390 7 357 0T293 -8L295 0Q329 8 360 34T417 98T463 183T498 280T521 379T529 472Q529 486 528 501T525 533L211 56Q225 18 264 2L262 -6Q222
1 188 20L131 -66L110 -52L167 34Q115 70 86 129T57 260Q57 321 74 374T122 472T194 551T285 606Q320 621 358 630T434 640L431 633Q396 629 366 604T309 540T262 452T227 352T205 251T197 161Q197 141 198 123T202 88L518 566Q512 586 499 604T462 630L464 638Q510
629 545 607L598 687L618 673L565 593Q614 556 641 498T669 372Z" />
<glyph unicode="&#xd9;" glyph-name="Ugrave" horiz-adv-x="652" d="M553 679L369 741L415 818L557 686L553 679ZM785 630L782 622Q754 618 725 605T670 571Q658 560 645 542T621 502T602 461T589 427H578Q586 459 589 481T592 525Q592 616 494 622L497 630H785ZM228
226Q220 201 217 176T219 128T238 87T280 56Q304 44 343 39T428 36L431 28Q425 22 413 16T383 5T345 -4T301 -8Q253 -8 211 -1T139 26Q110 45 96 70T77 125T76 186T89 250L161 503Q168 526 170 540T172 567Q172 593 152 606T105 622L108 630H423L420 622Q372 617
348 591T306 503L228 226Z" />
<glyph unicode="&#xda;" glyph-name="Uacute" horiz-adv-x="652" d="M436 679L431 686L593 822L634 741L436 679ZM785 630L782 622Q754 618 725 605T670 571Q658 560 645 542T621 502T602 461T589 427H578Q586 459 589 481T592 525Q592 616 494 622L497 630H785ZM228
226Q220 201 217 176T219 128T238 87T280 56Q304 44 343 39T428 36L431 28Q425 22 413 16T383 5T345 -4T301 -8Q253 -8 211 -1T139 26Q110 45 96 70T77 125T76 186T89 250L161 503Q168 526 170 540T172 567Q172 593 152 606T105 622L108 630H423L420 622Q372 617
348 591T306 503L228 226Z" />
<glyph unicode="&#xdb;" glyph-name="Ucircumflex" horiz-adv-x="652" d="M350 684L510 816H514L597 684L592 680L497 738H494L353 679L350 684ZM785 630L782 622Q754 618 725 605T670 571Q658 560 645 542T621 502T602 461T589 427H578Q586 459 589 481T592 525Q592
616 494 622L497 630H785ZM228 226Q220 201 217 176T219 128T238 87T280 56Q304 44 343 39T428 36L431 28Q425 22 413 16T383 5T345 -4T301 -8Q253 -8 211 -1T139 26Q110 45 96 70T77 125T76 186T89 250L161 503Q168 526 170 540T172 567Q172 593 152 606T105 622L108
630H423L420 622Q372 617 348 591T306 503L228 226Z" />
<glyph unicode="&#xdc;" glyph-name="Udieresis" horiz-adv-x="652" d="M785 630L782 622Q754 618 725 605T670 571Q658 560 645 542T621 502T602 461T589 427H578Q586 459 589 481T592 525Q592 616 494 622L497 630H785ZM228 226Q220 201 217 176T219 128T238
87T280 56Q304 44 343 39T428 36L431 28Q425 22 413 16T383 5T345 -4T301 -8Q253 -8 211 -1T139 26Q110 45 96 70T77 125T76 186T89 250L161 503Q168 526 170 540T172 567Q172 593 152 606T105 622L108 630H423L420 622Q372 617 348 591T306 503L228 226ZM373 808Q398
808 415 791T432 749Q432 724 415 707T373 689Q348 689 331 706T314 749Q314 774 331 791T373 808ZM584 808Q609 808 626 791T643 749Q643 724 626 707T584 689Q560 689 543 706T525 749Q525 774 542 791T584 808Z" />
<glyph unicode="&#xdd;" glyph-name="Yacute" horiz-adv-x="593" d="M245 297L186 532Q175 571 156 594T93 622L95 630H409L407 622Q331 616 331 573Q331 562 336 541T345 507L394 312L341 127Q334 104 332 89T330 62Q330 36 349 23T397 8L394 0H80L83 8Q105 11
122 18T153 39T177 74T196 127L245 297ZM727 622Q697 617 668 605T613 575Q576 550 547 520T492 463L487 472Q495 482 503 495T517 522T528 549T532 575Q532 597 512 608T465 622L467 630H730L727 622ZM390 679L385 686L547 822L588 741L390 679Z" />
<glyph unicode="&#xde;" glyph-name="Thorn" horiz-adv-x="583" d="M270 164Q285 166 297 168T319 173Q385 191 416 248T448 392Q448 431 430 459T361 494L364 502Q470 494 528 458T587 350Q587 302 564 267T498 207T397 171T268 156L270 164ZM186 503Q193 526
195 540T197 567Q197 593 177 606T130 622L133 630H448L445 622Q397 617 373 591T331 503L224 127Q217 104 215 89T212 62Q212 36 232 23T280 8L277 0H-38L-35 8Q-12 11 5 18T36 39T60 74T79 127L186 503Z" />
<glyph unicode="&#xdf;" glyph-name="germandbls" horiz-adv-x="503" d="M-215 -176Q-215 -156 -201 -141T-166 -126Q-146 -126 -132 -141T-117 -176Q-117 -196 -131 -210T-166 -225Q-186 -225 -200 -211T-215 -176ZM84 381Q98 444 123 500T186 600T277 670T399
704L397 698Q355 692 325 665T273 596T236 502T210 391Q198 325 186 252T155 108T110 -28T41 -142Q-32 -230 -147 -241L-145 -235Q-103 -226 -65 -192T-6 -89Q9 -35 20 21T40 136T60 256T84 381ZM422 704Q445 703 471 698T520 682T557 654T572 612Q572 590 561
572T533 538T494 509T452 484L448 490Q455 494 464 506T481 534T494 568T500 604Q500 643 482 667T421 698L422 704ZM431 469Q414 456 402 429T390 373Q390 352 399 326T428 257Q445 215 454 189T463 136Q463 112 450 87T413 42T355 9T279 -8L281 -1Q308 4 331
19T355 66Q355 86 347 116T320 184Q304 217 297 241T289 289Q289 337 323 385T427 474L431 469ZM183 63Q183 84 198 99T234 114Q256 114 271 99T286 63Q286 41 271 27T234 12Q213 12 198 26T183 63Z" />
<glyph unicode="&#xe0;" glyph-name="agrave" horiz-adv-x="446" d="M225 354Q211 337 190 302T149 227T115 152T101 95Q101 73 118 73Q125 73 134 78T152 92T169 109T185 127L190 123Q180 103 163 81T125 38T80 5T34 -8Q14 -8 -1 7T-16 51Q-16 87 5 130T61 215T136
295T219 359L225 354ZM337 76Q344 76 355 85T379 107T402 137T421 167L427 164Q418 135 399 105T354 50T300 8T245 -8Q223 -8 213 4T202 35Q202 48 208 78T226 138Q238 176 252 218T278 297L306 381Q300 384 289 384Q278 385 268 382T249 373L243 378Q251 384 263
391T290 406T320 417T348 424Q359 440 375 452T414 464Q439 464 439 448Q439 441 438 434T435 424Q430 411 418 376T392 296T362 207T337 129Q333 116 330 105T327 88Q327 80 330 78T337 76ZM320 486L227 656L308 683L328 489L320 486Z" />
<glyph unicode="&#xe1;" glyph-name="aacute" horiz-adv-x="446" d="M225 354Q211 337 190 302T149 227T115 152T101 95Q101 73 118 73Q125 73 134 78T152 92T169 109T185 127L190 123Q180 103 163 81T125 38T80 5T34 -8Q14 -8 -1 7T-16 51Q-16 87 5 130T61 215T136
295T219 359L225 354ZM337 76Q344 76 355 85T379 107T402 137T421 167L427 164Q418 135 399 105T354 50T300 8T245 -8Q223 -8 213 4T202 35Q202 48 208 78T226 138Q238 176 252 218T278 297L306 381Q300 384 289 384Q278 385 268 382T249 373L243 378Q251 384 263
391T290 406T320 417T348 424Q359 440 375 452T414 464Q439 464 439 448Q439 441 438 434T435 424Q430 411 418 376T392 296T362 207T337 129Q333 116 330 105T327 88Q327 80 330 78T337 76ZM297 481L289 486L386 687L456 643L297 481Z" />
<glyph unicode="&#xe2;" glyph-name="acircumflex" horiz-adv-x="446" d="M225 354Q211 337 190 302T149 227T115 152T101 95Q101 73 118 73Q125 73 134 78T152 92T169 109T185 127L190 123Q180 103 163 81T125 38T80 5T34 -8Q14 -8 -1 7T-16 51Q-16 87 5 130T61
215T136 295T219 359L225 354ZM337 76Q344 76 355 85T379 107T402 137T421 167L427 164Q418 135 399 105T354 50T300 8T245 -8Q223 -8 213 4T202 35Q202 48 208 78T226 138Q238 176 252 218T278 297L306 381Q300 384 289 384Q278 385 268 382T249 373L243 378Q251
384 263 391T290 406T320 417T348 424Q359 440 375 452T414 464Q439 464 439 448Q439 441 438 434T435 424Q430 411 418 376T392 296T362 207T337 129Q333 116 330 105T327 88Q327 80 330 78T337 76ZM395 679H399L452 492L444 488L379 585H374L233 487L228 492L395
679Z" />
<glyph unicode="&#xe3;" glyph-name="atilde" horiz-adv-x="446" d="M225 354Q211 337 190 302T149 227T115 152T101 95Q101 73 118 73Q125 73 134 78T152 92T169 109T185 127L190 123Q180 103 163 81T125 38T80 5T34 -8Q14 -8 -1 7T-16 51Q-16 87 5 130T61 215T136
295T219 359L225 354ZM337 76Q344 76 355 85T379 107T402 137T421 167L427 164Q418 135 399 105T354 50T300 8T245 -8Q223 -8 213 4T202 35Q202 48 208 78T226 138Q238 176 252 218T278 297L306 381Q300 384 289 384Q278 385 268 382T249 373L243 378Q251 384 263
391T290 406T320 417T348 424Q359 440 375 452T414 464Q439 464 439 448Q439 441 438 434T435 424Q430 411 418 376T392 296T362 207T337 129Q333 116 330 105T327 88Q327 80 330 78T337 76ZM526 641Q516 618 503 595T469 553Q452 536 431 530T390 524Q380 524
365 525T334 527T301 530T272 532Q253 532 235 526T197 498L192 502Q218 552 261 582Q296 607 338 607Q364 607 392 604T438 601Q461 601 481 609T518 644L526 641Z" />
<glyph unicode="&#xe4;" glyph-name="adieresis" horiz-adv-x="446" d="M225 354Q211 337 190 302T149 227T115 152T101 95Q101 73 118 73Q125 73 134 78T152 92T169 109T185 127L190 123Q180 103 163 81T125 38T80 5T34 -8Q14 -8 -1 7T-16 51Q-16 87 5 130T61
215T136 295T219 359L225 354ZM337 76Q344 76 355 85T379 107T402 137T421 167L427 164Q418 135 399 105T354 50T300 8T245 -8Q223 -8 213 4T202 35Q202 48 208 78T226 138Q238 176 252 218T278 297L306 381Q300 384 289 384Q278 385 268 382T249 373L243 378Q251
384 263 391T290 406T320 417T348 424Q359 440 375 452T414 464Q439 464 439 448Q439 441 438 434T435 424Q430 411 418 376T392 296T362 207T337 129Q333 116 330 105T327 88Q327 80 330 78T337 76ZM259 641Q282 641 297 625T313 586Q313 563 298 547T259 530Q236
530 220 546T204 586Q204 609 220 625T259 641ZM440 641Q463 641 479 625T495 586Q495 563 479 547T440 530Q417 530 402 546T386 586Q386 609 401 625T440 641Z" />
<glyph unicode="&#xe5;" glyph-name="aring" horiz-adv-x="446" d="M225 354Q211 337 190 302T149 227T115 152T101 95Q101 73 118 73Q125 73 134 78T152 92T169 109T185 127L190 123Q180 103 163 81T125 38T80 5T34 -8Q14 -8 -1 7T-16 51Q-16 87 5 130T61 215T136
295T219 359L225 354ZM337 76Q344 76 355 85T379 107T402 137T421 167L427 164Q418 135 399 105T354 50T300 8T245 -8Q223 -8 213 4T202 35Q202 48 208 78T226 138Q238 176 252 218T278 297L306 381Q300 384 289 384Q278 385 268 382T249 373L243 378Q251 384 263
391T290 406T320 417T348 424Q359 440 375 452T414 464Q439 464 439 448Q439 441 438 434T435 424Q430 411 418 376T392 296T362 207T337 129Q333 116 330 105T327 88Q327 80 330 78T337 76ZM246 579Q246 614 267 637T321 662V642Q299 640 284 626T268 579Q268
547 283 533T321 516V496Q289 498 268 520T246 579ZM418 579Q418 544 397 521T343 496V516Q364 518 380 532T396 579Q396 611 380 625T343 642V662Q375 660 396 638T418 579Z" />
<glyph unicode="&#xe6;" glyph-name="ae" horiz-adv-x="532" d="M301 394Q263 371 228 339T165 268T121 188T104 103Q104 93 108 86T124 79Q140 79 161 93T193 124L199 120Q191 103 176 81T140 39T95 6T45 -8Q12 -8 -2 14T-16 65Q-16 113 12 162T86 255T187 338T298
401L301 394ZM449 440Q416 429 395 393T362 310T346 215T341 132Q341 106 350 87T383 68Q398 68 414 76T445 98T472 128T494 161L501 158Q492 132 476 103T436 49T382 8T314 -8Q284 -8 264 3T233 33T217 73T212 115Q212 171 229 228T279 332T354 410T451 447L449
440ZM365 231Q390 239 405 248T437 274Q448 284 456 300T469 334T476 372T479 409Q479 426 474 432T463 440L465 447Q506 445 529 429T553 383Q553 324 506 281T363 224L365 231Z" />
<glyph unicode="&#xe7;" glyph-name="ccedilla" horiz-adv-x="347" d="M289 440Q255 429 228 394T180 312T149 217T138 129Q138 79 169 79Q186 79 203 87T236 109T265 139T287 171L294 168Q288 147 273 117T235 59T179 12T107 -8Q79 -8 61 1T31 27T15 62T10 101Q10
159 35 218T101 327T192 409T291 447L289 440ZM275 379Q275 400 289 414T324 429Q345 429 359 415T374 379Q374 358 360 344T324 330Q303 330 289 344T275 379ZM39 -221Q27 -227 10 -232T-22 -238Q-45 -238 -54 -229T-65 -208Q-65 -188 -49 -178T-13 -159Q-11 -184
3 -199T35 -215L39 -221ZM54 -205Q63 -198 63 -179Q63 -170 59 -162T47 -142Q42 -132 38 -123T34 -104Q34 -89 43 -76T65 -53T94 -33T122 -18L126 -24Q119 -30 113 -38T107 -58Q107 -66 111 -76T121 -98Q128 -109 132 -119T137 -139Q137 -153 130 -164T111 -184Q100
-192 86 -199T58 -212L54 -205Z" />
<glyph unicode="&#xe8;" glyph-name="egrave" horiz-adv-x="363" d="M279 440Q257 433 239 412T205 361T178 297T158 228T146 164T142 112Q142 89 151 79T175 68Q193 68 211 77T245 99T274 129T297 161L304 158Q297 136 281 108T240 54T185 10T117 -8Q85 -8 65
1T34 27T19 62T14 101Q14 157 36 216T95 324T180 408T281 447L279 440ZM176 231Q202 239 223 250T261 278Q288 306 297 343T306 415Q306 428 302 432T295 439L297 446Q339 444 361 427T383 381Q383 351 368 325T326 279T261 245T174 224L176 231ZM301 486L208 656L289
683L309 489L301 486Z" />
<glyph unicode="&#xe9;" glyph-name="eacute" horiz-adv-x="363" d="M259 481L251 486L348 687L418 643L259 481ZM279 440Q257 433 239 412T205 361T178 297T158 228T146 164T142 112Q142 89 151 79T175 68Q193 68 211 77T245 99T274 129T297 161L304 158Q297
136 281 108T240 54T185 10T117 -8Q85 -8 65 1T34 27T19 62T14 101Q14 157 36 216T95 324T180 408T281 447L279 440ZM176 231Q202 239 223 250T261 278Q288 306 297 343T306 415Q306 428 302 432T295 439L297 446Q339 444 361 427T383 381Q383 351 368 325T326
279T261 245T174 224L176 231Z" />
<glyph unicode="&#xea;" glyph-name="ecircumflex" horiz-adv-x="363" d="M335 676H339L392 489L384 485L319 582H314L173 484L168 489L335 676ZM279 440Q257 433 239 412T205 361T178 297T158 228T146 164T142 112Q142 89 151 79T175 68Q193 68 211 77T245 99T274
129T297 161L304 158Q297 136 281 108T240 54T185 10T117 -8Q85 -8 65 1T34 27T19 62T14 101Q14 157 36 216T95 324T180 408T281 447L279 440ZM176 231Q202 239 223 250T261 278Q288 306 297 343T306 415Q306 428 302 432T295 439L297 446Q339 444 361 427T383
381Q383 351 368 325T326 279T261 245T174 224L176 231Z" />
<glyph unicode="&#xeb;" glyph-name="edieresis" horiz-adv-x="363" d="M218 636Q241 636 256 620T272 581Q272 558 257 542T218 525Q195 525 179 541T163 581Q163 604 179 620T218 636ZM399 636Q422 636 438 620T454 581Q454 558 438 542T399 525Q376 525 361
541T345 581Q345 604 360 620T399 636ZM279 440Q257 433 239 412T205 361T178 297T158 228T146 164T142 112Q142 89 151 79T175 68Q193 68 211 77T245 99T274 129T297 161L304 158Q297 136 281 108T240 54T185 10T117 -8Q85 -8 65 1T34 27T19 62T14 101Q14 157
36 216T95 324T180 408T281 447L279 440ZM176 231Q202 239 223 250T261 278Q288 306 297 343T306 415Q306 428 302 432T295 439L297 446Q339 444 361 427T383 381Q383 351 368 325T326 279T261 245T174 224L176 231Z" />
<glyph unicode="&#xec;" glyph-name="igrave" horiz-adv-x="280" d="M217 246Q205 218 197 200T182 165T165 132T143 87L146 85Q175 100 202 123T250 166L256 162Q243 140 218 111T164 55T104 11T50 -8Q33 -8 21 1T8 31Q8 40 15 60T33 107Q45 136 60 170T90 234Q109
276 124 313T139 363Q139 378 127 378Q119 378 110 370T92 353Q81 341 68 322T44 282L37 285Q47 315 64 344T103 396T151 433T207 447Q234 447 249 432T264 395Q264 368 251 331T217 246ZM241 486L148 656L229 683L249 489L241 486Z" />
<glyph unicode="&#xed;" glyph-name="iacute" horiz-adv-x="280" d="M192 481L184 486L281 687L351 643L192 481ZM217 246Q205 218 197 200T182 165T165 132T143 87L146 85Q175 100 202 123T250 166L256 162Q243 140 218 111T164 55T104 11T50 -8Q33 -8 21 1T8
31Q8 40 15 60T33 107Q45 136 60 170T90 234Q109 276 124 313T139 363Q139 378 127 378Q119 378 110 370T92 353Q81 341 68 322T44 282L37 285Q47 315 64 344T103 396T151 433T207 447Q234 447 249 432T264 395Q264 368 251 331T217 246Z" />
<glyph unicode="&#xee;" glyph-name="icircumflex" horiz-adv-x="280" d="M268 676H272L325 489L317 485L252 582H247L106 484L101 489L268 676ZM217 246Q205 218 197 200T182 165T165 132T143 87L146 85Q175 100 202 123T250 166L256 162Q243 140 218 111T164
55T104 11T50 -8Q33 -8 21 1T8 31Q8 40 15 60T33 107Q45 136 60 170T90 234Q109 276 124 313T139 363Q139 378 127 378Q119 378 110 370T92 353Q81 341 68 322T44 282L37 285Q47 315 64 344T103 396T151 433T207 447Q234 447 249 432T264 395Q264 368 251 331T217
246Z" />
<glyph unicode="&#xef;" glyph-name="idieresis" horiz-adv-x="280" d="M406 636Q429 636 444 620T460 581Q460 558 445 542T406 525Q383 525 367 541T351 581Q351 604 367 620T406 636ZM587 636Q610 636 626 620T642 581Q642 558 626 542T587 525Q564 525 549
541T533 581Q533 604 548 620T587 636ZM217 246Q205 218 197 200T182 165T165 132T143 87L146 85Q175 100 202 123T250 166L256 162Q243 140 218 111T164 55T104 11T50 -8Q33 -8 21 1T8 31Q8 40 15 60T33 107Q45 136 60 170T90 234Q109 276 124 313T139 363Q139
378 127 378Q119 378 110 370T92 353Q81 341 68 322T44 282L37 285Q47 315 64 344T103 396T151 433T207 447Q234 447 249 432T264 395Q264 368 251 331T217 246Z" />
<glyph unicode="&#xf0;" glyph-name="eth" horiz-adv-x="470" d="M261 594Q229 633 186 660T90 699L92 706Q216 688 306 621L419 689L431 669L327 607Q387 556 422 489T457 326Q457 259 436 201T378 98T288 25T175 -7L177 0Q216 8 243 41Q264 66 282 106T313 191T333
283T341 368Q341 425 324 478T276 576L151 501L138 521L261 594ZM308 440Q294 437 281 427T257 404T236 377T218 349Q199 320 184 285T158 212T141 138T135 70Q135 38 142 22T159 0L157 -7Q122 -4 97 11T54 47T29 94T20 144Q20 202 42 255T104 349T197 416T310
447L308 440Z" />
<glyph unicode="&#xf1;" glyph-name="ntilde" horiz-adv-x="529" d="M382 87Q411 102 441 124T492 166L498 162Q485 140 457 111T395 55T327 11T269 -8Q253 -8 243 0T233 28Q233 34 235 44T243 67Q249 82 259 101T279 141T300 180T319 214Q332 239 345 264T369
309T385 344T392 363Q392 374 380 374Q373 374 361 366T332 344T298 309T261 264L255 269Q281 308 309 341T366 397T423 434T476 447Q520 447 520 400Q520 386 507 350T467 261Q465 256 454 235T429 187T401 133T379 89L382 87ZM105 261Q111 274 118 288T130 317T140
343T144 362Q144 378 130 378Q114 378 97 358Q75 334 50 282L43 285Q52 317 67 346T104 398T150 434T204 447Q231 447 247 432T263 389Q263 359 251 324T220 246L130 42Q122 22 104 7T54 -8Q20 -8 8 5T3 36Q6 43 14 61T32 102T54 150T76 198T94 238T105 261ZM564
641Q554 618 541 595T507 553Q490 536 469 530T428 524Q418 524 403 525T372 527T339 530T310 532Q291 532 273 526T235 498L230 502Q256 552 299 582Q334 607 376 607Q402 607 430 604T476 601Q499 601 519 609T556 644L564 641Z" />
<glyph unicode="&#xf2;" glyph-name="ograve" horiz-adv-x="477" d="M300 440Q284 437 266 424Q237 402 213 360T172 268T145 165T135 70Q135 38 142 22T159 0L157 -7Q119 -4 93 11T51 47T28 94T20 144Q20 202 40 255T98 349T187 416T302 447L300 440ZM177 0Q188
2 200 8T224 25Q250 49 271 90T309 179T333 278T342 370Q342 402 335 418T318 440L320 447Q357 444 383 429T426 393T449 346T457 296Q457 237 437 185T380 91T291 23T175 -7L177 0ZM335 486L242 656L323 683L343 489L335 486Z" />
<glyph unicode="&#xf3;" glyph-name="oacute" horiz-adv-x="477" d="M297 481L289 486L386 687L456 643L297 481ZM300 440Q284 437 266 424Q237 402 213 360T172 268T145 165T135 70Q135 38 142 22T159 0L157 -7Q119 -4 93 11T51 47T28 94T20 144Q20 202 40 255T98
349T187 416T302 447L300 440ZM177 0Q188 2 200 8T224 25Q250 49 271 90T309 179T333 278T342 370Q342 402 335 418T318 440L320 447Q357 444 383 429T426 393T449 346T457 296Q457 237 437 185T380 91T291 23T175 -7L177 0Z" />
<glyph unicode="&#xf4;" glyph-name="ocircumflex" horiz-adv-x="477" d="M358 676H362L415 489L407 485L342 582H337L196 484L191 489L358 676ZM300 440Q284 437 266 424Q237 402 213 360T172 268T145 165T135 70Q135 38 142 22T159 0L157 -7Q119 -4 93 11T51
47T28 94T20 144Q20 202 40 255T98 349T187 416T302 447L300 440ZM177 0Q188 2 200 8T224 25Q250 49 271 90T309 179T333 278T342 370Q342 402 335 418T318 440L320 447Q357 444 383 429T426 393T449 346T457 296Q457 237 437 185T380 91T291 23T175 -7L177 0Z"
/>
<glyph unicode="&#xf5;" glyph-name="otilde" horiz-adv-x="477" d="M300 440Q284 437 266 424Q237 402 213 360T172 268T145 165T135 70Q135 38 142 22T159 0L157 -7Q119 -4 93 11T51 47T28 94T20 144Q20 202 40 255T98 349T187 416T302 447L300 440ZM177 0Q188
2 200 8T224 25Q250 49 271 90T309 179T333 278T342 370Q342 402 335 418T318 440L320 447Q357 444 383 429T426 393T449 346T457 296Q457 237 437 185T380 91T291 23T175 -7L177 0ZM499 641Q489 618 476 595T442 553Q425 536 404 530T363 524Q353 524 338 525T307
527T274 530T245 532Q226 532 208 526T170 498L165 502Q191 552 234 582Q269 607 311 607Q337 607 365 604T411 601Q434 601 454 609T491 644L499 641Z" />
<glyph unicode="&#xf6;" glyph-name="odieresis" horiz-adv-x="477" d="M239 636Q262 636 277 620T293 581Q293 558 278 542T239 525Q216 525 200 541T184 581Q184 604 200 620T239 636ZM420 636Q443 636 459 620T475 581Q475 558 459 542T420 525Q397 525 382
541T366 581Q366 604 381 620T420 636ZM300 440Q284 437 266 424Q237 402 213 360T172 268T145 165T135 70Q135 38 142 22T159 0L157 -7Q119 -4 93 11T51 47T28 94T20 144Q20 202 40 255T98 349T187 416T302 447L300 440ZM177 0Q188 2 200 8T224 25Q250 49 271
90T309 179T333 278T342 370Q342 402 335 418T318 440L320 447Q357 444 383 429T426 393T449 346T457 296Q457 237 437 185T380 91T291 23T175 -7L177 0Z" />
<glyph unicode="&#xf7;" glyph-name="divide" horiz-adv-x="381" d="M145 96Q145 114 157 127T189 141Q207 141 220 128T233 96Q233 77 220 65T189 52Q170 52 158 64T145 96ZM145 348Q145 367 157 380T189 393Q207 393 220 380T233 348Q233 329 220 317T189 304Q170
304 158 316T145 348ZM356 240V206H23V240H356Z" />
<glyph unicode="&#xf8;" glyph-name="oslash" horiz-adv-x="477" d="M300 440Q284 437 266 424Q239 403 216 364T175 277T148 180T135 87L341 394Q338 414 332 424T318 440L320 447Q350 444 372 435L417 500L435 488L391 424Q426 402 441 367T457 296Q457 237
437 185T380 91T291 23T175 -7L177 0Q188 2 200 8T224 25Q249 47 269 86T305 170T330 264T341 354L136 48Q138 27 144 16T159 0L157 -7Q128 -4 105 5L63 -56L44 -43L84 16Q49 39 35 74T20 144Q20 202 40 255T98 349T187 416T302 447L300 440Z" />
<glyph unicode="&#xf9;" glyph-name="ugrave" horiz-adv-x="526" d="M204 217Q178 165 160 130T142 85Q142 73 153 73Q168 73 200 99T270 175L276 170Q250 131 222 99T164 42T106 5T53 -8Q8 -8 8 39Q8 47 12 62T24 97Q35 126 50 157T87 229Q93 242 103 261T122
301T138 338T145 362Q145 378 129 378Q113 378 96 358Q74 334 49 282L42 285Q51 317 68 346T108 398T157 434T213 447Q239 447 253 432T268 390Q268 355 248 310T204 217ZM385 74Q399 81 415 93T447 118T477 143T502 166L508 162Q495 140 469 111T412 55T348 11T292
-8Q276 -8 264 0T251 30Q251 42 259 67T280 121T305 179T327 231Q338 256 349 282T369 330T387 370T399 397Q407 417 425 432T475 447Q508 447 521 435T524 399L449 229L382 76L385 74ZM361 486L268 656L349 683L369 489L361 486Z" />
<glyph unicode="&#xfa;" glyph-name="uacute" horiz-adv-x="526" d="M329 481L321 486L418 687L488 643L329 481ZM204 217Q178 165 160 130T142 85Q142 73 153 73Q168 73 200 99T270 175L276 170Q250 131 222 99T164 42T106 5T53 -8Q8 -8 8 39Q8 47 12 62T24 97Q35
126 50 157T87 229Q93 242 103 261T122 301T138 338T145 362Q145 378 129 378Q113 378 96 358Q74 334 49 282L42 285Q51 317 68 346T108 398T157 434T213 447Q239 447 253 432T268 390Q268 355 248 310T204 217ZM385 74Q399 81 415 93T447 118T477 143T502 166L508
162Q495 140 469 111T412 55T348 11T292 -8Q276 -8 264 0T251 30Q251 42 259 67T280 121T305 179T327 231Q338 256 349 282T369 330T387 370T399 397Q407 417 425 432T475 447Q508 447 521 435T524 399L449 229L382 76L385 74Z" />
<glyph unicode="&#xfb;" glyph-name="ucircumflex" horiz-adv-x="526" d="M413 676H417L470 489L462 485L397 582H392L251 484L246 489L413 676ZM204 217Q178 165 160 130T142 85Q142 73 153 73Q168 73 200 99T270 175L276 170Q250 131 222 99T164 42T106 5T53
-8Q8 -8 8 39Q8 47 12 62T24 97Q35 126 50 157T87 229Q93 242 103 261T122 301T138 338T145 362Q145 378 129 378Q113 378 96 358Q74 334 49 282L42 285Q51 317 68 346T108 398T157 434T213 447Q239 447 253 432T268 390Q268 355 248 310T204 217ZM385 74Q399 81
415 93T447 118T477 143T502 166L508 162Q495 140 469 111T412 55T348 11T292 -8Q276 -8 264 0T251 30Q251 42 259 67T280 121T305 179T327 231Q338 256 349 282T369 330T387 370T399 397Q407 417 425 432T475 447Q508 447 521 435T524 399L449 229L382 76L385
74Z" />
<glyph unicode="&#xfc;" glyph-name="udieresis" horiz-adv-x="526" d="M277 636Q300 636 315 620T331 581Q331 558 316 542T277 525Q254 525 238 541T222 581Q222 604 238 620T277 636ZM458 636Q481 636 497 620T513 581Q513 558 497 542T458 525Q435 525 420
541T404 581Q404 604 419 620T458 636ZM204 217Q178 165 160 130T142 85Q142 73 153 73Q168 73 200 99T270 175L276 170Q250 131 222 99T164 42T106 5T53 -8Q8 -8 8 39Q8 47 12 62T24 97Q35 126 50 157T87 229Q93 242 103 261T122 301T138 338T145 362Q145 378
129 378Q113 378 96 358Q74 334 49 282L42 285Q51 317 68 346T108 398T157 434T213 447Q239 447 253 432T268 390Q268 355 248 310T204 217ZM385 74Q399 81 415 93T447 118T477 143T502 166L508 162Q495 140 469 111T412 55T348 11T292 -8Q276 -8 264 0T251 30Q251
42 259 67T280 121T305 179T327 231Q338 256 349 282T369 330T387 370T399 397Q407 417 425 432T475 447Q508 447 521 435T524 399L449 229L382 76L385 74Z" />
<glyph unicode="&#xfd;" glyph-name="yacute" horiz-adv-x="434" d="M229 385Q232 359 233 312T234 209T228 97T217 -2Q208 -14 193 -31T159 -67T122 -104T88 -134Q99 -62 105 9T113 144T114 263T109 357Q108 365 104 371T91 377Q83 377 75 370T59 350T44 322T30
291L23 294Q30 328 45 356T81 404T126 435T175 447Q201 447 213 431T229 385ZM-82 -186Q-56 -186 -27 -180T34 -156L38 -161Q28 -171 13 -182T-18 -202T-52 -220T-83 -233Q-95 -238 -106 -239T-125 -241Q-148 -241 -168 -230T-188 -186Q-188 -172 -181 -159T-164
-136T-140 -118T-116 -108L-112 -112Q-117 -117 -120 -126T-123 -144Q-123 -167 -112 -176T-82 -186ZM372 358Q372 378 366 384T348 391Q340 391 325 385T297 366L292 371Q302 387 316 400T347 424T378 441T407 447Q432 447 439 430T447 395Q447 352 416 286T318
148L313 151Q348 203 360 258T372 358ZM272 481L264 486L361 687L431 643L272 481Z" />
<glyph unicode="&#xfe;" glyph-name="thorn" horiz-adv-x="473" d="M247 417Q256 422 271 427T304 436T338 444T364 447Q392 447 410 439T440 417T456 383T461 338Q461 284 443 231T392 132T313 53T212 3L214 12Q232 26 253 58T292 134T323 229T335 333Q335 370
321 386T271 403Q267 404 259 404T243 402L247 417ZM122 34Q131 22 148 14T179 4L177 -4Q167 -8 150 -8Q139 -8 130 -7T111 -4L80 -124Q67 -173 84 -193T137 -216L134 -224H-129L-126 -216Q-89 -211 -73 -194T-46 -135L145 571Q151 591 157 611T163 640Q163 646
162 650T155 657L123 674L124 678L308 714L309 713L122 34Z" />
<glyph unicode="&#xff;" glyph-name="ydieresis" horiz-adv-x="434" d="M229 385Q232 359 233 312T234 209T228 97T217 -2Q208 -14 193 -31T159 -67T122 -104T88 -134Q99 -62 105 9T113 144T114 263T109 357Q108 365 104 371T91 377Q83 377 75 370T59 350T44 322T30
291L23 294Q30 328 45 356T81 404T126 435T175 447Q201 447 213 431T229 385ZM-82 -186Q-56 -186 -27 -180T34 -156L38 -161Q28 -171 13 -182T-18 -202T-52 -220T-83 -233Q-95 -238 -106 -239T-125 -241Q-148 -241 -168 -230T-188 -186Q-188 -172 -181 -159T-164
-136T-140 -118T-116 -108L-112 -112Q-117 -117 -120 -126T-123 -144Q-123 -167 -112 -176T-82 -186ZM372 358Q372 378 366 384T348 391Q340 391 325 385T297 366L292 371Q302 387 316 400T347 424T378 441T407 447Q432 447 439 430T447 395Q447 352 416 286T318
148L313 151Q348 203 360 258T372 358ZM200 636Q223 636 238 620T254 581Q254 558 239 542T200 525Q177 525 161 541T145 581Q145 604 161 620T200 636ZM381 636Q404 636 420 620T436 581Q436 558 420 542T381 525Q358 525 343 541T327 581Q327 604 342 620T381
636Z" />
<glyph unicode="&#x100;" glyph-name="Amacron" horiz-adv-x="603" d="M324 274L298 486L384 638H426L484 126Q490 66 509 40T574 8L571 0H256L259 8Q315 13 330 42T341 125L327 244H150L168 274H324ZM-88 0L-85 8Q-50 14 -20 29T35 67Q61 88 77 108T115 159L123
156Q115 141 109 120T103 76Q103 52 119 31T163 8L160 0H-88ZM277 699L289 741H553L541 699H277Z" />
<glyph unicode="&#x101;" glyph-name="amacron" horiz-adv-x="446" d="M225 354Q211 337 190 302T149 227T115 152T101 95Q101 73 118 73Q125 73 134 78T152 92T169 109T185 127L190 123Q180 103 163 81T125 38T80 5T34 -8Q14 -8 -1 7T-16 51Q-16 87 5 130T61
215T136 295T219 359L225 354ZM337 76Q344 76 355 85T379 107T402 137T421 167L427 164Q418 135 399 105T354 50T300 8T245 -8Q223 -8 213 4T202 35Q202 48 208 78T226 138Q238 176 252 218T278 297L306 381Q300 384 289 384Q278 385 268 382T249 373L243 378Q251
384 263 391T290 406T320 417T348 424Q359 440 375 452T414 464Q439 464 439 448Q439 441 438 434T435 424Q430 411 418 376T392 296T362 207T337 129Q333 116 330 105T327 88Q327 80 330 78T337 76ZM207 545L220 587H471L458 545H207Z" />
<glyph unicode="&#x102;" glyph-name="Abreve" horiz-adv-x="603" d="M324 274L298 486L384 638H426L484 126Q490 66 509 40T574 8L571 0H256L259 8Q315 13 330 42T341 125L327 244H150L168 274H324ZM-88 0L-85 8Q-50 14 -20 29T35 67Q61 88 77 108T115 159L123
156Q115 141 109 120T103 76Q103 52 119 31T163 8L160 0H-88ZM416 751Q460 751 493 767T540 823H550Q545 795 535 769T509 723T468 691T409 679Q365 679 342 703T318 765Q318 796 332 823H341Q336 805 341 792T356 769T382 756T416 751Z" />
<glyph unicode="&#x103;" glyph-name="abreve" horiz-adv-x="446" d="M225 354Q211 337 190 302T149 227T115 152T101 95Q101 73 118 73Q125 73 134 78T152 92T169 109T185 127L190 123Q180 103 163 81T125 38T80 5T34 -8Q14 -8 -1 7T-16 51Q-16 87 5 130T61 215T136
295T219 359L225 354ZM337 76Q344 76 355 85T379 107T402 137T421 167L427 164Q418 135 399 105T354 50T300 8T245 -8Q223 -8 213 4T202 35Q202 48 208 78T226 138Q238 176 252 218T278 297L306 381Q300 384 289 384Q278 385 268 382T249 373L243 378Q251 384 263
391T290 406T320 417T348 424Q359 440 375 452T414 464Q439 464 439 448Q439 441 438 434T435 424Q430 411 418 376T392 296T362 207T337 129Q333 116 330 105T327 88Q327 80 330 78T337 76ZM329 567Q374 567 407 591T454 657H465Q461 629 452 601T425 551T382
514T323 499Q275 499 254 526T232 590Q232 607 236 624T247 657H258Q252 619 269 593T329 567Z" />
<glyph unicode="&#x104;" glyph-name="Aogonek" horiz-adv-x="603" d="M324 274L298 486L384 638H426L484 126Q490 66 509 40T574 8L571 0H356L327 244H150L168 274H324ZM-88 0L-85 8Q-50 14 -20 29T35 67Q61 88 77 108T115 159L123 156Q115 141 109 120T103 76Q103
52 119 31T163 8L160 0H-88ZM412 -160Q404 -171 393 -184T368 -208T335 -226T293 -234Q258 -234 235 -217T212 -162Q212 -140 227 -118T264 -77T311 -43T355 -20H368Q357 -29 344 -40T320 -64T301 -92T293 -127Q293 -149 305 -161T344 -174Q362 -174 378 -168T406
-154L412 -160Z" />
<glyph unicode="&#x105;" glyph-name="aogonek" horiz-adv-x="446" d="M225 354Q211 337 190 302T149 227T115 152T101 95Q101 73 118 73Q125 73 134 78T152 92T169 109T185 127L190 123Q180 103 163 81T125 38T80 5T34 -8Q14 -8 -1 7T-16 51Q-16 87 5 130T61
215T136 295T219 359L225 354ZM337 76Q344 76 355 85T379 107T402 137T421 167L427 164Q418 135 399 105T354 50T300 8T245 -8Q223 -8 213 4T202 35Q202 48 208 78T226 138Q238 176 252 218T278 297L306 381Q300 384 289 384Q278 385 268 382T249 373L243 378Q251
384 263 391T290 406T320 417T348 424Q359 440 375 452T414 464Q439 464 439 448Q439 441 438 434T435 424Q430 411 418 376T392 296T362 207T337 129Q333 116 330 105T327 88Q327 80 330 78T337 76ZM315 -160Q307 -171 296 -184T271 -208T238 -226T196 -234Q161
-234 138 -217T115 -162Q115 -140 130 -118T167 -77T214 -43T259 -20H271Q260 -29 247 -40T223 -64T204 -92T196 -127Q196 -149 208 -161T247 -174Q265 -174 282 -168T310 -154L315 -160Z" />
<glyph unicode="&#x106;" glyph-name="Cacute" horiz-adv-x="644" d="M612 414Q612 452 604 488T580 553T536 602T470 630L473 638Q497 638 523 634T576 625T627 612T670 598L621 414H612ZM302 -7Q246 -2 201 22T123 82T73 165T55 260Q55 343 90 412T186 534Q235
579 299 608T437 640L434 632Q394 628 358 599T293 522Q275 494 259 453T230 364T210 267T202 173Q202 110 227 62T305 1L302 -7ZM341 0Q384 9 420 30T486 81T540 147T586 222H595L541 24Q523 18 503 13T459 3T406 -4T338 -8L341 0ZM412 679L407 686L569 822L610
741L412 679Z" />
<glyph unicode="&#x107;" glyph-name="cacute" horiz-adv-x="347" d="M250 481L242 486L339 687L409 643L250 481ZM289 440Q255 429 228 394T180 312T149 217T138 129Q138 79 169 79Q186 79 203 87T236 109T265 139T287 171L294 168Q288 147 273 117T235 59T179
12T107 -8Q79 -8 61 1T31 27T15 62T10 101Q10 159 35 218T101 327T192 409T291 447L289 440ZM275 379Q275 400 289 414T324 429Q345 429 359 415T374 379Q374 358 360 344T324 330Q303 330 289 344T275 379Z" />
<glyph unicode="&#x108;" glyph-name="Ccircumflex" horiz-adv-x="644" d="M339 684L499 816H503L586 684L581 680L486 738H483L342 679L339 684ZM612 414Q612 452 604 488T580 553T536 602T470 630L473 638Q497 638 523 634T576 625T627 612T670 598L621 414H612ZM302
-7Q246 -2 201 22T123 82T73 165T55 260Q55 343 90 412T186 534Q235 579 299 608T437 640L434 632Q394 628 358 599T293 522Q275 494 259 453T230 364T210 267T202 173Q202 110 227 62T305 1L302 -7ZM341 0Q384 9 420 30T486 81T540 147T586 222H595L541 24Q523
18 503 13T459 3T406 -4T338 -8L341 0Z" />
<glyph unicode="&#x109;" glyph-name="ccircumflex" horiz-adv-x="347" d="M331 676H335L388 489L380 485L315 582H310L169 484L164 489L331 676ZM289 440Q255 429 228 394T180 312T149 217T138 129Q138 79 169 79Q186 79 203 87T236 109T265 139T287 171L294
168Q288 147 273 117T235 59T179 12T107 -8Q79 -8 61 1T31 27T15 62T10 101Q10 159 35 218T101 327T192 409T291 447L289 440ZM275 379Q275 400 289 414T324 429Q345 429 359 415T374 379Q374 358 360 344T324 330Q303 330 289 344T275 379Z" />
<glyph unicode="&#x10a;" glyph-name="Cdotaccent" horiz-adv-x="644" d="M612 414Q612 452 604 488T580 553T536 602T470 630L473 638Q497 638 523 634T576 625T627 612T670 598L621 414H612ZM302 -7Q246 -2 201 22T123 82T73 165T55 260Q55 343 90 412T186 534Q235
579 299 608T437 640L434 632Q394 628 358 599T293 522Q275 494 259 453T230 364T210 267T202 173Q202 110 227 62T305 1L302 -7ZM341 0Q384 9 420 30T486 81T540 147T586 222H595L541 24Q523 18 503 13T459 3T406 -4T338 -8L341 0ZM415 756Q415 782 433 799T477
816Q503 816 521 799T540 756Q540 730 522 714T477 697Q451 697 433 713T415 756Z" />
<glyph unicode="&#x10b;" glyph-name="cdotaccent" horiz-adv-x="347" d="M289 440Q255 429 228 394T180 312T149 217T138 129Q138 79 169 79Q186 79 203 87T236 109T265 139T287 171L294 168Q288 147 273 117T235 59T179 12T107 -8Q79 -8 61 1T31 27T15 62T10
101Q10 159 35 218T101 327T192 409T291 447L289 440ZM275 379Q275 400 289 414T324 429Q345 429 359 415T374 379Q374 358 360 344T324 330Q303 330 289 344T275 379ZM250 597Q250 623 268 639T312 656Q338 656 356 640T374 597Q374 571 356 554T312 537Q286 537
268 554T250 597Z" />
<glyph unicode="&#x10c;" glyph-name="Ccaron" horiz-adv-x="644" d="M624 812L464 679H460L377 812L382 816L477 758H479L621 816L624 812ZM612 414Q612 452 604 488T580 553T536 602T470 630L473 638Q497 638 523 634T576 625T627 612T670 598L621 414H612ZM302
-7Q246 -2 201 22T123 82T73 165T55 260Q55 343 90 412T186 534Q235 579 299 608T437 640L434 632Q394 628 358 599T293 522Q275 494 259 453T230 364T210 267T202 173Q202 110 227 62T305 1L302 -7ZM341 0Q384 9 420 30T486 81T540 147T586 222H595L541 24Q523
18 503 13T459 3T406 -4T338 -8L341 0Z" />
<glyph unicode="&#x10d;" glyph-name="ccaron" horiz-adv-x="347" d="M266 484H262L203 671L211 675L285 578H288L436 676L441 671L266 484ZM289 440Q255 429 228 394T180 312T149 217T138 129Q138 79 169 79Q186 79 203 87T236 109T265 139T287 171L294 168Q288
147 273 117T235 59T179 12T107 -8Q79 -8 61 1T31 27T15 62T10 101Q10 159 35 218T101 327T192 409T291 447L289 440ZM275 379Q275 400 289 414T324 429Q345 429 359 415T374 379Q374 358 360 344T324 330Q303 330 289 344T275 379Z" />
<glyph unicode="&#x10e;" glyph-name="Dcaron" horiz-adv-x="711" d="M584 812L424 679H420L337 812L342 816L437 758H439L581 816L584 812ZM703 377Q703 265 650 183T505 55Q448 26 382 14T244 0L246 8Q309 14 366 45T467 129T535 254T561 414Q561 511 529 562T418
622L420 630Q483 624 535 607T624 558T682 482T703 377ZM197 567Q197 593 177 606T130 622L133 630H366L188 0H-38L-35 8Q-12 11 5 18T36 39T60 74T79 127L186 503Q193 526 195 540T197 567Z" />
<glyph unicode="&#x10f;" glyph-name="dcaron" horiz-adv-x="482" d="M537 496H527L596 690H674L537 496ZM302 439Q278 428 249 396T193 317T149 213T131 96Q131 76 146 76Q171 76 186 93T214 128L220 124Q210 105 194 82T159 39T117 6T71 -8Q38 -8 22 16T5 76Q5
106 15 144T44 223T89 303T149 376Q184 410 226 427T304 447L302 439ZM373 129Q369 116 366 105T363 88Q363 80 366 78T373 76Q380 76 391 85T415 108T438 138T457 167L463 164Q454 135 435 105T390 50T336 8T281 -8Q258 -8 246 6T234 46Q234 59 239 83T254 138L326
374Q329 385 331 396T333 413Q333 424 330 429T323 438L325 446Q336 444 345 437L386 570Q392 590 398 610T404 639Q404 650 395 656L364 673L365 677L551 714L552 713L373 129Z" />
<glyph unicode="&#x110;" glyph-name="Dcroat" horiz-adv-x="711" d="M188 0H-38L-35 8Q-12 11 5 18T36 39T60 74T79 127L131 307H47L55 331H137L186 503Q193 526 195 540T197 567Q197 593 177 606T130 622L133 630H366L282 331H394L387 307H275L188 0ZM703 377Q703
265 650 183T505 55Q448 26 382 14T244 0L246 8Q309 14 366 45T467 129T535 254T561 414Q561 511 529 562T418 622L420 630Q483 624 535 607T624 558T682 482T703 377Z" />
<glyph unicode="&#x111;" glyph-name="dcroat" horiz-adv-x="482" d="M493 520L373 129Q369 116 366 105T363 88Q363 80 366 78T373 76Q380 76 391 85T415 108T438 138T457 167L463 164Q454 135 435 105T390 50T336 8T281 -8Q258 -8 246 6T234 46Q234 59 239 83T254
138L326 374Q329 385 331 396T333 413Q333 424 330 429T323 438L325 446Q336 444 345 437L370 520H242L250 545H377Q377 546 379 552T383 564T387 576T389 583Q394 600 399 616T404 639Q404 650 395 656L364 673L365 677L551 714L552 713L500 545H571L563 520H493ZM302
439Q278 428 249 396T193 317T149 213T131 96Q131 76 146 76Q171 76 186 93T214 128L220 124Q210 105 194 82T159 39T117 6T71 -8Q38 -8 22 16T5 76Q5 106 15 144T44 223T89 303T149 376Q184 410 226 427T304 447L302 439Z" />
<glyph unicode="&#x112;" glyph-name="Emacron" horiz-adv-x="605" d="M188 0H-38L-35 8Q-12 11 5 18T36 39T60 74T79 127L186 503Q193 526 195 540T197 567Q197 593 177 606T130 622L133 630H366L188 0ZM578 428Q578 476 571 510T545 568T497 604T421 623L423
630H630L586 428H578ZM248 8Q292 11 338 26T422 65Q447 80 466 96T502 132T534 176T568 231H577L505 0H246L248 8ZM344 322Q378 325 402 333T444 356T477 393T510 448H518L447 188H439Q439 219 435 241T420 279T390 302T342 314L344 322ZM290 699L302 741H566L554
699H290Z" />
<glyph unicode="&#x113;" glyph-name="emacron" horiz-adv-x="363" d="M279 440Q257 433 239 412T205 361T178 297T158 228T146 164T142 112Q142 89 151 79T175 68Q193 68 211 77T245 99T274 129T297 161L304 158Q297 136 281 108T240 54T185 10T117 -8Q85 -8
65 1T34 27T19 62T14 101Q14 157 36 216T95 324T180 408T281 447L279 440ZM176 231Q202 239 223 250T261 278Q288 306 297 343T306 415Q306 428 302 432T295 439L297 446Q339 444 361 427T383 381Q383 351 368 325T326 279T261 245T174 224L176 231ZM165 545L178
587H429L416 545H165Z" />
<glyph unicode="&#x114;" glyph-name="Ebreve" horiz-adv-x="605" d="M188 0H-38L-35 8Q-12 11 5 18T36 39T60 74T79 127L186 503Q193 526 195 540T197 567Q197 593 177 606T130 622L133 630H366L188 0ZM578 428Q578 476 571 510T545 568T497 604T421 623L423
630H630L586 428H578ZM248 8Q292 11 338 26T422 65Q447 80 466 96T502 132T534 176T568 231H577L505 0H246L248 8ZM344 322Q378 325 402 333T444 356T477 393T510 448H518L447 188H439Q439 219 435 241T420 279T390 302T342 314L344 322ZM424 751Q468 751 501 767T548
823H558Q553 795 543 769T517 723T476 691T417 679Q373 679 350 703T326 765Q326 796 340 823H349Q344 805 349 792T364 769T390 756T424 751Z" />
<glyph unicode="&#x115;" glyph-name="ebreve" horiz-adv-x="363" d="M279 440Q257 433 239 412T205 361T178 297T158 228T146 164T142 112Q142 89 151 79T175 68Q193 68 211 77T245 99T274 129T297 161L304 158Q297 136 281 108T240 54T185 10T117 -8Q85 -8 65
1T34 27T19 62T14 101Q14 157 36 216T95 324T180 408T281 447L279 440ZM176 231Q202 239 223 250T261 278Q288 306 297 343T306 415Q306 428 302 432T295 439L297 446Q339 444 361 427T383 381Q383 351 368 325T326 279T261 245T174 224L176 231ZM295 567Q340 567
373 591T420 657H431Q427 629 418 601T391 551T348 514T289 499Q241 499 220 526T198 590Q198 607 202 624T213 657H224Q218 619 235 593T295 567Z" />
<glyph unicode="&#x116;" glyph-name="Edotaccent" horiz-adv-x="605" d="M378 756Q378 782 396 799T440 816Q466 816 484 799T503 756Q503 730 485 714T440 697Q414 697 396 713T378 756ZM188 0H-38L-35 8Q-12 11 5 18T36 39T60 74T79 127L186 503Q193 526 195
540T197 567Q197 593 177 606T130 622L133 630H366L188 0ZM578 428Q578 476 571 510T545 568T497 604T421 623L423 630H630L586 428H578ZM248 8Q292 11 338 26T422 65Q447 80 466 96T502 132T534 176T568 231H577L505 0H246L248 8ZM344 322Q378 325 402 333T444
356T477 393T510 448H518L447 188H439Q439 219 435 241T420 279T390 302T342 314L344 322Z" />
<glyph unicode="&#x117;" glyph-name="edotaccent" horiz-adv-x="363" d="M279 440Q257 433 239 412T205 361T178 297T158 228T146 164T142 112Q142 89 151 79T175 68Q193 68 211 77T245 99T274 129T297 161L304 158Q297 136 281 108T240 54T185 10T117 -8Q85
-8 65 1T34 27T19 62T14 101Q14 157 36 216T95 324T180 408T281 447L279 440ZM176 231Q202 239 223 250T261 278Q288 306 297 343T306 415Q306 428 302 432T295 439L297 446Q339 444 361 427T383 381Q383 351 368 325T326 279T261 245T174 224L176 231ZM246 597Q246
623 264 639T308 656Q334 656 352 640T370 597Q370 571 352 554T308 537Q282 537 264 554T246 597Z" />
<glyph unicode="&#x118;" glyph-name="Eogonek" horiz-adv-x="605" d="M419 -160Q411 -171 400 -184T375 -208T342 -226T300 -234Q265 -234 242 -217T219 -162Q219 -140 234 -118T271 -77T318 -43T363 -20H375Q364 -29 351 -40T327 -64T308 -92T300 -127Q300 -149
312 -161T351 -174Q369 -174 386 -168T414 -154L419 -160ZM188 0H-38L-35 8Q-12 11 5 18T36 39T60 74T79 127L186 503Q193 526 195 540T197 567Q197 593 177 606T130 622L133 630H366L188 0ZM578 428Q578 476 571 510T545 568T497 604T421 623L423 630H630L586
428H578ZM248 8Q292 11 338 26T422 65Q447 80 466 96T502 132T534 176T568 231H577L505 0H246L248 8ZM344 322Q378 325 402 333T444 356T477 393T510 448H518L447 188H439Q439 219 435 241T420 279T390 302T342 314L344 322Z" />
<glyph unicode="&#x119;" glyph-name="eogonek" horiz-adv-x="363" d="M203 -160Q195 -171 184 -184T159 -208T126 -226T84 -234Q49 -234 26 -217T3 -162Q3 -140 18 -118T55 -77T102 -43T147 -20H159Q148 -29 135 -40T111 -64T92 -92T84 -127Q84 -149 96 -161T135
-174Q153 -174 170 -168T198 -154L203 -160ZM279 440Q257 433 239 412T205 361T178 297T158 228T146 164T142 112Q142 89 151 79T175 68Q193 68 211 77T245 99T274 129T297 161L304 158Q297 136 281 108T240 54T185 10T117 -8Q85 -8 65 1T34 27T19 62T14 101Q14
157 36 216T95 324T180 408T281 447L279 440ZM176 231Q202 239 223 250T261 278Q288 306 297 343T306 415Q306 428 302 432T295 439L297 446Q339 444 361 427T383 381Q383 351 368 325T326 279T261 245T174 224L176 231Z" />
<glyph unicode="&#x11a;" glyph-name="Ecaron" horiz-adv-x="605" d="M591 812L431 679H427L344 812L349 816L444 758H446L588 816L591 812ZM188 0H-38L-35 8Q-12 11 5 18T36 39T60 74T79 127L186 503Q193 526 195 540T197 567Q197 593 177 606T130 622L133 630H366L188
0ZM578 428Q578 476 571 510T545 568T497 604T421 623L423 630H630L586 428H578ZM248 8Q292 11 338 26T422 65Q447 80 466 96T502 132T534 176T568 231H577L505 0H246L248 8ZM344 322Q378 325 402 333T444 356T477 393T510 448H518L447 188H439Q439 219 435 241T420
279T390 302T342 314L344 322Z" />
<glyph unicode="&#x11b;" glyph-name="ecaron" horiz-adv-x="363" d="M269 484H265L206 671L214 675L288 578H291L439 676L444 671L269 484ZM279 440Q257 433 239 412T205 361T178 297T158 228T146 164T142 112Q142 89 151 79T175 68Q193 68 211 77T245 99T274
129T297 161L304 158Q297 136 281 108T240 54T185 10T117 -8Q85 -8 65 1T34 27T19 62T14 101Q14 157 36 216T95 324T180 408T281 447L279 440ZM176 231Q202 239 223 250T261 278Q288 306 297 343T306 415Q306 428 302 432T295 439L297 446Q339 444 361 427T383
381Q383 351 368 325T326 279T261 245T174 224L176 231Z" />
<glyph unicode="&#x11c;" glyph-name="Gcircumflex" horiz-adv-x="694" d="M343 684L503 816H507L590 684L585 680L490 738H487L346 679L343 684ZM623 418Q622 453 615 488T591 552T547 602T480 630L483 638Q505 637 532 633T586 623T637 610T680 595L632 418H623ZM296
-6Q245 0 201 23T125 83T74 165T55 260Q55 349 93 419T192 541Q242 586 307 612T448 639L445 631Q399 627 359 598T288 522Q270 494 253 453T224 363T204 263T196 165Q196 136 202 109T222 60T254 23T299 2L296 -6ZM457 155Q463 178 465 193T468 220Q468 246 449
258T404 274L407 282H703L700 274Q652 269 630 247T595 179L551 25Q532 19 505 13T448 3T387 -4T331 -8L334 0Q375 5 399 20Q425 39 434 72L457 155Z" />
<glyph unicode="&#x11d;" glyph-name="gcircumflex" horiz-adv-x="404" d="M317 676H321L374 489L366 485L301 582H296L155 484L150 489L317 676ZM129 -238Q86 -237 45 -232T-30 -214T-83 -184T-104 -141Q-104 -126 -88 -112T-47 -86T4 -66T53 -56L55 -64Q43 -67
30 -73T7 -88T-10 -110T-17 -139Q-17 -165 -4 -182T31 -208T79 -223T132 -230L129 -238ZM162 -230Q198 -225 223 -213T249 -179Q249 -167 241 -156T218 -135T184 -114T145 -93Q120 -80 99 -68T61 -43T35 -13T25 25Q25 57 51 82T116 122L122 119Q116 112 113 106T109
91Q109 81 118 72T142 53T179 33T223 10Q254 -7 276 -19T313 -45T335 -75T342 -113Q342 -138 328 -159T290 -197T233 -224T160 -238L162 -230ZM369 409L476 450L447 362L367 402L369 409ZM255 440Q242 436 225 421Q213 410 197 383T165 322T140 249T130 176Q130
144 141 140L139 133Q116 134 97 142T65 164T44 195T37 233Q37 270 53 307T98 374T167 424T257 447L255 440ZM155 140Q164 141 178 153Q190 163 207 189T241 251T268 326T279 403Q279 419 276 428T269 440L271 447Q317 445 345 416T374 347Q374 310 358 273T312
206T243 156T153 133L155 140Z" />
<glyph unicode="&#x11e;" glyph-name="Gbreve" horiz-adv-x="694" d="M490 751Q534 751 567 767T614 823H624Q619 795 609 769T583 723T542 691T483 679Q439 679 416 703T392 765Q392 796 406 823H415Q410 805 415 792T430 769T456 756T490 751ZM623 418Q622 453
615 488T591 552T547 602T480 630L483 638Q505 637 532 633T586 623T637 610T680 595L632 418H623ZM296 -6Q245 0 201 23T125 83T74 165T55 260Q55 349 93 419T192 541Q242 586 307 612T448 639L445 631Q399 627 359 598T288 522Q270 494 253 453T224 363T204 263T196
165Q196 136 202 109T222 60T254 23T299 2L296 -6ZM457 155Q463 178 465 193T468 220Q468 246 449 258T404 274L407 282H703L700 274Q652 269 630 247T595 179L551 25Q532 19 505 13T448 3T387 -4T331 -8L334 0Q375 5 399 20Q425 39 434 72L457 155Z" />
<glyph unicode="&#x11f;" glyph-name="gbreve" horiz-adv-x="404" d="M129 -238Q86 -237 45 -232T-30 -214T-83 -184T-104 -141Q-104 -126 -88 -112T-47 -86T4 -66T53 -56L55 -64Q43 -67 30 -73T7 -88T-10 -110T-17 -139Q-17 -165 -4 -182T31 -208T79 -223T132
-230L129 -238ZM162 -230Q198 -225 223 -213T249 -179Q249 -167 241 -156T218 -135T184 -114T145 -93Q120 -80 99 -68T61 -43T35 -13T25 25Q25 57 51 82T116 122L122 119Q116 112 113 106T109 91Q109 81 118 72T142 53T179 33T223 10Q254 -7 276 -19T313 -45T335
-75T342 -113Q342 -138 328 -159T290 -197T233 -224T160 -238L162 -230ZM369 409L476 450L447 362L367 402L369 409ZM255 440Q242 436 225 421Q213 410 197 383T165 322T140 249T130 176Q130 144 141 140L139 133Q116 134 97 142T65 164T44 195T37 233Q37 270 53
307T98 374T167 424T257 447L255 440ZM155 140Q164 141 178 153Q190 163 207 189T241 251T268 326T279 403Q279 419 276 428T269 440L271 447Q317 445 345 416T374 347Q374 310 358 273T312 206T243 156T153 133L155 140ZM299 567Q344 567 377 591T424 657H435Q431
629 422 601T395 551T352 514T293 499Q245 499 224 526T202 590Q202 607 206 624T217 657H228Q222 619 239 593T299 567Z" />
<glyph unicode="&#x120;" glyph-name="Gdotaccent" horiz-adv-x="694" d="M417 756Q417 782 435 799T479 816Q505 816 523 799T542 756Q542 730 524 714T479 697Q453 697 435 713T417 756ZM623 418Q622 453 615 488T591 552T547 602T480 630L483 638Q505 637 532
633T586 623T637 610T680 595L632 418H623ZM296 -6Q245 0 201 23T125 83T74 165T55 260Q55 349 93 419T192 541Q242 586 307 612T448 639L445 631Q399 627 359 598T288 522Q270 494 253 453T224 363T204 263T196 165Q196 136 202 109T222 60T254 23T299 2L296 -6ZM457
155Q463 178 465 193T468 220Q468 246 449 258T404 274L407 282H703L700 274Q652 269 630 247T595 179L551 25Q532 19 505 13T448 3T387 -4T331 -8L334 0Q375 5 399 20Q425 39 434 72L457 155Z" />
<glyph unicode="&#x121;" glyph-name="gdotaccent" horiz-adv-x="404" d="M129 -238Q86 -237 45 -232T-30 -214T-83 -184T-104 -141Q-104 -126 -88 -112T-47 -86T4 -66T53 -56L55 -64Q43 -67 30 -73T7 -88T-10 -110T-17 -139Q-17 -165 -4 -182T31 -208T79 -223T132
-230L129 -238ZM162 -230Q198 -225 223 -213T249 -179Q249 -167 241 -156T218 -135T184 -114T145 -93Q120 -80 99 -68T61 -43T35 -13T25 25Q25 57 51 82T116 122L122 119Q116 112 113 106T109 91Q109 81 118 72T142 53T179 33T223 10Q254 -7 276 -19T313 -45T335
-75T342 -113Q342 -138 328 -159T290 -197T233 -224T160 -238L162 -230ZM369 409L476 450L447 362L367 402L369 409ZM255 440Q242 436 225 421Q213 410 197 383T165 322T140 249T130 176Q130 144 141 140L139 133Q116 134 97 142T65 164T44 195T37 233Q37 270 53
307T98 374T167 424T257 447L255 440ZM155 140Q164 141 178 153Q190 163 207 189T241 251T268 326T279 403Q279 419 276 428T269 440L271 447Q317 445 345 416T374 347Q374 310 358 273T312 206T243 156T153 133L155 140ZM236 597Q236 623 254 639T298 656Q324
656 342 640T360 597Q360 571 342 554T298 537Q272 537 254 554T236 597Z" />
<glyph unicode="&#x122;" glyph-name="Gcommaaccent" horiz-adv-x="694" d="M225 -108Q225 -76 246 -62T290 -48Q321 -48 339 -68T358 -123Q358 -149 344 -170T306 -209T253 -238T195 -256L192 -249Q212 -243 231 -235T266 -216T292 -190T306 -156Q295 -162 281
-162Q260 -162 243 -149T225 -108ZM623 418Q622 453 615 488T591 552T547 602T480 630L483 638Q505 637 532 633T586 623T637 610T680 595L632 418H623ZM296 -6Q245 0 201 23T125 83T74 165T55 260Q55 349 93 419T192 541Q242 586 307 612T448 639L445 631Q399
627 359 598T288 522Q270 494 253 453T224 363T204 263T196 165Q196 136 202 109T222 60T254 23T299 2L296 -6ZM457 155Q463 178 465 193T468 220Q468 246 449 258T404 274L407 282H703L700 274Q652 269 630 247T595 179L551 25Q532 19 505 13T448 3T387 -4T331
-8L334 0Q375 5 399 20Q425 39 434 72L457 155Z" />
<glyph unicode="&#x123;" glyph-name="gcommaaccent" horiz-adv-x="404" d="M348 565Q348 548 342 536T326 517T304 506T280 502Q247 502 230 522T213 579Q213 604 227 626T263 667T315 697T377 715L379 708Q362 703 343 695T306 674T277 645T263 610Q277 617
292 617Q312 617 330 605T348 565ZM129 -238Q86 -237 45 -232T-30 -214T-83 -184T-104 -141Q-104 -126 -88 -112T-47 -86T4 -66T53 -56L55 -64Q43 -67 30 -73T7 -88T-10 -110T-17 -139Q-17 -165 -4 -182T31 -208T79 -223T132 -230L129 -238ZM162 -230Q198 -225
223 -213T249 -179Q249 -167 241 -156T218 -135T184 -114T145 -93Q120 -80 99 -68T61 -43T35 -13T25 25Q25 57 51 82T116 122L122 119Q116 112 113 106T109 91Q109 81 118 72T142 53T179 33T223 10Q254 -7 276 -19T313 -45T335 -75T342 -113Q342 -138 328 -159T290
-197T233 -224T160 -238L162 -230ZM369 409L476 450L447 362L367 402L369 409ZM255 440Q242 436 225 421Q213 410 197 383T165 322T140 249T130 176Q130 144 141 140L139 133Q116 134 97 142T65 164T44 195T37 233Q37 270 53 307T98 374T167 424T257 447L255 440ZM155
140Q164 141 178 153Q190 163 207 189T241 251T268 326T279 403Q279 419 276 428T269 440L271 447Q317 445 345 416T374 347Q374 310 358 273T312 206T243 156T153 133L155 140Z" />
<glyph unicode="&#x124;" glyph-name="Hcircumflex" horiz-adv-x="770" d="M315 310L324 340H518L509 310H315ZM224 127Q217 104 215 89T212 62Q212 36 229 23T275 8L272 0H-38L-35 8Q-12 11 5 18T36 39T60 74T79 127L186 503Q193 526 195 540T197 567Q197 593
177 606T130 622L133 630H443L440 622Q416 619 400 612T371 591T349 556T331 503L224 127ZM636 127Q629 104 627 89T625 62Q625 36 644 23T692 8L689 0H379L382 8Q404 11 420 17T449 37T472 72T491 127L598 503Q605 526 607 541T610 568Q610 594 592 607T547 622L550
630H860L857 622Q809 617 785 591T743 503L636 127ZM388 684L548 816H552L635 684L630 680L535 738H532L391 679L388 684Z" />
<glyph unicode="&#x125;" glyph-name="hcircumflex" horiz-adv-x="503" d="M371 345Q371 362 364 369T346 376Q330 376 300 352T236 281L230 286Q281 368 336 407T438 447Q467 447 485 431T503 372Q503 312 480 248T419 129T332 37T230 -6L233 1Q249 4 262 19Q281
40 300 79T336 163T361 257T371 345ZM158 570Q164 590 170 610T176 639Q176 649 168 656L136 673L137 677L325 714L326 713L123 42Q115 22 97 7T47 -8Q13 -8 2 4T-4 36L158 570ZM168 53Q168 71 180 84T211 97Q229 97 242 84T255 53Q255 34 242 22T211 9Q192 9 180
21T168 53ZM248 740L408 872H412L495 740L490 736L395 794H392L251 735L248 740Z" />
<glyph unicode="&#x126;" glyph-name="Hbar" horiz-adv-x="770" d="M319 310L327 340H522L513 310H319ZM190 503Q197 526 199 540T201 567Q201 593 181 606T134 622L137 630H446L443 622Q419 619 403 612T374 591T353 556T335 503L228 127Q221 104 219 89T216
62Q216 36 233 23T278 8L275 0H-34L-31 8Q-9 11 8 18T39 39T63 74T83 127L190 503ZM602 503Q609 526 611 541T613 568Q613 594 595 607T550 622L553 630H864L861 622Q813 617 789 591T747 503L640 127Q633 104 631 89T628 62Q628 36 648 23T696 8L693 0H382L385
8Q407 11 423 17T453 37T476 72T495 127L602 503ZM349 424L358 453H552L544 424H349ZM752 424L761 453H845L837 424H752ZM55 424L64 453H149L140 424H55Z" />
<glyph unicode="&#x127;" glyph-name="hbar" horiz-adv-x="503" d="M276 517L132 42Q124 22 106 7T56 -8Q22 -8 11 4T5 36L152 517H89L97 545H159Q160 546 162 552T166 564T170 576T172 583Q177 600 181 616T186 640Q186 650 177 656L146 673L147 677L334 714L335
713L284 545H409L400 517H276ZM381 345Q381 362 374 369T356 376Q340 376 310 352T245 281L239 286Q290 368 345 407T448 447Q476 447 494 431T513 372Q513 312 490 248T429 129T342 37T239 -6L243 1Q260 4 274 21Q293 43 312 81T347 165T371 258T381 345ZM177
53Q177 71 189 84T220 97Q238 97 251 84T265 53Q265 34 252 22T220 9Q202 9 190 21T177 53Z" />
<glyph unicode="&#x128;" glyph-name="Itilde" horiz-adv-x="358" d="M186 503Q193 526 195 540T197 567Q197 593 177 606T130 622L133 630H448L445 622Q397 617 373 591T331 503L224 127Q217 104 215 89T212 62Q212 36 232 23T280 8L277 0H-38L-35 8Q-12 11 5
18T36 39T60 74T79 127L186 503ZM496 826Q484 794 462 771T413 733Q384 714 351 714Q320 714 294 716T242 719Q223 719 203 714T168 692L161 696Q178 725 194 743T231 776Q248 787 265 793T304 799Q330 799 357 797T414 794Q440 794 459 804T487 831L496 826Z"
/>
<glyph unicode="&#x129;" glyph-name="itilde" horiz-adv-x="280" d="M217 246Q205 218 197 200T182 165T165 132T143 87L146 85Q175 100 202 123T250 166L256 162Q243 140 218 111T164 55T104 11T50 -8Q33 -8 21 1T8 31Q8 40 15 60T33 107Q45 136 60 170T90 234Q109
276 124 313T139 363Q139 378 127 378Q119 378 110 370T92 353Q81 341 68 322T44 282L37 285Q47 315 64 344T103 396T151 433T207 447Q234 447 249 432T264 395Q264 368 251 331T217 246ZM416 641Q406 618 393 595T359 553Q342 536 321 530T280 524Q270 524 255
525T224 527T191 530T162 532Q143 532 125 526T87 498L82 502Q108 552 151 582Q186 607 228 607Q254 607 282 604T328 601Q351 601 371 609T408 644L416 641Z" />
<glyph unicode="&#x12a;" glyph-name="Imacron" horiz-adv-x="358" d="M186 503Q193 526 195 540T197 567Q197 593 177 606T130 622L133 630H448L445 622Q397 617 373 591T331 503L224 127Q217 104 215 89T212 62Q212 36 232 23T280 8L277 0H-38L-35 8Q-12 11
5 18T36 39T60 74T79 127L186 503ZM426 699L438 741H702L690 699H426Z" />
<glyph unicode="&#x12b;" glyph-name="imacron" horiz-adv-x="280" d="M217 246Q205 218 197 200T182 165T165 132T143 87L146 85Q175 100 202 123T250 166L256 162Q243 140 218 111T164 55T104 11T50 -8Q33 -8 21 1T8 31Q8 40 15 60T33 107Q45 136 60 170T90
234Q109 276 124 313T139 363Q139 378 127 378Q119 378 110 370T92 353Q81 341 68 322T44 282L37 285Q47 315 64 344T103 396T151 433T207 447Q234 447 249 432T264 395Q264 368 251 331T217 246ZM112 545L126 587H358L345 545H112Z" />
<glyph unicode="&#x12c;" glyph-name="Ibreve" horiz-adv-x="358" d="M186 503Q193 526 195 540T197 567Q197 593 177 606T130 622L133 630H448L445 622Q397 617 373 591T331 503L224 127Q217 104 215 89T212 62Q212 36 232 23T280 8L277 0H-38L-35 8Q-12 11 5
18T36 39T60 74T79 127L186 503ZM308 751Q352 751 385 767T432 823H442Q437 795 427 769T401 723T360 691T301 679Q257 679 234 703T210 765Q210 796 224 823H233Q228 805 233 792T248 769T274 756T308 751Z" />
<glyph unicode="&#x12d;" glyph-name="ibreve" horiz-adv-x="280" d="M217 246Q205 218 197 200T182 165T165 132T143 87L146 85Q175 100 202 123T250 166L256 162Q243 140 218 111T164 55T104 11T50 -8Q33 -8 21 1T8 31Q8 40 15 60T33 107Q45 136 60 170T90 234Q109
276 124 313T139 363Q139 378 127 378Q119 378 110 370T92 353Q81 341 68 322T44 282L37 285Q47 315 64 344T103 396T151 433T207 447Q234 447 249 432T264 395Q264 368 251 331T217 246ZM229 567Q274 567 307 591T354 657H365Q361 629 352 601T325 551T282 514T223
499Q175 499 154 526T132 590Q132 607 136 624T147 657H158Q152 619 169 593T229 567Z" />
<glyph unicode="&#x12e;" glyph-name="Iogonek" horiz-adv-x="358" d="M186 503Q193 526 195 540T197 567Q197 593 177 606T130 622L133 630H448L445 622Q397 617 373 591T331 503L224 127Q217 104 215 89T212 62Q212 36 232 23T280 8L277 0H-38L-35 8Q-12 11
5 18T36 39T60 74T79 127L186 503ZM219 -160Q211 -171 200 -184T175 -208T142 -226T100 -234Q65 -234 42 -217T19 -162Q19 -140 34 -118T71 -77T118 -43T163 -20H175Q164 -29 151 -40T127 -64T108 -92T100 -127Q100 -149 112 -161T151 -174Q169 -174 186 -168T214
-154L219 -160Z" />
<glyph unicode="&#x12f;" glyph-name="iogonek" horiz-adv-x="280" d="M216 246Q204 218 196 200T181 165T164 132T142 87L145 85Q174 100 201 123T249 166L255 162Q242 140 218 111T164 55T104 11T49 -8Q32 -8 20 1T7 31Q7 36 9 45T16 66Q27 95 47 142T89 234Q108
276 123 313T139 363Q139 378 126 378Q118 378 109 370T91 353Q80 341 67 322T43 282L36 285Q46 315 63 344T102 396T150 433T207 447Q233 447 248 432T263 395Q263 368 250 331T216 246ZM213 599Q213 625 231 643T276 662Q302 662 320 644T339 599Q339 573 321
555T276 536Q250 536 232 554T213 599ZM139 -160Q131 -171 120 -184T95 -208T62 -226T20 -234Q-15 -234 -38 -217T-61 -162Q-61 -140 -46 -118T-9 -77T38 -43T83 -20H95Q84 -29 71 -40T47 -64T28 -92T20 -127Q20 -149 32 -161T71 -174Q89 -174 106 -168T134 -154L139
-160Z" />
<glyph unicode="&#x130;" glyph-name="Idotaccent" horiz-adv-x="358" d="M186 503Q193 526 195 540T197 567Q197 593 177 606T130 622L133 630H448L445 622Q397 617 373 591T331 503L224 127Q217 104 215 89T212 62Q212 36 232 23T280 8L277 0H-38L-35 8Q-12
11 5 18T36 39T60 74T79 127L186 503ZM243 756Q243 782 261 799T305 816Q331 816 349 799T368 756Q368 730 350 714T305 697Q279 697 261 713T243 756Z" />
<glyph unicode="&#x131;" glyph-name="dotlessi" horiz-adv-x="280" d="M217 246Q205 218 197 200T182 165T165 132T143 87L146 85Q175 100 202 123T250 166L256 162Q243 140 218 111T164 55T104 11T50 -8Q33 -8 21 1T8 31Q8 40 15 60T33 107Q45 136 60 170T90
234Q109 276 124 313T139 363Q139 378 127 378Q119 378 110 370T92 353Q81 341 68 322T44 282L37 285Q47 315 64 344T103 396T151 433T207 447Q234 447 249 432T264 395Q264 368 251 331T217 246Z" />
<glyph unicode="&#x132;" glyph-name="IJ" horiz-adv-x="678" d="M550 82Q530 14 498 -32T424 -107T328 -150T212 -171V-161Q255 -153 285 -133T338 -81T376 -7T407 88L526 503Q533 526 535 540T537 567Q537 593 517 606T471 622L474 630H787L784 622Q760 619
743 612T712 591T690 556T671 503L550 82ZM186 503Q193 526 195 540T197 567Q197 593 177 606T130 622L133 630H447L444 622Q420 619 403 612T373 591T350 556T331 503L224 127Q217 104 215 89T212 62Q212 36 232 23T280 8L277 0H-38L-35 8Q-12 11 5 18T36 39T60
74T79 127L186 503Z" />
<glyph unicode="&#x133;" glyph-name="ij" horiz-adv-x="530" d="M255 162Q242 140 218 111T164 55T104 11T49 -8Q32 -8 20 1T7 31Q7 40 14 60T32 107Q44 136 59 170T89 234Q108 276 123 313T139 363Q139 378 126 378Q118 378 109 370T91 353Q80 341 67 322T43
282L36 285Q46 315 63 344T102 396T150 433T207 447Q233 447 248 432T263 395Q263 368 250 331T216 246Q204 218 196 200T181 165T164 132T142 87L145 85Q174 100 201 123T249 166L255 162ZM213 599Q213 625 231 643T276 662Q302 662 320 644T339 599Q339 573 321
555T276 536Q250 536 232 554T213 599ZM462 599Q462 625 481 643T526 662Q552 662 570 644T589 599Q589 573 571 555T526 536Q500 536 481 554T462 599ZM361 255Q378 304 385 327T392 363Q392 378 380 378Q372 378 363 371T345 353Q334 341 322 323T299 282L292
285Q301 315 317 344T355 396T402 433T455 447Q485 447 500 431T516 392Q516 365 506 330T478 246Q461 196 438 128T385 -16Q350 -106 286 -160T129 -222L131 -216Q149 -210 164 -199T195 -166T225 -114T258 -38Q268 -11 282 29T312 111T340 193T361 255ZM34 -154Q34
-131 50 -115T89 -99Q112 -99 128 -115T144 -154Q144 -177 128 -192T89 -208Q66 -208 50 -193T34 -154Z" />
<glyph unicode="&#x134;" glyph-name="Jcircumflex" horiz-adv-x="327" d="M158 684L318 816H322L405 684L400 680L305 738H302L161 679L158 684ZM198 82Q178 14 148 -32T75 -108T-20 -151T-140 -171V-161Q-96 -153 -66 -133T-13 -82T25 -8T56 88L174 503Q181
526 183 540T185 567Q185 593 165 606T119 622L122 630H436L433 622Q385 617 361 591T319 503L198 82Z" />
<glyph unicode="&#x135;" glyph-name="jcircumflex" horiz-adv-x="270" d="M509 676H513L566 489L558 485L493 582H488L347 484L342 489L509 676ZM117 -12Q82 -102 18 -155T-139 -217L-137 -211Q-119 -205 -104 -193T-73 -160T-43 -108T-10 -33Q0 -7 14 32T43
114T70 194T91 255Q108 304 115 327T122 363Q122 378 110 378Q102 378 93 371T75 353Q64 341 52 323T29 282L22 285Q31 315 47 344T85 396T132 433T185 447Q215 447 230 431T246 392Q246 365 236 330T208 246Q191 195 168 129T117 -12ZM-234 -148Q-234 -125 -218
-110T-179 -94Q-156 -94 -141 -109T-125 -148Q-125 -171 -140 -187T-179 -203Q-202 -203 -218 -187T-234 -148Z" />
<glyph unicode="&#x136;" glyph-name="Kcommaaccent" horiz-adv-x="714" d="M785 622Q745 616 707 601T633 565T565 519T502 467L496 473Q519 497 532 517T546 567Q546 592 528 605T479 622L481 630H787L785 622ZM224 127Q217 104 215 89T212 62Q212 36 232 23T280
8L277 0H-38L-35 8Q-12 11 5 18T36 39T60 74T79 127L186 503Q193 526 195 540T197 567Q197 593 177 606T130 622L133 630H448L445 622Q397 617 373 591T331 503L224 127ZM702 -7Q689 -7 672 -7T635 -5T596 -3T562 -1Q539 1 520 5T485 19T454 45T424 89Q412 110
398 135T371 189T345 246T324 302L425 403Q442 362 466 313T515 217T564 130T605 67Q623 43 646 25T704 1L702 -7ZM261 -108Q261 -76 282 -62T326 -48Q357 -48 375 -68T394 -123Q394 -149 380 -170T342 -209T289 -238T231 -256L228 -249Q248 -243 267 -235T302
-216T328 -190T342 -156Q331 -162 317 -162Q296 -162 279 -149T261 -108Z" />
<glyph unicode="&#x137;" glyph-name="kcommaaccent" horiz-adv-x="478" d="M215 277Q234 303 259 333T311 388T366 430T418 447Q444 447 455 429T467 389Q467 368 455 346T424 303T378 261T324 225Q335 185 346 151T367 93Q373 76 380 69T395 62Q406 62 424 75T454
109L461 105Q453 87 439 67T405 31T364 3T319 -8Q299 -8 283 4T255 48Q245 73 236 108T221 178Q243 189 258 197T288 216Q320 238 343 268T367 333Q367 364 341 364Q332 364 318 357T286 337T251 308T221 273L215 277ZM161 570Q167 590 173 610T179 639Q179 649
171 656L139 673L140 677L328 714L329 713L125 42Q118 22 100 7T49 -8Q16 -8 5 4T-2 36L161 570ZM108 -108Q108 -76 129 -62T173 -48Q204 -48 222 -68T241 -123Q241 -149 227 -170T189 -209T136 -238T78 -256L75 -249Q95 -243 114 -235T149 -216T175 -190T189 -156Q178
-162 164 -162Q143 -162 126 -149T108 -108Z" />
<glyph unicode="&#x139;" glyph-name="Lacute" horiz-adv-x="592" d="M261 679L256 686L418 822L459 741L261 679ZM-38 0L-35 8Q-12 11 5 18T36 39T60 74T79 127L186 503Q193 526 195 540T197 567Q197 593 177 606T130 622L133 630H448L445 622Q397 617 373 591T331
503L188 0H-38ZM238 8Q284 15 322 32T399 74Q424 90 445 106T484 141T520 184T554 237H562L490 0H236L238 8Z" />
<glyph unicode="&#x13a;" glyph-name="lacute" horiz-adv-x="258" d="M210 729L205 736L367 872L408 791L210 729ZM-3 31Q-3 48 10 89T42 184L173 570Q179 590 185 610T191 639Q191 650 182 656L151 673L152 677L339 714L340 713L135 87L138 85Q171 99 196 116T242
152L248 148Q235 126 210 99T154 48T94 8T39 -8Q22 -8 10 1T-3 31Z" />
<glyph unicode="&#x13b;" glyph-name="Lcommaaccent" horiz-adv-x="592" d="M166 -108Q166 -76 187 -62T231 -48Q262 -48 280 -68T299 -123Q299 -149 285 -170T247 -209T194 -238T136 -256L133 -249Q153 -243 172 -235T207 -216T233 -190T247 -156Q236 -162 222
-162Q201 -162 184 -149T166 -108ZM-38 0L-35 8Q-12 11 5 18T36 39T60 74T79 127L186 503Q193 526 195 540T197 567Q197 593 177 606T130 622L133 630H448L445 622Q397 617 373 591T331 503L188 0H-38ZM238 8Q284 15 322 32T399 74Q424 90 445 106T484 141T520
184T554 237H562L490 0H236L238 8Z" />
<glyph unicode="&#x13c;" glyph-name="lcommaaccent" horiz-adv-x="258" d="M224 -108Q224 -76 245 -62T289 -48Q320 -48 338 -68T357 -123Q357 -149 343 -170T305 -209T252 -238T194 -256L191 -249Q211 -243 230 -235T265 -216T291 -190T305 -156Q294 -162 280
-162Q259 -162 242 -149T224 -108ZM-3 31Q-3 48 10 89T42 184L173 570Q179 590 185 610T191 639Q191 650 182 656L151 673L152 677L339 714L340 713L135 87L138 85Q171 99 196 116T242 152L248 148Q235 126 210 99T154 48T94 8T39 -8Q22 -8 10 1T-3 31Z" />
<glyph unicode="&#x13d;" glyph-name="Lcaron" horiz-adv-x="592" d="M446 475H436L505 669H583L446 475ZM-38 0L-35 8Q-12 11 5 18T36 39T60 74T79 127L186 503Q193 526 195 540T197 567Q197 593 177 606T130 622L133 630H448L445 622Q397 617 373 591T331 503L188
0H-38ZM238 8Q284 15 322 32T399 74Q424 90 445 106T484 141T520 184T554 237H562L490 0H236L238 8Z" />
<glyph unicode="&#x13e;" glyph-name="lcaron" horiz-adv-x="258" d="M324 496H314L383 690H461L324 496ZM-3 31Q-3 48 10 89T42 184L173 570Q179 590 185 610T191 639Q191 650 182 656L151 673L152 677L339 714L340 713L135 87L138 85Q171 99 196 116T242 152L248
148Q235 126 210 99T154 48T94 8T39 -8Q22 -8 10 1T-3 31Z" />
<glyph unicode="&#x13f;" glyph-name="Ldot" horiz-adv-x="592" d="M-38 0L-35 8Q-12 11 5 18T36 39T60 74T79 127L186 503Q193 526 195 540T197 567Q197 593 177 606T130 622L133 630H448L445 622Q397 617 373 591T331 503L188 0H-38ZM238 8Q281 14 315 28T385
63Q412 78 434 94T477 130T514 173T550 226H559L490 0H236L238 8ZM450 354Q450 382 469 400T516 419Q544 419 562 401T581 354Q581 326 563 308T516 289Q489 289 470 307T450 354Z" />
<glyph unicode="&#x140;" glyph-name="ldot" horiz-adv-x="335" d="M261 347Q261 375 280 393T328 412Q355 412 374 394T393 347Q393 319 374 301T328 282Q300 282 281 300T261 347ZM-3 31Q-3 48 10 89T42 184L173 570Q179 590 185 610T191 639Q191 650 182 656L151
673L152 677L339 714L340 713L135 87L138 85Q171 99 196 116T242 152L248 148Q235 126 210 99T154 48T94 8T39 -8Q22 -8 10 1T-3 31Z" />
<glyph unicode="&#x141;" glyph-name="Lslash" horiz-adv-x="592" d="M123 278L186 503Q193 526 195 540T197 567Q197 593 177 606T130 622L133 630H448L445 622Q397 617 373 591T331 503L284 339L469 407L477 383L276 308L188 0H-38L-35 8Q-12 11 5 18T36 39T60
74T79 127L114 248L8 209L0 233L123 278ZM236 0L238 8Q284 15 322 32T399 74Q425 91 446 108T486 145T521 187T554 237H562L490 0H236Z" />
<glyph unicode="&#x142;" glyph-name="lslash" horiz-adv-x="262" d="M90 320L175 570Q181 590 187 610T193 639Q193 650 184 656L153 673L154 677L341 714L342 713L234 384L317 420L326 399L225 355L137 87L140 85Q173 99 198 115T244 152L250 148Q237 126 212
99T156 48T96 8T41 -8Q24 -8 12 1T-1 31Q-1 48 12 89T44 184L81 290L-5 254L-15 275L90 320Z" />
<glyph unicode="&#x143;" glyph-name="Nacute" horiz-adv-x="681" d="M410 679L405 686L567 822L608 741L410 679ZM465 -3L212 513Q192 555 162 586Q146 601 128 610T85 622L88 630H319L552 157L504 -3H465ZM156 190Q147 163 143 142T139 97Q139 66 162 41T235
8L232 0H-60L-57 8Q-18 13 12 31T66 74T109 131T147 193L156 190ZM609 440Q617 464 621 491T625 542Q625 571 603 593T527 622L530 630H810L807 622Q744 613 699 569T617 438L609 440Z" />
<glyph unicode="&#x144;" glyph-name="nacute" horiz-adv-x="529" d="M331 481L323 486L420 687L490 643L331 481ZM382 87Q411 102 441 124T492 166L498 162Q485 140 457 111T395 55T327 11T269 -8Q253 -8 243 0T233 28Q233 34 235 44T243 67Q249 82 259 101T279
141T300 180T319 214Q332 239 345 264T369 309T385 344T392 363Q392 374 380 374Q373 374 361 366T332 344T298 309T261 264L255 269Q281 308 309 341T366 397T423 434T476 447Q520 447 520 400Q520 386 507 350T467 261Q465 256 454 235T429 187T401 133T379 89L382
87ZM105 261Q111 274 118 288T130 317T140 343T144 362Q144 378 130 378Q114 378 97 358Q75 334 50 282L43 285Q52 317 67 346T104 398T150 434T204 447Q231 447 247 432T263 389Q263 359 251 324T220 246L130 42Q122 22 104 7T54 -8Q20 -8 8 5T3 36Q6 43 14 61T32
102T54 150T76 198T94 238T105 261Z" />
<glyph unicode="&#x145;" glyph-name="Ncommaaccent" horiz-adv-x="681" d="M211 -108Q211 -76 232 -62T276 -48Q307 -48 325 -68T344 -123Q344 -149 330 -170T292 -209T239 -238T181 -256L178 -249Q198 -243 217 -235T252 -216T278 -190T292 -156Q281 -162 267
-162Q246 -162 229 -149T211 -108ZM465 -3L212 513Q192 555 162 586Q146 601 128 610T85 622L88 630H319L552 157L504 -3H465ZM156 190Q147 163 143 142T139 97Q139 66 162 41T235 8L232 0H-60L-57 8Q-18 13 12 31T66 74T109 131T147 193L156 190ZM609 440Q617
464 621 491T625 542Q625 571 603 593T527 622L530 630H810L807 622Q744 613 699 569T617 438L609 440Z" />
<glyph unicode="&#x146;" glyph-name="ncommaaccent" horiz-adv-x="529" d="M95 -108Q95 -76 116 -62T160 -48Q191 -48 209 -68T228 -123Q228 -149 214 -170T176 -209T123 -238T65 -256L62 -249Q82 -243 101 -235T136 -216T162 -190T176 -156Q165 -162 151 -162Q130
-162 113 -149T95 -108ZM382 87Q411 102 441 124T492 166L498 162Q485 140 457 111T395 55T327 11T269 -8Q253 -8 243 0T233 28Q233 34 235 44T243 67Q249 82 259 101T279 141T300 180T319 214Q332 239 345 264T369 309T385 344T392 363Q392 374 380 374Q373 374
361 366T332 344T298 309T261 264L255 269Q281 308 309 341T366 397T423 434T476 447Q520 447 520 400Q520 386 507 350T467 261Q465 256 454 235T429 187T401 133T379 89L382 87ZM105 261Q111 274 118 288T130 317T140 343T144 362Q144 378 130 378Q114 378 97
358Q75 334 50 282L43 285Q52 317 67 346T104 398T150 434T204 447Q231 447 247 432T263 389Q263 359 251 324T220 246L130 42Q122 22 104 7T54 -8Q20 -8 8 5T3 36Q6 43 14 61T32 102T54 150T76 198T94 238T105 261Z" />
<glyph unicode="&#x147;" glyph-name="Ncaron" horiz-adv-x="681" d="M622 812L462 679H458L375 812L380 816L475 758H477L619 816L622 812ZM465 -3L212 513Q192 555 162 586Q146 601 128 610T85 622L88 630H319L552 157L504 -3H465ZM156 190Q147 163 143 142T139
97Q139 66 162 41T235 8L232 0H-60L-57 8Q-18 13 12 31T66 74T109 131T147 193L156 190ZM609 440Q617 464 621 491T625 542Q625 571 603 593T527 622L530 630H810L807 622Q744 613 699 569T617 438L609 440Z" />
<glyph unicode="&#x148;" glyph-name="ncaron" horiz-adv-x="529" d="M342 484H338L279 671L287 675L361 578H364L512 676L517 671L342 484ZM382 87Q411 102 441 124T492 166L498 162Q485 140 457 111T395 55T327 11T269 -8Q253 -8 243 0T233 28Q233 34 235 44T243
67Q249 82 259 101T279 141T300 180T319 214Q332 239 345 264T369 309T385 344T392 363Q392 374 380 374Q373 374 361 366T332 344T298 309T261 264L255 269Q281 308 309 341T366 397T423 434T476 447Q520 447 520 400Q520 386 507 350T467 261Q465 256 454 235T429
187T401 133T379 89L382 87ZM105 261Q111 274 118 288T130 317T140 343T144 362Q144 378 130 378Q114 378 97 358Q75 334 50 282L43 285Q52 317 67 346T104 398T150 434T204 447Q231 447 247 432T263 389Q263 359 251 324T220 246L130 42Q122 22 104 7T54 -8Q20
-8 8 5T3 36Q6 43 14 61T32 102T54 150T76 198T94 238T105 261Z" />
<glyph unicode="&#x149;" glyph-name="napostrophe" horiz-adv-x="572" d="M313 571Q313 587 319 600T336 621T360 633T386 638Q423 638 441 616T460 555Q460 528 445 503T404 456T346 421T279 400L276 408Q298 414 320 424T360 449T390 481T403 518Q389 510 370
510Q348 510 331 526T313 571ZM424 87Q453 102 483 124T534 166L540 162Q527 140 499 111T437 55T369 11T311 -8Q295 -8 285 0T275 28Q275 34 277 44T285 67Q291 82 301 101T321 141T342 180T361 214Q374 239 387 264T411 309T427 344T434 363Q434 374 422 374Q415
374 403 366T374 344T340 309T303 264L297 269Q323 308 351 341T408 397T465 434T518 447Q562 447 562 400Q562 386 549 350T509 261Q507 256 496 235T471 187T443 133T421 89L424 87ZM147 261Q153 274 160 288T172 317T182 343T186 362Q186 378 172 378Q156 378
139 358Q117 334 92 282L85 285Q94 317 109 346T146 398T192 434T246 447Q273 447 289 432T305 389Q305 359 293 324T262 246L172 42Q164 22 146 7T96 -8Q62 -8 50 5T45 36Q48 43 56 61T74 102T96 150T118 198T136 238T147 261Z" />
<glyph unicode="&#x14a;" glyph-name="Eng" horiz-adv-x="677" d="M541 82Q521 17 491 -29T418 -105T321 -150T201 -171V-161Q243 -153 274 -131T328 -76T369 0T402 94L251 399Q247 406 237 430T216 482T194 533T178 562Q162 588 140 603T85 622L88 630H319L555
130L541 82ZM156 190Q147 163 143 142T139 97Q139 66 162 41T235 8L232 0H-60L-57 8Q-18 13 12 31T66 74T109 131T147 193L156 190ZM618 440Q625 464 629 491T633 542Q633 571 609 593T535 622L538 630H819L816 622Q753 613 708 569T625 438L618 440Z" />
<glyph unicode="&#x14b;" glyph-name="eng" horiz-adv-x="536" d="M111 261Q117 274 124 288T137 317T147 343T151 362Q151 378 137 378Q121 378 104 358Q93 346 81 328T56 282L49 285Q58 317 73 346T110 398T156 434T211 447Q238 447 254 432T270 389Q270 359
258 324T226 246L137 42Q129 22 111 7T61 -8Q27 -8 15 5T10 36Q13 43 21 61T39 102T61 150T82 198T100 238T111 261ZM231 -38Q257 19 286 87T341 216Q350 239 360 263T379 308T392 343T398 363Q398 374 386 374Q379 374 367 366T339 344T305 309T268 264L262 269Q288
308 316 341T373 397T430 434T483 447Q528 447 528 401Q528 394 524 378T512 341T494 294T473 241Q456 203 443 172T416 111T389 51T358 -16Q317 -104 253 -159T96 -222L98 -216Q116 -210 131 -198T162 -165T194 -113T231 -38ZM1 -154Q1 -131 17 -115T56 -99Q79
-99 95 -115T111 -154Q111 -177 95 -192T56 -208Q33 -208 17 -193T1 -154Z" />
<glyph unicode="&#x14c;" glyph-name="Omacron" horiz-adv-x="677" d="M315 699L327 741H591L579 699H315ZM262 -6Q216 2 178 26T113 86T72 166T57 260Q57 321 74 374T122 472T194 551T285 606Q320 621 358 630T434 640L431 633Q396 629 366 604T309 540T262 452T227
352T205 251T197 161Q197 137 199 112T208 66T228 27T264 2L262 -6ZM464 638Q510 630 548 606T613 546T654 466T669 372Q669 307 650 252T598 151T518 72T419 18Q390 7 357 0T293 -8L295 0Q329 8 360 34T417 98T463 183T498 280T521 379T529 472Q529 495 527 520T518
566T498 605T462 630L464 638Z" />
<glyph unicode="&#x14d;" glyph-name="omacron" horiz-adv-x="477" d="M200 545L213 587H464L451 545H200ZM300 440Q284 437 266 424Q237 402 213 360T172 268T145 165T135 70Q135 38 142 22T159 0L157 -7Q119 -4 93 11T51 47T28 94T20 144Q20 202 40 255T98 349T187
416T302 447L300 440ZM177 0Q188 2 200 8T224 25Q250 49 271 90T309 179T333 278T342 370Q342 402 335 418T318 440L320 447Q357 444 383 429T426 393T449 346T457 296Q457 237 437 185T380 91T291 23T175 -7L177 0Z" />
<glyph unicode="&#x14e;" glyph-name="Obreve" horiz-adv-x="677" d="M474 751Q518 751 551 767T598 823H608Q603 795 593 769T567 723T526 691T467 679Q423 679 400 703T376 765Q376 796 390 823H399Q394 805 399 792T414 769T440 756T474 751ZM262 -6Q216 2
178 26T113 86T72 166T57 260Q57 321 74 374T122 472T194 551T285 606Q320 621 358 630T434 640L431 633Q396 629 366 604T309 540T262 452T227 352T205 251T197 161Q197 137 199 112T208 66T228 27T264 2L262 -6ZM464 638Q510 630 548 606T613 546T654 466T669
372Q669 307 650 252T598 151T518 72T419 18Q390 7 357 0T293 -8L295 0Q329 8 360 34T417 98T463 183T498 280T521 379T529 472Q529 495 527 520T518 566T498 605T462 630L464 638Z" />
<glyph unicode="&#x14f;" glyph-name="obreve" horiz-adv-x="477" d="M300 440Q284 437 266 424Q237 402 213 360T172 268T145 165T135 70Q135 38 142 22T159 0L157 -7Q119 -4 93 11T51 47T28 94T20 144Q20 202 40 255T98 349T187 416T302 447L300 440ZM177 0Q188
2 200 8T224 25Q250 49 271 90T309 179T333 278T342 370Q342 402 335 418T318 440L320 447Q357 444 383 429T426 393T449 346T457 296Q457 237 437 185T380 91T291 23T175 -7L177 0ZM328 567Q373 567 406 591T453 657H464Q460 629 451 601T424 551T381 514T322
499Q274 499 253 526T231 590Q231 607 235 624T246 657H257Q251 619 268 593T328 567Z" />
<glyph unicode="&#x150;" glyph-name="Ohungarumlaut" horiz-adv-x="677" d="M381 668L375 673L466 826L519 782L381 668ZM506 668L500 673L592 826L644 782L506 668ZM262 -6Q216 2 178 26T113 86T72 166T57 260Q57 321 74 374T122 472T194 551T285 606Q320 621
358 630T434 640L431 633Q396 629 366 604T309 540T262 452T227 352T205 251T197 161Q197 137 199 112T208 66T228 27T264 2L262 -6ZM464 638Q510 630 548 606T613 546T654 466T669 372Q669 307 650 252T598 151T518 72T419 18Q390 7 357 0T293 -8L295 0Q329 8
360 34T417 98T463 183T498 280T521 379T529 472Q529 495 527 520T518 566T498 605T462 630L464 638Z" />
<glyph unicode="&#x151;" glyph-name="ohungarumlaut" horiz-adv-x="477" d="M230 482L224 487L339 680L392 636L230 482ZM356 482L349 487L465 680L517 636L356 482ZM300 440Q284 437 266 424Q237 402 213 360T172 268T145 165T135 70Q135 38 142 22T159 0L157
-7Q119 -4 93 11T51 47T28 94T20 144Q20 202 40 255T98 349T187 416T302 447L300 440ZM177 0Q188 2 200 8T224 25Q250 49 271 90T309 179T333 278T342 370Q342 402 335 418T318 440L320 447Q357 444 383 429T426 393T449 346T457 296Q457 237 437 185T380 91T291
23T175 -7L177 0Z" />
<glyph unicode="&#x152;" glyph-name="OE" horiz-adv-x="884" d="M300 0Q252 0 208 18T129 70T73 152T52 260Q52 315 69 363T117 452T189 524T278 578T375 614T475 630L472 622Q455 621 436 616T400 599Q359 576 321 534T254 434T208 310T190 169Q190 138 196
110T215 59T249 22T302 8L300 0ZM665 630L487 0H341L521 630H665ZM545 0L546 8Q591 11 632 27T709 68Q759 103 790 144T847 231H855L784 0H545ZM857 428Q857 476 852 510T833 568T792 604T720 623L722 630H909L865 428H857ZM643 322Q676 325 696 333T732 355T759
392T789 448H797L725 188H717Q717 219 715 241T706 279T683 302T640 314L643 322Z" />
<glyph unicode="&#x153;" glyph-name="oe" horiz-adv-x="644" d="M561 440Q528 429 503 390T461 301T434 202T425 120Q425 97 435 83T464 68Q482 68 501 77T538 99T570 129T594 161L601 158Q594 136 578 108T537 54T479 10T405 -8Q370 -8 350 11T320 56H318Q290
32 253 15T171 -7L173 0Q211 8 237 43T281 127Q287 140 294 161T309 206Q320 250 327 293T334 370Q334 402 329 418T314 440L316 447Q357 441 381 416T416 362H418Q449 397 487 420T563 447L561 440ZM297 440Q275 436 254 418Q228 394 206 351T168 257T144 157T135
69Q135 37 141 21T156 0L154 -7Q116 -4 91 11T49 47T26 94T19 144Q19 202 39 255T96 349T184 416T299 447L297 440ZM459 231Q511 247 544 278Q570 306 579 343T589 415Q589 428 585 432T577 439L579 446Q621 444 643 427T665 381Q665 320 609 279T457 224L459 231Z"
/>
<glyph unicode="&#x154;" glyph-name="Racute" horiz-adv-x="654" d="M350 679L345 686L507 822L548 741L350 679ZM345 316Q383 322 409 341T452 387T476 449T483 520Q483 552 466 580T403 622L406 630Q457 626 498 616T568 588T612 543T628 478Q628 414 589 378T480
319Q487 293 498 263T522 202T548 142T573 87Q592 45 620 26T673 3L671 -5Q665 -5 650 -5T614 -5T572 -3T529 1Q502 4 483 12T451 30T430 53T418 78Q399 128 380 186T343 311L345 316ZM224 127Q217 104 215 91T212 65Q212 39 231 25T283 8L280 0H-38L-35 8Q-12
11 5 18T36 39T60 74T79 127L186 503Q193 526 195 540T197 567Q197 593 177 606T130 622L133 630H366L224 127Z" />
<glyph unicode="&#x155;" glyph-name="racute" horiz-adv-x="397" d="M281 481L273 486L370 687L440 643L281 481ZM317 288Q325 301 331 320T338 352Q338 357 336 361T327 366Q313 366 293 335T253 259L246 261Q258 298 272 331T305 390T344 431T389 446Q406 446
417 434T429 400Q429 379 420 360T395 325T361 297T324 280L317 288ZM99 261Q110 287 122 316T134 365Q134 378 122 378Q105 378 88 358Q77 345 65 326T44 282L37 285Q44 317 58 346T92 398T136 434T190 447Q219 447 235 432T252 390Q252 360 241 325T214 246Q205
221 194 190T171 130T151 77T136 42Q128 22 110 7T60 -8Q26 -8 14 5T9 36Q12 45 19 62T35 102T53 148T72 194T88 234T99 261Z" />
<glyph unicode="&#x156;" glyph-name="Rcommaaccent" horiz-adv-x="654" d="M345 316Q383 322 409 341T452 387T476 449T483 520Q483 552 466 580T403 622L406 630Q457 626 498 616T568 588T612 543T628 478Q628 414 589 378T480 319Q487 293 498 263T522 202T548
142T573 87Q592 45 620 26T673 3L671 -5Q665 -5 650 -5T614 -5T572 -3T529 1Q502 4 483 12T451 30T430 53T418 78Q399 128 380 186T343 311L345 316ZM224 127Q217 104 215 91T212 65Q212 39 231 25T283 8L280 0H-38L-35 8Q-12 11 5 18T36 39T60 74T79 127L186 503Q193
526 195 540T197 567Q197 593 177 606T130 622L133 630H366L224 127ZM259 -108Q259 -76 280 -62T324 -48Q355 -48 373 -68T392 -123Q392 -149 378 -170T340 -209T287 -238T229 -256L226 -249Q246 -243 265 -235T300 -216T326 -190T340 -156Q329 -162 315 -162Q294
-162 277 -149T259 -108Z" />
<glyph unicode="&#x157;" glyph-name="rcommaaccent" horiz-adv-x="397" d="M317 288Q325 301 331 320T338 352Q338 357 336 361T327 366Q313 366 293 335T253 259L246 261Q258 298 272 331T305 390T344 431T389 446Q406 446 417 434T429 400Q429 379 420 360T395
325T361 297T324 280L317 288ZM99 261Q110 287 122 316T134 365Q134 378 122 378Q105 378 88 358Q77 345 65 326T44 282L37 285Q44 317 58 346T92 398T136 434T190 447Q219 447 235 432T252 390Q252 360 241 325T214 246Q205 221 194 190T171 130T151 77T136 42Q128
22 110 7T60 -8Q26 -8 14 5T9 36Q12 45 19 62T35 102T53 148T72 194T88 234T99 261ZM215 -108Q215 -76 236 -62T280 -48Q311 -48 329 -68T348 -123Q348 -149 334 -170T296 -209T243 -238T185 -256L182 -249Q202 -243 221 -235T256 -216T282 -190T296 -156Q285 -162
271 -162Q250 -162 233 -149T215 -108Z" />
<glyph unicode="&#x158;" glyph-name="Rcaron" horiz-adv-x="654" d="M573 812L413 679H409L326 812L331 816L426 758H428L570 816L573 812ZM345 316Q383 322 409 341T452 387T476 449T483 520Q483 552 466 580T403 622L406 630Q457 626 498 616T568 588T612 543T628
478Q628 414 589 378T480 319Q487 293 498 263T522 202T548 142T573 87Q592 45 620 26T673 3L671 -5Q665 -5 650 -5T614 -5T572 -3T529 1Q502 4 483 12T451 30T430 53T418 78Q399 128 380 186T343 311L345 316ZM224 127Q217 104 215 91T212 65Q212 39 231 25T283
8L280 0H-38L-35 8Q-12 11 5 18T36 39T60 74T79 127L186 503Q193 526 195 540T197 567Q197 593 177 606T130 622L133 630H366L224 127Z" />
<glyph unicode="&#x159;" glyph-name="rcaron" horiz-adv-x="397" d="M282 484H278L219 671L227 675L301 578H304L452 676L457 671L282 484ZM317 288Q325 301 331 320T338 352Q338 357 336 361T327 366Q313 366 293 335T253 259L246 261Q258 298 272 331T305 390T344
431T389 446Q406 446 417 434T429 400Q429 379 420 360T395 325T361 297T324 280L317 288ZM99 261Q110 287 122 316T134 365Q134 378 122 378Q105 378 88 358Q77 345 65 326T44 282L37 285Q44 317 58 346T92 398T136 434T190 447Q219 447 235 432T252 390Q252 360
241 325T214 246Q205 221 194 190T171 130T151 77T136 42Q128 22 110 7T60 -8Q26 -8 14 5T9 36Q12 45 19 62T35 102T53 148T72 194T88 234T99 261Z" />
<glyph unicode="&#x15a;" glyph-name="Sacute" horiz-adv-x="482" d="M482 438Q483 469 476 500T453 558T418 603T373 629L376 638Q391 638 413 634T458 626T503 616T537 607L491 438H482ZM427 190Q427 138 408 102T357 42T282 7T192 -8L195 0Q237 6 265 33T293
111Q293 132 285 153T265 197T238 243T209 293Q192 322 180 343T160 384T147 422T143 466Q143 503 160 534T206 587T271 623T344 639L341 630Q309 625 293 601T276 547Q276 527 281 509T295 471T318 429T349 378Q364 352 378 329T403 284T420 239T427 190ZM155
-7Q135 -5 110 -2T62 6T19 15T-10 25L42 223H51Q49 192 56 158T77 92T111 36T159 2L155 -7ZM313 679L308 686L470 822L511 741L313 679Z" />
<glyph unicode="&#x15b;" glyph-name="sacute" horiz-adv-x="306" d="M235 481L227 486L324 687L394 643L235 481ZM248 440Q222 436 204 420T186 371Q186 350 193 323T214 251Q228 210 236 184T244 136Q244 112 233 87T201 42T146 9T67 -8L69 -1Q100 4 117 19T134
66Q134 88 125 119T100 189Q74 257 74 304Q74 328 85 352T118 396T173 430T250 447L248 440ZM-42 68Q-42 91 -27 106T12 122Q35 122 50 107T66 68Q66 45 51 30T12 14Q-11 14 -26 29T-42 68ZM245 390Q245 411 259 425T294 440Q314 440 328 426T343 390Q343 370 329
356T294 342Q273 342 259 356T245 390Z" />
<glyph unicode="&#x15c;" glyph-name="Scircumflex" horiz-adv-x="482" d="M266 684L426 816H430L513 684L508 680L413 738H410L269 679L266 684ZM482 438Q483 469 476 500T453 558T418 603T373 629L376 638Q391 638 413 634T458 626T503 616T537 607L491 438H482ZM427
190Q427 138 408 102T357 42T282 7T192 -8L195 0Q237 6 265 33T293 111Q293 132 285 153T265 197T238 243T209 293Q192 322 180 343T160 384T147 422T143 466Q143 503 160 534T206 587T271 623T344 639L341 630Q309 625 293 601T276 547Q276 527 281 509T295 471T318
429T349 378Q364 352 378 329T403 284T420 239T427 190ZM155 -7Q135 -5 110 -2T62 6T19 15T-10 25L42 223H51Q49 192 56 158T77 92T111 36T159 2L155 -7Z" />
<glyph unicode="&#x15d;" glyph-name="scircumflex" horiz-adv-x="306" d="M297 676H301L354 489L346 485L281 582H276L135 484L130 489L297 676ZM248 440Q222 436 204 420T186 371Q186 350 193 323T214 251Q228 210 236 184T244 136Q244 112 233 87T201 42T146
9T67 -8L69 -1Q100 4 117 19T134 66Q134 88 125 119T100 189Q74 257 74 304Q74 328 85 352T118 396T173 430T250 447L248 440ZM-42 68Q-42 91 -27 106T12 122Q35 122 50 107T66 68Q66 45 51 30T12 14Q-11 14 -26 29T-42 68ZM245 390Q245 411 259 425T294 440Q314
440 328 426T343 390Q343 370 329 356T294 342Q273 342 259 356T245 390Z" />
<glyph unicode="&#x15e;" glyph-name="Scedilla" horiz-adv-x="482" d="M482 438Q483 469 476 500T453 558T418 603T373 629L376 638Q391 638 413 634T458 626T503 616T537 607L491 438H482ZM427 190Q427 138 408 102T357 42T282 7T192 -8L195 0Q237 6 265 33T293
111Q293 132 285 153T265 197T238 243T209 293Q192 322 180 343T160 384T147 422T143 466Q143 503 160 534T206 587T271 623T344 639L341 630Q309 625 293 601T276 547Q276 527 281 509T295 471T318 429T349 378Q364 352 378 329T403 284T420 239T427 190ZM155
-7Q135 -5 110 -2T62 6T19 15T-10 25L42 223H51Q49 192 56 158T77 92T111 36T159 2L155 -7ZM102 27Q89 20 71 15T39 9Q16 9 6 19T-6 41Q-6 59 8 71T43 91Q48 64 64 48T99 33L102 27ZM116 42Q124 49 124 63Q124 71 119 80T106 103Q99 114 94 125T89 144Q89 157 97
169T118 193T147 214T179 232L183 226Q177 219 172 212T166 194Q166 185 171 174T181 152Q189 138 194 127T199 108Q199 87 180 71Q171 63 154 53T120 36L116 42Z" />
<glyph unicode="&#x15f;" glyph-name="scedilla" horiz-adv-x="306" d="M248 440Q222 436 204 420T186 371Q186 350 193 323T214 251Q228 210 236 184T244 136Q244 112 233 87T201 42T146 9T67 -8L69 -1Q100 4 117 19T134 66Q134 88 125 119T100 189Q74 257 74
304Q74 328 85 352T118 396T173 430T250 447L248 440ZM-42 68Q-42 91 -27 106T12 122Q35 122 50 107T66 68Q66 45 51 30T12 14Q-11 14 -26 29T-42 68ZM245 390Q245 411 259 425T294 440Q314 440 328 426T343 390Q343 370 329 356T294 342Q273 342 259 356T245 390ZM219
-221Q207 -227 190 -232T158 -238Q135 -238 126 -229T115 -208Q115 -188 131 -178T167 -159Q169 -184 183 -199T215 -215L219 -221ZM234 -205Q243 -198 243 -179Q243 -170 239 -162T227 -142Q222 -132 218 -123T214 -104Q214 -89 223 -76T245 -53T274 -33T302 -18L306
-24Q299 -30 293 -38T287 -58Q287 -66 291 -76T301 -98Q308 -109 312 -119T317 -139Q317 -153 310 -164T291 -184Q280 -192 266 -199T238 -212L234 -205Z" />
<glyph unicode="&#x160;" glyph-name="Scaron" horiz-adv-x="482" d="M532 812L372 679H368L285 812L290 816L385 758H387L529 816L532 812ZM482 438Q483 469 476 500T453 558T418 603T373 629L376 638Q391 638 413 634T458 626T503 616T537 607L491 438H482ZM427
190Q427 138 408 102T357 42T282 7T192 -8L195 0Q237 6 265 33T293 111Q293 132 285 153T265 197T238 243T209 293Q192 322 180 343T160 384T147 422T143 466Q143 503 160 534T206 587T271 623T344 639L341 630Q309 625 293 601T276 547Q276 527 281 509T295 471T318
429T349 378Q364 352 378 329T403 284T420 239T427 190ZM155 -7Q135 -5 110 -2T62 6T19 15T-10 25L42 223H51Q49 192 56 158T77 92T111 36T159 2L155 -7Z" />
<glyph unicode="&#x161;" glyph-name="scaron" horiz-adv-x="306" d="M239 484H235L176 671L184 675L258 578H261L409 676L414 671L239 484ZM248 440Q222 436 204 420T186 371Q186 350 193 323T214 251Q228 210 236 184T244 136Q244 112 233 87T201 42T146 9T67
-8L69 -1Q100 4 117 19T134 66Q134 88 125 119T100 189Q74 257 74 304Q74 328 85 352T118 396T173 430T250 447L248 440ZM-42 68Q-42 91 -27 106T12 122Q35 122 50 107T66 68Q66 45 51 30T12 14Q-11 14 -26 29T-42 68ZM245 390Q245 411 259 425T294 440Q314 440
328 426T343 390Q343 370 329 356T294 342Q273 342 259 356T245 390Z" />
<glyph unicode="&#x162;" glyph-name="Tcommaaccent" horiz-adv-x="656" d="M166 -108Q166 -76 187 -62T231 -48Q262 -48 280 -68T299 -123Q299 -149 285 -170T247 -209T194 -238T136 -256L133 -249Q153 -243 172 -235T207 -216T233 -190T247 -156Q236 -162 222
-162Q201 -162 184 -149T166 -108ZM507 630L364 127Q357 104 355 89T352 62Q352 36 372 23T420 8L417 0H102L105 8Q128 11 145 18T176 39T200 74T219 127L362 630H507ZM325 622Q293 612 261 594T199 551T142 495T94 428H85L150 630H327L325 622ZM742 630L682 428H673Q676
599 541 622L543 630H742Z" />
<glyph unicode="&#x163;" glyph-name="tcommaaccent" horiz-adv-x="303" d="M221 -108Q221 -76 242 -62T286 -48Q317 -48 335 -68T354 -123Q354 -149 340 -170T302 -209T249 -238T191 -256L188 -249Q208 -243 227 -235T262 -216T288 -190T302 -156Q291 -162 277
-162Q256 -162 239 -149T221 -108ZM28 126Q39 156 56 200T89 286Q107 334 126 386H61L70 407Q91 415 109 422Q124 428 138 434T157 444L176 463Q184 471 193 480T211 499Q225 514 239 528T264 549Q269 552 275 552T286 549T293 543T294 532Q292 527 287 512T275
479Q268 460 259 436H370L351 386H242L134 85L137 83Q169 97 205 126T263 185L269 182Q257 154 232 118T173 51Q143 25 113 9T55 -8Q33 -8 19 5T4 39Q4 52 9 72T28 126Z" />
<glyph unicode="&#x164;" glyph-name="Tcaron" horiz-adv-x="656" d="M602 812L442 679H438L355 812L360 816L455 758H457L599 816L602 812ZM507 630L364 127Q357 104 355 89T352 62Q352 36 372 23T420 8L417 0H102L105 8Q128 11 145 18T176 39T200 74T219 127L362
630H507ZM325 622Q293 612 261 594T199 551T142 495T94 428H85L150 630H327L325 622ZM742 630L682 428H673Q676 599 541 622L543 630H742Z" />
<glyph unicode="&#x165;" glyph-name="tcaron" horiz-adv-x="303" d="M338 504H328L397 698H475L338 504ZM28 126Q39 156 56 200T89 286Q107 334 126 386H61L70 407Q91 415 109 422Q124 428 138 434T157 444L176 463Q184 471 193 480T211 499Q225 514 239 528T264
549Q269 552 275 552T286 549T293 543T294 532Q292 527 287 512T275 479Q268 460 259 436H370L351 386H242L134 85L137 83Q169 97 205 126T263 185L269 182Q257 154 232 118T173 51Q143 25 113 9T55 -8Q33 -8 19 5T4 39Q4 52 9 72T28 126Z" />
<glyph unicode="&#x166;" glyph-name="Tbar" horiz-adv-x="656" d="M493 630L349 127Q343 104 341 89T338 62Q338 36 357 23T405 8L402 0H88L91 8Q113 11 130 18T161 39T185 74T205 127L348 630H493ZM311 622Q247 602 185 552T79 428H70L136 630H313L311 622ZM528
630H727L668 428H659Q661 599 526 622L528 630ZM100 315L108 344H233L225 315H100ZM435 315L443 344H575L567 315H435Z" />
<glyph unicode="&#x167;" glyph-name="tbar" horiz-adv-x="308" d="M138 85L141 83Q173 97 209 126T267 185L273 182Q262 154 237 118T177 51Q148 25 118 9T60 -8Q37 -8 24 5T9 39Q9 52 14 72T32 126Q44 156 60 199T93 285H31L41 312H103Q108 328 113 341T122
365Q126 376 130 386H65L74 407Q96 416 114 423Q130 429 143 435T162 445Q182 468 200 487Q215 504 229 519T248 542Q260 554 282 552Q291 551 296 546T298 532Q296 527 291 512T279 479Q272 460 264 436H375L356 386H247L220 312H337L327 285H210L138 85Z" />
<glyph unicode="&#x168;" glyph-name="Utilde" horiz-adv-x="652" d="M785 630L782 622Q754 618 725 605T670 571Q658 560 645 542T621 502T602 461T589 427H578Q586 459 589 481T592 525Q592 616 494 622L497 630H785ZM228 226Q220 201 217 176T219 128T238 87T280
56Q304 44 343 39T428 36L431 28Q425 22 413 16T383 5T345 -4T301 -8Q253 -8 211 -1T139 26Q110 45 96 70T77 125T76 186T89 250L161 503Q168 526 170 540T172 567Q172 593 152 606T105 622L108 630H423L420 622Q372 617 348 591T306 503L228 226ZM680 826Q668
794 646 771T597 733Q568 714 535 714Q504 714 478 716T426 719Q407 719 387 714T352 692L345 696Q362 725 378 743T415 776Q432 787 449 793T488 799Q514 799 541 797T598 794Q624 794 643 804T671 831L680 826Z" />
<glyph unicode="&#x169;" glyph-name="utilde" horiz-adv-x="526" d="M204 217Q178 165 160 130T142 85Q142 73 153 73Q168 73 200 99T270 175L276 170Q250 131 222 99T164 42T106 5T53 -8Q8 -8 8 39Q8 47 12 62T24 97Q35 126 50 157T87 229Q93 242 103 261T122
301T138 338T145 362Q145 378 129 378Q113 378 96 358Q74 334 49 282L42 285Q51 317 68 346T108 398T157 434T213 447Q239 447 253 432T268 390Q268 355 248 310T204 217ZM385 74Q399 81 415 93T447 118T477 143T502 166L508 162Q495 140 469 111T412 55T348 11T292
-8Q276 -8 264 0T251 30Q251 42 259 67T280 121T305 179T327 231Q338 256 349 282T369 330T387 370T399 397Q407 417 425 432T475 447Q508 447 521 435T524 399L449 229L382 76L385 74ZM547 641Q537 618 524 595T490 553Q473 536 452 530T411 524Q401 524 386 525T355
527T322 530T293 532Q274 532 256 526T218 498L213 502Q239 552 282 582Q317 607 359 607Q385 607 413 604T459 601Q482 601 502 609T539 644L547 641Z" />
<glyph unicode="&#x16a;" glyph-name="Umacron" horiz-adv-x="652" d="M785 630L782 622Q754 618 725 605T670 571Q658 560 645 542T621 502T602 461T589 427H578Q586 459 589 481T592 525Q592 616 494 622L497 630H785ZM228 226Q220 201 217 176T219 128T238
87T280 56Q304 44 343 39T428 36L431 28Q425 22 413 16T383 5T345 -4T301 -8Q253 -8 211 -1T139 26Q110 45 96 70T77 125T76 186T89 250L161 503Q168 526 170 540T172 567Q172 593 152 606T105 622L108 630H423L420 622Q372 617 348 591T306 503L228 226ZM355 699L367
741H631L619 699H355Z" />
<glyph unicode="&#x16b;" glyph-name="umacron" horiz-adv-x="526" d="M204 217Q178 165 160 130T142 85Q142 73 153 73Q168 73 200 99T270 175L276 170Q250 131 222 99T164 42T106 5T53 -8Q8 -8 8 39Q8 47 12 62T24 97Q35 126 50 157T87 229Q93 242 103 261T122
301T138 338T145 362Q145 378 129 378Q113 378 96 358Q74 334 49 282L42 285Q51 317 68 346T108 398T157 434T213 447Q239 447 253 432T268 390Q268 355 248 310T204 217ZM385 74Q399 81 415 93T447 118T477 143T502 166L508 162Q495 140 469 111T412 55T348 11T292
-8Q276 -8 264 0T251 30Q251 42 259 67T280 121T305 179T327 231Q338 256 349 282T369 330T387 370T399 397Q407 417 425 432T475 447Q508 447 521 435T524 399L449 229L382 76L385 74ZM238 545L251 587H502L489 545H238Z" />
<glyph unicode="&#x16c;" glyph-name="Ubreve" horiz-adv-x="652" d="M785 630L782 622Q754 618 725 605T670 571Q658 560 645 542T621 502T602 461T589 427H578Q586 459 589 481T592 525Q592 616 494 622L497 630H785ZM228 226Q220 201 217 176T219 128T238 87T280
56Q304 44 343 39T428 36L431 28Q425 22 413 16T383 5T345 -4T301 -8Q253 -8 211 -1T139 26Q110 45 96 70T77 125T76 186T89 250L161 503Q168 526 170 540T172 567Q172 593 152 606T105 622L108 630H423L420 622Q372 617 348 591T306 503L228 226ZM482 751Q526
751 559 767T606 823H616Q611 795 601 769T575 723T534 691T475 679Q431 679 408 703T384 765Q384 796 398 823H407Q402 805 407 792T422 769T448 756T482 751Z" />
<glyph unicode="&#x16d;" glyph-name="ubreve" horiz-adv-x="526" d="M204 217Q178 165 160 130T142 85Q142 73 153 73Q168 73 200 99T270 175L276 170Q250 131 222 99T164 42T106 5T53 -8Q8 -8 8 39Q8 47 12 62T24 97Q35 126 50 157T87 229Q93 242 103 261T122
301T138 338T145 362Q145 378 129 378Q113 378 96 358Q74 334 49 282L42 285Q51 317 68 346T108 398T157 434T213 447Q239 447 253 432T268 390Q268 355 248 310T204 217ZM385 74Q399 81 415 93T447 118T477 143T502 166L508 162Q495 140 469 111T412 55T348 11T292
-8Q276 -8 264 0T251 30Q251 42 259 67T280 121T305 179T327 231Q338 256 349 282T369 330T387 370T399 397Q407 417 425 432T475 447Q508 447 521 435T524 399L449 229L382 76L385 74ZM356 567Q401 567 434 591T481 657H492Q488 629 479 601T452 551T409 514T350
499Q302 499 281 526T259 590Q259 607 263 624T274 657H285Q279 619 296 593T356 567Z" />
<glyph unicode="&#x16e;" glyph-name="Uring" horiz-adv-x="652" d="M785 630L782 622Q754 618 725 605T670 571Q658 560 645 542T621 502T602 461T589 427H578Q586 459 589 481T592 525Q592 616 494 622L497 630H785ZM228 226Q220 201 217 176T219 128T238 87T280
56Q304 44 343 39T428 36L431 28Q425 22 413 16T383 5T345 -4T301 -8Q253 -8 211 -1T139 26Q110 45 96 70T77 125T76 186T89 250L161 503Q168 526 170 540T172 567Q172 593 152 606T105 622L108 630H423L420 622Q372 617 348 591T306 503L228 226ZM401 740Q401
775 423 794T471 815V795Q465 795 457 792T441 783T428 767T423 740Q423 724 428 714T440 697T456 687T471 684V664Q445 666 423 685T401 740ZM563 740Q563 704 541 685T493 664V684Q499 684 507 687T522 696T535 713T541 740Q541 756 536 766T523 783T507 792T493
795V815Q519 813 541 794T563 740Z" />
<glyph unicode="&#x16f;" glyph-name="uring" horiz-adv-x="526" d="M278 579Q278 614 299 637T353 662V642Q331 640 316 626T300 579Q300 547 315 533T353 516V496Q321 498 300 520T278 579ZM450 579Q450 544 429 521T375 496V516Q396 518 412 532T428 579Q428
611 412 625T375 642V662Q407 660 428 638T450 579ZM204 217Q178 165 160 130T142 85Q142 73 153 73Q168 73 200 99T270 175L276 170Q250 131 222 99T164 42T106 5T53 -8Q8 -8 8 39Q8 47 12 62T24 97Q35 126 50 157T87 229Q93 242 103 261T122 301T138 338T145
362Q145 378 129 378Q113 378 96 358Q74 334 49 282L42 285Q51 317 68 346T108 398T157 434T213 447Q239 447 253 432T268 390Q268 355 248 310T204 217ZM385 74Q399 81 415 93T447 118T477 143T502 166L508 162Q495 140 469 111T412 55T348 11T292 -8Q276 -8 264
0T251 30Q251 42 259 67T280 121T305 179T327 231Q338 256 349 282T369 330T387 370T399 397Q407 417 425 432T475 447Q508 447 521 435T524 399L449 229L382 76L385 74Z" />
<glyph unicode="&#x170;" glyph-name="Uhungarumlaut" horiz-adv-x="652" d="M397 668L391 673L482 826L535 782L397 668ZM522 668L516 673L608 826L660 782L522 668ZM785 630L782 622Q754 618 725 605T670 571Q658 560 645 542T621 502T602 461T589 427H578Q586
459 589 481T592 525Q592 616 494 622L497 630H785ZM228 226Q220 201 217 176T219 128T238 87T280 56Q304 44 343 39T428 36L431 28Q425 22 413 16T383 5T345 -4T301 -8Q253 -8 211 -1T139 26Q110 45 96 70T77 125T76 186T89 250L161 503Q168 526 170 540T172 567Q172
593 152 606T105 622L108 630H423L420 622Q372 617 348 591T306 503L228 226Z" />
<glyph unicode="&#x171;" glyph-name="uhungarumlaut" horiz-adv-x="526" d="M204 217Q178 165 160 130T142 85Q142 73 153 73Q168 73 200 99T270 175L276 170Q250 131 222 99T164 42T106 5T53 -8Q8 -8 8 39Q8 47 12 62T24 97Q35 126 50 157T87 229Q93 242 103
261T122 301T138 338T145 362Q145 378 129 378Q113 378 96 358Q74 334 49 282L42 285Q51 317 68 346T108 398T157 434T213 447Q239 447 253 432T268 390Q268 355 248 310T204 217ZM385 74Q399 81 415 93T447 118T477 143T502 166L508 162Q495 140 469 111T412 55T348
11T292 -8Q276 -8 264 0T251 30Q251 42 259 67T280 121T305 179T327 231Q338 256 349 282T369 330T387 370T399 397Q407 417 425 432T475 447Q508 447 521 435T524 399L449 229L382 76L385 74ZM270 482L264 487L379 680L432 636L270 482ZM396 482L389 487L505 680L557
636L396 482Z" />
<glyph unicode="&#x172;" glyph-name="Uogonek" horiz-adv-x="652" d="M394 -160Q386 -171 375 -184T350 -208T317 -226T275 -234Q240 -234 217 -217T194 -162Q194 -140 209 -118T246 -77T293 -43T338 -20H350Q339 -29 326 -40T302 -64T283 -92T275 -127Q275 -149
287 -161T326 -174Q344 -174 361 -168T389 -154L394 -160ZM785 630L782 622Q754 618 725 605T670 571Q658 560 645 542T621 502T602 461T589 427H578Q586 459 589 481T592 525Q592 616 494 622L497 630H785ZM228 226Q220 201 217 176T219 128T238 87T280 56Q304
44 343 39T428 36L431 28Q425 22 413 16T383 5T345 -4T301 -8Q253 -8 211 -1T139 26Q110 45 96 70T77 125T76 186T89 250L161 503Q168 526 170 540T172 567Q172 593 152 606T105 622L108 630H423L420 622Q372 617 348 591T306 503L228 226Z" />
<glyph unicode="&#x173;" glyph-name="uogonek" horiz-adv-x="526" d="M314 -160Q306 -171 295 -184T270 -208T237 -226T195 -234Q160 -234 137 -217T114 -162Q114 -140 129 -118T166 -77T213 -43T258 -20H270Q259 -29 246 -40T222 -64T203 -92T195 -127Q195 -149
207 -161T246 -174Q264 -174 281 -168T309 -154L314 -160ZM204 217Q178 165 160 130T142 85Q142 73 153 73Q168 73 200 99T270 175L276 170Q250 131 222 99T164 42T106 5T53 -8Q8 -8 8 39Q8 47 12 62T24 97Q35 126 50 157T87 229Q93 242 103 261T122 301T138 338T145
362Q145 378 129 378Q113 378 96 358Q74 334 49 282L42 285Q51 317 68 346T108 398T157 434T213 447Q239 447 253 432T268 390Q268 355 248 310T204 217ZM385 74Q399 81 415 93T447 118T477 143T502 166L508 162Q495 140 469 111T412 55T348 11T292 -8Q276 -8 264
0T251 30Q251 42 259 67T280 121T305 179T327 231Q338 256 349 282T369 330T387 370T399 397Q407 417 425 432T475 447Q508 447 521 435T524 399L449 229L382 76L385 74Z" />
<glyph unicode="&#x174;" glyph-name="Wcircumflex" horiz-adv-x="852" d="M424 684L584 816H588L671 684L666 680L571 738H568L427 679L424 684ZM330 170L224 -6H199L164 507Q159 566 140 592T74 622L77 630H385L382 622Q335 617 321 591T310 513L330 170ZM640
170L534 -6H508L473 516Q471 544 467 563T455 595T433 614T400 622L403 630H703L700 622Q671 619 655 611T630 587T620 551T620 504L640 170ZM1001 630L998 622Q966 617 939 604T888 572Q858 548 836 522T793 460L784 465Q792 480 801 507T810 557Q810 583 791
601T746 622L749 630H1001Z" />
<glyph unicode="&#x175;" glyph-name="wcircumflex" horiz-adv-x="621" d="M439 676H443L496 489L488 485L423 582H418L277 484L272 489L439 676ZM176 447Q202 447 215 425T229 367Q229 346 225 306T216 222T205 142T196 90L93 -6L51 15Q64 54 75 100T93 191T105
276T109 342Q109 368 99 376T77 384Q67 384 55 380T26 365L23 371Q36 384 54 397T94 422T136 440T176 447ZM391 447Q417 447 430 425T444 367Q444 344 440 303T431 220T420 141T411 90L309 -6L265 15Q278 55 289 100T308 189T320 274T324 344Q324 370 313 377T293
385Q287 385 278 383T252 370L249 376Q262 389 278 401T314 424T352 440T391 447ZM564 354Q564 370 558 378T541 387Q533 387 517 382T480 360L475 365Q487 379 505 393T544 420T582 439T611 447Q631 447 643 436T655 401Q655 380 642 351T603 287T541 216T460
141L457 148Q484 173 504 201T537 258T557 311T564 354Z" />
<glyph unicode="&#x176;" glyph-name="Ycircumflex" horiz-adv-x="593" d="M245 297L186 532Q175 571 156 594T93 622L95 630H409L407 622Q331 616 331 573Q331 562 336 541T345 507L394 312L341 127Q334 104 332 89T330 62Q330 36 349 23T397 8L394 0H80L83 8Q105
11 122 18T153 39T177 74T196 127L245 297ZM727 622Q697 617 668 605T613 575Q576 550 547 520T492 463L487 472Q495 482 503 495T517 522T528 549T532 575Q532 597 512 608T465 622L467 630H730L727 622ZM312 684L472 816H476L559 684L554 680L459 738H456L315
679L312 684Z" />
<glyph unicode="&#x177;" glyph-name="ycircumflex" horiz-adv-x="434" d="M229 385Q232 359 233 312T234 209T228 97T217 -2Q208 -14 193 -31T159 -67T122 -104T88 -134Q99 -62 105 9T113 144T114 263T109 357Q108 365 104 371T91 377Q83 377 75 370T59 350T44
322T30 291L23 294Q30 328 45 356T81 404T126 435T175 447Q201 447 213 431T229 385ZM-82 -186Q-56 -186 -27 -180T34 -156L38 -161Q28 -171 13 -182T-18 -202T-52 -220T-83 -233Q-95 -238 -106 -239T-125 -241Q-148 -241 -168 -230T-188 -186Q-188 -172 -181 -159T-164
-136T-140 -118T-116 -108L-112 -112Q-117 -117 -120 -126T-123 -144Q-123 -167 -112 -176T-82 -186ZM372 358Q372 378 366 384T348 391Q340 391 325 385T297 366L292 371Q302 387 316 400T347 424T378 441T407 447Q432 447 439 430T447 395Q447 352 416 286T318
148L313 151Q348 203 360 258T372 358ZM333 676H337L390 489L382 485L317 582H312L171 484L166 489L333 676Z" />
<glyph unicode="&#x178;" glyph-name="Ydieresis" horiz-adv-x="593" d="M245 297L186 532Q175 571 156 594T93 622L95 630H409L407 622Q331 616 331 573Q331 562 336 541T345 507L394 312L341 127Q334 104 332 89T330 62Q330 36 349 23T397 8L394 0H80L83 8Q105
11 122 18T153 39T177 74T196 127L245 297ZM727 622Q697 617 668 605T613 575Q576 550 547 520T492 463L487 472Q495 482 503 495T517 522T528 549T532 575Q532 597 512 608T465 622L467 630H730L727 622ZM322 808Q347 808 364 791T381 749Q381 724 364 707T322
689Q297 689 280 706T263 749Q263 774 280 791T322 808ZM533 808Q558 808 575 791T592 749Q592 724 575 707T533 689Q509 689 492 706T474 749Q474 774 491 791T533 808Z" />
<glyph unicode="&#x179;" glyph-name="Zacute" horiz-adv-x="616" d="M399 679L394 686L556 822L597 741L399 679ZM222 0L229 8Q284 16 338 31T431 70Q488 103 522 143T583 222H592Q590 215 584 198T569 158T550 110T531 63T515 23T505 0H222ZM143 0H-23L519 630H684L143
0ZM436 622Q398 618 357 607T269 570Q224 545 180 501T103 408H94Q96 414 102 431T117 472T135 522T153 571T167 610T174 630H440L436 622Z" />
<glyph unicode="&#x17a;" glyph-name="zacute" horiz-adv-x="446" d="M265 481L257 486L354 687L424 643L265 481ZM75 129Q107 129 135 121T204 101Q223 95 243 90T283 80T317 73T340 70Q363 70 383 80T415 114L421 111Q415 84 403 60T373 18T333 -11T282 -22Q256
-22 214 -11T123 14Q93 23 69 28T25 33Q6 33 -16 25T-55 -2L-61 1Q-55 23 -41 45T-9 86T32 117T75 129ZM174 447Q188 447 216 443T275 431Q319 420 346 416T384 412Q407 412 423 422T446 441L452 438Q440 406 410 372T341 321Q318 323 281 330T205 347Q170 355
144 361T96 368Q84 368 72 359T56 332L47 333Q48 355 60 375T90 412T130 437T174 447ZM337 158Q337 175 349 188T379 201Q396 201 409 188T422 158Q422 141 409 129T379 116Q362 116 350 128T337 158ZM64 306Q64 323 75 334T102 345Q119 345 130 334T141 306Q141
290 130 279T102 267Q86 267 75 278T64 306Z" />
<glyph unicode="&#x17b;" glyph-name="Zdotaccent" horiz-adv-x="616" d="M222 0L229 8Q284 16 338 31T431 70Q488 103 522 143T583 222H592Q590 215 584 198T569 158T550 110T531 63T515 23T505 0H222ZM143 0H-23L519 630H684L143 0ZM436 622Q398 618 357 607T269
570Q224 545 180 501T103 408H94Q96 414 102 431T117 472T135 522T153 571T167 610T174 630H440L436 622ZM398 756Q398 782 416 799T460 816Q486 816 504 799T523 756Q523 730 505 714T460 697Q434 697 416 713T398 756Z" />
<glyph unicode="&#x17c;" glyph-name="zdotaccent" horiz-adv-x="446" d="M75 129Q107 129 135 121T204 101Q223 95 243 90T283 80T317 73T340 70Q363 70 383 80T415 114L421 111Q415 84 403 60T373 18T333 -11T282 -22Q256 -22 214 -11T123 14Q93 23 69 28T25
33Q6 33 -16 25T-55 -2L-61 1Q-55 23 -41 45T-9 86T32 117T75 129ZM174 447Q188 447 216 443T275 431Q319 420 346 416T384 412Q407 412 423 422T446 441L452 438Q440 406 410 372T341 321Q318 323 281 330T205 347Q170 355 144 361T96 368Q84 368 72 359T56 332L47
333Q48 355 60 375T90 412T130 437T174 447ZM337 158Q337 175 349 188T379 201Q396 201 409 188T422 158Q422 141 409 129T379 116Q362 116 350 128T337 158ZM64 306Q64 323 75 334T102 345Q119 345 130 334T141 306Q141 290 130 279T102 267Q86 267 75 278T64
306ZM241 597Q241 623 259 639T303 656Q329 656 347 640T365 597Q365 571 347 554T303 537Q277 537 259 554T241 597Z" />
<glyph unicode="&#x17d;" glyph-name="Zcaron" horiz-adv-x="616" d="M597 812L437 679H433L350 812L355 816L450 758H452L594 816L597 812ZM222 0L229 8Q284 16 338 31T431 70Q488 103 522 143T583 222H592Q590 215 584 198T569 158T550 110T531 63T515 23T505
0H222ZM143 0H-23L519 630H684L143 0ZM436 622Q398 618 357 607T269 570Q224 545 180 501T103 408H94Q96 414 102 431T117 472T135 522T153 571T167 610T174 630H440L436 622Z" />
<glyph unicode="&#x17e;" glyph-name="zcaron" horiz-adv-x="446" d="M275 484H271L212 671L220 675L294 578H297L445 676L450 671L275 484ZM75 129Q107 129 135 121T204 101Q223 95 243 90T283 80T317 73T340 70Q363 70 383 80T415 114L421 111Q415 84 403 60T373
18T333 -11T282 -22Q256 -22 214 -11T123 14Q93 23 69 28T25 33Q6 33 -16 25T-55 -2L-61 1Q-55 23 -41 45T-9 86T32 117T75 129ZM174 447Q188 447 216 443T275 431Q319 420 346 416T384 412Q407 412 423 422T446 441L452 438Q440 406 410 372T341 321Q318 323 281
330T205 347Q170 355 144 361T96 368Q84 368 72 359T56 332L47 333Q48 355 60 375T90 412T130 437T174 447ZM337 158Q337 175 349 188T379 201Q396 201 409 188T422 158Q422 141 409 129T379 116Q362 116 350 128T337 158ZM64 306Q64 323 75 334T102 345Q119 345
130 334T141 306Q141 290 130 279T102 267Q86 267 75 278T64 306Z" />
<glyph unicode="&#x17f;" glyph-name="longs" horiz-adv-x="240" d="M94 403Q110 467 139 529T213 633Q248 664 294 682T389 704L387 698Q355 694 331 676T288 626T255 551T229 457Q224 438 220 418T209 370Q196 308 182 237T146 96T94 -38T19 -154Q-13 -194 -58
-215T-156 -241L-154 -235Q-112 -226 -74 -192T-15 -89Q1 -36 14 24T40 149T66 277T94 403ZM343 627Q343 653 360 670T403 688Q428 688 445 671T463 627Q463 602 446 585T403 567Q378 567 361 584T343 627ZM-224 -176Q-224 -156 -210 -141T-175 -126Q-155 -126
-140 -141T-125 -176Q-125 -196 -140 -210T-175 -225Q-195 -225 -209 -211T-224 -176Z" />
<glyph unicode="&#x192;" glyph-name="florin" horiz-adv-x="348" d="M35 -5Q50 47 59 81T75 147T91 210T114 290H52L56 298Q94 314 111 326T129 340Q141 379 161 414T209 476T273 522T355 544L354 538Q335 532 321 516T296 475T274 416T250 339H338L320 290H235Q223
250 215 221T198 164T179 106T155 35Q144 2 127 -30T84 -88T25 -133T-49 -155L-48 -149Q-34 -145 -24 -137T-4 -112T14 -71T35 -5ZM327 473Q327 494 342 509T379 525Q400 525 415 510T430 473Q430 452 415 437T379 422Q357 422 342 437T327 473ZM-123 -88Q-123
-69 -110 -56T-77 -43Q-58 -43 -45 -56T-31 -88Q-31 -108 -44 -121T-77 -135Q-96 -135 -109 -122T-123 -88Z" />
<glyph unicode="&#x1fa;" glyph-name="Aringacute" horiz-adv-x="603" d="M324 274L298 486L384 638H426L484 126Q490 66 509 40T574 8L571 0H256L259 8Q315 13 330 42T341 125L327 244H150L168 274H324ZM-88 0L-85 8Q-50 14 -20 29T35 67Q61 88 77 108T115 159L123
156Q115 141 109 120T103 76Q103 52 119 31T163 8L160 0H-88ZM342 844L337 851L499 987L540 906L342 844ZM326 752Q326 787 348 806T396 827V807Q390 807 382 804T366 795T353 779T348 752Q348 736 353 726T365 709T381 699T396 696V676Q370 678 348 697T326 752ZM488
752Q488 716 466 697T418 676V696Q424 696 432 699T447 708T460 725T466 752Q466 768 461 778T448 795T432 804T418 807V827Q444 825 466 806T488 752Z" />
<glyph unicode="&#x1fb;" glyph-name="aringacute" horiz-adv-x="446" d="M225 354Q211 337 190 302T149 227T115 152T101 95Q101 73 118 73Q125 73 134 78T152 92T169 109T185 127L190 123Q180 103 163 81T125 38T80 5T34 -8Q14 -8 -1 7T-16 51Q-16 87 5 130T61
215T136 295T219 359L225 354ZM337 76Q344 76 355 85T379 107T402 137T421 167L427 164Q418 135 399 105T354 50T300 8T245 -8Q223 -8 213 4T202 35Q202 48 208 78T226 138Q238 176 252 218T278 297L306 381Q300 384 289 384Q278 385 268 382T249 373L243 378Q251
384 263 391T290 406T320 417T348 424Q359 440 375 452T414 464Q439 464 439 448Q439 441 438 434T435 424Q430 411 418 376T392 296T362 207T337 129Q333 116 330 105T327 88Q327 80 330 78T337 76ZM246 828Q246 863 267 886T321 911V891Q299 889 284 875T268
828Q268 796 283 782T321 765V745Q289 747 268 769T246 828ZM418 828Q418 793 397 770T343 745V765Q364 767 380 781T396 828Q396 860 380 874T343 891V911Q375 909 396 887T418 828ZM280 678L275 685L437 821L478 740L280 678Z" />
<glyph unicode="&#x1fc;" glyph-name="AEacute" horiz-adv-x="849" d="M621 679L616 686L778 822L819 741L621 679ZM-101 0L-98 8Q-66 15 -37 28T15 56Q47 78 74 105T124 161L130 156Q119 141 108 118T97 72Q97 49 110 30T153 8L150 0H-101ZM449 0H223L226 8Q249
11 266 18T297 39T321 74T340 127L389 302H226L252 332H398L447 503Q454 526 456 540T458 567Q458 593 438 606T391 622L394 630H627L449 0ZM508 8Q553 11 594 27T672 68Q723 103 754 144T811 231H820L749 0H507L508 8ZM822 428Q822 476 817 510T798 568T756 604T682
623L684 630H874L830 428H822ZM605 322Q639 325 660 333T696 356T724 393T754 448H762L690 188H682Q682 219 681 241T672 279T648 302T603 314L605 322Z" />
<glyph unicode="&#x1fd;" glyph-name="aeacute" horiz-adv-x="532" d="M329 481L321 486L418 687L488 643L329 481ZM301 394Q263 371 228 339T165 268T121 188T104 103Q104 93 108 86T124 79Q140 79 161 93T193 124L199 120Q191 103 176 81T140 39T95 6T45 -8Q12
-8 -2 14T-16 65Q-16 113 12 162T86 255T187 338T298 401L301 394ZM449 440Q416 429 395 393T362 310T346 215T341 132Q341 106 350 87T383 68Q398 68 414 76T445 98T472 128T494 161L501 158Q492 132 476 103T436 49T382 8T314 -8Q284 -8 264 3T233 33T217 73T212
115Q212 171 229 228T279 332T354 410T451 447L449 440ZM365 231Q390 239 405 248T437 274Q448 284 456 300T469 334T476 372T479 409Q479 426 474 432T463 440L465 447Q506 445 529 429T553 383Q553 324 506 281T363 224L365 231Z" />
<glyph unicode="&#x1fe;" glyph-name="Oslashacute" horiz-adv-x="677" d="M669 372Q669 307 650 252T598 151T518 72T419 18Q390 7 357 0T293 -8L295 0Q329 8 360 34T417 98T463 183T498 280T521 379T529 472Q529 486 528 501T525 533L211 56Q225 18 264 2L262
-6Q222 1 188 20L131 -66L110 -52L167 34Q115 70 86 129T57 260Q57 321 74 374T122 472T194 551T285 606Q320 621 358 630T434 640L431 633Q396 629 366 604T309 540T262 452T227 352T205 251T197 161Q197 141 198 123T202 88L518 566Q512 586 499 604T462 630L464
638Q510 629 545 607L598 687L618 673L565 593Q614 556 641 498T669 372ZM393 679L388 686L550 822L591 741L393 679Z" />
<glyph unicode="&#x1ff;" glyph-name="oslashacute" horiz-adv-x="477" d="M300 440Q284 437 266 424Q239 403 216 364T175 277T148 180T135 87L341 394Q338 414 332 424T318 440L320 447Q350 444 372 435L417 500L435 488L391 424Q426 402 441 367T457 296Q457
237 437 185T380 91T291 23T175 -7L177 0Q188 2 200 8T224 25Q249 47 269 86T305 170T330 264T341 354L136 48Q138 27 144 16T159 0L157 -7Q128 -4 105 5L63 -56L44 -43L84 16Q49 39 35 74T20 144Q20 202 40 255T98 349T187 416T302 447L300 440ZM287 481L279 486L376
687L446 643L287 481Z" />
<glyph unicode="&#x218;" glyph-name="Scommaaccent" horiz-adv-x="482" d="M482 438Q483 469 476 500T453 558T418 603T373 629L376 638Q391 638 413 634T458 626T503 616T537 607L491 438H482ZM427 190Q427 138 408 102T357 42T282 7T192 -8L195 0Q237 6 265
33T293 111Q293 132 285 153T265 197T238 243T209 293Q192 322 180 343T160 384T147 422T143 466Q143 503 160 534T206 587T271 623T344 639L341 630Q309 625 293 601T276 547Q276 527 281 509T295 471T318 429T349 378Q364 352 378 329T403 284T420 239T427 190ZM155
-7Q135 -5 110 -2T62 6T19 15T-10 25L42 223H51Q49 192 56 158T77 92T111 36T159 2L155 -7ZM60 -108Q60 -76 81 -62T125 -48Q156 -48 174 -68T193 -123Q193 -149 179 -170T141 -209T88 -238T30 -256L27 -249Q47 -243 66 -235T101 -216T127 -190T141 -156Q130 -162
116 -162Q95 -162 78 -149T60 -108Z" />
<glyph unicode="&#x219;" glyph-name="scommaaccent" horiz-adv-x="306" d="M248 440Q222 436 204 420T186 371Q186 350 193 323T214 251Q228 210 236 184T244 136Q244 112 233 87T201 42T146 9T67 -8L69 -1Q100 4 117 19T134 66Q134 88 125 119T100 189Q74 257
74 304Q74 328 85 352T118 396T173 430T250 447L248 440ZM-42 68Q-42 91 -27 106T12 122Q35 122 50 107T66 68Q66 45 51 30T12 14Q-11 14 -26 29T-42 68ZM245 390Q245 411 259 425T294 440Q314 440 328 426T343 390Q343 370 329 356T294 342Q273 342 259 356T245
390ZM225 -108Q225 -76 246 -62T290 -48Q321 -48 339 -68T358 -123Q358 -149 344 -170T306 -209T253 -238T195 -256L192 -249Q212 -243 231 -235T266 -216T292 -190T306 -156Q295 -162 281 -162Q260 -162 243 -149T225 -108Z" />
<glyph unicode="&#x237;" glyph-name="uni0237" horiz-adv-x="238" d="M114 -12Q79 -102 15 -155T-142 -217L-140 -211Q-122 -205 -107 -193T-76 -160T-46 -108T-13 -33Q-3 -7 11 32T40 114T67 194T88 255Q105 304 112 327T119 363Q119 378 107 378Q99 378 90
371T72 353Q61 341 49 323T26 282L19 285Q28 315 44 344T82 396T129 433T182 447Q212 447 227 431T243 392Q243 365 233 330T205 246Q188 195 165 129T114 -12ZM-237 -148Q-237 -125 -221 -110T-182 -94Q-159 -94 -144 -109T-128 -148Q-128 -171 -143 -187T-182
-203Q-205 -203 -221 -187T-237 -148Z" />
<glyph unicode="&#x2c6;" glyph-name="circumflex" horiz-adv-x="271" d="M265 676H269L322 489L314 485L249 582H244L103 484L98 489L265 676Z" />
<glyph unicode="&#x2c7;" glyph-name="caron" horiz-adv-x="232" d="M164 484H160L101 671L109 675L183 578H186L334 676L339 671L164 484Z" />
<glyph unicode="&#x2d8;" glyph-name="breve" horiz-adv-x="274" d="M221 567Q266 567 299 591T346 657H357Q353 629 344 601T317 551T274 514T215 499Q167 499 146 526T124 590Q124 607 128 624T139 657H150Q144 619 161 593T221 567Z" />
<glyph unicode="&#x2d9;" glyph-name="dotaccent" horiz-adv-x="233" d="M139 597Q139 623 157 639T201 656Q227 656 245 640T263 597Q263 571 245 554T201 537Q175 537 157 554T139 597Z" />
<glyph unicode="&#x2da;" glyph-name="ring" horiz-adv-x="241" d="M123 579Q123 614 144 637T198 662V642Q176 640 161 626T145 579Q145 547 160 533T198 516V496Q166 498 145 520T123 579ZM295 579Q295 544 274 521T220 496V516Q241 518 257 532T273 579Q273
611 257 625T220 642V662Q252 660 273 638T295 579Z" />
<glyph unicode="&#x2db;" glyph-name="ogonek" horiz-adv-x="118" d="M98 -160Q90 -171 79 -184T54 -208T21 -226T-21 -234Q-56 -234 -79 -217T-102 -162Q-102 -140 -87 -118T-50 -77T-3 -43T42 -20H54Q43 -29 30 -40T6 -64T-13 -92T-21 -127Q-21 -149 -9 -161T30
-174Q48 -174 65 -168T93 -154L98 -160Z" />
<glyph unicode="&#x2dc;" glyph-name="tilde" horiz-adv-x="296" d="M410 641Q400 618 387 595T353 553Q336 536 315 530T274 524Q264 524 249 525T218 527T185 530T156 532Q137 532 119 526T81 498L76 502Q102 552 145 582Q180 607 222 607Q248 607 276 604T322
601Q345 601 365 609T402 644L410 641Z" />
<glyph unicode="&#x2dd;" glyph-name="hungarumlaut" horiz-adv-x="265" d="M79 482L73 487L188 680L241 636L79 482ZM205 482L198 487L314 680L366 636L205 482Z" />
</font>
</defs>
</svg>
